  0
SECTION
  2
HEADER
  9
$ACADVER
  1
AC1015
  9
$ACADMAINTVER
 70
     6
  9
$DWGCODEPAGE
  3
ASCII
  9
$INSBASE
 10
0.0
 20
0.0
 30
0.0
  9
$EXTMIN
 10
1.000000000000000E+20
 20
1.000000000000000E+20
 30
1.000000000000000E+20
  9
$EXTMAX
 10
-1.000000000000000E+20
 20
-1.000000000000000E+20
 30
-1.000000000000000E+20
  9
$LIMMIN
 10
0.0
 20
0.0
  9
$LIMMAX
 10
12.0
 20
9.0
  9
$ORTHOMODE
 70
     0
  9
$REGENMODE
 70
     1
  9
$FILLMODE
 70
     1
  9
$QTEXTMODE
 70
     0
  9
$MIRRTEXT
 70
     1
  9
$LTSCALE
 40
1.0
  9
$ATTMODE
 70
     1
  9
$TEXTSIZE
 40
0.2
  9
$TRACEWID
 40
0.05
  9
$TEXTSTYLE
  7
Standard
  9
$CLAYER
  8
0
  9
$CELTYPE
  6
ByLayer
  9
$CECOLOR
 62
   256
  9
$CELTSCALE
 40
1.0
  9
$DISPSILH
 70
     0
  9
$DIMSCALE
 40
1.0
  9
$DIMASZ
 40
0.18
  9
$DIMEXO
 40
0.0625
  9
$DIMDLI
 40
0.38
  9
$DIMRND
 40
0.0
  9
$DIMDLE
 40
0.0
  9
$DIMEXE
 40
0.18
  9
$DIMTP
 40
0.0
  9
$DIMTM
 40
0.0
  9
$DIMTXT
 40
0.18
  9
$DIMCEN
 40
0.09
  9
$DIMTSZ
 40
0.0
  9
$DIMTOL
 70
     0
  9
$DIMLIM
 70
     0
  9
$DIMTIH
 70
     1
  9
$DIMTOH
 70
     1
  9
$DIMSE1
 70
     0
  9
$DIMSE2
 70
     0
  9
$DIMTAD
 70
     0
  9
$DIMZIN
 70
     0
  9
$DIMBLK
  1

  9
$DIMASO
 70
     1
  9
$DIMSHO
 70
     1
  9
$DIMPOST
  1

  9
$DIMAPOST
  1

  9
$DIMALT
 70
     0
  9
$DIMALTD
 70
     2
  9
$DIMALTF
 40
25.4
  9
$DIMLFAC
 40
1.0
  9
$DIMTOFL
 70
     0
  9
$DIMTVP
 40
0.0
  9
$DIMTIX
 70
     0
  9
$DIMSOXD
 70
     0
  9
$DIMSAH
 70
     0
  9
$DIMBLK1
  1

  9
$DIMBLK2
  1

  9
$DIMSTYLE
  2
Standard
  9
$DIMCLRD
 70
     0
  9
$DIMCLRE
 70
     0
  9
$DIMCLRT
 70
     0
  9
$DIMTFAC
 40
1.0
  9
$DIMGAP
 40
0.09
  9
$DIMJUST
 70
     0
  9
$DIMSD1
 70
     0
  9
$DIMSD2
 70
     0
  9
$DIMTOLJ
 70
     1
  9
$DIMTZIN
 70
     0
  9
$DIMALTZ
 70
     0
  9
$DIMALTTZ
 70
     0
  9
$DIMUPT
 70
     0
  9
$DIMDEC
 70
     4
  9
$DIMTDEC
 70
     4
  9
$DIMALTU
 70
     2
  9
$DIMALTTD
 70
     2
  9
$DIMTXSTY
  7
Standard
  9
$DIMAUNIT
 70
     0
  9
$DIMADEC
 70
     0
  9
$DIMALTRND
 40
0.0
  9
$DIMAZIN
 70
     0
  9
$DIMDSEP
 70
    46
  9
$DIMATFIT
 70
     3
  9
$DIMFRAC
 70
     0
  9
$DIMLDRBLK
  1

  9
$DIMLUNIT
 70
     2
  9
$DIMLWD
 70
    -2
  9
$DIMLWE
 70
    -2
  9
$DIMTMOVE
 70
     0
  9
$LUNITS
 70
     2
  9
$LUPREC
 70
     4
  9
$SKETCHINC
 40
0.1
  9
$FILLETRAD
 40
0.5
  9
$AUNITS
 70
     0
  9
$AUPREC
 70
     0
  9
$MENU
  1
.
  9
$ELEVATION
 40
0.0
  9
$PELEVATION
 40
0.0
  9
$THICKNESS
 40
0.0
  9
$LIMCHECK
 70
     0
  9
$CHAMFERA
 40
0.5
  9
$CHAMFERB
 40
0.5
  9
$CHAMFERC
 40
1.0
  9
$CHAMFERD
 40
0.0
  9
$SKPOLY
 70
     0
  9
$TDCREATE
 40
2456040.667384259
  9
$TDUCREATE
 40
2456040.250717592
  9
$TDUPDATE
 40
2456040.667384271
  9
$TDUUPDATE
 40
2456040.250717604
  9
$TDINDWG
 40
0.0000000116
  9
$TDUSRTIMER
 40
0.0000000116
  9
$USRTIMER
 70
     1
  9
$ANGBASE
 50
0.0
  9
$ANGDIR
 70
     0
  9
$PDMODE
 70
     0
  9
$PDSIZE
 40
0.0
  9
$PLINEWID
 40
0.0
  9
$SPLFRAME
 70
     0
  9
$SPLINETYPE
 70
     6
  9
$SPLINESEGS
 70
     8
  9
$HANDSEED
  5
197
  9
$SURFTAB1
 70
     6
  9
$SURFTAB2
 70
     6
  9
$SURFTYPE
 70
     6
  9
$SURFU
 70
     6
  9
$SURFV
 70
     6
  9
$UCSBASE
  2

  9
$UCSNAME
  2

  9
$UCSORG
 10
0.0
 20
0.0
 30
0.0
  9
$UCSXDIR
 10
1.0
 20
0.0
 30
0.0
  9
$UCSYDIR
 10
0.0
 20
1.0
 30
0.0
  9
$UCSORTHOREF
  2

  9
$UCSORTHOVIEW
 70
     0
  9
$UCSORGTOP
 10
0.0
 20
0.0
 30
0.0
  9
$UCSORGBOTTOM
 10
0.0
 20
0.0
 30
0.0
  9
$UCSORGLEFT
 10
0.0
 20
0.0
 30
0.0
  9
$UCSORGRIGHT
 10
0.0
 20
0.0
 30
0.0
  9
$UCSORGFRONT
 10
0.0
 20
0.0
 30
0.0
  9
$UCSORGBACK
 10
0.0
 20
0.0
 30
0.0
  9
$PUCSBASE
  2

  9
$PUCSNAME
  2

  9
$PUCSORG
 10
0.0
 20
0.0
 30
0.0
  9
$PUCSXDIR
 10
1.0
 20
0.0
 30
0.0
  9
$PUCSYDIR
 10
0.0
 20
1.0
 30
0.0
  9
$PUCSORTHOREF
  2

  9
$PUCSORTHOVIEW
 70
     0
  9
$PUCSORGTOP
 10
0.0
 20
0.0
 30
0.0
  9
$PUCSORGBOTTOM
 10
0.0
 20
0.0
 30
0.0
  9
$PUCSORGLEFT
 10
0.0
 20
0.0
 30
0.0
  9
$PUCSORGRIGHT
 10
0.0
 20
0.0
 30
0.0
  9
$PUCSORGFRONT
 10
0.0
 20
0.0
 30
0.0
  9
$PUCSORGBACK
 10
0.0
 20
0.0
 30
0.0
  9
$USERI1
 70
     0
  9
$USERI2
 70
     0
  9
$USERI3
 70
     0
  9
$USERI4
 70
     0
  9
$USERI5
 70
     0
  9
$USERR1
 40
0.0
  9
$USERR2
 40
0.0
  9
$USERR3
 40
0.0
  9
$USERR4
 40
0.0
  9
$USERR5
 40
0.0
  9
$WORLDVIEW
 70
     1
  9
$SHADEDGE
 70
     3
  9
$SHADEDIF
 70
    70
  9
$TILEMODE
 70
     1
  9
$MAXACTVP
 70
    64
  9
$PINSBASE
 10
0.0
 20
0.0
 30
0.0
  9
$PLIMCHECK
 70
     0
  9
$PEXTMIN
 10
1.000000000000000E+20
 20
1.000000000000000E+20
 30
1.000000000000000E+20
  9
$PEXTMAX
 10
-1.000000000000000E+20
 20
-1.000000000000000E+20
 30
-1.000000000000000E+20
  9
$PLIMMIN
 10
0.0
 20
0.0
  9
$PLIMMAX
 10
12.0
 20
9.0
  9
$UNITMODE
 70
     0
  9
$VISRETAIN
 70
     1
  9
$PLINEGEN
 70
     0
  9
$PSLTSCALE
 70
     1
  9
$TREEDEPTH
 70
  3020
  9
$CMLSTYLE
  2
Standard
  9
$CMLJUST
 70
     0
  9
$CMLSCALE
 40
1.0
  9
$PROXYGRAPHICS
 70
     1
  9
$MEASUREMENT
 70
     0
  9
$CELWEIGHT
370
    -1
  9
$ENDCAPS
280
     0
  9
$JOINSTYLE
280
     0
  9
$LWDISPLAY
290
     1
  9
$INSUNITS
 70
     1
  9
$HYPERLINKBASE
  1

  9
$STYLESHEET
  1

  9
$XEDIT
290
     1
  9
$CEPSNTYPE
380
     0
  9
$PSTYLEMODE
290
     1
  9
$FINGERPRINTGUID
  2
{EA3C1281-0803-8504-C1BC-9247BD710B5F}
  9
$VERSIONGUID
  2
{FAEB1C32-E019-11D5-929B-00C0DF256EC4}
  9
$EXTNAMES
290
     1
  9
$PSVPSCALE
 40
0.0
  9
$OLESTARTUP
290
     0
  0
ENDSEC
  0
SECTION
  2
CLASSES
  0
CLASS
  1
ACDBDICTIONARYWDFLT
  2
AcDbDictionaryWithDefault
  3
ObjectDBX Classes
 90
        0
280
     0
281
     0
  0
CLASS
  1
VISUALSTYLE
  2
AcDbVisualStyle
  3
ObjectDBX Classes
 90
     4095
280
     0
281
     0
  0
CLASS
  1
ACDBPLACEHOLDER
  2
AcDbPlaceHolder
  3
ObjectDBX Classes
 90
        0
280
     0
281
     0
  0
CLASS
  1
LAYOUT
  2
AcDbLayout
  3
ObjectDBX Classes
 90
        0
280
     0
281
     0
  0
ENDSEC
  0
SECTION
  2
TABLES
  0
TABLE
  2
VPORT
  5
8
330
0
100
AcDbSymbolTable
 70
     1
  0
VPORT
  5
29
330
8
100
AcDbSymbolTableRecord
100
AcDbViewportTableRecord
  2
*Active
 70
     0
 10
0.0
 20
0.0
 11
1.0
 21
1.0
 12
0.0
 22
0.0
 13
0.0
 23
0.0
 14
0.5
 24
0.5
 15
0.5
 25
0.5
 16
0.0
 26
0.0
 36
1.0
 17
108.6377126995639
 27
143.1134088555941
 37
0.0
 40
160.8552695679524
 41
1.312228908227209
 42
50.0
 43
0.0
 44
0.0
 50
0.0
 51
0.0
 71
     0
 72
   100
 73
     1
 74
     3
 75
     0
 76
     0
 77
     0
 78
     0
281
     0
 65
     1
110
0.0
120
0.0
130
0.0
111
1.0
121
0.0
131
0.0
112
0.0
122
1.0
132
0.0
 79
     0
146
0.0
  0
ENDTAB
  0
TABLE
  2
LTYPE
  5
5
330
0
100
AcDbSymbolTable
 70
     1
  0
LTYPE
  5
14
330
5
100
AcDbSymbolTableRecord
100
AcDbLinetypeTableRecord
  2
ByBlock
 70
     0
  3

 72
    65
 73
     0
 40
0.0
  0
LTYPE
  5
15
330
5
100
AcDbSymbolTableRecord
100
AcDbLinetypeTableRecord
  2
ByLayer
 70
     0
  3

 72
    65
 73
     0
 40
0.0
  0
LTYPE
  5
16
330
5
100
AcDbSymbolTableRecord
100
AcDbLinetypeTableRecord
  2
Continuous
 70
     0
  3
Solid line
 72
    65
 73
     0
 40
0.0
  0
ENDTAB
  0
TABLE
  2
LAYER
  5
2
330
0
100
AcDbSymbolTable
 70
     4
  0
LAYER
  5
10
330
2
100
AcDbSymbolTableRecord
100
AcDbLayerTableRecord
  2
0
 70
     0
 62
     7
  6
Continuous
370
    -3
390
F
  0
LAYER
  5
3B
330
2
100
AcDbSymbolTableRecord
100
AcDbLayerTableRecord
  2
Layer 1
 70
     4
 62
     7
  6
Continuous
370
    -3
390
F
  0
LAYER
  5
3C
330
2
100
AcDbSymbolTableRecord
100
AcDbLayerTableRecord
  2
Layer 2
 70
     0
 62
     7
  6
Continuous
370
    -3
390
F
  0
LAYER
  5
11D
330
2
100
AcDbSymbolTableRecord
100
AcDbLayerTableRecord
  2
Layer 3
 70
     0
 62
     7
  6
Continuous
370
    -3
390
F
  0
ENDTAB
  0
TABLE
  2
STYLE
  5
3
330
0
100
AcDbSymbolTable
 70
     1
  0
STYLE
  5
11
330
3
100
AcDbSymbolTableRecord
100
AcDbTextStyleTableRecord
  2
Standard
 70
     0
 40
0.0
 41
1.0
 50
0.0
 71
     0
 42
0.2
  3
txt
  4

  0
ENDTAB
  0
TABLE
  2
VIEW
  5
6
330
0
100
AcDbSymbolTable
 70
     0
  0
ENDTAB
  0
TABLE
  2
UCS
  5
7
330
0
100
AcDbSymbolTable
 70
     0
  0
ENDTAB
  0
TABLE
  2
APPID
  5
9
330
0
100
AcDbSymbolTable
 70
     1
  0
APPID
  5
12
330
9
100
AcDbSymbolTableRecord
100
AcDbRegAppTableRecord
  2
ACAD
 70
     0
  0
ENDTAB
  0
TABLE
  2
DIMSTYLE
  5
A
330
0
100
AcDbSymbolTable
 70
     1
100
AcDbDimStyleTable
  0
DIMSTYLE
105
27
330
A
100
AcDbSymbolTableRecord
100
AcDbDimStyleTableRecord
  2
Standard
 70
     0
340
11
  0
ENDTAB
  0
TABLE
  2
BLOCK_RECORD
  5
1
330
0
100
AcDbSymbolTable
 70
     1
  0
BLOCK_RECORD
  5
1F
330
1
100
AcDbSymbolTableRecord
100
AcDbBlockTableRecord
  2
*Model_Space
340
22
  0
BLOCK_RECORD
  5
1B
330
1
100
AcDbSymbolTableRecord
100
AcDbBlockTableRecord
  2
*Paper_Space
340
1E
  0
BLOCK_RECORD
  5
23
330
1
100
AcDbSymbolTableRecord
100
AcDbBlockTableRecord
  2
*Paper_Space0
340
26
  0
ENDTAB
  0
ENDSEC
  0
SECTION
  2
BLOCKS
  0
BLOCK
  5
20
330
1F
100
AcDbEntity
  8
0
100
AcDbBlockBegin
  2
*Model_Space
 70
     0
 71
     0
 10
0.0
 20
0.0
 30
0.0
  3
*Model_Space
  1

  0
ENDBLK
  5
21
330
1F
100
AcDbEntity
  8
0
100
AcDbBlockEnd
  0
BLOCK
  5
1C
330
1B
100
AcDbEntity
 67
     1
  8
0
100
AcDbBlockBegin
  2
*Paper_Space
 70
     0
 71
     0
 10
0.0
 20
0.0
 30
0.0
  3
*Paper_Space
  1

  0
ENDBLK
  5
1D
330
1B
100
AcDbEntity
 67
     1
  8
0
100
AcDbBlockEnd
  0
BLOCK
  5
24
330
23
100
AcDbEntity
  8
0
100
AcDbBlockBegin
  2
*Paper_Space0
 70
     0
 71
     0
 10
0.0
 20
0.0
 30
0.0
  3
*Paper_Space0
  1

  0
ENDBLK
  5
25
330
23
100
AcDbEntity
  8
0
100
AcDbBlockEnd
  0
ENDSEC
  0
SECTION
  2
ENTITIES
  0
POLYLINE
  5
3D
330
1F
100
AcDbEntity
  8
Layer 2
 62
     1
370
    35
100
AcDb2dPolyline
 66
     1
 10
0.0
 20
0.0
 30
0.0
  0
VERTEX
  5
3E
330
3D
100
AcDbEntity
  8
Layer 2
 62
     1
370
    35
100
AcDbVertex
100
AcDb2dVertex
 10
74.33487432353935
 20
215.3351463418437
 30
0.0
  0
VERTEX
  5
3F
330
3D
100
AcDbEntity
  8
Layer 2
 62
     1
370
    35
100
AcDbVertex
100
AcDb2dVertex
 10
74.33487432353935
 20
200.5024501998276
 30
0.0
  0
VERTEX
  5
40
330
3D
100
AcDbEntity
  8
Layer 2
 62
     1
370
    35
100
AcDbVertex
100
AcDb2dVertex
 10
77.68988277513034
 20
200.5024501998276
 30
0.0
  0
VERTEX
  5
41
330
3D
100
AcDbEntity
  8
Layer 2
 62
     1
370
    35
100
AcDbVertex
100
AcDb2dVertex
 10
77.68988277513034
 20
206.4178553051357
 30
0.0
  0
VERTEX
  5
42
330
3D
100
AcDbEntity
  8
Layer 2
 62
     1
370
    35
100
AcDbVertex
100
AcDb2dVertex
 10
78.13137205281313
 20
206.4178553051357
 30
0.0
  0
VERTEX
  5
43
330
3D
100
AcDbEntity
  8
Layer 2
 62
     1
370
    35
100
AcDbVertex
100
AcDb2dVertex
 10
78.13137205281313
 20
200.5908169573193
 30
0.0
  0
VERTEX
  5
44
330
3D
100
AcDbEntity
  8
Layer 2
 62
     1
370
    35
100
AcDbVertex
100
AcDb2dVertex
 10
79.8971569086564
 20
200.5908169573193
 30
0.0
  0
VERTEX
  5
45
330
3D
100
AcDbEntity
  8
Layer 2
 62
     1
370
    35
100
AcDbVertex
100
AcDb2dVertex
 10
79.8971569086564
 20
199.7078384019537
 30
0.0
  0
VERTEX
  5
46
330
3D
100
AcDbEntity
  8
Layer 2
 62
     1
370
    35
100
AcDbVertex
100
AcDb2dVertex
 10
74.51143558363489
 20
199.7078384019537
 30
0.0
  0
VERTEX
  5
47
330
3D
100
AcDbEntity
  8
Layer 2
 62
     1
370
    35
100
AcDbVertex
100
AcDb2dVertex
 10
74.51143558363489
 20
193.9689945567411
 30
0.0
  0
VERTEX
  5
48
330
3D
100
AcDbEntity
  8
Layer 2
 62
     1
370
    35
100
AcDbVertex
100
AcDb2dVertex
 10
72.48089496509228
 20
193.9689945567411
 30
0.0
  0
VERTEX
  5
49
330
3D
100
AcDbEntity
  8
Layer 2
 62
     1
370
    35
100
AcDbVertex
100
AcDb2dVertex
 10
72.48089496509228
 20
212.9514832031101
 30
0.0
  0
VERTEX
  5
4A
330
3D
100
AcDbEntity
  8
Layer 2
 62
     1
370
    35
100
AcDbVertex
100
AcDb2dVertex
 10
22.68493520685033
 20
212.9514832031101
 30
0.0
  0
VERTEX
  5
4B
330
3D
100
AcDbEntity
  8
Layer 2
 62
     1
370
    35
100
AcDbVertex
100
AcDb2dVertex
 10
22.68493520685033
 20
187.9655672037171
 30
0.0
  0
VERTEX
  5
4C
330
3D
100
AcDbEntity
  8
Layer 2
 62
     1
370
    35
100
AcDbVertex
100
AcDb2dVertex
 10
74.33418530398777
 20
187.9655672037171
 30
0.0
  0
VERTEX
  5
4D
330
3D
100
AcDbEntity
  8
Layer 2
 62
     1
370
    35
100
AcDbVertex
100
AcDb2dVertex
 10
74.33418530398777
 20
186.7294661281605
 30
0.0
  0
VERTEX
  5
4E
330
3D
100
AcDbEntity
  8
Layer 2
 62
     1
370
    35
100
AcDbVertex
100
AcDb2dVertex
 10
72.65676720563621
 20
186.7294661281605
 30
0.0
  0
VERTEX
  5
4F
330
3D
100
AcDbEntity
  8
Layer 2
 62
     1
370
    35
100
AcDbVertex
100
AcDb2dVertex
 10
72.65676720563621
 20
175.6932677154181
 30
0.0
  0
VERTEX
  5
50
330
3D
100
AcDbEntity
  8
Layer 2
 62
     1
370
    35
100
AcDbVertex
100
AcDb2dVertex
 10
73.98106278379669
 20
175.6932677154181
 30
0.0
  0
VERTEX
  5
51
330
3D
100
AcDbEntity
  8
Layer 2
 62
     1
370
    35
100
AcDbVertex
100
AcDb2dVertex
 10
73.98106278379669
 20
174.8986559175442
 30
0.0
  0
VERTEX
  5
52
330
3D
100
AcDbEntity
  8
Layer 2
 62
     1
370
    35
100
AcDbVertex
100
AcDb2dVertex
 10
52.96820577377306
 20
174.8986559175442
 30
0.0
  0
VERTEX
  5
53
330
3D
100
AcDbEntity
  8
Layer 2
 62
     1
370
    35
100
AcDbVertex
100
AcDb2dVertex
 10
52.96820577377306
 20
185.7582930701911
 30
0.0
  0
VERTEX
  5
54
330
3D
100
AcDbEntity
  8
Layer 2
 62
     1
370
    35
100
AcDbVertex
100
AcDb2dVertex
 10
38.75356016953523
 20
185.7582930701911
 30
0.0
  0
VERTEX
  5
55
330
3D
100
AcDbEntity
  8
Layer 2
 62
     1
370
    35
100
AcDbVertex
100
AcDb2dVertex
 10
38.75356016953523
 20
187.1709554058432
 30
0.0
  0
VERTEX
  5
56
330
3D
100
AcDbEntity
  8
Layer 2
 62
     1
370
    35
100
AcDbVertex
100
AcDb2dVertex
 10
22.77312970945415
 20
187.1709554058432
 30
0.0
  0
VERTEX
  5
57
330
3D
100
AcDbEntity
  8
Layer 2
 62
     1
370
    35
100
AcDbVertex
100
AcDb2dVertex
 10
22.77312970945415
 20
176.9293687909747
 30
0.0
  0
VERTEX
  5
58
330
3D
100
AcDbEntity
  8
Layer 2
 62
     1
370
    35
100
AcDbVertex
100
AcDb2dVertex
 10
41.84381285842687
 20
176.9293687909747
 30
0.0
  0
VERTEX
  5
59
330
3D
100
AcDbEntity
  8
Layer 2
 62
     1
370
    35
100
AcDbVertex
100
AcDb2dVertex
 10
41.84381285842687
 20
180.7258665202485
 30
0.0
  0
VERTEX
  5
5A
330
3D
100
AcDbEntity
  8
Layer 2
 62
     1
370
    35
100
AcDbVertex
100
AcDb2dVertex
 10
48.46546300411713
 20
180.7258665202485
 30
0.0
  0
VERTEX
  5
5B
330
3D
100
AcDbEntity
  8
Layer 2
 62
     1
370
    35
100
AcDbVertex
100
AcDb2dVertex
 10
48.46546300411713
 20
182.3150901159962
 30
0.0
  0
VERTEX
  5
5C
330
3D
100
AcDbEntity
  8
Layer 2
 62
     1
370
    35
100
AcDbVertex
100
AcDb2dVertex
 10
49.08351354189546
 20
182.3150901159962
 30
0.0
  0
VERTEX
  5
5D
330
3D
100
AcDbEntity
  8
Layer 2
 62
     1
370
    35
100
AcDbVertex
100
AcDb2dVertex
 10
49.08351354189546
 20
175.6932677154181
 30
0.0
  0
VERTEX
  5
5E
330
3D
100
AcDbEntity
  8
Layer 2
 62
     1
370
    35
100
AcDbVertex
100
AcDb2dVertex
 10
49.61319732218207
 20
175.6932677154181
 30
0.0
  0
VERTEX
  5
5F
330
3D
100
AcDbEntity
  8
Layer 2
 62
     1
370
    35
100
AcDbVertex
100
AcDb2dVertex
 10
49.61319732218207
 20
175.1635839351315
 30
0.0
  0
VERTEX
  5
60
330
3D
100
AcDbEntity
  8
Layer 2
 62
     1
370
    35
100
AcDbVertex
100
AcDb2dVertex
 10
22.59656844935861
 20
175.1635839351315
 30
0.0
  0
VERTEX
  5
61
330
3D
100
AcDbEntity
  8
Layer 2
 62
     1
370
    35
100
AcDbVertex
100
AcDb2dVertex
 10
22.59656844935861
 20
171.985136743636
 30
0.0
  0
VERTEX
  5
62
330
3D
100
AcDbEntity
  8
Layer 2
 62
     1
370
    35
100
AcDbVertex
100
AcDb2dVertex
 10
21.27227287119814
 20
171.985136743636
 30
0.0
  0
VERTEX
  5
63
330
3D
100
AcDbEntity
  8
Layer 2
 62
     1
370
    35
100
AcDbVertex
100
AcDb2dVertex
 10
21.27227287119814
 20
215.0703905791444
 30
0.0
  0
VERTEX
  5
64
330
3D
100
AcDbEntity
  8
Layer 2
 62
     1
370
    35
100
AcDbVertex
100
AcDb2dVertex
 10
22.68493520685033
 20
215.0703905791444
 30
0.0
  0
VERTEX
  5
65
330
3D
100
AcDbEntity
  8
Layer 2
 62
     1
370
    35
100
AcDbVertex
100
AcDb2dVertex
 10
22.68493520685033
 20
213.9226562610795
 30
0.0
  0
VERTEX
  5
66
330
3D
100
AcDbEntity
  8
Layer 2
 62
     1
370
    35
100
AcDbVertex
100
AcDb2dVertex
 10
46.52311688817834
 20
213.9226562610795
 30
0.0
  0
VERTEX
  5
67
330
3D
100
AcDbEntity
  8
Layer 2
 62
     1
370
    35
100
AcDbVertex
100
AcDb2dVertex
 10
46.52311688817834
 20
215.2469518392399
 30
0.0
  0
VERTEX
  5
68
330
3D
100
AcDbEntity
  8
Layer 2
 62
     1
370
    35
100
AcDbVertex
100
AcDb2dVertex
 10
48.46546300411713
 20
215.2469518392399
 30
0.0
  0
VERTEX
  5
69
330
3D
100
AcDbEntity
  8
Layer 2
 62
     1
370
    35
100
AcDbVertex
100
AcDb2dVertex
 10
48.46546300411713
 20
214.0108507636833
 30
0.0
  0
VERTEX
  5
6A
330
3D
100
AcDbEntity
  8
Layer 2
 62
     1
370
    35
100
AcDbVertex
100
AcDb2dVertex
 10
72.65676720563621
 20
214.0108507636833
 30
0.0
  0
VERTEX
  5
6B
330
3D
100
AcDbEntity
  8
Layer 2
 62
     1
370
    35
100
AcDbVertex
100
AcDb2dVertex
 10
72.65676720563621
 20
215.2469518392399
 30
0.0
  0
VERTEX
  5
6C
330
3D
100
AcDbEntity
  8
Layer 2
 62
     1
370
    35
100
AcDbVertex
100
AcDb2dVertex
 10
74.33487432353935
 20
215.3351463418437
 30
0.0
  0
SEQEND
  5
6D
330
3D
100
AcDbEntity
  8
Layer 2
370
    35
  0
SPLINE
  5
6E
330
1F
100
AcDbEntity
  8
Layer 2
 62
     1
370
    35
100
AcDbSpline
210
0.0
220
0.0
230
1.0
 70
    11
 71
     3
 72
   140
 73
   136
 74
     0
 42
0.0000000001
 43
0.0000000001
 40
0.0
 40
0.0
 40
0.0
 40
0.0
 40
1.0
 40
1.0
 40
1.0
 40
2.0
 40
2.0
 40
2.0
 40
3.0
 40
3.0
 40
3.0
 40
4.0
 40
4.0
 40
4.0
 40
5.0
 40
5.0
 40
5.0
 40
6.0
 40
6.0
 40
6.0
 40
7.0
 40
7.0
 40
7.0
 40
8.0
 40
8.0
 40
8.0
 40
9.0
 40
9.0
 40
9.0
 40
10.0
 40
10.0
 40
10.0
 40
11.0
 40
11.0
 40
11.0
 40
12.0
 40
12.0
 40
12.0
 40
13.0
 40
13.0
 40
13.0
 40
14.0
 40
14.0
 40
14.0
 40
15.0
 40
15.0
 40
15.0
 40
16.0
 40
16.0
 40
16.0
 40
17.0
 40
17.0
 40
17.0
 40
18.0
 40
18.0
 40
18.0
 40
19.0
 40
19.0
 40
19.0
 40
20.0
 40
20.0
 40
20.0
 40
21.0
 40
21.0
 40
21.0
 40
22.0
 40
22.0
 40
22.0
 40
23.0
 40
23.0
 40
23.0
 40
24.0
 40
24.0
 40
24.0
 40
25.0
 40
25.0
 40
25.0
 40
26.0
 40
26.0
 40
26.0
 40
27.0
 40
27.0
 40
27.0
 40
28.0
 40
28.0
 40
28.0
 40
29.0
 40
29.0
 40
29.0
 40
30.0
 40
30.0
 40
30.0
 40
31.0
 40
31.0
 40
31.0
 40
32.0
 40
32.0
 40
32.0
 40
33.0
 40
33.0
 40
33.0
 40
34.0
 40
34.0
 40
34.0
 40
35.0
 40
35.0
 40
35.0
 40
36.0
 40
36.0
 40
36.0
 40
37.0
 40
37.0
 40
37.0
 40
38.0
 40
38.0
 40
38.0
 40
39.0
 40
39.0
 40
39.0
 40
40.0
 40
40.0
 40
40.0
 40
41.0
 40
41.0
 40
41.0
 40
42.0
 40
42.0
 40
42.0
 40
43.0
 40
43.0
 40
43.0
 40
44.0
 40
44.0
 40
44.0
 40
45.0
 40
45.0
 40
45.0
 40
45.0
 10
74.42237980659158
 20
75.92719850726924
 30
0.0
 10
74.42237980659158
 20
75.92719850726924
 30
0.0
 10
72.74478945335214
 20
75.92719850726924
 30
0.0
 10
72.74478945335214
 20
75.92719850726924
 30
0.0
 10
72.74478945335214
 20
75.92719850726924
 30
0.0
 10
72.74478945335214
 20
96.49891074938587
 30
0.0
 10
72.74478945335214
 20
96.49891074938587
 30
0.0
 10
72.74478945335214
 20
96.49891074938587
 30
0.0
 10
22.50820169186689
 20
96.49891074938587
 30
0.0
 10
22.50820169186689
 20
96.49891074938587
 30
0.0
 10
22.50820169186689
 20
96.49891074938587
 30
0.0
 10
22.50820169186689
 20
71.866117270184
 30
0.0
 10
22.50820169186689
 20
71.866117270184
 30
0.0
 10
22.50820169186689
 20
71.866117270184
 30
0.0
 10
74.33401304909987
 20
71.866117270184
 30
0.0
 10
74.33401304909987
 20
71.866117270184
 30
0.0
 10
74.33401304909987
 20
71.866117270184
 30
0.0
 10
74.33401304909987
 20
69.04079259887962
 30
0.0
 10
74.33401304909987
 20
69.04079259887962
 30
0.0
 10
74.33401304909987
 20
69.04079259887962
 30
0.0
 10
72.74478945335214
 20
69.04079259887962
 30
0.0
 10
72.74478945335214
 20
69.04079259887962
 30
0.0
 10
72.74478945335214
 20
69.04079259887962
 30
0.0
 10
72.74478945335214
 20
70.45328267964392
 30
0.0
 10
72.74478945335214
 20
70.45328267964392
 30
0.0
 10
72.74478945335214
 20
70.45328267964392
 30
0.0
 10
48.55348525183306
 20
70.45328267964392
 30
0.0
 10
48.55348525183306
 20
70.45328267964392
 30
0.0
 10
48.55348525183306
 20
70.45328267964392
 30
0.0
 10
48.55348525183306
 20
68.86440359367198
 30
0.0
 10
48.55348525183306
 20
68.86440359367198
 30
0.0
 10
48.55348525183306
 20
68.86440359367198
 30
0.0
 10
46.61113913589426
 20
68.86440359367198
 30
0.0
 10
46.61113913589426
 20
68.86440359367198
 30
0.0
 10
46.61113913589426
 20
68.86440359367198
 30
0.0
 10
46.61113913589426
 20
70.27689367443628
 30
0.0
 10
46.61113913589426
 20
70.27689367443628
 30
0.0
 10
46.61113913589426
 20
70.27689367443628
 30
0.0
 10
22.77295745456625
 20
70.27689367443628
 30
0.0
 10
22.77295745456625
 20
70.27689367443628
 30
0.0
 10
22.77295745456625
 20
70.27689367443628
 30
0.0
 10
22.77295745456625
 20
69.12898710148345
 30
0.0
 10
22.77295745456625
 20
69.12898710148345
 30
0.0
 10
22.77295745456625
 20
69.12898710148345
 30
0.0
 10
21.00717259872299
 20
69.12898710148345
 30
0.0
 10
21.00717259872299
 20
69.12898710148345
 30
0.0
 10
21.00717259872299
 20
69.12898710148345
 30
0.0
 10
21.00717259872299
 20
97.47008380735528
 30
0.0
 10
21.00717259872299
 20
97.47008380735528
 30
0.0
 10
21.00717259872299
 20
97.47008380735528
 30
0.0
 10
21.44866187640578
 20
97.47008380735528
 30
0.0
 10
21.44866187640578
 20
97.47008380735528
 30
0.0
 10
21.44866187640578
 20
97.47008380735528
 30
0.0
 10
21.44866187640578
 20
108.5061099652097
 30
0.0
 10
21.44866187640578
 20
108.5061099652097
 30
0.0
 10
21.44866187640578
 20
108.5061099652097
 30
0.0
 10
20.30092755834084
 20
108.5061099652097
 30
0.0
 10
20.30092755834084
 20
108.5061099652097
 30
0.0
 10
20.30092755834084
 20
108.5061099652097
 30
0.0
 10
20.30092755834084
 20
112.832463729658
 30
0.0
 10
20.30092755834084
 20
112.832463729658
 30
0.0
 10
20.30092755834084
 20
112.832463729658
 30
0.0
 10
22.41983493437518
 20
112.832463729658
 30
0.0
 10
22.41983493437518
 20
112.832463729658
 30
0.0
 10
22.41983493437518
 20
112.832463729658
 30
0.0
 10
22.41983493437518
 20
110.9783121163231
 30
0.0
 10
22.41983493437518
 20
110.9783121163231
 30
0.0
 10
22.41983493437518
 20
110.9783121163231
 30
0.0
 10
48.46529074922924
 20
110.9783121163231
 30
0.0
 10
48.46529074922924
 20
110.9783121163231
 30
0.0
 10
48.46529074922924
 20
110.9783121163231
 30
0.0
 10
48.46529074922924
 20
109.0359660003842
 30
0.0
 10
48.46529074922924
 20
109.0359660003842
 30
0.0
 10
48.46529074922924
 20
109.0359660003842
 30
0.0
 10
48.46529074922924
 20
102.0613655893908
 30
0.0
 10
48.46529074922924
 20
102.0613655893908
 30
0.0
 10
48.46529074922924
 20
102.0613655893908
 30
0.0
 10
22.68476295196243
 20
102.0613655893908
 30
0.0
 10
22.68476295196243
 20
102.0613655893908
 30
0.0
 10
22.68476295196243
 20
102.0613655893908
 30
0.0
 10
22.68476295196243
 20
98.35340687249665
 30
0.0
 10
22.68476295196243
 20
98.35340687249665
 30
0.0
 10
22.68476295196243
 20
98.35340687249665
 30
0.0
 10
53.40935054168006
 20
98.35340687249665
 30
0.0
 10
53.40935054168006
 20
98.35340687249665
 30
0.0
 10
53.40935054168006
 20
98.35340687249665
 30
0.0
 10
53.40935054168006
 20
108.683187989969
 30
0.0
 10
53.40935054168006
 20
108.683187989969
 30
0.0
 10
53.40935054168006
 20
108.683187989969
 30
0.0
 10
51.82012694593233
 20
108.683187989969
 30
0.0
 10
51.82012694593233
 20
108.683187989969
 30
0.0
 10
51.82012694593233
 20
108.683187989969
 30
0.0
 10
51.82012694593233
 20
109.3894330303511
 30
0.0
 10
51.82012694593233
 20
109.3894330303511
 30
0.0
 10
51.82012694593233
 20
109.3894330303511
 30
0.0
 10
73.80432926881325
 20
109.3012385277473
 30
0.0
 10
73.80432926881325
 20
109.3012385277473
 30
0.0
 10
73.80432926881325
 20
109.3012385277473
 30
0.0
 10
73.80432926881325
 20
103.3853166577755
 30
0.0
 10
73.80432926881325
 20
103.3853166577755
 30
0.0
 10
73.80432926881325
 20
103.3853166577755
 30
0.0
 10
73.27447323363874
 20
103.3853166577755
 30
0.0
 10
73.27447323363874
 20
103.3853166577755
 30
0.0
 10
73.27447323363874
 20
103.3853166577755
 30
0.0
 10
73.27447323363874
 20
97.82286181777056
 30
0.0
 10
73.27447323363874
 20
97.82286181777056
 30
0.0
 10
73.27447323363874
 20
97.82286181777056
 30
0.0
 10
74.42237980659158
 20
97.82286181777056
 30
0.0
 10
74.42237980659158
 20
97.82286181777056
 30
0.0
 10
74.42237980659158
 20
97.82286181777056
 30
0.0
 10
74.42237980659158
 20
84.66672249966646
 30
0.0
 10
74.42237980659158
 20
84.66672249966646
 30
0.0
 10
74.42237980659158
 20
84.66672249966646
 30
0.0
 10
84.04936098143972
 20
84.66672249966646
 30
0.0
 10
84.04936098143972
 20
84.66672249966646
 30
0.0
 10
84.04936098143972
 20
84.66672249966646
 30
0.0
 10
84.04936098143972
 20
83.9611664788359
 30
0.0
 10
84.04936098143972
 20
83.9611664788359
 30
0.0
 10
84.04936098143972
 20
83.9611664788359
 30
0.0
 10
82.46185993457098
 20
83.9611664788359
 30
0.0
 10
82.46185993457098
 20
83.9611664788359
 30
0.0
 10
82.46185993457098
 20
83.9611664788359
 30
0.0
 10
81.13894239551368
 20
78.14032930698383
 30
0.0
 10
81.13894239551368
 20
78.14032930698383
 30
0.0
 10
81.13894239551368
 20
78.14032930698383
 30
0.0
 10
80.43338637468314
 20
77.96394030177619
 30
0.0
 10
80.43338637468314
 20
78.14032930698383
 30
0.0
 10
80.43338637468314
 20
78.31671831219147
 30
0.0
 10
81.75630391374042
 20
83.9611664788359
 30
0.0
 10
81.75630391374042
 20
83.9611664788359
 30
0.0
 10
81.75630391374042
 20
83.9611664788359
 30
0.0
 10
74.34796569501961
 20
83.9611664788359
 30
0.0
 10
74.34796569501961
 20
83.9611664788359
 30
0.0
 10
74.34796569501961
 20
83.9611664788359
 30
0.0
 10
74.42237980659158
 20
75.92719850726924
 30
0.0
 10
74.42237980659158
 20
75.92719850726924
 30
0.0
  0
POLYLINE
  5
6F
330
1F
100
AcDbEntity
  8
Layer 2
 62
     1
370
    35
100
AcDb2dPolyline
 66
     1
 10
0.0
 20
0.0
 30
0.0
  0
VERTEX
  5
70
330
6F
100
AcDbEntity
  8
Layer 2
 62
     1
370
    35
100
AcDbVertex
100
AcDb2dVertex
 10
73.80432926881325
 20
115.0400823729599
 30
0.0
  0
VERTEX
  5
71
330
6F
100
AcDbEntity
  8
Layer 2
 62
     1
370
    35
100
AcDbVertex
100
AcDb2dVertex
 10
73.80432926881325
 20
121.131359718812
 30
0.0
  0
VERTEX
  5
72
330
6F
100
AcDbEntity
  8
Layer 2
 62
     1
370
    35
100
AcDbVertex
100
AcDb2dVertex
 10
74.68713556929093
 20
121.131359718812
 30
0.0
  0
VERTEX
  5
73
330
6F
100
AcDbEntity
  8
Layer 2
 62
     1
370
    35
100
AcDbVertex
100
AcDb2dVertex
 10
74.68713556929093
 20
123.1619003373546
 30
0.0
  0
VERTEX
  5
74
330
6F
100
AcDbEntity
  8
Layer 2
 62
     1
370
    35
100
AcDbVertex
100
AcDb2dVertex
 10
39.37143845242566
 20
123.1619003373546
 30
0.0
  0
VERTEX
  5
75
330
6F
100
AcDbEntity
  8
Layer 2
 62
     1
370
    35
100
AcDbVertex
100
AcDb2dVertex
 10
35.04525694286528
 20
131.6371853317161
 30
0.0
  0
VERTEX
  5
76
330
6F
100
AcDbEntity
  8
Layer 2
 62
     1
370
    35
100
AcDbVertex
100
AcDb2dVertex
 10
29.21839084993677
 20
131.6371853317161
 30
0.0
  0
VERTEX
  5
77
330
6F
100
AcDbEntity
  8
Layer 2
 62
     1
370
    35
100
AcDbVertex
100
AcDb2dVertex
 10
29.21839084993677
 20
152.8266036018353
 30
0.0
  0
VERTEX
  5
78
330
6F
100
AcDbEntity
  8
Layer 2
 62
     1
370
    35
100
AcDbVertex
100
AcDb2dVertex
 10
34.86886793765764
 20
152.8266036018353
 30
0.0
  0
VERTEX
  5
79
330
6F
100
AcDbEntity
  8
Layer 2
 62
     1
370
    35
100
AcDbVertex
100
AcDb2dVertex
 10
39.37161070731356
 20
161.3024053608605
 30
0.0
  0
VERTEX
  5
7A
330
6F
100
AcDbEntity
  8
Layer 2
 62
     1
370
    35
100
AcDbVertex
100
AcDb2dVertex
 10
74.77567458167054
 20
161.3024053608605
 30
0.0
  0
VERTEX
  5
7B
330
6F
100
AcDbEntity
  8
Layer 2
 62
     1
370
    35
100
AcDbVertex
100
AcDb2dVertex
 10
74.77567458167054
 20
163.4214849917828
 30
0.0
  0
VERTEX
  5
7C
330
6F
100
AcDbEntity
  8
Layer 2
 62
     1
370
    35
100
AcDbVertex
100
AcDb2dVertex
 10
73.80450152370115
 20
163.4214849917828
 30
0.0
  0
VERTEX
  5
7D
330
6F
100
AcDbEntity
  8
Layer 2
 62
     1
370
    35
100
AcDbVertex
100
AcDb2dVertex
 10
73.80450152370115
 20
169.5134513571864
 30
0.0
  0
VERTEX
  5
7E
330
6F
100
AcDbEntity
  8
Layer 2
 62
     1
370
    35
100
AcDbVertex
100
AcDb2dVertex
 10
70.10016015945284
 20
169.5134513571864
 30
0.0
  0
VERTEX
  5
7F
330
6F
100
AcDbEntity
  8
Layer 2
 62
     1
370
    35
100
AcDbVertex
100
AcDb2dVertex
 10
70.10016015945284
 20
162.315608611477
 30
0.0
  0
VERTEX
  5
80
330
6F
100
AcDbEntity
  8
Layer 2
 62
     1
370
    35
100
AcDbVertex
100
AcDb2dVertex
 10
49.10797373597699
 20
162.315608611477
 30
0.0
  0
VERTEX
  5
81
330
6F
100
AcDbEntity
  8
Layer 2
 62
     1
370
    35
100
AcDbVertex
100
AcDb2dVertex
 10
49.10797373597699
 20
167.8716900206298
 30
0.0
  0
VERTEX
  5
82
330
6F
100
AcDbEntity
  8
Layer 2
 62
     1
370
    35
100
AcDbVertex
100
AcDb2dVertex
 10
63.82043596624028
 20
167.8716900206298
 30
0.0
  0
VERTEX
  5
83
330
6F
100
AcDbEntity
  8
Layer 2
 62
     1
370
    35
100
AcDbVertex
100
AcDb2dVertex
 10
63.8278429264199
 20
168.2317027363368
 30
0.0
  0
VERTEX
  5
84
330
6F
100
AcDbEntity
  8
Layer 2
 62
     1
370
    35
100
AcDbVertex
100
AcDb2dVertex
 10
48.64202426421267
 20
168.2317027363368
 30
0.0
  0
VERTEX
  5
85
330
6F
100
AcDbEntity
  8
Layer 2
 62
     1
370
    35
100
AcDbVertex
100
AcDb2dVertex
 10
48.64202426421267
 20
163.333118234291
 30
0.0
  0
VERTEX
  5
86
330
6F
100
AcDbEntity
  8
Layer 2
 62
     1
370
    35
100
AcDbVertex
100
AcDb2dVertex
 10
46.61131139078216
 20
163.333118234291
 30
0.0
  0
VERTEX
  5
87
330
6F
100
AcDbEntity
  8
Layer 2
 62
     1
370
    35
100
AcDbVertex
100
AcDb2dVertex
 10
46.61131139078216
 20
162.4501396789255
 30
0.0
  0
VERTEX
  5
88
330
6F
100
AcDbEntity
  8
Layer 2
 62
     1
370
    35
100
AcDbVertex
100
AcDb2dVertex
 10
22.15525142656372
 20
162.4501396789255
 30
0.0
  0
VERTEX
  5
89
330
6F
100
AcDbEntity
  8
Layer 2
 62
     1
370
    35
100
AcDbVertex
100
AcDb2dVertex
 10
22.15525142656372
 20
165.4520256103254
 30
0.0
  0
VERTEX
  5
8A
330
6F
100
AcDbEntity
  8
Layer 2
 62
     1
370
    35
100
AcDbVertex
100
AcDb2dVertex
 10
21.53720088878539
 20
165.4520256103254
 30
0.0
  0
VERTEX
  5
8B
330
6F
100
AcDbEntity
  8
Layer 2
 62
     1
370
    35
100
AcDbVertex
100
AcDb2dVertex
 10
21.5368563790096
 20
162.3628064507611
 30
0.0
  0
VERTEX
  5
8C
330
6F
100
AcDbEntity
  8
Layer 2
 62
     1
370
    35
100
AcDbVertex
100
AcDb2dVertex
 10
21.0955393562147
 20
162.3628064507611
 30
0.0
  0
VERTEX
  5
8D
330
6F
100
AcDbEntity
  8
Layer 2
 62
     1
370
    35
100
AcDbVertex
100
AcDb2dVertex
 10
21.0955393562147
 20
159.8906042996478
 30
0.0
  0
VERTEX
  5
8E
330
6F
100
AcDbEntity
  8
Layer 2
 62
     1
370
    35
100
AcDbVertex
100
AcDb2dVertex
 10
21.71358989399303
 20
159.8906042996478
 30
0.0
  0
VERTEX
  5
8F
330
6F
100
AcDbEntity
  8
Layer 2
 62
     1
370
    35
100
AcDbVertex
100
AcDb2dVertex
 10
21.71358989399303
 20
149.6490176847793
 30
0.0
  0
VERTEX
  5
90
330
6F
100
AcDbEntity
  8
Layer 2
 62
     1
370
    35
100
AcDbVertex
100
AcDb2dVertex
 10
18.00528666732307
 20
149.6490176847793
 30
0.0
  0
VERTEX
  5
91
330
6F
100
AcDbEntity
  8
Layer 2
 62
     1
370
    35
100
AcDbVertex
100
AcDb2dVertex
 10
18.00528666732307
 20
134.7281270401593
 30
0.0
  0
VERTEX
  5
92
330
6F
100
AcDbEntity
  8
Layer 2
 62
     1
370
    35
100
AcDbVertex
100
AcDb2dVertex
 10
19.85943828065805
 20
134.7281270401593
 30
0.0
  0
VERTEX
  5
93
330
6F
100
AcDbEntity
  8
Layer 2
 62
     1
370
    35
100
AcDbVertex
100
AcDb2dVertex
 10
19.85943828065805
 20
126.6938145588169
 30
0.0
  0
VERTEX
  5
94
330
6F
100
AcDbEntity
  8
Layer 2
 62
     1
370
    35
100
AcDbVertex
100
AcDb2dVertex
 10
20.91897809611917
 20
126.6938145588169
 30
0.0
  0
VERTEX
  5
95
330
6F
100
AcDbEntity
  8
Layer 2
 62
     1
370
    35
100
AcDbVertex
100
AcDb2dVertex
 10
20.91897809611917
 20
121.9264882813495
 30
0.0
  0
VERTEX
  5
96
330
6F
100
AcDbEntity
  8
Layer 2
 62
     1
370
    35
100
AcDbVertex
100
AcDb2dVertex
 10
21.44866187640578
 20
121.9264882813495
 30
0.0
  0
VERTEX
  5
97
330
6F
100
AcDbEntity
  8
Layer 2
 62
     1
370
    35
100
AcDbVertex
100
AcDb2dVertex
 10
21.44866187640578
 20
118.6598465872502
 30
0.0
  0
VERTEX
  5
98
330
6F
100
AcDbEntity
  8
Layer 2
 62
     1
370
    35
100
AcDbVertex
100
AcDb2dVertex
 10
22.24327367427964
 20
118.6598465872502
 30
0.0
  0
VERTEX
  5
99
330
6F
100
AcDbEntity
  8
Layer 2
 62
     1
370
    35
100
AcDbVertex
100
AcDb2dVertex
 10
22.24327367427964
 20
122.0150272937291
 30
0.0
  0
VERTEX
  5
9A
330
6F
100
AcDbEntity
  8
Layer 2
 62
     1
370
    35
100
AcDbVertex
100
AcDb2dVertex
 10
47.22918967367259
 20
122.0150272937291
 30
0.0
  0
VERTEX
  5
9B
330
6F
100
AcDbEntity
  8
Layer 2
 62
     1
370
    35
100
AcDbVertex
100
AcDb2dVertex
 10
47.22918967367259
 20
116.7068206682618
 30
0.0
  0
VERTEX
  5
9C
330
6F
100
AcDbEntity
  8
Layer 2
 62
     1
370
    35
100
AcDbVertex
100
AcDb2dVertex
 10
47.9116635395248
 20
116.7068206682618
 30
0.0
  0
VERTEX
  5
9D
330
6F
100
AcDbEntity
  8
Layer 2
 62
     1
370
    35
100
AcDbVertex
100
AcDb2dVertex
 10
47.9116635395248
 20
117.7617096017496
 30
0.0
  0
VERTEX
  5
9E
330
6F
100
AcDbEntity
  8
Layer 2
 62
     1
370
    35
100
AcDbVertex
100
AcDb2dVertex
 10
56.24604403558571
 20
117.7617096017496
 30
0.0
  0
VERTEX
  5
9F
330
6F
100
AcDbEntity
  8
Layer 2
 62
     1
370
    35
100
AcDbVertex
100
AcDb2dVertex
 10
56.24604403558571
 20
116.3726461857395
 30
0.0
  0
VERTEX
  5
A0
330
6F
100
AcDbEntity
  8
Layer 2
 62
     1
370
    35
100
AcDbVertex
100
AcDb2dVertex
 10
63.80872263386321
 20
116.3726461857395
 30
0.0
  0
VERTEX
  5
A1
330
6F
100
AcDbEntity
  8
Layer 2
 62
     1
370
    35
100
AcDbVertex
100
AcDb2dVertex
 10
63.80872263386321
 20
116.7254241961547
 30
0.0
  0
VERTEX
  5
A2
330
6F
100
AcDbEntity
  8
Layer 2
 62
     1
370
    35
100
AcDbVertex
100
AcDb2dVertex
 10
56.55472479469908
 20
116.7254241961547
 30
0.0
  0
VERTEX
  5
A3
330
6F
100
AcDbEntity
  8
Layer 2
 62
     1
370
    35
100
AcDbVertex
100
AcDb2dVertex
 10
56.55472479469908
 20
118.070390360863
 30
0.0
  0
VERTEX
  5
A4
330
6F
100
AcDbEntity
  8
Layer 2
 62
     1
370
    35
100
AcDbVertex
100
AcDb2dVertex
 10
48.11010117038339
 20
118.070390360863
 30
0.0
  0
VERTEX
  5
A5
330
6F
100
AcDbEntity
  8
Layer 2
 62
     1
370
    35
100
AcDbVertex
100
AcDb2dVertex
 10
48.11010117038339
 20
122.1934833575915
 30
0.0
  0
VERTEX
  5
A6
330
6F
100
AcDbEntity
  8
Layer 2
 62
     1
370
    35
100
AcDbVertex
100
AcDb2dVertex
 10
69.93824056482865
 20
122.1934833575915
 30
0.0
  0
VERTEX
  5
A7
330
6F
100
AcDbEntity
  8
Layer 2
 62
     1
370
    35
100
AcDbVertex
100
AcDb2dVertex
 10
69.93824056482865
 20
115.0276800210312
 30
0.0
  0
VERTEX
  5
A8
330
6F
100
AcDbEntity
  8
Layer 2
 62
     1
370
    35
100
AcDbVertex
100
AcDb2dVertex
 10
73.80432926881325
 20
115.0400823729599
 30
0.0
  0
SEQEND
  5
A9
330
6F
100
AcDbEntity
  8
Layer 2
370
    35
  0
POLYLINE
  5
AA
330
1F
100
AcDbEntity
  8
Layer 2
 62
     1
370
    35
100
AcDb2dPolyline
 66
     1
 10
0.0
 20
0.0
 30
0.0
  0
VERTEX
  5
AB
330
AA
100
AcDbEntity
  8
Layer 2
 62
     1
370
    35
100
AcDbVertex
100
AcDb2dVertex
 10
73.89252377141707
 20
128.459771669548
 30
0.0
  0
VERTEX
  5
AC
330
AA
100
AcDbEntity
  8
Layer 2
 62
     1
370
    35
100
AcDbVertex
100
AcDb2dVertex
 10
64.35735445181861
 20
128.459771669548
 30
0.0
  0
VERTEX
  5
AD
330
AA
100
AcDbEntity
  8
Layer 2
 62
     1
370
    35
100
AcDbVertex
100
AcDb2dVertex
 10
64.23849857916893
 20
155.9177175651664
 30
0.0
  0
VERTEX
  5
AE
330
AA
100
AcDbEntity
  8
Layer 2
 62
     1
370
    35
100
AcDbVertex
100
AcDb2dVertex
 10
73.89252377141707
 20
155.9177175651664
 30
0.0
  0
VERTEX
  5
AF
330
AA
100
AcDbEntity
  8
Layer 2
 62
     1
370
    35
100
AcDbVertex
100
AcDb2dVertex
 10
73.89252377141707
 20
148.5126521893156
 30
0.0
  0
VERTEX
  5
B0
330
AA
100
AcDbEntity
  8
Layer 2
 62
     1
370
    35
100
AcDbVertex
100
AcDb2dVertex
 10
73.20522676870371
 20
148.5126521893156
 30
0.0
  0
VERTEX
  5
B1
330
AA
100
AcDbEntity
  8
Layer 2
 62
     1
370
    35
100
AcDbVertex
100
AcDb2dVertex
 10
73.20522676870371
 20
150.7001170107334
 30
0.0
  0
VERTEX
  5
B2
330
AA
100
AcDbEntity
  8
Layer 2
 62
     1
370
    35
100
AcDbVertex
100
AcDb2dVertex
 10
64.91408224950521
 20
150.7001170107334
 30
0.0
  0
VERTEX
  5
B3
330
AA
100
AcDbEntity
  8
Layer 2
 62
     1
370
    35
100
AcDbVertex
100
AcDb2dVertex
 10
64.91408224950521
 20
142.5853614967426
 30
0.0
  0
VERTEX
  5
B4
330
AA
100
AcDbEntity
  8
Layer 2
 62
     1
370
    35
100
AcDbVertex
100
AcDb2dVertex
 10
73.20522676870371
 20
142.5853614967426
 30
0.0
  0
VERTEX
  5
B5
330
AA
100
AcDbEntity
  8
Layer 2
 62
     1
370
    35
100
AcDbVertex
100
AcDb2dVertex
 10
73.20522676870371
 20
144.6317495649718
 30
0.0
  0
VERTEX
  5
B6
330
AA
100
AcDbEntity
  8
Layer 2
 62
     1
370
    35
100
AcDbVertex
100
AcDb2dVertex
 10
73.98140729357249
 20
144.6317495649718
 30
0.0
  0
VERTEX
  5
B7
330
AA
100
AcDbEntity
  8
Layer 2
 62
     1
370
    35
100
AcDbVertex
100
AcDb2dVertex
 10
73.98140729357249
 20
139.6925129093821
 30
0.0
  0
VERTEX
  5
B8
330
AA
100
AcDbEntity
  8
Layer 2
 62
     1
370
    35
100
AcDbVertex
100
AcDb2dVertex
 10
73.1346022646655
 20
139.6925129093821
 30
0.0
  0
VERTEX
  5
B9
330
AA
100
AcDbEntity
  8
Layer 2
 62
     1
370
    35
100
AcDbVertex
100
AcDb2dVertex
 10
73.1346022646655
 20
141.7740409747426
 30
0.0
  0
VERTEX
  5
BA
330
AA
100
AcDbEntity
  8
Layer 2
 62
     1
370
    35
100
AcDbVertex
100
AcDb2dVertex
 10
64.91408224950521
 20
141.7740409747426
 30
0.0
  0
VERTEX
  5
BB
330
AA
100
AcDbEntity
  8
Layer 2
 62
     1
370
    35
100
AcDbVertex
100
AcDb2dVertex
 10
64.91408224950521
 20
133.4827242006562
 30
0.0
  0
VERTEX
  5
BC
330
AA
100
AcDbEntity
  8
Layer 2
 62
     1
370
    35
100
AcDbVertex
100
AcDb2dVertex
 10
73.16991451668461
 20
133.4827242006562
 30
0.0
  0
VERTEX
  5
BD
330
AA
100
AcDbEntity
  8
Layer 2
 62
     1
370
    35
100
AcDbVertex
100
AcDb2dVertex
 10
73.16991451668461
 20
135.8467502821695
 30
0.0
  0
VERTEX
  5
BE
330
AA
100
AcDbEntity
  8
Layer 2
 62
     1
370
    35
100
AcDbVertex
100
AcDb2dVertex
 10
73.91078278953427
 20
135.8467502821695
 30
0.0
  0
VERTEX
  5
BF
330
AA
100
AcDbEntity
  8
Layer 2
 62
     1
370
    35
100
AcDbVertex
100
AcDb2dVertex
 10
73.89252377141707
 20
128.459771669548
 30
0.0
  0
SEQEND
  5
C0
330
AA
100
AcDbEntity
  8
Layer 2
370
    35
  0
SPLINE
  5
C1
330
1F
100
AcDbEntity
  8
Layer 2
 62
     1
370
    35
100
AcDbSpline
210
0.0
220
0.0
230
1.0
 70
    11
 71
     3
 72
   473
 73
   469
 74
     0
 42
0.0000000001
 43
0.0000000001
 40
0.0
 40
0.0
 40
0.0
 40
0.0
 40
1.0
 40
1.0
 40
1.0
 40
2.0
 40
2.0
 40
2.0
 40
3.0
 40
3.0
 40
3.0
 40
4.0
 40
4.0
 40
4.0
 40
5.0
 40
5.0
 40
5.0
 40
6.0
 40
6.0
 40
6.0
 40
7.0
 40
7.0
 40
7.0
 40
8.0
 40
8.0
 40
8.0
 40
9.0
 40
9.0
 40
9.0
 40
10.0
 40
10.0
 40
10.0
 40
11.0
 40
11.0
 40
11.0
 40
12.0
 40
12.0
 40
12.0
 40
13.0
 40
13.0
 40
13.0
 40
14.0
 40
14.0
 40
14.0
 40
15.0
 40
15.0
 40
15.0
 40
16.0
 40
16.0
 40
16.0
 40
17.0
 40
17.0
 40
17.0
 40
18.0
 40
18.0
 40
18.0
 40
19.0
 40
19.0
 40
19.0
 40
20.0
 40
20.0
 40
20.0
 40
21.0
 40
21.0
 40
21.0
 40
22.0
 40
22.0
 40
22.0
 40
23.0
 40
23.0
 40
23.0
 40
24.0
 40
24.0
 40
24.0
 40
25.0
 40
25.0
 40
25.0
 40
26.0
 40
26.0
 40
26.0
 40
27.0
 40
27.0
 40
27.0
 40
28.0
 40
28.0
 40
28.0
 40
29.0
 40
29.0
 40
29.0
 40
30.0
 40
30.0
 40
30.0
 40
31.0
 40
31.0
 40
31.0
 40
32.0
 40
32.0
 40
32.0
 40
33.0
 40
33.0
 40
33.0
 40
34.0
 40
34.0
 40
34.0
 40
35.0
 40
35.0
 40
35.0
 40
36.0
 40
36.0
 40
36.0
 40
37.0
 40
37.0
 40
37.0
 40
38.0
 40
38.0
 40
38.0
 40
39.0
 40
39.0
 40
39.0
 40
40.0
 40
40.0
 40
40.0
 40
41.0
 40
41.0
 40
41.0
 40
42.0
 40
42.0
 40
42.0
 40
43.0
 40
43.0
 40
43.0
 40
44.0
 40
44.0
 40
44.0
 40
45.0
 40
45.0
 40
45.0
 40
46.0
 40
46.0
 40
46.0
 40
47.0
 40
47.0
 40
47.0
 40
48.0
 40
48.0
 40
48.0
 40
49.0
 40
49.0
 40
49.0
 40
50.0
 40
50.0
 40
50.0
 40
51.0
 40
51.0
 40
51.0
 40
52.0
 40
52.0
 40
52.0
 40
53.0
 40
53.0
 40
53.0
 40
54.0
 40
54.0
 40
54.0
 40
55.0
 40
55.0
 40
55.0
 40
56.0
 40
56.0
 40
56.0
 40
57.0
 40
57.0
 40
57.0
 40
58.0
 40
58.0
 40
58.0
 40
59.0
 40
59.0
 40
59.0
 40
60.0
 40
60.0
 40
60.0
 40
61.0
 40
61.0
 40
61.0
 40
62.0
 40
62.0
 40
62.0
 40
63.0
 40
63.0
 40
63.0
 40
64.0
 40
64.0
 40
64.0
 40
65.0
 40
65.0
 40
65.0
 40
66.0
 40
66.0
 40
66.0
 40
67.0
 40
67.0
 40
67.0
 40
68.0
 40
68.0
 40
68.0
 40
69.0
 40
69.0
 40
69.0
 40
70.0
 40
70.0
 40
70.0
 40
71.0
 40
71.0
 40
71.0
 40
72.0
 40
72.0
 40
72.0
 40
73.0
 40
73.0
 40
73.0
 40
74.0
 40
74.0
 40
74.0
 40
75.0
 40
75.0
 40
75.0
 40
76.0
 40
76.0
 40
76.0
 40
77.0
 40
77.0
 40
77.0
 40
78.0
 40
78.0
 40
78.0
 40
79.0
 40
79.0
 40
79.0
 40
80.0
 40
80.0
 40
80.0
 40
81.0
 40
81.0
 40
81.0
 40
82.0
 40
82.0
 40
82.0
 40
83.0
 40
83.0
 40
83.0
 40
84.0
 40
84.0
 40
84.0
 40
85.0
 40
85.0
 40
85.0
 40
86.0
 40
86.0
 40
86.0
 40
87.0
 40
87.0
 40
87.0
 40
88.0
 40
88.0
 40
88.0
 40
89.0
 40
89.0
 40
89.0
 40
90.0
 40
90.0
 40
90.0
 40
91.0
 40
91.0
 40
91.0
 40
92.0
 40
92.0
 40
92.0
 40
93.0
 40
93.0
 40
93.0
 40
94.0
 40
94.0
 40
94.0
 40
95.0
 40
95.0
 40
95.0
 40
96.0
 40
96.0
 40
96.0
 40
97.0
 40
97.0
 40
97.0
 40
98.0
 40
98.0
 40
98.0
 40
99.0
 40
99.0
 40
99.0
 40
100.0
 40
100.0
 40
100.0
 40
101.0
 40
101.0
 40
101.0
 40
102.0
 40
102.0
 40
102.0
 40
103.0
 40
103.0
 40
103.0
 40
104.0
 40
104.0
 40
104.0
 40
105.0
 40
105.0
 40
105.0
 40
106.0
 40
106.0
 40
106.0
 40
107.0
 40
107.0
 40
107.0
 40
108.0
 40
108.0
 40
108.0
 40
109.0
 40
109.0
 40
109.0
 40
110.0
 40
110.0
 40
110.0
 40
111.0
 40
111.0
 40
111.0
 40
112.0
 40
112.0
 40
112.0
 40
113.0
 40
113.0
 40
113.0
 40
114.0
 40
114.0
 40
114.0
 40
115.0
 40
115.0
 40
115.0
 40
116.0
 40
116.0
 40
116.0
 40
117.0
 40
117.0
 40
117.0
 40
118.0
 40
118.0
 40
118.0
 40
119.0
 40
119.0
 40
119.0
 40
120.0
 40
120.0
 40
120.0
 40
121.0
 40
121.0
 40
121.0
 40
122.0
 40
122.0
 40
122.0
 40
123.0
 40
123.0
 40
123.0
 40
124.0
 40
124.0
 40
124.0
 40
125.0
 40
125.0
 40
125.0
 40
126.0
 40
126.0
 40
126.0
 40
127.0
 40
127.0
 40
127.0
 40
128.0
 40
128.0
 40
128.0
 40
129.0
 40
129.0
 40
129.0
 40
130.0
 40
130.0
 40
130.0
 40
131.0
 40
131.0
 40
131.0
 40
132.0
 40
132.0
 40
132.0
 40
133.0
 40
133.0
 40
133.0
 40
134.0
 40
134.0
 40
134.0
 40
135.0
 40
135.0
 40
135.0
 40
136.0
 40
136.0
 40
136.0
 40
137.0
 40
137.0
 40
137.0
 40
138.0
 40
138.0
 40
138.0
 40
139.0
 40
139.0
 40
139.0
 40
140.0
 40
140.0
 40
140.0
 40
141.0
 40
141.0
 40
141.0
 40
142.0
 40
142.0
 40
142.0
 40
143.0
 40
143.0
 40
143.0
 40
144.0
 40
144.0
 40
144.0
 40
145.0
 40
145.0
 40
145.0
 40
146.0
 40
146.0
 40
146.0
 40
147.0
 40
147.0
 40
147.0
 40
148.0
 40
148.0
 40
148.0
 40
149.0
 40
149.0
 40
149.0
 40
150.0
 40
150.0
 40
150.0
 40
151.0
 40
151.0
 40
151.0
 40
152.0
 40
152.0
 40
152.0
 40
153.0
 40
153.0
 40
153.0
 40
154.0
 40
154.0
 40
154.0
 40
155.0
 40
155.0
 40
155.0
 40
156.0
 40
156.0
 40
156.0
 40
156.0
 10
90.31117066631089
 20
84.22574998664736
 30
0.0
 10
90.31117066631089
 20
84.22574998664736
 30
0.0
 10
91.89867171317964
 20
84.22574998664736
 30
0.0
 10
91.89867171317964
 20
84.22574998664736
 30
0.0
 10
91.89867171317964
 20
84.22574998664736
 30
0.0
 10
91.89867171317964
 20
78.05213480438002
 30
0.0
 10
91.89867171317964
 20
78.05213480438002
 30
0.0
 10
91.89867171317964
 20
78.05213480438002
 30
0.0
 10
92.42783872880254
 20
78.05213480438002
 30
0.0
 10
92.42783872880254
 20
78.05213480438002
 30
0.0
 10
92.42783872880254
 20
78.05213480438002
 30
0.0
 10
92.42783872880254
 20
83.9611664788359
 30
0.0
 10
92.42783872880254
 20
83.9611664788359
 30
0.0
 10
92.42783872880254
 20
83.9611664788359
 30
0.0
 10
98.6014539110699
 20
83.9611664788359
 30
0.0
 10
98.6014539110699
 20
83.9611664788359
 30
0.0
 10
98.6014539110699
 20
83.9611664788359
 30
0.0
 10
98.6014539110699
 20
68.791712030979
 30
0.0
 10
98.6014539110699
 20
68.791712030979
 30
0.0
 10
98.6014539110699
 20
68.791712030979
 30
0.0
 10
100.1007604553348
 20
68.791712030979
 30
0.0
 10
100.1007604553348
 20
68.791712030979
 30
0.0
 10
100.1007604553348
 20
68.791712030979
 30
0.0
 10
100.1007604553348
 20
70.29101857524392
 30
0.0
 10
100.1007604553348
 20
70.29101857524392
 30
0.0
 10
100.1007604553348
 20
70.29101857524392
 30
0.0
 10
124.2660541687813
 20
70.29101857524392
 30
0.0
 10
124.2660541687813
 20
70.29101857524392
 30
0.0
 10
124.2660541687813
 20
70.29101857524392
 30
0.0
 10
124.2660541687813
 20
68.87990653358281
 30
0.0
 10
124.2660541687813
 20
68.87990653358281
 30
0.0
 10
124.2660541687813
 20
68.87990653358281
 30
0.0
 10
125.9417497182539
 20
68.87990653358281
 30
0.0
 10
125.9417497182539
 20
68.87990653358281
 30
0.0
 10
125.9417497182539
 20
68.87990653358281
 30
0.0
 10
125.9417497182539
 20
70.2028240726401
 30
0.0
 10
125.9417497182539
 20
70.2028240726401
 30
0.0
 10
125.9417497182539
 20
70.2028240726401
 30
0.0
 10
150.1070434317003
 20
70.2028240726401
 30
0.0
 10
150.1070434317003
 20
70.2028240726401
 30
0.0
 10
150.1070434317003
 20
70.2028240726401
 30
0.0
 10
150.1070434317003
 20
69.14449004139428
 30
0.0
 10
150.1070434317003
 20
69.14449004139428
 30
0.0
 10
150.1070434317003
 20
69.14449004139428
 30
0.0
 10
151.8709334837767
 20
69.14449004139428
 30
0.0
 10
151.8709334837767
 20
69.14449004139428
 30
0.0
 10
151.8709334837767
 20
69.14449004139428
 30
0.0
 10
151.8709334837767
 20
70.90838009347065
 30
0.0
 10
151.8709334837767
 20
70.90838009347065
 30
0.0
 10
151.8709334837767
 20
70.90838009347065
 30
0.0
 10
163.0716353144618
 20
70.90838009347065
 30
0.0
 10
163.0716353144618
 20
70.90838009347065
 30
0.0
 10
163.0716353144618
 20
70.90838009347065
 30
0.0
 10
163.0716353144618
 20
70.2028240726401
 30
0.0
 10
163.0716353144618
 20
70.2028240726401
 30
0.0
 10
163.0716353144618
 20
70.2028240726401
 30
0.0
 10
176.124421699827
 20
70.2028240726401
 30
0.0
 10
176.124421699827
 20
70.2028240726401
 30
0.0
 10
176.124421699827
 20
70.2028240726401
 30
0.0
 10
176.124421699827
 20
68.87990653358281
 30
0.0
 10
176.124421699827
 20
68.87990653358281
 30
0.0
 10
176.124421699827
 20
68.87990653358281
 30
0.0
 10
177.9765062545072
 20
68.87990653358281
 30
0.0
 10
177.9765062545072
 20
68.87990653358281
 30
0.0
 10
177.9765062545072
 20
68.87990653358281
 30
0.0
 10
177.9765062545072
 20
70.29101857524392
 30
0.0
 10
177.9765062545072
 20
70.29101857524392
 30
0.0
 10
177.9765062545072
 20
70.29101857524392
 30
0.0
 10
201.8772164601422
 20
70.29101857524392
 30
0.0
 10
201.8772164601422
 20
70.29101857524392
 30
0.0
 10
201.8772164601422
 20
70.29101857524392
 30
0.0
 10
201.8772164601422
 20
68.96810103618664
 30
0.0
 10
201.8772164601422
 20
68.96810103618664
 30
0.0
 10
201.8772164601422
 20
68.96810103618664
 30
0.0
 10
203.6411065122186
 20
68.96810103618664
 30
0.0
 10
203.6411065122186
 20
68.96810103618664
 30
0.0
 10
203.6411065122186
 20
68.96810103618664
 30
0.0
 10
203.6411065122186
 20
128.2348067859531
 30
0.0
 10
203.6411065122186
 20
128.2348067859531
 30
0.0
 10
203.6411065122186
 20
128.2348067859531
 30
0.0
 10
196.4973518013092
 20
128.2348067859531
 30
0.0
 10
196.4973518013092
 20
128.2348067859531
 30
0.0
 10
196.4973518013092
 20
128.2348067859531
 30
0.0
 10
196.4973518013092
 20
134.8493944812396
 30
0.0
 10
196.4973518013092
 20
134.8493944812396
 30
0.0
 10
196.4973518013092
 20
134.8493944812396
 30
0.0
 10
209.9029161970898
 20
133.7028659473899
 30
0.0
 10
209.9029161970898
 20
133.7028659473899
 30
0.0
 10
209.9029161970898
 20
133.7028659473899
 30
0.0
 10
209.9029161970898
 20
88.28269710642304
 30
0.0
 10
209.9029161970898
 20
88.28269710642304
 30
0.0
 10
209.9029161970898
 20
88.28269710642304
 30
0.0
 10
211.0494447309394
 20
88.28269710642304
 30
0.0
 10
211.0494447309394
 20
88.28269710642304
 30
0.0
 10
211.0494447309394
 20
88.28269710642304
 30
0.0
 10
211.0494447309394
 20
133.6146714447861
 30
0.0
 10
211.0494447309394
 20
133.6146714447861
 30
0.0
 10
211.0494447309394
 20
133.6146714447861
 30
0.0
 10
211.9313897569776
 20
133.5264769421823
 30
0.0
 10
211.9313897569776
 20
133.5264769421823
 30
0.0
 10
211.9313897569776
 20
133.5264769421823
 30
0.0
 10
211.9313897569776
 20
139.523703119242
 30
0.0
 10
211.9313897569776
 20
139.523703119242
 30
0.0
 10
211.9313897569776
 20
139.523703119242
 30
0.0
 10
211.0494447309394
 20
139.523703119242
 30
0.0
 10
211.0494447309394
 20
139.523703119242
 30
0.0
 10
211.0494447309394
 20
139.523703119242
 30
0.0
 10
211.0494447309394
 20
144.5507897676597
 30
0.0
 10
211.0494447309394
 20
144.5507897676597
 30
0.0
 10
211.0494447309394
 20
144.5507897676597
 30
0.0
 10
211.9313897569776
 20
144.5507897676597
 30
0.0
 10
211.9313897569776
 20
144.5507897676597
 30
0.0
 10
211.9313897569776
 20
144.5507897676597
 30
0.0
 10
211.9313897569776
 20
151.6063499759653
 30
0.0
 10
211.9313897569776
 20
151.6063499759653
 30
0.0
 10
211.9313897569776
 20
151.6063499759653
 30
0.0
 10
210.1674997049012
 20
151.6063499759653
 30
0.0
 10
210.1674997049012
 20
151.6063499759653
 30
0.0
 10
210.1674997049012
 20
151.6063499759653
 30
0.0
 10
210.1674997049012
 20
150.283432436908
 30
0.0
 10
210.1674997049012
 20
150.283432436908
 30
0.0
 10
210.1674997049012
 20
150.283432436908
 30
0.0
 10
196.4091572987054
 20
149.4014874108698
 30
0.0
 10
196.4091572987054
 20
149.4014874108698
 30
0.0
 10
196.4091572987054
 20
149.4014874108698
 30
0.0
 10
196.4091572987054
 20
156.1924641113638
 30
0.0
 10
196.4091572987054
 20
156.1924641113638
 30
0.0
 10
196.4091572987054
 20
156.1924641113638
 30
0.0
 10
203.2001339991995
 20
156.1924641113638
 30
0.0
 10
203.2001339991995
 20
156.1924641113638
 30
0.0
 10
203.2001339991995
 20
156.1924641113638
 30
0.0
 10
203.2001339991995
 20
159.543855210309
 30
0.0
 10
203.2001339991995
 20
159.543855210309
 30
0.0
 10
203.2001339991995
 20
159.543855210309
 30
0.0
 10
210.0793052022974
 20
159.543855210309
 30
0.0
 10
210.0793052022974
 20
159.543855210309
 30
0.0
 10
210.0793052022974
 20
159.543855210309
 30
0.0
 10
210.0793052022974
 20
155.0459355775142
 30
0.0
 10
210.0793052022974
 20
155.0459355775142
 30
0.0
 10
210.0793052022974
 20
155.0459355775142
 30
0.0
 10
211.9313897569776
 20
154.7813520697027
 30
0.0
 10
211.9313897569776
 20
155.0459355775142
 30
0.0
 10
211.9313897569776
 20
155.3105190853257
 30
0.0
 10
211.9313897569776
 20
194.3806837388176
 30
0.0
 10
211.9313897569776
 20
194.3806837388176
 30
0.0
 10
211.9313897569776
 20
194.3806837388176
 30
0.0
 10
210.1271920611331
 20
194.3806837388176
 30
0.0
 10
210.1271920611331
 20
194.3806837388176
 30
0.0
 10
210.1271920611331
 20
194.3806837388176
 30
0.0
 10
210.1271920611331
 20
193.0369233583246
 30
0.0
 10
210.1271920611331
 20
193.0369233583246
 30
0.0
 10
210.1271920611331
 20
193.0369233583246
 30
0.0
 10
203.4064953549014
 20
193.0369233583246
 30
0.0
 10
203.4064953549014
 20
193.0369233583246
 30
0.0
 10
203.4064953549014
 20
193.0369233583246
 30
0.0
 10
203.4064953549014
 20
215.2758906604068
 30
0.0
 10
203.4064953549014
 20
215.2758906604068
 30
0.0
 10
203.4064953549014
 20
215.2758906604068
 30
0.0
 10
201.9402617491129
 20
215.2758906604068
 30
0.0
 10
201.9402617491129
 20
215.2758906604068
 30
0.0
 10
201.9402617491129
 20
215.2758906604068
 30
0.0
 10
201.9402617491129
 20
213.931785770138
 30
0.0
 10
201.9402617491129
 20
213.931785770138
 30
0.0
 10
201.9402617491129
 20
213.931785770138
 30
0.0
 10
194.3641472695793
 20
213.931785770138
 30
0.0
 10
194.3641472695793
 20
213.931785770138
 30
0.0
 10
194.3641472695793
 20
213.931785770138
 30
0.0
 10
194.3641472695793
 20
213.0153897665202
 30
0.0
 10
194.3641472695793
 20
213.0153897665202
 30
0.0
 10
194.3641472695793
 20
213.0153897665202
 30
0.0
 10
201.8789390090212
 20
213.0153897665202
 30
0.0
 10
201.8789390090212
 20
213.0153897665202
 30
0.0
 10
201.8789390090212
 20
213.0153897665202
 30
0.0
 10
201.8789390090212
 20
187.2326226557108
 30
0.0
 10
201.8789390090212
 20
187.2326226557108
 30
0.0
 10
201.8789390090212
 20
187.2326226557108
 30
0.0
 10
190.1483811431616
 20
187.2326226557108
 30
0.0
 10
190.1483811431616
 20
187.2326226557108
 30
0.0
 10
190.1483811431616
 20
187.2326226557108
 30
0.0
 10
190.1483811431616
 20
212.6488313650731
 30
0.0
 10
190.1483811431616
 20
212.6488313650731
 30
0.0
 10
190.1483811431616
 20
212.6488313650731
 30
0.0
 10
190.6982187453323
 20
212.6488313650731
 30
0.0
 10
190.6982187453323
 20
212.6488313650731
 30
0.0
 10
190.6982187453323
 20
212.6488313650731
 30
0.0
 10
190.6982187453323
 20
214.1150649708616
 30
0.0
 10
190.6982187453323
 20
214.1150649708616
 30
0.0
 10
190.6982187453323
 20
214.1150649708616
 30
0.0
 10
177.7456847047238
 20
214.1150649708616
 30
0.0
 10
177.7456847047238
 20
214.1150649708616
 30
0.0
 10
177.7456847047238
 20
214.1150649708616
 30
0.0
 10
177.7456847047238
 20
215.3981916308144
 30
0.0
 10
177.7456847047238
 20
215.3981916308144
 30
0.0
 10
177.7456847047238
 20
215.3981916308144
 30
0.0
 10
175.9742154375799
 20
215.3981916308144
 30
0.0
 10
175.9742154375799
 20
215.3981916308144
 30
0.0
 10
175.9742154375799
 20
215.3981916308144
 30
0.0
 10
175.9742154375799
 20
213.9929362553419
 30
0.0
 10
175.9742154375799
 20
213.9929362553419
 30
0.0
 10
175.9742154375799
 20
213.9929362553419
 30
0.0
 10
160.1501924157102
 20
213.9929362553419
 30
0.0
 10
160.1501924157102
 20
213.9929362553419
 30
0.0
 10
160.1501924157102
 20
213.9929362553419
 30
0.0
 10
160.1501924157102
 20
213.13751848204
 30
0.0
 10
160.1501924157102
 20
213.13751848204
 30
0.0
 10
160.1501924157102
 20
213.13751848204
 30
0.0
 10
175.9742154375799
 20
213.13751848204
 30
0.0
 10
175.9742154375799
 20
213.13751848204
 30
0.0
 10
175.9742154375799
 20
213.13751848204
 30
0.0
 10
175.9742154375799
 20
202.3235288746861
 30
0.0
 10
175.9742154375799
 20
202.3235288746861
 30
0.0
 10
175.9742154375799
 20
202.3235288746861
 30
0.0
 10
99.78656753980871
 20
202.3235288746861
 30
0.0
 10
99.78656753980871
 20
202.3235288746861
 30
0.0
 10
99.78656753980871
 20
202.3235288746861
 30
0.0
 10
99.78656753980871
 20
206.4168217758083
 30
0.0
 10
99.78656753980871
 20
206.4168217758083
 30
0.0
 10
99.78656753980871
 20
206.4168217758083
 30
0.0
 10
98.5647636199476
 20
206.4168217758083
 30
0.0
 10
98.5647636199476
 20
206.4168217758083
 30
0.0
 10
98.5647636199476
 20
206.4168217758083
 30
0.0
 10
98.5647636199476
 20
200.6126933280824
 30
0.0
 10
98.5647636199476
 20
200.6126933280824
 30
0.0
 10
98.5647636199476
 20
200.6126933280824
 30
0.0
 10
88.30061161476445
 20
200.6126933280824
 30
0.0
 10
88.30061161476445
 20
200.6126933280824
 30
0.0
 10
88.30061161476445
 20
200.6126933280824
 30
0.0
 10
89.88914619096057
 20
206.4779722610122
 30
0.0
 10
89.88914619096057
 20
206.4779722610122
 30
0.0
 10
89.88914619096057
 20
206.4779722610122
 30
0.0
 10
89.33930858878989
 20
206.4779722610122
 30
0.0
 10
89.33930858878989
 20
206.4779722610122
 30
0.0
 10
89.33930858878989
 20
206.4779722610122
 30
0.0
 10
87.56749481187019
 20
200.6736715583983
 30
0.0
 10
87.56749481187019
 20
200.6736715583983
 30
0.0
 10
87.56749481187019
 20
200.6736715583983
 30
0.0
 10
86.1010889511938
 20
200.6736715583983
 30
0.0
 10
86.1010889511938
 20
200.6736715583983
 30
0.0
 10
86.1010889511938
 20
200.6736715583983
 30
0.0
 10
86.1010889511938
 20
199.6961250695767
 30
0.0
 10
86.1010889511938
 20
199.6961250695767
 30
0.0
 10
86.1010889511938
 20
199.6961250695767
 30
0.0
 10
98.50378538963167
 20
199.6961250695767
 30
0.0
 10
98.50378538963167
 20
199.6961250695767
 30
0.0
 10
98.50378538963167
 20
199.6961250695767
 30
0.0
 10
98.50378538963167
 20
186.8050860239477
 30
0.0
 10
98.50378538963167
 20
186.8050860239477
 30
0.0
 10
98.50378538963167
 20
186.8050860239477
 30
0.0
 10
98.99247250659855
 20
186.8050860239477
 30
0.0
 10
98.99247250659855
 20
186.8050860239477
 30
0.0
 10
98.99247250659855
 20
186.8050860239477
 30
0.0
 10
98.99247250659855
 20
169.2092492251584
 30
0.0
 10
98.99247250659855
 20
169.2092492251584
 30
0.0
 10
98.99247250659855
 20
169.2092492251584
 30
0.0
 10
98.50378538963167
 20
169.2092492251584
 30
0.0
 10
98.50378538963167
 20
169.2092492251584
 30
0.0
 10
98.50378538963167
 20
169.2092492251584
 30
0.0
 10
98.50378538963167
 20
168.5371106525801
 30
0.0
 10
98.50378538963167
 20
168.5371106525801
 30
0.0
 10
98.50378538963167
 20
168.5371106525801
 30
0.0
 10
133.3276948015479
 20
168.5371106525801
 30
0.0
 10
133.3276948015479
 20
168.5371106525801
 30
0.0
 10
133.3276948015479
 20
168.5371106525801
 30
0.0
 10
133.3276948015479
 20
160.0447724243166
 30
0.0
 10
133.3276948015479
 20
160.0447724243166
 30
0.0
 10
133.3276948015479
 20
160.0447724243166
 30
0.0
 10
177.2561363133174
 20
160.0447724243166
 30
0.0
 10
177.2561363133174
 20
160.0447724243166
 30
0.0
 10
177.2561363133174
 20
160.0447724243166
 30
0.0
 10
177.2561363133174
 20
153.2017747476773
 30
0.0
 10
177.2561363133174
 20
153.2017747476773
 30
0.0
 10
177.2561363133174
 20
153.2017747476773
 30
0.0
 10
195.7680246059487
 20
151.613584681257
 30
0.0
 10
195.7680246059487
 20
151.613584681257
 30
0.0
 10
195.7680246059487
 20
151.613584681257
 30
0.0
 10
195.7680246059487
 20
132.8567499380346
 30
0.0
 10
195.7680246059487
 20
132.8567499380346
 30
0.0
 10
195.7680246059487
 20
132.8567499380346
 30
0.0
 10
177.133490833134
 20
131.3295381019301
 30
0.0
 10
177.133490833134
 20
131.3295381019301
 30
0.0
 10
177.133490833134
 20
131.3295381019301
 30
0.0
 10
177.133490833134
 20
124.3036057343431
 30
0.0
 10
177.133490833134
 20
124.3036057343431
 30
0.0
 10
177.133490833134
 20
124.3036057343431
 30
0.0
 10
133.3886730318638
 20
124.3036057343431
 30
0.0
 10
133.3886730318638
 20
124.3036057343431
 30
0.0
 10
133.3886730318638
 20
124.3036057343431
 30
0.0
 10
133.3886730318638
 20
116.0560417017828
 30
0.0
 10
133.3886730318638
 20
116.0560417017828
 30
0.0
 10
133.3886730318638
 20
116.0560417017828
 30
0.0
 10
99.1140844574546
 20
116.0560417017828
 30
0.0
 10
99.1140844574546
 20
116.0560417017828
 30
0.0
 10
99.1140844574546
 20
116.0560417017828
 30
0.0
 10
99.1140844574546
 20
115.2616021587968
 30
0.0
 10
99.1140844574546
 20
115.2616021587968
 30
0.0
 10
99.1140844574546
 20
115.2616021587968
 30
0.0
 10
139.9877577872394
 20
115.2616021587968
 30
0.0
 10
139.9877577872394
 20
115.2616021587968
 30
0.0
 10
139.9877577872394
 20
115.2616021587968
 30
0.0
 10
139.9877577872394
 20
113.4901328916529
 30
0.0
 10
139.9877577872394
 20
113.4901328916529
 30
0.0
 10
139.9877577872394
 20
113.4901328916529
 30
0.0
 10
144.9362962067756
 20
113.4901328916529
 30
0.0
 10
144.9362962067756
 20
113.4901328916529
 30
0.0
 10
144.9362962067756
 20
113.4901328916529
 30
0.0
 10
144.9362962067756
 20
115.3839031292045
 30
0.0
 10
144.9362962067756
 20
115.3839031292045
 30
0.0
 10
144.9362962067756
 20
115.3839031292045
 30
0.0
 10
150.6182959389818
 20
115.3839031292045
 30
0.0
 10
150.6182959389818
 20
115.3839031292045
 30
0.0
 10
150.6182959389818
 20
115.3839031292045
 30
0.0
 10
150.6182959389818
 20
99.13234347557179
 30
0.0
 10
150.6182959389818
 20
99.13234347557179
 30
0.0
 10
150.6182959389818
 20
99.13234347557179
 30
0.0
 10
160.6380182582376
 20
99.13234347557179
 30
0.0
 10
160.6380182582376
 20
99.13234347557179
 30
0.0
 10
160.6380182582376
 20
99.13234347557179
 30
0.0
 10
160.6380182582376
 20
123.2655977798692
 30
0.0
 10
160.6380182582376
 20
123.2655977798692
 30
0.0
 10
160.6380182582376
 20
123.2655977798692
 30
0.0
 10
176.0345046483442
 20
123.2655977798692
 30
0.0
 10
176.0345046483442
 20
123.2655977798692
 30
0.0
 10
176.0345046483442
 20
123.2655977798692
 30
0.0
 10
176.0345046483442
 20
91.37846195172742
 30
0.0
 10
176.0345046483442
 20
91.37846195172742
 30
0.0
 10
176.0345046483442
 20
91.37846195172742
 30
0.0
 10
176.6739147922219
 20
91.37846195172742
 30
0.0
 10
176.6739147922219
 20
91.37846195172742
 30
0.0
 10
176.6739147922219
 20
91.37846195172742
 30
0.0
 10
176.6739147922219
 20
95.76372688783685
 30
0.0
 10
176.6739147922219
 20
95.76372688783685
 30
0.0
 10
176.6739147922219
 20
95.76372688783685
 30
0.0
 10
177.7704894085811
 20
95.76372688783685
 30
0.0
 10
177.7704894085811
 20
95.76372688783685
 30
0.0
 10
177.7704894085811
 20
95.76372688783685
 30
0.0
 10
177.7704894085811
 20
97.36604185506484
 30
0.0
 10
177.7704894085811
 20
97.36604185506484
 30
0.0
 10
177.7704894085811
 20
97.36604185506484
 30
0.0
 10
176.6739147922219
 20
97.36604185506484
 30
0.0
 10
176.6739147922219
 20
97.36604185506484
 30
0.0
 10
176.6739147922219
 20
97.36604185506484
 30
0.0
 10
176.6739147922219
 20
115.3280925455255
 30
0.0
 10
176.6739147922219
 20
115.3280925455255
 30
0.0
 10
176.6739147922219
 20
115.3280925455255
 30
0.0
 10
192.022169813717
 20
115.3280925455255
 30
0.0
 10
192.022169813717
 20
115.3280925455255
 30
0.0
 10
192.022169813717
 20
115.3280925455255
 30
0.0
 10
192.022169813717
 20
111.6177222602008
 30
0.0
 10
192.022169813717
 20
111.6177222602008
 30
0.0
 10
192.022169813717
 20
111.6177222602008
 30
0.0
 10
201.8885852827435
 20
111.6177222602008
 30
0.0
 10
201.8885852827435
 20
111.6177222602008
 30
0.0
 10
201.8885852827435
 20
111.6177222602008
 30
0.0
 10
201.8885852827435
 20
71.81375178426299
 30
0.0
 10
201.8885852827435
 20
71.81375178426299
 30
0.0
 10
201.8885852827435
 20
71.81375178426299
 30
0.0
 10
176.6742593019977
 20
71.81375178426299
 30
0.0
 10
176.6742593019977
 20
71.81375178426299
 30
0.0
 10
176.6742593019977
 20
71.81375178426299
 30
0.0
 10
176.6742593019977
 20
85.81290652374031
 30
0.0
 10
176.6742593019977
 20
85.81290652374031
 30
0.0
 10
176.6742593019977
 20
85.81290652374031
 30
0.0
 10
176.083769546283
 20
85.81290652374031
 30
0.0
 10
176.083769546283
 20
85.81290652374031
 30
0.0
 10
176.083769546283
 20
85.81290652374031
 30
0.0
 10
176.083769546283
 20
71.64528650389866
 30
0.0
 10
176.083769546283
 20
71.64528650389866
 30
0.0
 10
176.083769546283
 20
71.64528650389866
 30
0.0
 10
124.9798784242309
 20
71.64528650389866
 30
0.0
 10
124.9798784242309
 20
71.64528650389866
 30
0.0
 10
124.9798784242309
 20
71.64528650389866
 30
0.0
 10
124.9798784242309
 20
95.76372688783685
 30
0.0
 10
124.9798784242309
 20
95.76372688783685
 30
0.0
 10
124.9798784242309
 20
95.76372688783685
 30
0.0
 10
126.0761085308144
 20
95.76372688783685
 30
0.0
 10
126.0761085308144
 20
95.76372688783685
 30
0.0
 10
126.0761085308144
 20
95.76372688783685
 30
0.0
 10
126.0761085308144
 20
97.45044675013489
 30
0.0
 10
126.0761085308144
 20
97.45044675013489
 30
0.0
 10
126.0761085308144
 20
97.45044675013489
 30
0.0
 10
124.8954735291609
 20
97.45044675013489
 30
0.0
 10
124.8954735291609
 20
97.45044675013489
 30
0.0
 10
124.8954735291609
 20
97.45044675013489
 30
0.0
 10
124.8954735291609
 20
108.8347722913193
 30
0.0
 10
124.8954735291609
 20
108.8347722913193
 30
0.0
 10
124.8954735291609
 20
108.8347722913193
 30
0.0
 10
124.3897331782921
 20
108.8347722913193
 30
0.0
 10
124.3897331782921
 20
108.8347722913193
 30
0.0
 10
124.3897331782921
 20
108.8347722913193
 30
0.0
 10
124.3897331782921
 20
106.9795871486569
 30
0.0
 10
124.3897331782921
 20
106.9795871486569
 30
0.0
 10
124.3897331782921
 20
106.9795871486569
 30
0.0
 10
99.76520793370935
 20
106.9795871486569
 30
0.0
 10
99.76520793370935
 20
106.9795871486569
 30
0.0
 10
99.76520793370935
 20
106.9795871486569
 30
0.0
 10
99.76520793370935
 20
108.9191771863893
 30
0.0
 10
99.76520793370935
 20
108.9191771863893
 30
0.0
 10
99.76520793370935
 20
108.9191771863893
 30
0.0
 10
98.41593539680366
 20
108.9191771863893
 30
0.0
 10
98.41593539680366
 20
108.9191771863893
 30
0.0
 10
98.41593539680366
 20
108.9191771863893
 30
0.0
 10
98.41593539680366
 20
108.1602221503104
 30
0.0
 10
98.41593539680366
 20
108.1602221503104
 30
0.0
 10
98.41593539680366
 20
108.1602221503104
 30
0.0
 10
99.09048553781255
 20
108.1602221503104
 30
0.0
 10
99.09048553781255
 20
108.1602221503104
 30
0.0
 10
99.09048553781255
 20
108.1602221503104
 30
0.0
 10
99.09048553781255
 20
104.0281718994111
 30
0.0
 10
99.09048553781255
 20
104.0281718994111
 30
0.0
 10
99.09048553781255
 20
104.0281718994111
 30
0.0
 10
98.41593539680366
 20
104.0281718994111
 30
0.0
 10
98.41593539680366
 20
104.0281718994111
 30
0.0
 10
98.41593539680366
 20
104.0281718994111
 30
0.0
 10
98.41593539680366
 20
103.2692168633322
 30
0.0
 10
98.41593539680366
 20
103.2692168633322
 30
0.0
 10
98.41593539680366
 20
103.2692168633322
 30
0.0
 10
100.271120539466
 20
103.2692168633322
 30
0.0
 10
100.271120539466
 20
103.2692168633322
 30
0.0
 10
100.271120539466
 20
103.2692168633322
 30
0.0
 10
100.271120539466
 20
103.9437670043411
 30
0.0
 10
100.271120539466
 20
103.9437670043411
 30
0.0
 10
100.271120539466
 20
103.9437670043411
 30
0.0
 10
99.76520793370935
 20
103.9437670043411
 30
0.0
 10
99.76520793370935
 20
103.9437670043411
 30
0.0
 10
99.76520793370935
 20
103.9437670043411
 30
0.0
 10
99.76520793370935
 20
106.305037007648
 30
0.0
 10
99.76520793370935
 20
106.305037007648
 30
0.0
 10
99.76520793370935
 20
106.305037007648
 30
0.0
 10
124.3053282832221
 20
106.305037007648
 30
0.0
 10
124.3053282832221
 20
106.305037007648
 30
0.0
 10
124.3053282832221
 20
106.305037007648
 30
0.0
 10
124.3053282832221
 20
71.81409629403879
 30
0.0
 10
124.3053282832221
 20
71.81409629403879
 30
0.0
 10
124.3053282832221
 20
71.81409629403879
 30
0.0
 10
99.17489043288262
 20
71.81409629403879
 30
0.0
 10
99.17489043288262
 20
71.81409629403879
 30
0.0
 10
99.17489043288262
 20
71.81409629403879
 30
0.0
 10
99.17489043288262
 20
89.94495677463956
 30
0.0
 10
99.17489043288262
 20
89.94495677463956
 30
0.0
 10
99.17489043288262
 20
89.94495677463956
 30
0.0
 10
100.271120539466
 20
89.94495677463956
 30
0.0
 10
100.271120539466
 20
89.94495677463956
 30
0.0
 10
100.271120539466
 20
89.94495677463956
 30
0.0
 10
100.271120539466
 20
97.70331692556928
 30
0.0
 10
100.271120539466
 20
97.70331692556928
 30
0.0
 10
100.271120539466
 20
97.70331692556928
 30
0.0
 10
98.24729786155143
 20
97.70331692556928
 30
0.0
 10
98.24729786155143
 20
97.70331692556928
 30
0.0
 10
98.24729786155143
 20
97.70331692556928
 30
0.0
 10
98.24729786155143
 20
96.26981174848142
 30
0.0
 10
98.24729786155143
 20
96.26981174848142
 30
0.0
 10
98.24729786155143
 20
96.26981174848142
 30
0.0
 10
99.4279328632049
 20
96.26981174848142
 30
0.0
 10
99.4279328632049
 20
96.26981174848142
 30
0.0
 10
99.4279328632049
 20
96.26981174848142
 30
0.0
 10
99.4279328632049
 20
90.78831670578857
 30
0.0
 10
99.4279328632049
 20
90.78831670578857
 30
0.0
 10
99.4279328632049
 20
90.78831670578857
 30
0.0
 10
98.50016803698583
 20
90.78831670578857
 30
0.0
 10
98.50016803698583
 20
90.78831670578857
 30
0.0
 10
98.50016803698583
 20
90.78831670578857
 30
0.0
 10
98.50016803698583
 20
84.7163319073811
 30
0.0
 10
98.50016803698583
 20
84.7163319073811
 30
0.0
 10
98.50016803698583
 20
84.7163319073811
 30
0.0
 10
90.15149038522937
 20
84.7163319073811
 30
0.0
 10
90.15149038522937
 20
84.7163319073811
 30
0.0
 10
90.15149038522937
 20
84.7163319073811
 30
0.0
 10
90.31117066631089
 20
84.22574998664736
 30
0.0
 10
90.31117066631089
 20
84.22574998664736
 30
0.0
  0
POLYLINE
  5
C2
330
1F
100
AcDbEntity
  8
Layer 2
 62
     1
370
    35
100
AcDb2dPolyline
 66
     1
 10
0.0
 20
0.0
 30
0.0
  0
VERTEX
  5
C3
330
C2
100
AcDbEntity
  8
Layer 2
 62
     1
370
    35
100
AcDbVertex
100
AcDb2dVertex
 10
99.09048553781255
 20
162.2157007764962
 30
0.0
  0
VERTEX
  5
C4
330
C2
100
AcDbEntity
  8
Layer 2
 62
     1
370
    35
100
AcDbVertex
100
AcDb2dVertex
 10
100.7772054001106
 20
162.2157007764962
 30
0.0
  0
VERTEX
  5
C5
330
C2
100
AcDbEntity
  8
Layer 2
 62
     1
370
    35
100
AcDbVertex
100
AcDb2dVertex
 10
100.7772054001106
 20
160.6133858092682
 30
0.0
  0
VERTEX
  5
C6
330
C2
100
AcDbEntity
  8
Layer 2
 62
     1
370
    35
100
AcDbVertex
100
AcDb2dVertex
 10
107.8608431551435
 20
160.6133858092682
 30
0.0
  0
VERTEX
  5
C7
330
C2
100
AcDbEntity
  8
Layer 2
 62
     1
370
    35
100
AcDbVertex
100
AcDb2dVertex
 10
107.8608431551435
 20
162.3001056715662
 30
0.0
  0
VERTEX
  5
C8
330
C2
100
AcDbEntity
  8
Layer 2
 62
     1
370
    35
100
AcDbVertex
100
AcDb2dVertex
 10
108.3669280157881
 20
162.3001056715662
 30
0.0
  0
VERTEX
  5
C9
330
C2
100
AcDbEntity
  8
Layer 2
 62
     1
370
    35
100
AcDbVertex
100
AcDb2dVertex
 10
108.3669280157881
 20
160.529153169086
 30
0.0
  0
VERTEX
  5
CA
330
C2
100
AcDbEntity
  8
Layer 2
 62
     1
370
    35
100
AcDbVertex
100
AcDb2dVertex
 10
111.2339383699638
 20
160.529153169086
 30
0.0
  0
VERTEX
  5
CB
330
C2
100
AcDbEntity
  8
Layer 2
 62
     1
370
    35
100
AcDbVertex
100
AcDb2dVertex
 10
111.2339383699638
 20
163.2276982428974
 30
0.0
  0
VERTEX
  5
CC
330
C2
100
AcDbEntity
  8
Layer 2
 62
     1
370
    35
100
AcDbVertex
100
AcDb2dVertex
 10
113.1735284076962
 20
163.2276982428974
 30
0.0
  0
VERTEX
  5
CD
330
C2
100
AcDbEntity
  8
Layer 2
 62
     1
370
    35
100
AcDbVertex
100
AcDb2dVertex
 10
113.1735284076962
 20
159.8544307731892
 30
0.0
  0
VERTEX
  5
CE
330
C2
100
AcDbEntity
  8
Layer 2
 62
     1
370
    35
100
AcDbVertex
100
AcDb2dVertex
 10
112.0772983011128
 20
159.8544307731892
 30
0.0
  0
VERTEX
  5
CF
330
C2
100
AcDbEntity
  8
Layer 2
 62
     1
370
    35
100
AcDbVertex
100
AcDb2dVertex
 10
112.0772983011128
 20
147.4577632558278
 30
0.0
  0
VERTEX
  5
D0
330
C2
100
AcDbEntity
  8
Layer 2
 62
     1
370
    35
100
AcDbVertex
100
AcDb2dVertex
 10
112.5833831617574
 20
147.4577632558278
 30
0.0
  0
VERTEX
  5
D1
330
C2
100
AcDbEntity
  8
Layer 2
 62
     1
370
    35
100
AcDbVertex
100
AcDb2dVertex
 10
112.5833831617574
 20
137.3384776113669
 30
0.0
  0
VERTEX
  5
D2
330
C2
100
AcDbEntity
  8
Layer 2
 62
     1
370
    35
100
AcDbVertex
100
AcDb2dVertex
 10
107.0174832239945
 20
137.3384776113669
 30
0.0
  0
VERTEX
  5
D3
330
C2
100
AcDbEntity
  8
Layer 2
 62
     1
370
    35
100
AcDbVertex
100
AcDb2dVertex
 10
107.0174832239945
 20
130.2546676014461
 30
0.0
  0
VERTEX
  5
D4
330
C2
100
AcDbEntity
  8
Layer 2
 62
     1
370
    35
100
AcDbVertex
100
AcDb2dVertex
 10
107.6923778747792
 20
130.2546676014461
 30
0.0
  0
VERTEX
  5
D5
330
C2
100
AcDbEntity
  8
Layer 2
 62
     1
370
    35
100
AcDbVertex
100
AcDb2dVertex
 10
107.6923778747792
 20
122.5807123455864
 30
0.0
  0
VERTEX
  5
D6
330
C2
100
AcDbEntity
  8
Layer 2
 62
     1
370
    35
100
AcDbVertex
100
AcDb2dVertex
 10
107.0174832239945
 20
122.5807123455864
 30
0.0
  0
VERTEX
  5
D7
330
C2
100
AcDbEntity
  8
Layer 2
 62
     1
370
    35
100
AcDbVertex
100
AcDb2dVertex
 10
107.0174832239945
 20
123.9298126276042
 30
0.0
  0
VERTEX
  5
D8
330
C2
100
AcDbEntity
  8
Layer 2
 62
     1
370
    35
100
AcDbVertex
100
AcDb2dVertex
 10
100.6085678648584
 20
123.9298126276042
 30
0.0
  0
VERTEX
  5
D9
330
C2
100
AcDbEntity
  8
Layer 2
 62
     1
370
    35
100
AcDbVertex
100
AcDb2dVertex
 10
100.6085678648584
 20
122.2430927653062
 30
0.0
  0
VERTEX
  5
DA
330
C2
100
AcDbEntity
  8
Layer 2
 62
     1
370
    35
100
AcDbVertex
100
AcDb2dVertex
 10
98.92184800256032
 20
122.2430927653062
 30
0.0
  0
VERTEX
  5
DB
330
C2
100
AcDbEntity
  8
Layer 2
 62
     1
370
    35
100
AcDbVertex
100
AcDb2dVertex
 10
98.83761536237817
 20
124.1826828030386
 30
0.0
  0
VERTEX
  5
DC
330
C2
100
AcDbEntity
  8
Layer 2
 62
     1
370
    35
100
AcDbVertex
100
AcDb2dVertex
 10
96.64498289432345
 20
124.1826828030386
 30
0.0
  0
VERTEX
  5
DD
330
C2
100
AcDbEntity
  8
Layer 2
 62
     1
370
    35
100
AcDbVertex
100
AcDb2dVertex
 10
96.64498289432345
 20
124.7731725587532
 30
0.0
  0
VERTEX
  5
DE
330
C2
100
AcDbEntity
  8
Layer 2
 62
     1
370
    35
100
AcDbVertex
100
AcDb2dVertex
 10
107.1018881190646
 20
124.7731725587532
 30
0.0
  0
VERTEX
  5
DF
330
C2
100
AcDbEntity
  8
Layer 2
 62
     1
370
    35
100
AcDbVertex
100
AcDb2dVertex
 10
107.1018881190646
 20
129.5801174604372
 30
0.0
  0
VERTEX
  5
E0
330
C2
100
AcDbEntity
  8
Layer 2
 62
     1
370
    35
100
AcDbVertex
100
AcDb2dVertex
 10
96.64498289432345
 20
130.7604079523149
 30
0.0
  0
VERTEX
  5
E1
330
C2
100
AcDbEntity
  8
Layer 2
 62
     1
370
    35
100
AcDbVertex
100
AcDb2dVertex
 10
96.64498289432345
 20
131.4353026030996
 30
0.0
  0
VERTEX
  5
E2
330
C2
100
AcDbEntity
  8
Layer 2
 62
     1
370
    35
100
AcDbVertex
100
AcDb2dVertex
 10
106.3429330829856
 20
130.3390724965161
 30
0.0
  0
VERTEX
  5
E3
330
C2
100
AcDbEntity
  8
Layer 2
 62
     1
370
    35
100
AcDbVertex
100
AcDb2dVertex
 10
106.3429330829856
 20
137.4225379966612
 30
0.0
  0
VERTEX
  5
E4
330
C2
100
AcDbEntity
  8
Layer 2
 62
     1
370
    35
100
AcDbVertex
100
AcDb2dVertex
 10
98.3315305017336
 20
137.4225379966612
 30
0.0
  0
VERTEX
  5
E5
330
C2
100
AcDbEntity
  8
Layer 2
 62
     1
370
    35
100
AcDbVertex
100
AcDb2dVertex
 10
98.3315305017336
 20
147.710977941038
 30
0.0
  0
VERTEX
  5
E6
330
C2
100
AcDbEntity
  8
Layer 2
 62
     1
370
    35
100
AcDbVertex
100
AcDb2dVertex
 10
106.7646130485601
 20
147.710977941038
 30
0.0
  0
VERTEX
  5
E7
330
C2
100
AcDbEntity
  8
Layer 2
 62
     1
370
    35
100
AcDbVertex
100
AcDb2dVertex
 10
106.7646130485601
 20
154.5415732657486
 30
0.0
  0
VERTEX
  5
E8
330
C2
100
AcDbEntity
  8
Layer 2
 62
     1
370
    35
100
AcDbVertex
100
AcDb2dVertex
 10
96.64498289432345
 20
153.1923007288429
 30
0.0
  0
VERTEX
  5
E9
330
C2
100
AcDbEntity
  8
Layer 2
 62
     1
370
    35
100
AcDbVertex
100
AcDb2dVertex
 10
96.64498289432345
 20
153.7826182296697
 30
0.0
  0
VERTEX
  5
EA
330
C2
100
AcDbEntity
  8
Layer 2
 62
     1
370
    35
100
AcDbVertex
100
AcDb2dVertex
 10
110.9810681945294
 20
155.8910180575422
 30
0.0
  0
VERTEX
  5
EB
330
C2
100
AcDbEntity
  8
Layer 2
 62
     1
370
    35
100
AcDbVertex
100
AcDb2dVertex
 10
110.9810681945294
 20
159.9388356682593
 30
0.0
  0
VERTEX
  5
EC
330
C2
100
AcDbEntity
  8
Layer 2
 62
     1
370
    35
100
AcDbVertex
100
AcDb2dVertex
 10
96.72938778939351
 20
159.9388356682593
 30
0.0
  0
VERTEX
  5
ED
330
C2
100
AcDbEntity
  8
Layer 2
 62
     1
370
    35
100
AcDbVertex
100
AcDb2dVertex
 10
96.72938778939351
 20
160.3603433789459
 30
0.0
  0
VERTEX
  5
EE
330
C2
100
AcDbEntity
  8
Layer 2
 62
     1
370
    35
100
AcDbVertex
100
AcDb2dVertex
 10
98.92184800256032
 20
160.3603433789459
 30
0.0
  0
VERTEX
  5
EF
330
C2
100
AcDbEntity
  8
Layer 2
 62
     1
370
    35
100
AcDbVertex
100
AcDb2dVertex
 10
99.09048553781255
 20
162.2157007764962
 30
0.0
  0
SEQEND
  5
F0
330
C2
100
AcDbEntity
  8
Layer 2
370
    35
  0
POLYLINE
  5
F1
330
1F
100
AcDbEntity
  8
Layer 2
 62
     1
370
    35
100
AcDb2dPolyline
 66
     1
 10
0.0
 20
0.0
 30
0.0
  0
VERTEX
  5
F2
330
F1
100
AcDbEntity
  8
Layer 2
 62
     1
370
    35
100
AcDbVertex
100
AcDb2dVertex
 10
111.2101671954339
 20
121.8086659380272
 30
0.0
  0
VERTEX
  5
F3
330
F1
100
AcDbEntity
  8
Layer 2
 62
     1
370
    35
100
AcDbVertex
100
AcDb2dVertex
 10
111.2101671954339
 20
124.6963468787507
 30
0.0
  0
VERTEX
  5
F4
330
F1
100
AcDbEntity
  8
Layer 2
 62
     1
370
    35
100
AcDbVertex
100
AcDb2dVertex
 10
111.5787926555358
 20
124.6963468787507
 30
0.0
  0
VERTEX
  5
F5
330
F1
100
AcDbEntity
  8
Layer 2
 62
     1
370
    35
100
AcDbVertex
100
AcDb2dVertex
 10
111.5787926555358
 20
130.1034278098716
 30
0.0
  0
VERTEX
  5
F6
330
F1
100
AcDbEntity
  8
Layer 2
 62
     1
370
    35
100
AcDbVertex
100
AcDb2dVertex
 10
112.1930535857803
 20
130.1034278098716
 30
0.0
  0
VERTEX
  5
F7
330
F1
100
AcDbEntity
  8
Layer 2
 62
     1
370
    35
100
AcDbVertex
100
AcDb2dVertex
 10
112.1930535857803
 20
125.0036495987609
 30
0.0
  0
VERTEX
  5
F8
330
F1
100
AcDbEntity
  8
Layer 2
 62
     1
370
    35
100
AcDbVertex
100
AcDb2dVertex
 10
113.2376072259943
 20
125.0036495987609
 30
0.0
  0
VERTEX
  5
F9
330
F1
100
AcDbEntity
  8
Layer 2
 62
     1
370
    35
100
AcDbVertex
100
AcDb2dVertex
 10
113.2376072259943
 20
121.7473431979355
 30
0.0
  0
VERTEX
  5
FA
330
F1
100
AcDbEntity
  8
Layer 2
 62
     1
370
    35
100
AcDbVertex
100
AcDb2dVertex
 10
111.2101671954339
 20
121.8086659380272
 30
0.0
  0
SEQEND
  5
FB
330
F1
100
AcDbEntity
  8
Layer 2
370
    35
  0
POLYLINE
  5
FC
330
1F
100
AcDbEntity
  8
Layer 2
 62
     1
370
    35
100
AcDb2dPolyline
 66
     1
 10
0.0
 20
0.0
 30
0.0
  0
VERTEX
  5
FD
330
FC
100
AcDbEntity
  8
Layer 2
 62
     1
370
    35
100
AcDbVertex
100
AcDb2dVertex
 10
124.1744145684195
 20
124.9423268586692
 30
0.0
  0
VERTEX
  5
FE
330
FC
100
AcDbEntity
  8
Layer 2
 62
     1
370
    35
100
AcDbVertex
100
AcDb2dVertex
 10
124.1744145684195
 20
121.8703331878947
 30
0.0
  0
VERTEX
  5
FF
330
FC
100
AcDbEntity
  8
Layer 2
 62
     1
370
    35
100
AcDbVertex
100
AcDb2dVertex
 10
126.2631773390717
 20
121.8703331878947
 30
0.0
  0
VERTEX
  5
100
330
FC
100
AcDbEntity
  8
Layer 2
 62
     1
370
    35
100
AcDbVertex
100
AcDb2dVertex
 10
126.2631773390717
 20
124.9423268586692
 30
0.0
  0
VERTEX
  5
101
330
FC
100
AcDbEntity
  8
Layer 2
 62
     1
370
    35
100
AcDbVertex
100
AcDb2dVertex
 10
124.1744145684195
 20
124.9423268586692
 30
0.0
  0
SEQEND
  5
102
330
FC
100
AcDbEntity
  8
Layer 2
370
    35
  0
POLYLINE
  5
103
330
1F
100
AcDbEntity
  8
Layer 2
 62
     1
370
    35
100
AcDb2dPolyline
 66
     1
 10
0.0
 20
0.0
 30
0.0
  0
VERTEX
  5
104
330
103
100
AcDbEntity
  8
Layer 2
 62
     1
370
    35
100
AcDbVertex
100
AcDb2dVertex
 10
124.1744145684195
 20
160.1481253570554
 30
0.0
  0
VERTEX
  5
105
330
103
100
AcDbEntity
  8
Layer 2
 62
     1
370
    35
100
AcDbVertex
100
AcDb2dVertex
 10
126.20185459898
 20
160.1481253570554
 30
0.0
  0
VERTEX
  5
106
330
103
100
AcDbEntity
  8
Layer 2
 62
     1
370
    35
100
AcDbVertex
100
AcDb2dVertex
 10
126.20185459898
 20
163.1587962877382
 30
0.0
  0
VERTEX
  5
107
330
103
100
AcDbEntity
  8
Layer 2
 62
     1
370
    35
100
AcDbVertex
100
AcDb2dVertex
 10
124.2970600486029
 20
163.1587962877382
 30
0.0
  0
VERTEX
  5
108
330
103
100
AcDbEntity
  8
Layer 2
 62
     1
370
    35
100
AcDbVertex
100
AcDb2dVertex
 10
124.1744145684195
 20
160.1481253570554
 30
0.0
  0
SEQEND
  5
109
330
103
100
AcDbEntity
  8
Layer 2
370
    35
  0
POLYLINE
  5
10A
330
1F
100
AcDbEntity
  8
Layer 2
 62
     1
370
    35
100
AcDb2dPolyline
 66
     1
 10
0.0
 20
0.0
 30
0.0
  0
VERTEX
  5
10B
330
10A
100
AcDbEntity
  8
Layer 2
 62
     1
370
    35
100
AcDbVertex
100
AcDb2dVertex
 10
98.44332392397945
 20
215.3826886909036
 30
0.0
  0
VERTEX
  5
10C
330
10A
100
AcDbEntity
  8
Layer 2
 62
     1
370
    35
100
AcDbVertex
100
AcDb2dVertex
 10
98.44332392397945
 20
212.6968904787967
 30
0.0
  0
VERTEX
  5
10D
330
10A
100
AcDbEntity
  8
Layer 2
 62
     1
370
    35
100
AcDbVertex
100
AcDb2dVertex
 10
151.861976229606
 20
212.6968904787967
 30
0.0
  0
VERTEX
  5
10E
330
10A
100
AcDbEntity
  8
Layer 2
 62
     1
370
    35
100
AcDbVertex
100
AcDb2dVertex
 10
151.861976229606
 20
213.2436274929852
 30
0.0
  0
VERTEX
  5
10F
330
10A
100
AcDbEntity
  8
Layer 2
 62
     1
370
    35
100
AcDbVertex
100
AcDb2dVertex
 10
154.647337766918
 20
213.2436274929852
 30
0.0
  0
VERTEX
  5
110
330
10A
100
AcDbEntity
  8
Layer 2
 62
     1
370
    35
100
AcDbVertex
100
AcDb2dVertex
 10
154.647337766918
 20
214.0892267376769
 30
0.0
  0
VERTEX
  5
111
330
10A
100
AcDbEntity
  8
Layer 2
 62
     1
370
    35
100
AcDbVertex
100
AcDb2dVertex
 10
151.861976229606
 20
214.0892267376769
 30
0.0
  0
VERTEX
  5
112
330
10A
100
AcDbEntity
  8
Layer 2
 62
     1
370
    35
100
AcDbVertex
100
AcDb2dVertex
 10
151.861976229606
 20
215.3325625185253
 30
0.0
  0
VERTEX
  5
113
330
10A
100
AcDbEntity
  8
Layer 2
 62
     1
370
    35
100
AcDbVertex
100
AcDb2dVertex
 10
150.2703410654277
 20
215.3325625185253
 30
0.0
  0
VERTEX
  5
114
330
10A
100
AcDbEntity
  8
Layer 2
 62
     1
370
    35
100
AcDbVertex
100
AcDb2dVertex
 10
150.2703410654277
 20
214.0394450750744
 30
0.0
  0
VERTEX
  5
115
330
10A
100
AcDbEntity
  8
Layer 2
 62
     1
370
    35
100
AcDbVertex
100
AcDb2dVertex
 10
126.0478587291991
 20
214.0394450750744
 30
0.0
  0
VERTEX
  5
116
330
10A
100
AcDbEntity
  8
Layer 2
 62
     1
370
    35
100
AcDbVertex
100
AcDb2dVertex
 10
126.0478587291991
 20
215.3823441811278
 30
0.0
  0
VERTEX
  5
117
330
10A
100
AcDbEntity
  8
Layer 2
 62
     1
370
    35
100
AcDbVertex
100
AcDb2dVertex
 10
124.3566602398157
 20
215.3823441811278
 30
0.0
  0
VERTEX
  5
118
330
10A
100
AcDbEntity
  8
Layer 2
 62
     1
370
    35
100
AcDbVertex
100
AcDb2dVertex
 10
124.3566602398157
 20
213.9896634124718
 30
0.0
  0
VERTEX
  5
119
330
10A
100
AcDbEntity
  8
Layer 2
 62
     1
370
    35
100
AcDbVertex
100
AcDb2dVertex
 10
100.2337412287921
 20
213.9896634124718
 30
0.0
  0
VERTEX
  5
11A
330
10A
100
AcDbEntity
  8
Layer 2
 62
     1
370
    35
100
AcDbVertex
100
AcDb2dVertex
 10
100.2337412287921
 20
215.3823441811278
 30
0.0
  0
VERTEX
  5
11B
330
10A
100
AcDbEntity
  8
Layer 2
 62
     1
370
    35
100
AcDbVertex
100
AcDb2dVertex
 10
98.44332392397945
 20
215.3826886909036
 30
0.0
  0
SEQEND
  5
11C
330
10A
100
AcDbEntity
  8
Layer 2
370
    35
  0
POLYLINE
  5
11E
330
1F
100
AcDbEntity
  8
Layer 3
 62
     4
370
    70
100
AcDb2dPolyline
 66
     1
 10
0.0
 20
0.0
 30
0.0
  0
VERTEX
  5
11F
330
11E
100
AcDbEntity
  8
Layer 3
 62
     4
370
    70
100
AcDbVertex
100
AcDb2dVertex
 10
84.78109974523079
 20
221.9640311928257
 30
0.0
  0
VERTEX
  5
120
330
11E
100
AcDbEntity
  8
Layer 3
 62
     4
370
    70
100
AcDbVertex
100
AcDb2dVertex
 10
84.78109974523079
 20
64.26278651836256
 30
0.0
  0
SEQEND
  5
121
330
11E
100
AcDbEntity
  8
Layer 3
370
    70
  0
POLYLINE
  5
122
330
1F
100
AcDbEntity
  8
Layer 3
 62
     4
370
    70
100
AcDb2dPolyline
 66
     1
 10
0.0
 20
0.0
 30
0.0
  0
VERTEX
  5
123
330
122
100
AcDbEntity
  8
Layer 3
 62
     4
370
    70
100
AcDbVertex
100
AcDb2dVertex
 10
43.87797082961535
 20
158.4353950066848
 30
0.0
  0
VERTEX
  5
124
330
122
100
AcDbEntity
  8
Layer 3
 62
     4
370
    70
100
AcDbVertex
100
AcDb2dVertex
 10
85.63927359673905
 20
158.4353950066848
 30
0.0
  0
SEQEND
  5
125
330
122
100
AcDbEntity
  8
Layer 3
370
    70
  0
POLYLINE
  5
126
330
1F
100
AcDbEntity
  8
Layer 3
 62
     4
370
    70
100
AcDb2dPolyline
 66
     1
 10
0.0
 20
0.0
 30
0.0
  0
VERTEX
  5
127
330
126
100
AcDbEntity
  8
Layer 3
 62
     4
370
    70
100
AcDbVertex
100
AcDb2dVertex
 10
43.87797082961535
 20
125.6365140568984
 30
0.0
  0
VERTEX
  5
128
330
126
100
AcDbEntity
  8
Layer 3
 62
     4
370
    70
100
AcDbVertex
100
AcDb2dVertex
 10
85.63927359673905
 20
125.6365140568984
 30
0.0
  0
SEQEND
  5
129
330
126
100
AcDbEntity
  8
Layer 3
370
    70
  0
POLYLINE
  5
12A
330
1F
100
AcDbEntity
  8
Layer 3
 62
     4
370
    70
100
AcDb2dPolyline
 66
     1
 10
0.0
 20
0.0
 30
0.0
  0
VERTEX
  5
12B
330
12A
100
AcDbEntity
  8
Layer 3
 62
     4
370
    70
100
AcDbVertex
100
AcDb2dVertex
 10
83.73241198770725
 20
127.5723144870971
 30
0.0
  0
VERTEX
  5
12C
330
12A
100
AcDbEntity
  8
Layer 3
 62
     4
370
    70
100
AcDbVertex
100
AcDb2dVertex
 10
106.4245818998493
 20
127.5723144870971
 30
0.0
  0
SEQEND
  5
12D
330
12A
100
AcDbEntity
  8
Layer 3
370
    70
  0
POLYLINE
  5
12E
330
1F
100
AcDbEntity
  8
Layer 3
 62
     4
370
    70
100
AcDb2dPolyline
 66
     1
 10
0.0
 20
0.0
 30
0.0
  0
VERTEX
  5
12F
330
12E
100
AcDbEntity
  8
Layer 3
 62
     4
370
    70
100
AcDbVertex
100
AcDb2dVertex
 10
83.73241198770725
 20
100.3036767132788
 30
0.0
  0
VERTEX
  5
130
330
12E
100
AcDbEntity
  8
Layer 3
 62
     4
370
    70
100
AcDbVertex
100
AcDb2dVertex
 10
106.4245818998493
 20
100.3036767132788
 30
0.0
  0
SEQEND
  5
131
330
12E
100
AcDbEntity
  8
Layer 3
370
    70
  0
POLYLINE
  5
132
330
1F
100
AcDbEntity
  8
Layer 3
 62
     4
370
    70
100
AcDb2dPolyline
 66
     1
 10
0.0
 20
0.0
 30
0.0
  0
VERTEX
  5
133
330
132
100
AcDbEntity
  8
Layer 3
 62
     4
370
    70
100
AcDbVertex
100
AcDb2dVertex
 10
83.73241198770725
 20
156.9385000308505
 30
0.0
  0
VERTEX
  5
134
330
132
100
AcDbEntity
  8
Layer 3
 62
     4
370
    70
100
AcDbVertex
100
AcDb2dVertex
 10
106.4245818998493
 20
156.9385000308505
 30
0.0
  0
SEQEND
  5
135
330
132
100
AcDbEntity
  8
Layer 3
370
    70
  0
POLYLINE
  5
136
330
1F
100
AcDbEntity
  8
Layer 3
 62
     4
370
    70
100
AcDb2dPolyline
 66
     1
 10
0.0
 20
0.0
 30
0.0
  0
VERTEX
  5
137
330
136
100
AcDbEntity
  8
Layer 3
 62
     4
370
    70
100
AcDbVertex
100
AcDb2dVertex
 10
83.73241198770725
 20
165.3288633654782
 30
0.0
  0
VERTEX
  5
138
330
136
100
AcDbEntity
  8
Layer 3
 62
     4
370
    70
100
AcDbVertex
100
AcDb2dVertex
 10
123.2053085691049
 20
165.3288633654782
 30
0.0
  0
SEQEND
  5
139
330
136
100
AcDbEntity
  8
Layer 3
370
    70
  0
POLYLINE
  5
13A
330
1F
100
AcDbEntity
  8
Layer 3
 62
     4
370
    70
100
AcDb2dPolyline
 66
     1
 10
0.0
 20
0.0
 30
0.0
  0
VERTEX
  5
13B
330
13A
100
AcDbEntity
  8
Layer 3
 62
     4
370
    70
100
AcDbVertex
100
AcDb2dVertex
 10
83.73241198770725
 20
118.9909204817904
 30
0.0
  0
VERTEX
  5
13C
330
13A
100
AcDbEntity
  8
Layer 3
 62
     4
370
    70
100
AcDbVertex
100
AcDb2dVertex
 10
123.2053085691049
 20
118.9909204817904
 30
0.0
  0
SEQEND
  5
13D
330
13A
100
AcDbEntity
  8
Layer 3
370
    70
  0
POLYLINE
  5
13E
330
1F
100
AcDbEntity
  8
Layer 3
 62
     4
370
    70
100
AcDb2dPolyline
 66
     1
 10
0.0
 20
0.0
 30
0.0
  0
VERTEX
  5
13F
330
13E
100
AcDbEntity
  8
Layer 3
 62
     4
370
    70
100
AcDbVertex
100
AcDb2dVertex
 10
83.73241198770725
 20
112.1258741795001
 30
0.0
  0
VERTEX
  5
140
330
13E
100
AcDbEntity
  8
Layer 3
 62
     4
370
    70
100
AcDbVertex
100
AcDb2dVertex
 10
128.5638136218385
 20
112.1258741795001
 30
0.0
  0
SEQEND
  5
141
330
13E
100
AcDbEntity
  8
Layer 3
370
    70
  0
POLYLINE
  5
142
330
1F
100
AcDbEntity
  8
Layer 3
 62
     4
370
    70
100
AcDb2dPolyline
 66
     1
 10
0.0
 20
0.0
 30
0.0
  0
VERTEX
  5
143
330
142
100
AcDbEntity
  8
Layer 3
 62
     4
370
    70
100
AcDbVertex
100
AcDb2dVertex
 10
5.167646636942533
 20
113.9855379492478
 30
0.0
  0
VERTEX
  5
144
330
142
100
AcDbEntity
  8
Layer 3
 62
     4
370
    70
100
AcDbVertex
100
AcDb2dVertex
 10
85.82995975764221
 20
113.9855379492478
 30
0.0
  0
SEQEND
  5
145
330
142
100
AcDbEntity
  8
Layer 3
370
    70
  0
POLYLINE
  5
146
330
1F
100
AcDbEntity
  8
Layer 3
 62
     4
370
    70
100
AcDb2dPolyline
 66
     1
 10
0.0
 20
0.0
 30
0.0
  0
VERTEX
  5
147
330
146
100
AcDbEntity
  8
Layer 3
 62
     4
370
    70
100
AcDbVertex
100
AcDb2dVertex
 10
5.167646636942533
 20
170.3917790305787
 30
0.0
  0
VERTEX
  5
148
330
146
100
AcDbEntity
  8
Layer 3
 62
     4
370
    70
100
AcDbVertex
100
AcDb2dVertex
 10
85.82995975764221
 20
170.3917790305787
 30
0.0
  0
SEQEND
  5
149
330
146
100
AcDbEntity
  8
Layer 3
370
    70
  0
POLYLINE
  5
14A
330
1F
100
AcDbEntity
  8
Layer 3
 62
     4
370
    70
100
AcDb2dPolyline
 66
     1
 10
0.0
 20
0.0
 30
0.0
  0
VERTEX
  5
14B
330
14A
100
AcDbEntity
  8
Layer 3
 62
     4
370
    70
100
AcDbVertex
100
AcDb2dVertex
 10
67.14219922446694
 20
173.5287127940908
 30
0.0
  0
VERTEX
  5
14C
330
14A
100
AcDbEntity
  8
Layer 3
 62
     4
370
    70
100
AcDbVertex
100
AcDb2dVertex
 10
67.14219922446694
 20
164.5661187218655
 30
0.0
  0
SEQEND
  5
14D
330
14A
100
AcDbEntity
  8
Layer 3
370
    70
  0
POLYLINE
  5
14E
330
1F
100
AcDbEntity
  8
Layer 3
 62
     4
370
    70
100
AcDb2dPolyline
 66
     1
 10
0.0
 20
0.0
 30
0.0
  0
VERTEX
  5
14F
330
14E
100
AcDbEntity
  8
Layer 3
 62
     4
370
    70
100
AcDbVertex
100
AcDb2dVertex
 10
66.76082690266058
 20
120.1353819569852
 30
0.0
  0
VERTEX
  5
150
330
14E
100
AcDbEntity
  8
Layer 3
 62
     4
370
    70
100
AcDbVertex
100
AcDb2dVertex
 10
66.76082690266058
 20
110.2193570802441
 30
0.0
  0
SEQEND
  5
151
330
14E
100
AcDbEntity
  8
Layer 3
370
    70
  0
POLYLINE
  5
152
330
1F
100
AcDbEntity
  8
Layer 3
 62
     4
370
    70
100
AcDb2dPolyline
 66
     1
 10
0.0
 20
0.0
 30
0.0
  0
VERTEX
  5
153
330
152
100
AcDbEntity
  8
Layer 3
 62
     4
370
    70
100
AcDbVertex
100
AcDb2dVertex
 10
68.66768851169238
 20
137.8693671758688
 30
0.0
  0
VERTEX
  5
154
330
152
100
AcDbEntity
  8
Layer 3
 62
     4
370
    70
100
AcDbVertex
100
AcDb2dVertex
 10
85.82995975764221
 20
137.8693671758688
 30
0.0
  0
SEQEND
  5
155
330
152
100
AcDbEntity
  8
Layer 3
370
    70
  0
POLYLINE
  5
156
330
1F
100
AcDbEntity
  8
Layer 3
 62
     4
370
    70
100
AcDb2dPolyline
 66
     1
 10
0.0
 20
0.0
 30
0.0
  0
VERTEX
  5
157
330
156
100
AcDbEntity
  8
Layer 3
 62
     4
370
    70
100
AcDbVertex
100
AcDb2dVertex
 10
68.47700235078919
 20
146.8317889932061
 30
0.0
  0
VERTEX
  5
158
330
156
100
AcDbEntity
  8
Layer 3
 62
     4
370
    70
100
AcDbVertex
100
AcDb2dVertex
 10
85.63927359673905
 20
146.8317889932061
 30
0.0
  0
SEQEND
  5
159
330
156
100
AcDbEntity
  8
Layer 3
370
    70
  0
POLYLINE
  5
15A
330
1F
100
AcDbEntity
  8
Layer 3
 62
     4
370
    70
100
AcDb2dPolyline
 66
     1
 10
0.0
 20
0.0
 30
0.0
  0
VERTEX
  5
15B
330
15A
100
AcDbEntity
  8
Layer 3
 62
     4
370
    70
100
AcDbVertex
100
AcDb2dVertex
 10
85.82995975764221
 20
191.0721841069591
 30
0.0
  0
VERTEX
  5
15C
330
15A
100
AcDbEntity
  8
Layer 3
 62
     4
370
    70
100
AcDbVertex
100
AcDb2dVertex
 10
64.09122065001607
 20
191.0721841069591
 30
0.0
  0
SEQEND
  5
15D
330
15A
100
AcDbEntity
  8
Layer 3
370
    70
  0
POLYLINE
  5
15E
330
1F
100
AcDbEntity
  8
Layer 3
 62
     4
370
    70
100
AcDb2dPolyline
 66
     1
 10
0.0
 20
0.0
 30
0.0
  0
VERTEX
  5
15F
330
15E
100
AcDbEntity
  8
Layer 3
 62
     4
370
    70
100
AcDbVertex
100
AcDb2dVertex
 10
22.68493520685033
 20
212.9514832031101
 30
0.0
  0
VERTEX
  5
160
330
15E
100
AcDbEntity
  8
Layer 3
 62
     4
370
    70
100
AcDbVertex
100
AcDb2dVertex
 10
72.86295630645022
 20
188.5932640152177
 30
0.0
  0
SEQEND
  5
161
330
15E
100
AcDbEntity
  8
Layer 3
370
    70
  0
POLYLINE
  5
162
330
1F
100
AcDbEntity
  8
Layer 3
 62
     4
370
    70
100
AcDb2dPolyline
 66
     1
 10
0.0
 20
0.0
 30
0.0
  0
VERTEX
  5
163
330
162
100
AcDbEntity
  8
Layer 3
 62
     4
370
    70
100
AcDbVertex
100
AcDb2dVertex
 10
175.8360670174856
 20
202.3230121100225
 30
0.0
  0
VERTEX
  5
164
330
162
100
AcDbEntity
  8
Layer 3
 62
     4
370
    70
100
AcDbVertex
100
AcDb2dVertex
 10
99.55970785244693
 20
212.620237053682
 30
0.0
  0
SEQEND
  5
165
330
162
100
AcDbEntity
  8
Layer 3
370
    70
  0
POLYLINE
  5
166
330
1F
100
AcDbEntity
  8
Layer 3
 62
     4
370
    70
100
AcDb2dPolyline
 66
     1
 10
0.0
 20
0.0
 30
0.0
  0
VERTEX
  5
167
330
166
100
AcDbEntity
  8
Layer 3
 62
     4
370
    70
100
AcDbVertex
100
AcDb2dVertex
 10
83.35103966590088
 20
210.5226892837471
 30
0.0
  0
VERTEX
  5
168
330
166
100
AcDbEntity
  8
Layer 3
 62
     4
370
    70
100
AcDbVertex
100
AcDb2dVertex
 10
116.7219790983968
 20
210.5226892837471
 30
0.0
  0
SEQEND
  5
169
330
166
100
AcDbEntity
  8
Layer 3
370
    70
  0
POLYLINE
  5
16A
330
1F
100
AcDbEntity
  8
Layer 3
 62
     4
370
    70
100
AcDb2dPolyline
 66
     1
 10
0.0
 20
0.0
 30
0.0
  0
VERTEX
  5
16B
330
16A
100
AcDbEntity
  8
Layer 3
 62
     4
370
    70
100
AcDbVertex
100
AcDb2dVertex
 10
201.9605878258849
 20
111.5539879516785
 30
0.0
  0
VERTEX
  5
16C
330
16A
100
AcDbEntity
  8
Layer 3
 62
     4
370
    70
100
AcDbVertex
100
AcDb2dVertex
 10
176.7893255671136
 20
71.89057746426553
 30
0.0
  0
SEQEND
  5
16D
330
16A
100
AcDbEntity
  8
Layer 3
370
    70
  0
POLYLINE
  5
16E
330
1F
100
AcDbEntity
  8
Layer 3
 62
     4
370
    70
100
AcDb2dPolyline
 66
     1
 10
0.0
 20
0.0
 30
0.0
  0
VERTEX
  5
16F
330
16E
100
AcDbEntity
  8
Layer 3
 62
     4
370
    70
100
AcDbVertex
100
AcDb2dVertex
 10
175.8360670174856
 20
122.995502115645
 30
0.0
  0
VERTEX
  5
170
330
16E
100
AcDbEntity
  8
Layer 3
 62
     4
370
    70
100
AcDbVertex
100
AcDb2dVertex
 10
151.4847380251092
 20
72.08109137028082
 30
0.0
  0
SEQEND
  5
171
330
16E
100
AcDbEntity
  8
Layer 3
370
    70
  0
POLYLINE
  5
172
330
1F
100
AcDbEntity
  8
Layer 3
 62
     4
370
    70
100
AcDb2dPolyline
 66
     1
 10
0.0
 20
0.0
 30
0.0
  0
VERTEX
  5
173
330
172
100
AcDbEntity
  8
Layer 3
 62
     4
370
    70
100
AcDbVertex
100
AcDb2dVertex
 10
152.8958500667703
 20
72.08109137028082
 30
0.0
  0
VERTEX
  5
174
330
172
100
AcDbEntity
  8
Layer 3
 62
     4
370
    70
100
AcDbVertex
100
AcDb2dVertex
 10
125.3030285939277
 20
115.1771972637268
 30
0.0
  0
SEQEND
  5
175
330
172
100
AcDbEntity
  8
Layer 3
370
    70
  0
POLYLINE
  5
176
330
1F
100
AcDbEntity
  8
Layer 3
 62
     4
370
    70
100
AcDb2dPolyline
 66
     1
 10
0.0
 20
0.0
 30
0.0
  0
VERTEX
  5
177
330
176
100
AcDbEntity
  8
Layer 3
 62
     4
370
    70
100
AcDbVertex
100
AcDb2dVertex
 10
160.8481692214733
 20
98.96835682229282
 30
0.0
  0
VERTEX
  5
178
330
176
100
AcDbEntity
  8
Layer 3
 62
     4
370
    70
100
AcDbVertex
100
AcDb2dVertex
 10
201.4655272780658
 20
72.27194978607189
 30
0.0
  0
SEQEND
  5
179
330
176
100
AcDbEntity
  8
Layer 3
370
    70
  0
POLYLINE
  5
17A
330
1F
100
AcDbEntity
  8
Layer 3
 62
     4
370
    70
100
AcDb2dPolyline
 66
     1
 10
0.0
 20
0.0
 30
0.0
  0
VERTEX
  5
17B
330
17A
100
AcDbEntity
  8
Layer 3
 62
     4
370
    70
100
AcDbVertex
100
AcDb2dVertex
 10
99.75039401335012
 20
106.4052893524047
 30
0.0
  0
VERTEX
  5
17C
330
17A
100
AcDbEntity
  8
Layer 3
 62
     4
370
    70
100
AcDbVertex
100
AcDb2dVertex
 10
124.1589116285087
 20
72.08109137028082
 30
0.0
  0
SEQEND
  5
17D
330
17A
100
AcDbEntity
  8
Layer 3
370
    70
  0
POLYLINE
  5
17E
330
1F
100
AcDbEntity
  8
Layer 3
 62
     4
370
    70
100
AcDb2dPolyline
 66
     1
 10
0.0
 20
0.0
 30
0.0
  0
VERTEX
  5
17F
330
17E
100
AcDbEntity
  8
Layer 3
 62
     4
370
    70
100
AcDbVertex
100
AcDb2dVertex
 10
22.52060404379556
 20
96.68012289145466
 30
0.0
  0
VERTEX
  5
180
330
17E
100
AcDbEntity
  8
Layer 3
 62
     4
370
    70
100
AcDbVertex
100
AcDb2dVertex
 10
72.48158398464386
 20
71.89057746426553
 30
0.0
  0
SEQEND
  5
181
330
17E
100
AcDbEntity
  8
Layer 3
370
    70
  0
POLYLINE
  5
182
330
1F
100
AcDbEntity
  8
Layer 3
 62
     4
370
    70
100
AcDb2dPolyline
 66
     1
 10
0.0
 20
0.0
 30
0.0
  0
VERTEX
  5
183
330
182
100
AcDbEntity
  8
Layer 3
 62
     4
370
    70
100
AcDbVertex
100
AcDb2dVertex
 10
87.54613520577084
 20
73.22520833569989
 30
0.0
  0
VERTEX
  5
184
330
182
100
AcDbEntity
  8
Layer 3
 62
     4
370
    70
100
AcDbVertex
100
AcDb2dVertex
 10
66.76082690266058
 20
73.22520833569989
 30
0.0
  0
SEQEND
  5
185
330
182
100
AcDbEntity
  8
Layer 3
370
    70
  0
POLYLINE
  5
186
330
1F
100
AcDbEntity
  8
Layer 3
 62
     4
370
    70
100
AcDb2dPolyline
 66
     1
 10
0.0
 20
0.0
 30
0.0
  0
VERTEX
  5
187
330
186
100
AcDbEntity
  8
Layer 3
 62
     4
370
    70
100
AcDbVertex
100
AcDb2dVertex
 10
29.46230377120046
 20
131.7674100269671
 30
0.0
  0
VERTEX
  5
188
330
186
100
AcDbEntity
  8
Layer 3
 62
     4
370
    70
100
AcDbVertex
100
AcDb2dVertex
 10
65.88439403303512
 20
160.7523955038019
 30
0.0
  0
SEQEND
  5
189
330
186
100
AcDbEntity
  8
Layer 3
370
    70
  0
POLYLINE
  5
18A
330
1F
100
AcDbEntity
  8
Layer 3
 62
     4
370
    70
100
AcDb2dPolyline
 66
     1
 10
0.0
 20
0.0
 30
0.0
  0
VERTEX
  5
18B
330
18A
100
AcDbEntity
  8
Layer 3
 62
     4
370
    70
100
AcDbVertex
100
AcDb2dVertex
 10
29.27161761029728
 20
152.7434044909805
 30
0.0
  0
VERTEX
  5
18C
330
18A
100
AcDbEntity
  8
Layer 3
 62
     4
370
    70
100
AcDbVertex
100
AcDb2dVertex
 10
64.16804633001861
 20
123.9491051750488
 30
0.0
  0
SEQEND
  5
18D
330
18A
100
AcDbEntity
  8
Layer 3
370
    70
  0
POLYLINE
  5
18E
330
1F
100
AcDbEntity
  8
Layer 3
 62
     4
370
    70
100
AcDb2dPolyline
 66
     1
 10
0.0
 20
0.0
 30
0.0
  0
VERTEX
  5
18F
330
18E
100
AcDbEntity
  8
Layer 3
 62
     4
370
    70
100
AcDbVertex
100
AcDb2dVertex
 10
111.4592477633345
 20
167.9986418730107
 30
0.0
  0
VERTEX
  5
190
330
18E
100
AcDbEntity
  8
Layer 3
 62
     4
370
    70
100
AcDbVertex
100
AcDb2dVertex
 10
176.2942650192945
 20
124.9023637246768
 30
0.0
  0
SEQEND
  5
191
330
18E
100
AcDbEntity
  8
Layer 3
370
    70
  0
POLYLINE
  5
192
330
1F
100
AcDbEntity
  8
Layer 3
 62
     4
370
    70
100
AcDb2dPolyline
 66
     1
 10
0.0
 20
0.0
 30
0.0
  0
VERTEX
  5
193
330
192
100
AcDbEntity
  8
Layer 3
 62
     4
370
    70
100
AcDbVertex
100
AcDb2dVertex
 10
107.6455245452709
 20
116.5121726449369
 30
0.0
  0
VERTEX
  5
194
330
192
100
AcDbEntity
  8
Layer 3
 62
     4
370
    70
100
AcDbVertex
100
AcDb2dVertex
 10
176.8664957568919
 20
159.6082785383828
 30
0.0
  0
SEQEND
  5
195
330
192
100
AcDbEntity
  8
Layer 3
370
    70
  0
ENDSEC
  0
SECTION
  2
OBJECTS
  0
DICTIONARY
  5
C
330
0
100
AcDbDictionary
281
     1
  3
ACAD_GROUP
350
D
  3
ACAD_LAYOUT
350
1A
  3
ACAD_MLINESTYLE
350
17
  3
ACAD_PLOTSETTINGS
350
19
  3
ACAD_PLOTSTYLENAME
350
E
  3
ACAD_TABLESTYLE
350
196
  3
ACAD_VISUALSTYLE
350
2A
  0
DICTIONARY
  5
D
102
{ACAD_REACTORS
330
C
102
}
330
C
100
AcDbDictionary
281
     1
  0
DICTIONARY
  5
1A
102
{ACAD_REACTORS
330
C
102
}
330
C
100
AcDbDictionary
281
     1
  3
Layout1
350
1E
  3
Layout2
350
26
  3
Model
350
22
  0
DICTIONARY
  5
17
102
{ACAD_REACTORS
330
C
102
}
330
C
100
AcDbDictionary
281
     1
  3
Standard
350
18
  0
DICTIONARY
  5
19
102
{ACAD_REACTORS
330
C
102
}
330
C
100
AcDbDictionary
281
     1
  0
ACDBDICTIONARYWDFLT
  5
E
102
{ACAD_REACTORS
330
C
102
}
330
C
100
AcDbDictionary
281
     1
  3
Normal
350
F
100
AcDbDictionaryWithDefault
340
F
  0
DICTIONARY
  5
196
102
{ACAD_REACTORS
330
C
102
}
330
C
100
AcDbDictionary
281
     1
  0
DICTIONARY
  5
2A
102
{ACAD_REACTORS
330
C
102
}
330
C
100
AcDbDictionary
281
     1
  3
2dWireframe
350
2F
  3
3D Hidden
350
31
  3
3dWireframe
350
30
  3
Basic
350
32
  3
Brighten
350
36
  3
ColorChange
350
3A
  3
Conceptual
350
34
  3
Dim
350
35
  3
Facepattern
350
39
  3
Flat
350
2B
  3
FlatWithEdges
350
2C
  3
Gouraud
350
2D
  3
GouraudWithEdges
350
2E
  3
Linepattern
350
38
  3
Realistic
350
33
  3
Thicken
350
37
  0
LAYOUT
  5
1E
102
{ACAD_REACTORS
330
1A
102
}
330
1A
100
AcDbPlotSettings
  1

  2
none_device
  4

  6

 40
0.0
 41
0.0
 42
0.0
 43
0.0
 44
0.0
 45
0.0
 46
0.0
 47
0.0
 48
0.0
 49
0.0
140
0.0
141
0.0
142
1.0
143
1.0
 70
   688
 72
     0
 73
     0
 74
     5
  7

 75
    16
147
1.0
148
0.0
149
0.0
100
AcDbLayout
  1
Layout1
 70
     1
 71
     1
 10
0.0
 20
0.0
 11
12.0
 21
9.0
 12
0.0
 22
0.0
 32
0.0
 14
1.000000000000000E+20
 24
1.000000000000000E+20
 34
1.000000000000000E+20
 15
-1.000000000000000E+20
 25
-1.000000000000000E+20
 35
-1.000000000000000E+20
146
0.0
 13
0.0
 23
0.0
 33
0.0
 16
1.0
 26
0.0
 36
0.0
 17
0.0
 27
1.0
 37
0.0
 76
     0
330
1B
  0
LAYOUT
  5
26
102
{ACAD_REACTORS
330
1A
102
}
330
1A
100
AcDbPlotSettings
  1

  2
none_device
  4

  6

 40
0.0
 41
0.0
 42
0.0
 43
0.0
 44
0.0
 45
0.0
 46
0.0
 47
0.0
 48
0.0
 49
0.0
140
0.0
141
0.0
142
1.0
143
1.0
 70
   688
 72
     0
 73
     0
 74
     5
  7

 75
    16
147
1.0
148
0.0
149
0.0
100
AcDbLayout
  1
Layout2
 70
     1
 71
     2
 10
0.0
 20
0.0
 11
0.0
 21
0.0
 12
0.0
 22
0.0
 32
0.0
 14
0.0
 24
0.0
 34
0.0
 15
0.0
 25
0.0
 35
0.0
146
0.0
 13
0.0
 23
0.0
 33
0.0
 16
1.0
 26
0.0
 36
0.0
 17
0.0
 27
1.0
 37
0.0
 76
     0
330
23
  0
LAYOUT
  5
22
102
{ACAD_REACTORS
330
1A
102
}
330
1A
100
AcDbPlotSettings
  1

  2
none_device
  4

  6

 40
0.0
 41
0.0
 42
0.0
 43
0.0
 44
0.0
 45
0.0
 46
0.0
 47
0.0
 48
0.0
 49
0.0
140
0.0
141
0.0
142
1.0
143
1.0
 70
  1712
 72
     0
 73
     0
 74
     0
  7

 75
     0
147
1.0
148
0.0
149
0.0
100
AcDbLayout
  1
Model
 70
     1
 71
     0
 10
0.0
 20
0.0
 11
12.0
 21
9.0
 12
0.0
 22
0.0
 32
0.0
 14
1.000000000000000E+20
 24
1.000000000000000E+20
 34
1.000000000000000E+20
 15
-1.000000000000000E+20
 25
-1.000000000000000E+20
 35
-1.000000000000000E+20
146
0.0
 13
0.0
 23
0.0
 33
0.0
 16
1.0
 26
0.0
 36
0.0
 17
0.0
 27
1.0
 37
0.0
 76
     0
330
1F
331
29
  0
MLINESTYLE
  5
18
102
{ACAD_REACTORS
330
17
102
}
330
17
100
AcDbMlineStyle
  2
Standard
 70
     0
  3

 62
   256
 51
90.0
 52
90.0
 71
     2
 49
0.5
 62
   256
  6
BYLAYER
 49
-0.5
 62
   256
  6
BYLAYER
  0
ACDBPLACEHOLDER
  5
F
102
{ACAD_REACTORS
330
E
102
}
330
E
  0
VISUALSTYLE
  5
2F
102
{ACAD_REACTORS
330
2A
102
}
330
2A
100
AcDbVisualStyle
  2
2dWireframe
 70
     4
 71
     0
 72
     2
 73
     0
 90
        0
 40
-0.6
 41
-30.0
 62
     5
 63
     7
 74
     1
 91
        4
 64
     7
 65
   257
 75
     1
175
     1
 42
1.0
 92
        0
 66
   257
 43
1.0
 76
     1
 77
     6
 78
     2
 67
     7
 79
     5
170
     0
171
     0
290
     0
174
     0
 93
        1
 44
0.0
173
     0
291
     0
 45
0.0
1001
ACAD
1000
AcDbSavedByObjectVersion
1070
     0
  0
VISUALSTYLE
  5
31
102
{ACAD_REACTORS
330
2A
102
}
330
2A
100
AcDbVisualStyle
  2
3D Hidden
 70
     6
 71
     1
 72
     2
 73
     2
 90
        0
 40
-0.6
 41
-30.0
 62
     5
 63
     7
 74
     2
 91
        2
 64
     7
 65
   257
 75
     2
175
     1
 42
40.0
 92
        0
 66
   257
 43
1.0
 76
     1
 77
     6
 78
     2
 67
     7
 79
     3
170
     0
171
     0
290
     0
174
     0
 93
        1
 44
0.0
173
     0
291
     0
 45
0.0
1001
ACAD
1000
AcDbSavedByObjectVersion
1070
     0
  0
VISUALSTYLE
  5
30
102
{ACAD_REACTORS
330
2A
102
}
330
2A
100
AcDbVisualStyle
  2
3dWireframe
 70
     5
 71
     0
 72
     2
 73
     0
 90
        0
 40
-0.6
 41
-30.0
 62
     5
 63
     7
 74
     1
 91
        4
 64
     7
 65
   257
 75
     1
175
     1
 42
1.0
 92
        0
 66
   257
 43
1.0
 76
     1
 77
     6
 78
     2
 67
     7
 79
     5
170
     0
171
     0
290
     0
174
     0
 93
        1
 44
0.0
173
     0
291
     0
 45
0.0
1001
ACAD
1000
AcDbSavedByObjectVersion
1070
     0
  0
VISUALSTYLE
  5
32
102
{ACAD_REACTORS
330
2A
102
}
330
2A
100
AcDbVisualStyle
  2
Basic
 70
     7
 71
     1
 72
     0
 73
     1
 90
        0
 40
-0.6
 41
-30.0
 62
     5
 63
     7
 74
     0
 91
        4
 64
     7
 65
   257
 75
     1
175
     1
 42
1.0
 92
        8
 66
     7
 43
1.0
 76
     1
 77
     6
 78
     2
 67
     7
 79
     5
170
     0
171
     0
290
     0
174
     0
 93
        1
 44
0.0
173
     0
291
     1
 45
0.0
1001
ACAD
1000
AcDbSavedByObjectVersion
1070
     0
  0
VISUALSTYLE
  5
36
102
{ACAD_REACTORS
330
2A
102
}
330
2A
100
AcDbVisualStyle
  2
Brighten
 70
    12
 71
     2
 72
     2
 73
     0
 90
        0
 40
-0.6
 41
-30.0
 62
     5
 63
     7
 74
     1
 91
        4
 64
     7
 65
   257
 75
     1
175
     1
 42
1.0
 92
        8
 66
     7
 43
1.0
 76
     1
 77
     6
 78
     2
 67
     7
 79
     5
170
     0
171
     0
290
     0
174
     0
 93
        1
 44
50.0
173
     0
291
     1
 45
0.0
1001
ACAD
1000
AcDbSavedByObjectVersion
1070
     0
  0
VISUALSTYLE
  5
3A
102
{ACAD_REACTORS
330
2A
102
}
330
2A
100
AcDbVisualStyle
  2
ColorChange
 70
    16
 71
     2
 72
     2
 73
     3
 90
        0
 40
-0.6
 41
-30.0
 62
     5
 63
     8
 74
     1
 91
        4
 64
     7
 65
   257
 75
     1
175
     1
 42
1.0
 92
        8
 66
     8
 43
1.0
 76
     1
 77
     6
 78
     2
 67
     7
 79
     5
170
     0
171
     0
290
     0
174
     0
 93
        1
 44
0.0
173
     0
291
     1
 45
0.0
1001
ACAD
1000
AcDbSavedByObjectVersion
1070
     0
  0
VISUALSTYLE
  5
34
102
{ACAD_REACTORS
330
2A
102
}
330
2A
100
AcDbVisualStyle
  2
Conceptual
 70
     9
 71
     3
 72
     2
 73
     0
 90
        0
 40
-0.6
 41
-30.0
 62
     5
 63
     7
 74
     2
 91
        2
 64
     7
 65
   257
 75
     1
175
     1
 42
40.0
 92
        8
 66
     7
 43
1.0
 76
     1
 77
     6
 78
     2
 67
     7
 79
     3
170
     0
171
     0
290
     0
174
     0
 93
        1
 44
0.0
173
     0
291
     0
 45
0.0
1001
ACAD
1000
AcDbSavedByObjectVersion
1070
     0
  0
VISUALSTYLE
  5
35
102
{ACAD_REACTORS
330
2A
102
}
330
2A
100
AcDbVisualStyle
  2
Dim
 70
    11
 71
     2
 72
     2
 73
     0
 90
        0
 40
-0.6
 41
-30.0
 62
     5
 63
     7
 74
     1
 91
        4
 64
     7
 65
   257
 75
     1
175
     1
 42
1.0
 92
        8
 66
     7
 43
1.0
 76
     1
 77
     6
 78
     2
 67
     7
 79
     5
170
     0
171
     0
290
     0
174
     0
 93
        1
 44
-50.0
173
     0
291
     1
 45
0.0
1001
ACAD
1000
AcDbSavedByObjectVersion
1070
     0
  0
VISUALSTYLE
  5
39
102
{ACAD_REACTORS
330
2A
102
}
330
2A
100
AcDbVisualStyle
  2
Facepattern
 70
    15
 71
     2
 72
     2
 73
     0
 90
        0
 40
-0.6
 41
-30.0
 62
     5
 63
     7
 74
     1
 91
        4
 64
     7
 65
   257
 75
     1
175
     1
 42
1.0
 92
        8
 66
     7
 43
1.0
 76
     1
 77
     6
 78
     2
 67
     7
 79
     5
170
     0
171
     0
290
     0
174
     0
 93
        1
 44
0.0
173
     0
291
     1
 45
0.0
1001
ACAD
1000
AcDbSavedByObjectVersion
1070
     0
  0
VISUALSTYLE
  5
2B
102
{ACAD_REACTORS
330
2A
102
}
330
2A
100
AcDbVisualStyle
  2
Flat
 70
     0
 71
     2
 72
     1
 73
     1
 90
        2
 40
-0.6
 41
30.0
 62
     5
 63
     7
 74
     0
 91
        4
 64
     7
 65
   257
 75
     1
175
     1
 42
1.0
 92
        8
 66
     7
 43
1.0
 76
     1
 77
     6
 78
     2
 67
     7
 79
     5
170
     0
171
     0
290
     0
174
     0
 93
       13
 44
0.0
173
     0
291
     1
 45
0.0
1001
ACAD
1000
AcDbSavedByObjectVersion
1070
     0
  0
VISUALSTYLE
  5
2C
102
{ACAD_REACTORS
330
2A
102
}
330
2A
100
AcDbVisualStyle
  2
FlatWithEdges
 70
     1
 71
     2
 72
     1
 73
     1
 90
        2
 40
-0.6
 41
30.0
 62
     5
 63
     7
 74
     1
 91
        4
 64
     7
 65
   257
 75
     1
175
     1
 42
1.0
 92
        0
 66
   257
 43
1.0
 76
     1
 77
     6
 78
     2
 67
     7
 79
     5
170
     0
171
     0
290
     0
174
     0
 93
       13
 44
0.0
173
     0
291
     1
 45
0.0
1001
ACAD
1000
AcDbSavedByObjectVersion
1070
     0
  0
VISUALSTYLE
  5
2D
102
{ACAD_REACTORS
330
2A
102
}
330
2A
100
AcDbVisualStyle
  2
Gouraud
 70
     2
 71
     2
 72
     2
 73
     1
 90
        2
 40
-0.6
 41
30.0
 62
     5
 63
     7
 74
     0
 91
        4
 64
     7
 65
   257
 75
     1
175
     1
 42
1.0
 92
        0
 66
     7
 43
1.0
 76
     1
 77
     6
 78
     2
 67
     7
 79
     5
170
     0
171
     0
290
     0
174
     0
 93
       13
 44
0.0
173
     0
291
     1
 45
0.0
1001
ACAD
1000
AcDbSavedByObjectVersion
1070
     0
  0
VISUALSTYLE
  5
2E
102
{ACAD_REACTORS
330
2A
102
}
330
2A
100
AcDbVisualStyle
  2
GouraudWithEdges
 70
     3
 71
     2
 72
     2
 73
     1
 90
        2
 40
-0.6
 41
30.0
 62
     5
 63
     7
 74
     1
 91
        4
 64
     7
 65
   257
 75
     1
175
     1
 42
1.0
 92
        0
 66
   257
 43
1.0
 76
     1
 77
     6
 78
     2
 67
     7
 79
     5
170
     0
171
     0
290
     0
174
     0
 93
       13
 44
0.0
173
     0
291
     1
 45
0.0
1001
ACAD
1000
AcDbSavedByObjectVersion
1070
     0
  0
VISUALSTYLE
  5
38
102
{ACAD_REACTORS
330
2A
102
}
330
2A
100
AcDbVisualStyle
  2
Linepattern
 70
    14
 71
     2
 72
     2
 73
     0
 90
        0
 40
-0.6
 41
-30.0
 62
     5
 63
     7
 74
     1
 91
        4
 64
     7
 65
   257
 75
     7
175
     7
 42
1.0
 92
        8
 66
     7
 43
1.0
 76
     1
 77
     6
 78
     2
 67
     7
 79
     5
170
     0
171
     0
290
     0
174
     0
 93
        1
 44
0.0
173
     0
291
     1
 45
0.0
1001
ACAD
1000
AcDbSavedByObjectVersion
1070
     0
  0
VISUALSTYLE
  5
33
102
{ACAD_REACTORS
330
2A
102
}
330
2A
100
AcDbVisualStyle
  2
Realistic
 70
     8
 71
     2
 72
     2
 73
     0
 90
        0
 40
-0.6
 41
-30.0
 62
     5
 63
     7
 74
     1
 91
        0
 64
     7
 65
   257
 75
     1
175
     1
 42
1.0
 92
        8
 66
     8
 43
1.0
 76
     1
 77
     6
 78
     2
 67
     7
 79
     5
170
     0
171
     0
290
     0
174
     0
 93
       13
 44
0.0
173
     0
291
     0
 45
0.0
1001
ACAD
1000
AcDbSavedByObjectVersion
1070
     0
  0
VISUALSTYLE
  5
37
102
{ACAD_REACTORS
330
2A
102
}
330
2A
100
AcDbVisualStyle
  2
Thicken
 70
    13
 71
     2
 72
     2
 73
     0
 90
        0
 40
-0.6
 41
-30.0
 62
     5
 63
     7
 74
     1
 91
        4
 64
     7
 65
   257
 75
     1
175
     1
 42
1.0
 92
       12
 66
     7
 43
1.0
 76
     1
 77
     6
 78
     2
 67
     7
 79
     5
170
     0
171
     0
290
     0
174
     0
 93
        1
 44
0.0
173
     0
291
     1
 45
0.0
1001
ACAD
1000
AcDbSavedByObjectVersion
1070
     0
  0
ENDSEC
  0
EOF
