  0
SECTION
  2
HEADER
  9
$ACADVER
  1
AC1015
  9
$ACADMAINTVER
 70
     6
  9
$DWGCODEPAGE
  3
ASCII
  9
$INSBASE
 10
0.0
 20
0.0
 30
0.0
  9
$EXTMIN
 10
1.000000000000000E+20
 20
1.000000000000000E+20
 30
1.000000000000000E+20
  9
$EXTMAX
 10
-1.000000000000000E+20
 20
-1.000000000000000E+20
 30
-1.000000000000000E+20
  9
$LIMMIN
 10
0.0
 20
0.0
  9
$LIMMAX
 10
12.0
 20
9.0
  9
$ORTHOMODE
 70
     0
  9
$REGENMODE
 70
     1
  9
$FILLMODE
 70
     1
  9
$QTEXTMODE
 70
     0
  9
$MIRRTEXT
 70
     1
  9
$LTSCALE
 40
1.0
  9
$ATTMODE
 70
     1
  9
$TEXTSIZE
 40
0.2
  9
$TRACEWID
 40
0.05
  9
$TEXTSTYLE
  7
Standard
  9
$CLAYER
  8
0
  9
$CELTYPE
  6
ByLayer
  9
$CECOLOR
 62
   256
  9
$CELTSCALE
 40
1.0
  9
$DISPSILH
 70
     0
  9
$DIMSCALE
 40
1.0
  9
$DIMASZ
 40
0.18
  9
$DIMEXO
 40
0.0625
  9
$DIMDLI
 40
0.38
  9
$DIMRND
 40
0.0
  9
$DIMDLE
 40
0.0
  9
$DIMEXE
 40
0.18
  9
$DIMTP
 40
0.0
  9
$DIMTM
 40
0.0
  9
$DIMTXT
 40
0.18
  9
$DIMCEN
 40
0.09
  9
$DIMTSZ
 40
0.0
  9
$DIMTOL
 70
     0
  9
$DIMLIM
 70
     0
  9
$DIMTIH
 70
     1
  9
$DIMTOH
 70
     1
  9
$DIMSE1
 70
     0
  9
$DIMSE2
 70
     0
  9
$DIMTAD
 70
     0
  9
$DIMZIN
 70
     0
  9
$DIMBLK
  1

  9
$DIMASO
 70
     1
  9
$DIMSHO
 70
     1
  9
$DIMPOST
  1

  9
$DIMAPOST
  1

  9
$DIMALT
 70
     0
  9
$DIMALTD
 70
     2
  9
$DIMALTF
 40
25.4
  9
$DIMLFAC
 40
1.0
  9
$DIMTOFL
 70
     0
  9
$DIMTVP
 40
0.0
  9
$DIMTIX
 70
     0
  9
$DIMSOXD
 70
     0
  9
$DIMSAH
 70
     0
  9
$DIMBLK1
  1

  9
$DIMBLK2
  1

  9
$DIMSTYLE
  2
Standard
  9
$DIMCLRD
 70
     0
  9
$DIMCLRE
 70
     0
  9
$DIMCLRT
 70
     0
  9
$DIMTFAC
 40
1.0
  9
$DIMGAP
 40
0.09
  9
$DIMJUST
 70
     0
  9
$DIMSD1
 70
     0
  9
$DIMSD2
 70
     0
  9
$DIMTOLJ
 70
     1
  9
$DIMTZIN
 70
     0
  9
$DIMALTZ
 70
     0
  9
$DIMALTTZ
 70
     0
  9
$DIMUPT
 70
     0
  9
$DIMDEC
 70
     4
  9
$DIMTDEC
 70
     4
  9
$DIMALTU
 70
     2
  9
$DIMALTTD
 70
     2
  9
$DIMTXSTY
  7
Standard
  9
$DIMAUNIT
 70
     0
  9
$DIMADEC
 70
     0
  9
$DIMALTRND
 40
0.0
  9
$DIMAZIN
 70
     0
  9
$DIMDSEP
 70
    46
  9
$DIMATFIT
 70
     3
  9
$DIMFRAC
 70
     0
  9
$DIMLDRBLK
  1

  9
$DIMLUNIT
 70
     2
  9
$DIMLWD
 70
    -2
  9
$DIMLWE
 70
    -2
  9
$DIMTMOVE
 70
     0
  9
$LUNITS
 70
     2
  9
$LUPREC
 70
     4
  9
$SKETCHINC
 40
0.1
  9
$FILLETRAD
 40
0.5
  9
$AUNITS
 70
     0
  9
$AUPREC
 70
     0
  9
$MENU
  1
.
  9
$ELEVATION
 40
0.0
  9
$PELEVATION
 40
0.0
  9
$THICKNESS
 40
0.0
  9
$LIMCHECK
 70
     0
  9
$CHAMFERA
 40
0.5
  9
$CHAMFERB
 40
0.5
  9
$CHAMFERC
 40
1.0
  9
$CHAMFERD
 40
0.0
  9
$SKPOLY
 70
     0
  9
$TDCREATE
 40
2456040.680300926
  9
$TDUCREATE
 40
2456040.263634259
  9
$TDUPDATE
 40
2456040.680300937
  9
$TDUUPDATE
 40
2456040.263634271
  9
$TDINDWG
 40
0.0000000116
  9
$TDUSRTIMER
 40
0.0000000116
  9
$USRTIMER
 70
     1
  9
$ANGBASE
 50
0.0
  9
$ANGDIR
 70
     0
  9
$PDMODE
 70
     0
  9
$PDSIZE
 40
0.0
  9
$PLINEWID
 40
0.0
  9
$SPLFRAME
 70
     0
  9
$SPLINETYPE
 70
     6
  9
$SPLINESEGS
 70
     8
  9
$HANDSEED
  5
14C
  9
$SURFTAB1
 70
     6
  9
$SURFTAB2
 70
     6
  9
$SURFTYPE
 70
     6
  9
$SURFU
 70
     6
  9
$SURFV
 70
     6
  9
$UCSBASE
  2

  9
$UCSNAME
  2

  9
$UCSORG
 10
0.0
 20
0.0
 30
0.0
  9
$UCSXDIR
 10
1.0
 20
0.0
 30
0.0
  9
$UCSYDIR
 10
0.0
 20
1.0
 30
0.0
  9
$UCSORTHOREF
  2

  9
$UCSORTHOVIEW
 70
     0
  9
$UCSORGTOP
 10
0.0
 20
0.0
 30
0.0
  9
$UCSORGBOTTOM
 10
0.0
 20
0.0
 30
0.0
  9
$UCSORGLEFT
 10
0.0
 20
0.0
 30
0.0
  9
$UCSORGRIGHT
 10
0.0
 20
0.0
 30
0.0
  9
$UCSORGFRONT
 10
0.0
 20
0.0
 30
0.0
  9
$UCSORGBACK
 10
0.0
 20
0.0
 30
0.0
  9
$PUCSBASE
  2

  9
$PUCSNAME
  2

  9
$PUCSORG
 10
0.0
 20
0.0
 30
0.0
  9
$PUCSXDIR
 10
1.0
 20
0.0
 30
0.0
  9
$PUCSYDIR
 10
0.0
 20
1.0
 30
0.0
  9
$PUCSORTHOREF
  2

  9
$PUCSORTHOVIEW
 70
     0
  9
$PUCSORGTOP
 10
0.0
 20
0.0
 30
0.0
  9
$PUCSORGBOTTOM
 10
0.0
 20
0.0
 30
0.0
  9
$PUCSORGLEFT
 10
0.0
 20
0.0
 30
0.0
  9
$PUCSORGRIGHT
 10
0.0
 20
0.0
 30
0.0
  9
$PUCSORGFRONT
 10
0.0
 20
0.0
 30
0.0
  9
$PUCSORGBACK
 10
0.0
 20
0.0
 30
0.0
  9
$USERI1
 70
     0
  9
$USERI2
 70
     0
  9
$USERI3
 70
     0
  9
$USERI4
 70
     0
  9
$USERI5
 70
     0
  9
$USERR1
 40
0.0
  9
$USERR2
 40
0.0
  9
$USERR3
 40
0.0
  9
$USERR4
 40
0.0
  9
$USERR5
 40
0.0
  9
$WORLDVIEW
 70
     1
  9
$SHADEDGE
 70
     3
  9
$SHADEDIF
 70
    70
  9
$TILEMODE
 70
     1
  9
$MAXACTVP
 70
    64
  9
$PINSBASE
 10
0.0
 20
0.0
 30
0.0
  9
$PLIMCHECK
 70
     0
  9
$PEXTMIN
 10
1.000000000000000E+20
 20
1.000000000000000E+20
 30
1.000000000000000E+20
  9
$PEXTMAX
 10
-1.000000000000000E+20
 20
-1.000000000000000E+20
 30
-1.000000000000000E+20
  9
$PLIMMIN
 10
0.0
 20
0.0
  9
$PLIMMAX
 10
12.0
 20
9.0
  9
$UNITMODE
 70
     0
  9
$VISRETAIN
 70
     1
  9
$PLINEGEN
 70
     0
  9
$PSLTSCALE
 70
     1
  9
$TREEDEPTH
 70
  3020
  9
$CMLSTYLE
  2
Standard
  9
$CMLJUST
 70
     0
  9
$CMLSCALE
 40
1.0
  9
$PROXYGRAPHICS
 70
     1
  9
$MEASUREMENT
 70
     0
  9
$CELWEIGHT
370
    -1
  9
$ENDCAPS
280
     0
  9
$JOINSTYLE
280
     0
  9
$LWDISPLAY
290
     1
  9
$INSUNITS
 70
     1
  9
$HYPERLINKBASE
  1

  9
$STYLESHEET
  1

  9
$XEDIT
290
     1
  9
$CEPSNTYPE
380
     0
  9
$PSTYLEMODE
290
     1
  9
$FINGERPRINTGUID
  2
{B6DC214E-5DDB-223B-E511-110E8F151578}
  9
$VERSIONGUID
  2
{FAEB1C32-E019-11D5-929B-00C0DF256EC4}
  9
$EXTNAMES
290
     1
  9
$PSVPSCALE
 40
0.0
  9
$OLESTARTUP
290
     0
  0
ENDSEC
  0
SECTION
  2
CLASSES
  0
CLASS
  1
ACDBDICTIONARYWDFLT
  2
AcDbDictionaryWithDefault
  3
ObjectDBX Classes
 90
        0
280
     0
281
     0
  0
CLASS
  1
VISUALSTYLE
  2
AcDbVisualStyle
  3
ObjectDBX Classes
 90
     4095
280
     0
281
     0
  0
CLASS
  1
ACDBPLACEHOLDER
  2
AcDbPlaceHolder
  3
ObjectDBX Classes
 90
        0
280
     0
281
     0
  0
CLASS
  1
LAYOUT
  2
AcDbLayout
  3
ObjectDBX Classes
 90
        0
280
     0
281
     0
  0
ENDSEC
  0
SECTION
  2
TABLES
  0
TABLE
  2
VPORT
  5
8
330
0
100
AcDbSymbolTable
 70
     1
  0
VPORT
  5
29
330
8
100
AcDbSymbolTableRecord
100
AcDbViewportTableRecord
  2
*Active
 70
     0
 10
0.0
 20
0.0
 11
1.0
 21
1.0
 12
0.0
 22
0.0
 13
0.0
 23
0.0
 14
0.5
 24
0.5
 15
0.5
 25
0.5
 16
0.0
 26
0.0
 36
1.0
 17
201.0526323117741
 27
167.4421724576559
 37
0.0
 40
223.6416594421405
 41
1.273837441794509
 42
50.0
 43
0.0
 44
0.0
 50
0.0
 51
0.0
 71
     0
 72
   100
 73
     1
 74
     3
 75
     0
 76
     0
 77
     0
 78
     0
281
     0
 65
     1
110
0.0
120
0.0
130
0.0
111
1.0
121
0.0
131
0.0
112
0.0
122
1.0
132
0.0
 79
     0
146
0.0
  0
ENDTAB
  0
TABLE
  2
LTYPE
  5
5
330
0
100
AcDbSymbolTable
 70
     1
  0
LTYPE
  5
14
330
5
100
AcDbSymbolTableRecord
100
AcDbLinetypeTableRecord
  2
ByBlock
 70
     0
  3

 72
    65
 73
     0
 40
0.0
  0
LTYPE
  5
15
330
5
100
AcDbSymbolTableRecord
100
AcDbLinetypeTableRecord
  2
ByLayer
 70
     0
  3

 72
    65
 73
     0
 40
0.0
  0
LTYPE
  5
16
330
5
100
AcDbSymbolTableRecord
100
AcDbLinetypeTableRecord
  2
Continuous
 70
     0
  3
Solid line
 72
    65
 73
     0
 40
0.0
  0
ENDTAB
  0
TABLE
  2
LAYER
  5
2
330
0
100
AcDbSymbolTable
 70
     4
  0
LAYER
  5
10
330
2
100
AcDbSymbolTableRecord
100
AcDbLayerTableRecord
  2
0
 70
     0
 62
     7
  6
Continuous
370
    -3
390
F
  0
LAYER
  5
3B
330
2
100
AcDbSymbolTableRecord
100
AcDbLayerTableRecord
  2
Layer 1
 70
     4
 62
     7
  6
Continuous
370
    -3
390
F
  0
LAYER
  5
3C
330
2
100
AcDbSymbolTableRecord
100
AcDbLayerTableRecord
  2
Layer 2
 70
     0
 62
     7
  6
Continuous
370
    -3
390
F
  0
LAYER
  5
72
330
2
100
AcDbSymbolTableRecord
100
AcDbLayerTableRecord
  2
Layer 3
 70
     0
 62
     7
  6
Continuous
370
    -3
390
F
  0
ENDTAB
  0
TABLE
  2
STYLE
  5
3
330
0
100
AcDbSymbolTable
 70
     1
  0
STYLE
  5
11
330
3
100
AcDbSymbolTableRecord
100
AcDbTextStyleTableRecord
  2
Standard
 70
     0
 40
0.0
 41
1.0
 50
0.0
 71
     0
 42
0.2
  3
txt
  4

  0
ENDTAB
  0
TABLE
  2
VIEW
  5
6
330
0
100
AcDbSymbolTable
 70
     0
  0
ENDTAB
  0
TABLE
  2
UCS
  5
7
330
0
100
AcDbSymbolTable
 70
     0
  0
ENDTAB
  0
TABLE
  2
APPID
  5
9
330
0
100
AcDbSymbolTable
 70
     1
  0
APPID
  5
12
330
9
100
AcDbSymbolTableRecord
100
AcDbRegAppTableRecord
  2
ACAD
 70
     0
  0
ENDTAB
  0
TABLE
  2
DIMSTYLE
  5
A
330
0
100
AcDbSymbolTable
 70
     1
100
AcDbDimStyleTable
  0
DIMSTYLE
105
27
330
A
100
AcDbSymbolTableRecord
100
AcDbDimStyleTableRecord
  2
Standard
 70
     0
340
11
  0
ENDTAB
  0
TABLE
  2
BLOCK_RECORD
  5
1
330
0
100
AcDbSymbolTable
 70
     1
  0
BLOCK_RECORD
  5
1F
330
1
100
AcDbSymbolTableRecord
100
AcDbBlockTableRecord
  2
*Model_Space
340
22
  0
BLOCK_RECORD
  5
1B
330
1
100
AcDbSymbolTableRecord
100
AcDbBlockTableRecord
  2
*Paper_Space
340
1E
  0
BLOCK_RECORD
  5
23
330
1
100
AcDbSymbolTableRecord
100
AcDbBlockTableRecord
  2
*Paper_Space0
340
26
  0
ENDTAB
  0
ENDSEC
  0
SECTION
  2
BLOCKS
  0
BLOCK
  5
20
330
1F
100
AcDbEntity
  8
0
100
AcDbBlockBegin
  2
*Model_Space
 70
     0
 71
     0
 10
0.0
 20
0.0
 30
0.0
  3
*Model_Space
  1

  0
ENDBLK
  5
21
330
1F
100
AcDbEntity
  8
0
100
AcDbBlockEnd
  0
BLOCK
  5
1C
330
1B
100
AcDbEntity
 67
     1
  8
0
100
AcDbBlockBegin
  2
*Paper_Space
 70
     0
 71
     0
 10
0.0
 20
0.0
 30
0.0
  3
*Paper_Space
  1

  0
ENDBLK
  5
1D
330
1B
100
AcDbEntity
 67
     1
  8
0
100
AcDbBlockEnd
  0
BLOCK
  5
24
330
23
100
AcDbEntity
  8
0
100
AcDbBlockBegin
  2
*Paper_Space0
 70
     0
 71
     0
 10
0.0
 20
0.0
 30
0.0
  3
*Paper_Space0
  1

  0
ENDBLK
  5
25
330
23
100
AcDbEntity
  8
0
100
AcDbBlockEnd
  0
ENDSEC
  0
SECTION
  2
ENTITIES
  0
POLYLINE
  5
3D
330
1F
100
AcDbEntity
  8
Layer 2
 62
     1
370
    35
100
AcDb2dPolyline
 66
     1
 10
0.0
 20
0.0
 30
0.0
  0
VERTEX
  5
3E
330
3D
100
AcDbEntity
  8
Layer 2
 62
     1
370
    35
100
AcDbVertex
100
AcDb2dVertex
 10
140.0676840552242
 20
146.75771939141
 30
0.0
  0
VERTEX
  5
3F
330
3D
100
AcDbEntity
  8
Layer 2
 62
     1
370
    35
100
AcDbVertex
100
AcDb2dVertex
 10
125.6988703263176
 20
146.75771939141
 30
0.0
  0
VERTEX
  5
40
330
3D
100
AcDbEntity
  8
Layer 2
 62
     1
370
    35
100
AcDbVertex
100
AcDb2dVertex
 10
125.5197252429035
 20
188.1343769938572
 30
0.0
  0
VERTEX
  5
41
330
3D
100
AcDbEntity
  8
Layer 2
 62
     1
370
    35
100
AcDbVertex
100
AcDb2dVertex
 10
140.0676840552242
 20
188.1343769938572
 30
0.0
  0
VERTEX
  5
42
330
3D
100
AcDbEntity
  8
Layer 2
 62
     1
370
    35
100
AcDbVertex
100
AcDb2dVertex
 10
140.0676840552242
 20
176.9757053558193
 30
0.0
  0
VERTEX
  5
43
330
3D
100
AcDbEntity
  8
Layer 2
 62
     1
370
    35
100
AcDbVertex
100
AcDb2dVertex
 10
139.031915414293
 20
176.9757053558193
 30
0.0
  0
VERTEX
  5
44
330
3D
100
AcDbEntity
  8
Layer 2
 62
     1
370
    35
100
AcDbVertex
100
AcDb2dVertex
 10
139.031915414293
 20
180.2723194004129
 30
0.0
  0
VERTEX
  5
45
330
3D
100
AcDbEntity
  8
Layer 2
 62
     1
370
    35
100
AcDbVertex
100
AcDb2dVertex
 10
126.5377516303812
 20
180.2723194004129
 30
0.0
  0
VERTEX
  5
46
330
3D
100
AcDbEntity
  8
Layer 2
 62
     1
370
    35
100
AcDbVertex
100
AcDb2dVertex
 10
126.5377516303812
 20
168.04377265364
 30
0.0
  0
VERTEX
  5
47
330
3D
100
AcDbEntity
  8
Layer 2
 62
     1
370
    35
100
AcDbVertex
100
AcDb2dVertex
 10
139.031915414293
 20
168.04377265364
 30
0.0
  0
VERTEX
  5
48
330
3D
100
AcDbEntity
  8
Layer 2
 62
     1
370
    35
100
AcDbVertex
100
AcDb2dVertex
 10
139.031915414293
 20
171.1276519116794
 30
0.0
  0
VERTEX
  5
49
330
3D
100
AcDbEntity
  8
Layer 2
 62
     1
370
    35
100
AcDbVertex
100
AcDb2dVertex
 10
140.201526103121
 20
171.1276519116794
 30
0.0
  0
VERTEX
  5
4A
330
3D
100
AcDbEntity
  8
Layer 2
 62
     1
370
    35
100
AcDbVertex
100
AcDb2dVertex
 10
140.201526103121
 20
163.6845182056031
 30
0.0
  0
VERTEX
  5
4B
330
3D
100
AcDbEntity
  8
Layer 2
 62
     1
370
    35
100
AcDbVertex
100
AcDb2dVertex
 10
138.925461893572
 20
163.6845182056031
 30
0.0
  0
VERTEX
  5
4C
330
3D
100
AcDbEntity
  8
Layer 2
 62
     1
370
    35
100
AcDbVertex
100
AcDb2dVertex
 10
138.925461893572
 20
166.8212797142272
 30
0.0
  0
VERTEX
  5
4D
330
3D
100
AcDbEntity
  8
Layer 2
 62
     1
370
    35
100
AcDbVertex
100
AcDb2dVertex
 10
126.5377516303812
 20
166.8212797142272
 30
0.0
  0
VERTEX
  5
4E
330
3D
100
AcDbEntity
  8
Layer 2
 62
     1
370
    35
100
AcDbVertex
100
AcDb2dVertex
 10
126.5377516303812
 20
154.3269436754276
 30
0.0
  0
VERTEX
  5
4F
330
3D
100
AcDbEntity
  8
Layer 2
 62
     1
370
    35
100
AcDbVertex
100
AcDb2dVertex
 10
138.9783441441567
 20
154.3269436754276
 30
0.0
  0
VERTEX
  5
50
330
3D
100
AcDbEntity
  8
Layer 2
 62
     1
370
    35
100
AcDbVertex
100
AcDb2dVertex
 10
138.9783441441567
 20
157.88917475716
 30
0.0
  0
VERTEX
  5
51
330
3D
100
AcDbEntity
  8
Layer 2
 62
     1
370
    35
100
AcDbVertex
100
AcDb2dVertex
 10
140.0950725824
 20
157.88917475716
 30
0.0
  0
VERTEX
  5
52
330
3D
100
AcDbEntity
  8
Layer 2
 62
     1
370
    35
100
AcDbVertex
100
AcDb2dVertex
 10
140.0676840552242
 20
146.75771939141
 30
0.0
  0
SEQEND
  5
53
330
3D
100
AcDbEntity
  8
Layer 2
370
    35
  0
SPLINE
  5
54
330
1F
100
AcDbEntity
  8
Layer 2
 62
     1
370
    35
100
AcDbSpline
210
0.0
220
0.0
230
1.0
 70
    11
 71
     3
 72
   923
 73
   919
 74
     0
 42
0.0000000001
 43
0.0000000001
 40
0.0
 40
0.0
 40
0.0
 40
0.0
 40
1.0
 40
1.0
 40
1.0
 40
2.0
 40
2.0
 40
2.0
 40
3.0
 40
3.0
 40
3.0
 40
4.0
 40
4.0
 40
4.0
 40
5.0
 40
5.0
 40
5.0
 40
6.0
 40
6.0
 40
6.0
 40
7.0
 40
7.0
 40
7.0
 40
8.0
 40
8.0
 40
8.0
 40
9.0
 40
9.0
 40
9.0
 40
10.0
 40
10.0
 40
10.0
 40
11.0
 40
11.0
 40
11.0
 40
12.0
 40
12.0
 40
12.0
 40
13.0
 40
13.0
 40
13.0
 40
14.0
 40
14.0
 40
14.0
 40
15.0
 40
15.0
 40
15.0
 40
16.0
 40
16.0
 40
16.0
 40
17.0
 40
17.0
 40
17.0
 40
18.0
 40
18.0
 40
18.0
 40
19.0
 40
19.0
 40
19.0
 40
20.0
 40
20.0
 40
20.0
 40
21.0
 40
21.0
 40
21.0
 40
22.0
 40
22.0
 40
22.0
 40
23.0
 40
23.0
 40
23.0
 40
24.0
 40
24.0
 40
24.0
 40
25.0
 40
25.0
 40
25.0
 40
26.0
 40
26.0
 40
26.0
 40
27.0
 40
27.0
 40
27.0
 40
28.0
 40
28.0
 40
28.0
 40
29.0
 40
29.0
 40
29.0
 40
30.0
 40
30.0
 40
30.0
 40
31.0
 40
31.0
 40
31.0
 40
32.0
 40
32.0
 40
32.0
 40
33.0
 40
33.0
 40
33.0
 40
34.0
 40
34.0
 40
34.0
 40
35.0
 40
35.0
 40
35.0
 40
36.0
 40
36.0
 40
36.0
 40
37.0
 40
37.0
 40
37.0
 40
38.0
 40
38.0
 40
38.0
 40
39.0
 40
39.0
 40
39.0
 40
40.0
 40
40.0
 40
40.0
 40
41.0
 40
41.0
 40
41.0
 40
42.0
 40
42.0
 40
42.0
 40
43.0
 40
43.0
 40
43.0
 40
44.0
 40
44.0
 40
44.0
 40
45.0
 40
45.0
 40
45.0
 40
46.0
 40
46.0
 40
46.0
 40
47.0
 40
47.0
 40
47.0
 40
48.0
 40
48.0
 40
48.0
 40
49.0
 40
49.0
 40
49.0
 40
50.0
 40
50.0
 40
50.0
 40
51.0
 40
51.0
 40
51.0
 40
52.0
 40
52.0
 40
52.0
 40
53.0
 40
53.0
 40
53.0
 40
54.0
 40
54.0
 40
54.0
 40
55.0
 40
55.0
 40
55.0
 40
56.0
 40
56.0
 40
56.0
 40
57.0
 40
57.0
 40
57.0
 40
58.0
 40
58.0
 40
58.0
 40
59.0
 40
59.0
 40
59.0
 40
60.0
 40
60.0
 40
60.0
 40
61.0
 40
61.0
 40
61.0
 40
62.0
 40
62.0
 40
62.0
 40
63.0
 40
63.0
 40
63.0
 40
64.0
 40
64.0
 40
64.0
 40
65.0
 40
65.0
 40
65.0
 40
66.0
 40
66.0
 40
66.0
 40
67.0
 40
67.0
 40
67.0
 40
68.0
 40
68.0
 40
68.0
 40
69.0
 40
69.0
 40
69.0
 40
70.0
 40
70.0
 40
70.0
 40
71.0
 40
71.0
 40
71.0
 40
72.0
 40
72.0
 40
72.0
 40
73.0
 40
73.0
 40
73.0
 40
74.0
 40
74.0
 40
74.0
 40
75.0
 40
75.0
 40
75.0
 40
76.0
 40
76.0
 40
76.0
 40
77.0
 40
77.0
 40
77.0
 40
78.0
 40
78.0
 40
78.0
 40
79.0
 40
79.0
 40
79.0
 40
80.0
 40
80.0
 40
80.0
 40
81.0
 40
81.0
 40
81.0
 40
82.0
 40
82.0
 40
82.0
 40
83.0
 40
83.0
 40
83.0
 40
84.0
 40
84.0
 40
84.0
 40
85.0
 40
85.0
 40
85.0
 40
86.0
 40
86.0
 40
86.0
 40
87.0
 40
87.0
 40
87.0
 40
88.0
 40
88.0
 40
88.0
 40
89.0
 40
89.0
 40
89.0
 40
90.0
 40
90.0
 40
90.0
 40
91.0
 40
91.0
 40
91.0
 40
92.0
 40
92.0
 40
92.0
 40
93.0
 40
93.0
 40
93.0
 40
94.0
 40
94.0
 40
94.0
 40
95.0
 40
95.0
 40
95.0
 40
96.0
 40
96.0
 40
96.0
 40
97.0
 40
97.0
 40
97.0
 40
98.0
 40
98.0
 40
98.0
 40
99.0
 40
99.0
 40
99.0
 40
100.0
 40
100.0
 40
100.0
 40
101.0
 40
101.0
 40
101.0
 40
102.0
 40
102.0
 40
102.0
 40
103.0
 40
103.0
 40
103.0
 40
104.0
 40
104.0
 40
104.0
 40
105.0
 40
105.0
 40
105.0
 40
106.0
 40
106.0
 40
106.0
 40
107.0
 40
107.0
 40
107.0
 40
108.0
 40
108.0
 40
108.0
 40
109.0
 40
109.0
 40
109.0
 40
110.0
 40
110.0
 40
110.0
 40
111.0
 40
111.0
 40
111.0
 40
112.0
 40
112.0
 40
112.0
 40
113.0
 40
113.0
 40
113.0
 40
114.0
 40
114.0
 40
114.0
 40
115.0
 40
115.0
 40
115.0
 40
116.0
 40
116.0
 40
116.0
 40
117.0
 40
117.0
 40
117.0
 40
118.0
 40
118.0
 40
118.0
 40
119.0
 40
119.0
 40
119.0
 40
120.0
 40
120.0
 40
120.0
 40
121.0
 40
121.0
 40
121.0
 40
122.0
 40
122.0
 40
122.0
 40
123.0
 40
123.0
 40
123.0
 40
124.0
 40
124.0
 40
124.0
 40
125.0
 40
125.0
 40
125.0
 40
126.0
 40
126.0
 40
126.0
 40
127.0
 40
127.0
 40
127.0
 40
128.0
 40
128.0
 40
128.0
 40
129.0
 40
129.0
 40
129.0
 40
130.0
 40
130.0
 40
130.0
 40
131.0
 40
131.0
 40
131.0
 40
132.0
 40
132.0
 40
132.0
 40
133.0
 40
133.0
 40
133.0
 40
134.0
 40
134.0
 40
134.0
 40
135.0
 40
135.0
 40
135.0
 40
136.0
 40
136.0
 40
136.0
 40
137.0
 40
137.0
 40
137.0
 40
138.0
 40
138.0
 40
138.0
 40
139.0
 40
139.0
 40
139.0
 40
140.0
 40
140.0
 40
140.0
 40
141.0
 40
141.0
 40
141.0
 40
142.0
 40
142.0
 40
142.0
 40
143.0
 40
143.0
 40
143.0
 40
144.0
 40
144.0
 40
144.0
 40
145.0
 40
145.0
 40
145.0
 40
146.0
 40
146.0
 40
146.0
 40
147.0
 40
147.0
 40
147.0
 40
148.0
 40
148.0
 40
148.0
 40
149.0
 40
149.0
 40
149.0
 40
150.0
 40
150.0
 40
150.0
 40
151.0
 40
151.0
 40
151.0
 40
152.0
 40
152.0
 40
152.0
 40
153.0
 40
153.0
 40
153.0
 40
154.0
 40
154.0
 40
154.0
 40
155.0
 40
155.0
 40
155.0
 40
156.0
 40
156.0
 40
156.0
 40
157.0
 40
157.0
 40
157.0
 40
158.0
 40
158.0
 40
158.0
 40
159.0
 40
159.0
 40
159.0
 40
160.0
 40
160.0
 40
160.0
 40
161.0
 40
161.0
 40
161.0
 40
162.0
 40
162.0
 40
162.0
 40
163.0
 40
163.0
 40
163.0
 40
164.0
 40
164.0
 40
164.0
 40
165.0
 40
165.0
 40
165.0
 40
166.0
 40
166.0
 40
166.0
 40
167.0
 40
167.0
 40
167.0
 40
168.0
 40
168.0
 40
168.0
 40
169.0
 40
169.0
 40
169.0
 40
170.0
 40
170.0
 40
170.0
 40
171.0
 40
171.0
 40
171.0
 40
172.0
 40
172.0
 40
172.0
 40
173.0
 40
173.0
 40
173.0
 40
174.0
 40
174.0
 40
174.0
 40
175.0
 40
175.0
 40
175.0
 40
176.0
 40
176.0
 40
176.0
 40
177.0
 40
177.0
 40
177.0
 40
178.0
 40
178.0
 40
178.0
 40
179.0
 40
179.0
 40
179.0
 40
180.0
 40
180.0
 40
180.0
 40
181.0
 40
181.0
 40
181.0
 40
182.0
 40
182.0
 40
182.0
 40
183.0
 40
183.0
 40
183.0
 40
184.0
 40
184.0
 40
184.0
 40
185.0
 40
185.0
 40
185.0
 40
186.0
 40
186.0
 40
186.0
 40
187.0
 40
187.0
 40
187.0
 40
188.0
 40
188.0
 40
188.0
 40
189.0
 40
189.0
 40
189.0
 40
190.0
 40
190.0
 40
190.0
 40
191.0
 40
191.0
 40
191.0
 40
192.0
 40
192.0
 40
192.0
 40
193.0
 40
193.0
 40
193.0
 40
194.0
 40
194.0
 40
194.0
 40
195.0
 40
195.0
 40
195.0
 40
196.0
 40
196.0
 40
196.0
 40
197.0
 40
197.0
 40
197.0
 40
198.0
 40
198.0
 40
198.0
 40
199.0
 40
199.0
 40
199.0
 40
200.0
 40
200.0
 40
200.0
 40
201.0
 40
201.0
 40
201.0
 40
202.0
 40
202.0
 40
202.0
 40
203.0
 40
203.0
 40
203.0
 40
204.0
 40
204.0
 40
204.0
 40
205.0
 40
205.0
 40
205.0
 40
206.0
 40
206.0
 40
206.0
 40
207.0
 40
207.0
 40
207.0
 40
208.0
 40
208.0
 40
208.0
 40
209.0
 40
209.0
 40
209.0
 40
210.0
 40
210.0
 40
210.0
 40
211.0
 40
211.0
 40
211.0
 40
212.0
 40
212.0
 40
212.0
 40
213.0
 40
213.0
 40
213.0
 40
214.0
 40
214.0
 40
214.0
 40
215.0
 40
215.0
 40
215.0
 40
216.0
 40
216.0
 40
216.0
 40
217.0
 40
217.0
 40
217.0
 40
218.0
 40
218.0
 40
218.0
 40
219.0
 40
219.0
 40
219.0
 40
220.0
 40
220.0
 40
220.0
 40
221.0
 40
221.0
 40
221.0
 40
222.0
 40
222.0
 40
222.0
 40
223.0
 40
223.0
 40
223.0
 40
224.0
 40
224.0
 40
224.0
 40
225.0
 40
225.0
 40
225.0
 40
226.0
 40
226.0
 40
226.0
 40
227.0
 40
227.0
 40
227.0
 40
228.0
 40
228.0
 40
228.0
 40
229.0
 40
229.0
 40
229.0
 40
230.0
 40
230.0
 40
230.0
 40
231.0
 40
231.0
 40
231.0
 40
232.0
 40
232.0
 40
232.0
 40
233.0
 40
233.0
 40
233.0
 40
234.0
 40
234.0
 40
234.0
 40
235.0
 40
235.0
 40
235.0
 40
236.0
 40
236.0
 40
236.0
 40
237.0
 40
237.0
 40
237.0
 40
238.0
 40
238.0
 40
238.0
 40
239.0
 40
239.0
 40
239.0
 40
240.0
 40
240.0
 40
240.0
 40
241.0
 40
241.0
 40
241.0
 40
242.0
 40
242.0
 40
242.0
 40
243.0
 40
243.0
 40
243.0
 40
244.0
 40
244.0
 40
244.0
 40
245.0
 40
245.0
 40
245.0
 40
246.0
 40
246.0
 40
246.0
 40
247.0
 40
247.0
 40
247.0
 40
248.0
 40
248.0
 40
248.0
 40
249.0
 40
249.0
 40
249.0
 40
250.0
 40
250.0
 40
250.0
 40
251.0
 40
251.0
 40
251.0
 40
252.0
 40
252.0
 40
252.0
 40
253.0
 40
253.0
 40
253.0
 40
254.0
 40
254.0
 40
254.0
 40
255.0
 40
255.0
 40
255.0
 40
256.0
 40
256.0
 40
256.0
 40
257.0
 40
257.0
 40
257.0
 40
258.0
 40
258.0
 40
258.0
 40
259.0
 40
259.0
 40
259.0
 40
260.0
 40
260.0
 40
260.0
 40
261.0
 40
261.0
 40
261.0
 40
262.0
 40
262.0
 40
262.0
 40
263.0
 40
263.0
 40
263.0
 40
264.0
 40
264.0
 40
264.0
 40
265.0
 40
265.0
 40
265.0
 40
266.0
 40
266.0
 40
266.0
 40
267.0
 40
267.0
 40
267.0
 40
268.0
 40
268.0
 40
268.0
 40
269.0
 40
269.0
 40
269.0
 40
270.0
 40
270.0
 40
270.0
 40
271.0
 40
271.0
 40
271.0
 40
272.0
 40
272.0
 40
272.0
 40
273.0
 40
273.0
 40
273.0
 40
274.0
 40
274.0
 40
274.0
 40
275.0
 40
275.0
 40
275.0
 40
276.0
 40
276.0
 40
276.0
 40
277.0
 40
277.0
 40
277.0
 40
278.0
 40
278.0
 40
278.0
 40
279.0
 40
279.0
 40
279.0
 40
280.0
 40
280.0
 40
280.0
 40
281.0
 40
281.0
 40
281.0
 40
282.0
 40
282.0
 40
282.0
 40
283.0
 40
283.0
 40
283.0
 40
284.0
 40
284.0
 40
284.0
 40
285.0
 40
285.0
 40
285.0
 40
286.0
 40
286.0
 40
286.0
 40
287.0
 40
287.0
 40
287.0
 40
288.0
 40
288.0
 40
288.0
 40
289.0
 40
289.0
 40
289.0
 40
290.0
 40
290.0
 40
290.0
 40
291.0
 40
291.0
 40
291.0
 40
292.0
 40
292.0
 40
292.0
 40
293.0
 40
293.0
 40
293.0
 40
294.0
 40
294.0
 40
294.0
 40
295.0
 40
295.0
 40
295.0
 40
296.0
 40
296.0
 40
296.0
 40
297.0
 40
297.0
 40
297.0
 40
298.0
 40
298.0
 40
298.0
 40
299.0
 40
299.0
 40
299.0
 40
300.0
 40
300.0
 40
300.0
 40
301.0
 40
301.0
 40
301.0
 40
302.0
 40
302.0
 40
302.0
 40
303.0
 40
303.0
 40
303.0
 40
304.0
 40
304.0
 40
304.0
 40
305.0
 40
305.0
 40
305.0
 40
306.0
 40
306.0
 40
306.0
 40
306.0
 10
82.09771310155442
 20
186.2986566535274
 30
0.0
 10
82.09771310155442
 20
186.2986566535274
 30
0.0
 10
82.09771310155442
 20
196.9531382346876
 30
0.0
 10
82.09771310155442
 20
196.9531382346876
 30
0.0
 10
82.09771310155442
 20
196.9531382346876
 30
0.0
 10
141.1509950452152
 20
196.159732221029
 30
0.0
 10
141.1509950452152
 20
196.9531382346876
 30
0.0
 10
141.1509950452152
 20
197.7465442483461
 30
0.0
 10
141.1509950452152
 20
208.7410569782172
 30
0.0
 10
141.1509950452152
 20
208.7410569782172
 30
0.0
 10
141.1509950452152
 20
208.7410569782172
 30
0.0
 10
136.7304178570867
 20
208.7410569782172
 30
0.0
 10
136.7304178570867
 20
208.7410569782172
 30
0.0
 10
136.7304178570867
 20
208.7410569782172
 30
0.0
 10
136.7304178570867
 20
198.4266065457678
 30
0.0
 10
136.7304178570867
 20
198.4266065457678
 30
0.0
 10
136.7304178570867
 20
198.4266065457678
 30
0.0
 10
111.2275649391116
 20
198.4266065457678
 30
0.0
 10
111.2275649391116
 20
198.4266065457678
 30
0.0
 10
111.2275649391116
 20
198.4266065457678
 30
0.0
 10
111.2275649391116
 20
206.7008700859523
 30
0.0
 10
111.2275649391116
 20
206.7008700859523
 30
0.0
 10
111.2275649391116
 20
206.7008700859523
 30
0.0
 10
126.982686005822
 20
206.7008700859523
 30
0.0
 10
126.982686005822
 20
206.7008700859523
 30
0.0
 10
126.982686005822
 20
206.7008700859523
 30
0.0
 10
126.982686005822
 20
209.3077755594019
 30
0.0
 10
126.982686005822
 20
209.3077755594019
 30
0.0
 10
126.982686005822
 20
209.3077755594019
 30
0.0
 10
101.3664893716099
 20
209.3077755594019
 30
0.0
 10
101.3664893716099
 20
209.3077755594019
 30
0.0
 10
101.3664893716099
 20
209.3077755594019
 30
0.0
 10
101.3664893716099
 20
218.1487576807711
 30
0.0
 10
101.3664893716099
 20
218.1487576807711
 30
0.0
 10
101.3664893716099
 20
218.1487576807711
 30
0.0
 10
141.1509950452152
 20
218.1487576807711
 30
0.0
 10
141.1509950452152
 20
218.1487576807711
 30
0.0
 10
141.1509950452152
 20
218.1487576807711
 30
0.0
 10
141.1509950452152
 20
219.0555074106666
 30
0.0
 10
141.1509950452152
 20
219.0555074106666
 30
0.0
 10
141.1509950452152
 20
219.0555074106666
 30
0.0
 10
127.3227171545328
 20
219.0555074106666
 30
0.0
 10
127.3227171545328
 20
219.0555074106666
 30
0.0
 10
127.3227171545328
 20
219.0555074106666
 30
0.0
 10
127.3227171545328
 20
222.2293037201888
 30
0.0
 10
127.3227171545328
 20
222.2293037201888
 30
0.0
 10
127.3227171545328
 20
222.2293037201888
 30
0.0
 10
126.3026237084003
 20
222.2293037201888
 30
0.0
 10
126.3026237084003
 20
222.2293037201888
 30
0.0
 10
126.3026237084003
 20
222.2293037201888
 30
0.0
 10
126.3026237084003
 20
219.2821948431404
 30
0.0
 10
126.3026237084003
 20
219.2821948431404
 30
0.0
 10
126.3026237084003
 20
219.2821948431404
 30
0.0
 10
61.92201484671549
 20
219.2821948431404
 30
0.0
 10
61.92201484671549
 20
219.2821948431404
 30
0.0
 10
61.92201484671549
 20
219.2821948431404
 30
0.0
 10
61.92201484671549
 20
276.5218050721223
 30
0.0
 10
61.92201484671549
 20
276.5218050721223
 30
0.0
 10
61.92201484671549
 20
276.5218050721223
 30
0.0
 10
130.2694815218053
 20
276.5218050721223
 30
0.0
 10
130.2694815218053
 20
276.5218050721223
 30
0.0
 10
130.2694815218053
 20
276.5218050721223
 30
0.0
 10
130.2694815218053
 20
271.9878841677568
 30
0.0
 10
130.2694815218053
 20
271.9878841677568
 30
0.0
 10
130.2694815218053
 20
271.9878841677568
 30
0.0
 10
126.3024514535124
 20
271.9878841677568
 30
0.0
 10
126.3024514535124
 20
271.9878841677568
 30
0.0
 10
126.3024514535124
 20
271.9878841677568
 30
0.0
 10
126.3024514535124
 20
262.1268086002552
 30
0.0
 10
126.3024514535124
 20
262.1268086002552
 30
0.0
 10
126.3024514535124
 20
262.1268086002552
 30
0.0
 10
127.3225448996449
 20
262.1268086002552
 30
0.0
 10
127.3225448996449
 20
262.1268086002552
 30
0.0
 10
127.3225448996449
 20
262.1268086002552
 30
0.0
 10
127.3225448996449
 20
271.0811344378613
 30
0.0
 10
127.3225448996449
 20
271.0811344378613
 30
0.0
 10
127.3225448996449
 20
271.0811344378613
 30
0.0
 10
131.4029186841747
 20
271.0811344378613
 30
0.0
 10
131.4029186841747
 20
271.0811344378613
 30
0.0
 10
131.4029186841747
 20
271.0811344378613
 30
0.0
 10
131.4029186841747
 20
276.5218050721223
 30
0.0
 10
131.4029186841747
 20
276.5218050721223
 30
0.0
 10
131.4029186841747
 20
276.5218050721223
 30
0.0
 10
140.1307293441949
 20
276.5218050721223
 30
0.0
 10
140.1307293441949
 20
276.5218050721223
 30
0.0
 10
140.1307293441949
 20
276.5218050721223
 30
0.0
 10
140.1307293441949
 20
256.6863102208821
 30
0.0
 10
140.1307293441949
 20
256.6863102208821
 30
0.0
 10
140.1307293441949
 20
256.6863102208821
 30
0.0
 10
126.3024514535124
 20
256.6863102208821
 30
0.0
 10
126.3024514535124
 20
256.6863102208821
 30
0.0
 10
126.3024514535124
 20
256.6863102208821
 30
0.0
 10
126.3024514535124
 20
236.3972682498062
 30
0.0
 10
126.3024514535124
 20
236.3972682498062
 30
0.0
 10
126.3024514535124
 20
236.3972682498062
 30
0.0
 10
130.949543819227
 20
236.3972682498062
 30
0.0
 10
130.949543819227
 20
236.3972682498062
 30
0.0
 10
130.949543819227
 20
236.3972682498062
 30
0.0
 10
130.949543819227
 20
237.3040179797017
 30
0.0
 10
130.949543819227
 20
237.3040179797017
 30
0.0
 10
130.949543819227
 20
237.3040179797017
 30
0.0
 10
127.209201183408
 20
237.3040179797017
 30
0.0
 10
127.209201183408
 20
237.3040179797017
 30
0.0
 10
127.209201183408
 20
237.3040179797017
 30
0.0
 10
127.209201183408
 20
255.4395293422758
 30
0.0
 10
127.209201183408
 20
255.4395293422758
 30
0.0
 10
127.209201183408
 20
255.4395293422758
 30
0.0
 10
140.0173856279579
 20
255.4395293422758
 30
0.0
 10
140.0173856279579
 20
255.4395293422758
 30
0.0
 10
140.0173856279579
 20
255.4395293422758
 30
0.0
 10
140.0173856279579
 20
238.437627396959
 30
0.0
 10
140.0173856279579
 20
238.437627396959
 30
0.0
 10
140.0173856279579
 20
238.437627396959
 30
0.0
 10
139.1104636431745
 20
238.437627396959
 30
0.0
 10
139.1104636431745
 20
238.437627396959
 30
0.0
 10
139.1104636431745
 20
238.437627396959
 30
0.0
 10
139.1104636431745
 20
237.0773305472279
 30
0.0
 10
139.1104636431745
 20
237.0773305472279
 30
0.0
 10
139.1104636431745
 20
237.0773305472279
 30
0.0
 10
135.8234958723033
 20
237.0773305472279
 30
0.0
 10
135.8234958723033
 20
237.0773305472279
 30
0.0
 10
135.8234958723033
 20
237.0773305472279
 30
0.0
 10
135.8234958723033
 20
236.2839245335693
 30
0.0
 10
135.8234958723033
 20
236.2839245335693
 30
0.0
 10
135.8234958723033
 20
236.2839245335693
 30
0.0
 10
141.9442288039859
 20
236.2839245335693
 30
0.0
 10
141.9442288039859
 20
236.2839245335693
 30
0.0
 10
141.9442288039859
 20
236.2839245335693
 30
0.0
 10
141.9442288039859
 20
236.7372993985171
 30
0.0
 10
141.9442288039859
 20
236.7372993985171
 30
0.0
 10
141.9442288039859
 20
236.7372993985171
 30
0.0
 10
153.0520852500939
 20
236.7372993985171
 30
0.0
 10
153.0520852500939
 20
236.7372993985171
 30
0.0
 10
153.0520852500939
 20
236.7372993985171
 30
0.0
 10
153.0520852500939
 20
237.9842525320113
 30
0.0
 10
153.0520852500939
 20
237.9842525320113
 30
0.0
 10
153.0520852500939
 20
237.9842525320113
 30
0.0
 10
141.0374790740904
 20
237.9842525320113
 30
0.0
 10
141.0374790740904
 20
237.9842525320113
 30
0.0
 10
141.0374790740904
 20
237.9842525320113
 30
0.0
 10
141.0374790740904
 20
276.4084613558854
 30
0.0
 10
141.0374790740904
 20
276.4084613558854
 30
0.0
 10
141.0374790740904
 20
276.4084613558854
 30
0.0
 10
180.255093911623
 20
276.4084613558854
 30
0.0
 10
180.255093911623
 20
276.4084613558854
 30
0.0
 10
180.255093911623
 20
276.4084613558854
 30
0.0
 10
180.255093911623
 20
238.3242836807221
 30
0.0
 10
180.255093911623
 20
238.3242836807221
 30
0.0
 10
180.255093911623
 20
238.3242836807221
 30
0.0
 10
168.2404877356196
 20
238.3242836807221
 30
0.0
 10
168.2404877356196
 20
238.3242836807221
 30
0.0
 10
168.2404877356196
 20
238.3242836807221
 30
0.0
 10
168.2404877356196
 20
236.9639868309909
 30
0.0
 10
168.2404877356196
 20
236.9639868309909
 30
0.0
 10
168.2404877356196
 20
236.9639868309909
 30
0.0
 10
178.7816256005428
 20
236.9639868309909
 30
0.0
 10
178.7816256005428
 20
236.9639868309909
 30
0.0
 10
178.7816256005428
 20
236.9639868309909
 30
0.0
 10
178.7816256005428
 20
235.4905185199107
 30
0.0
 10
178.7816256005428
 20
235.4905185199107
 30
0.0
 10
178.7816256005428
 20
235.4905185199107
 30
0.0
 10
180.4817813440969
 20
235.4905185199107
 30
0.0
 10
180.4817813440969
 20
235.4905185199107
 30
0.0
 10
180.4817813440969
 20
235.4905185199107
 30
0.0
 10
180.4817813440969
 20
224.3826620738027
 30
0.0
 10
180.4817813440969
 20
224.3826620738027
 30
0.0
 10
180.4817813440969
 20
224.3826620738027
 30
0.0
 10
192.7232472074622
 20
224.3826620738027
 30
0.0
 10
192.7232472074622
 20
224.3826620738027
 30
0.0
 10
192.7232472074622
 20
224.3826620738027
 30
0.0
 10
192.7232472074622
 20
225.5160992361721
 30
0.0
 10
192.7232472074622
 20
225.5160992361721
 30
0.0
 10
192.7232472074622
 20
225.5160992361721
 30
0.0
 10
181.2751873577555
 20
225.5160992361721
 30
0.0
 10
181.2751873577555
 20
225.5160992361721
 30
0.0
 10
181.2751873577555
 20
225.5160992361721
 30
0.0
 10
181.2751873577555
 20
235.6038622361476
 30
0.0
 10
181.2751873577555
 20
235.6038622361476
 30
0.0
 10
181.2751873577555
 20
235.6038622361476
 30
0.0
 10
182.295280803888
 20
235.6038622361476
 30
0.0
 10
182.295280803888
 20
235.6038622361476
 30
0.0
 10
182.295280803888
 20
235.6038622361476
 30
0.0
 10
182.295280803888
 20
238.7776585456699
 30
0.0
 10
182.295280803888
 20
238.7776585456699
 30
0.0
 10
182.295280803888
 20
238.7776585456699
 30
0.0
 10
181.3885310739925
 20
238.7776585456699
 30
0.0
 10
181.3885310739925
 20
238.7776585456699
 30
0.0
 10
181.3885310739925
 20
238.7776585456699
 30
0.0
 10
181.3885310739925
 20
276.2951176396484
 30
0.0
 10
181.3885310739925
 20
276.2951176396484
 30
0.0
 10
181.3885310739925
 20
276.2951176396484
 30
0.0
 10
220.0380492912373
 20
276.2951176396484
 30
0.0
 10
220.0380492912373
 20
276.2951176396484
 30
0.0
 10
220.0380492912373
 20
276.2951176396484
 30
0.0
 10
220.0380492912373
 20
238.8910022619068
 30
0.0
 10
220.0380492912373
 20
238.8910022619068
 30
0.0
 10
220.0380492912373
 20
238.8910022619068
 30
0.0
 10
218.677924696394
 20
238.8910022619068
 30
0.0
 10
218.677924696394
 20
238.8910022619068
 30
0.0
 10
218.677924696394
 20
238.8910022619068
 30
0.0
 10
218.677924696394
 20
235.3771748036738
 30
0.0
 10
218.677924696394
 20
235.3771748036738
 30
0.0
 10
218.677924696394
 20
235.3771748036738
 30
0.0
 10
219.9374524367048
 20
235.3771748036738
 30
0.0
 10
219.9374524367048
 20
235.3771748036738
 30
0.0
 10
219.9374524367048
 20
235.3771748036738
 30
0.0
 10
219.9374524367048
 20
225.856130384883
 30
0.0
 10
219.9374524367048
 20
225.856130384883
 30
0.0
 10
219.9374524367048
 20
225.856130384883
 30
0.0
 10
208.2503028025955
 20
225.856130384883
 30
0.0
 10
208.2503028025955
 20
225.856130384883
 30
0.0
 10
208.2503028025955
 20
225.856130384883
 30
0.0
 10
208.2503028025955
 20
224.3826620738027
 30
0.0
 10
208.2503028025955
 20
224.3826620738027
 30
0.0
 10
208.2503028025955
 20
224.3826620738027
 30
0.0
 10
232.9595774520241
 20
224.3826620738027
 30
0.0
 10
232.9595774520241
 20
224.3826620738027
 30
0.0
 10
232.9595774520241
 20
224.3826620738027
 30
0.0
 10
232.9595774520241
 20
225.742786668646
 30
0.0
 10
232.9595774520241
 20
225.742786668646
 30
0.0
 10
232.9595774520241
 20
225.742786668646
 30
0.0
 10
221.1718309633824
 20
225.742786668646
 30
0.0
 10
221.1718309633824
 20
225.742786668646
 30
0.0
 10
221.1718309633824
 20
225.742786668646
 30
0.0
 10
221.1718309633824
 20
235.3771748036738
 30
0.0
 10
221.1718309633824
 20
235.3771748036738
 30
0.0
 10
221.1718309633824
 20
235.3771748036738
 30
0.0
 10
222.4186118419888
 20
235.3771748036738
 30
0.0
 10
222.4186118419888
 20
235.3771748036738
 30
0.0
 10
222.4186118419888
 20
235.3771748036738
 30
0.0
 10
222.4186118419888
 20
238.8910022619068
 30
0.0
 10
222.4186118419888
 20
238.8910022619068
 30
0.0
 10
222.4186118419888
 20
238.8910022619068
 30
0.0
 10
221.1718309633824
 20
238.8910022619068
 30
0.0
 10
221.1718309633824
 20
238.8910022619068
 30
0.0
 10
221.1718309633824
 20
238.8910022619068
 30
0.0
 10
221.1718309633824
 20
276.2951176396484
 30
0.0
 10
221.1718309633824
 20
276.2951176396484
 30
0.0
 10
221.1718309633824
 20
276.2951176396484
 30
0.0
 10
299.9470917871586
 20
276.2951176396484
 30
0.0
 10
299.9470917871586
 20
276.2951176396484
 30
0.0
 10
299.9470917871586
 20
276.2951176396484
 30
0.0
 10
299.9470917871586
 20
238.8908300070189
 30
0.0
 10
299.9470917871586
 20
238.8908300070189
 30
0.0
 10
299.9470917871586
 20
238.8908300070189
 30
0.0
 10
299.0403420572631
 20
238.8908300070189
 30
0.0
 10
299.0403420572631
 20
238.8908300070189
 30
0.0
 10
299.0403420572631
 20
238.8908300070189
 30
0.0
 10
299.0403420572631
 20
235.4905185199107
 30
0.0
 10
299.0403420572631
 20
235.4905185199107
 30
0.0
 10
299.0403420572631
 20
235.4905185199107
 30
0.0
 10
300.0604355033955
 20
235.4905185199107
 30
0.0
 10
300.0604355033955
 20
235.4905185199107
 30
0.0
 10
300.0604355033955
 20
235.4905185199107
 30
0.0
 10
300.0604355033955
 20
225.742786668646
 30
0.0
 10
300.0604355033955
 20
225.742786668646
 30
0.0
 10
300.0604355033955
 20
225.742786668646
 30
0.0
 10
287.9323133562672
 20
225.742786668646
 30
0.0
 10
287.9323133562672
 20
225.742786668646
 30
0.0
 10
287.9323133562672
 20
225.742786668646
 30
0.0
 10
287.9323133562672
 20
224.2693183575658
 30
0.0
 10
287.9323133562672
 20
224.2693183575658
 30
0.0
 10
287.9323133562672
 20
224.2693183575658
 30
0.0
 10
301.9872786794235
 20
224.2693183575658
 30
0.0
 10
301.9872786794235
 20
224.2693183575658
 30
0.0
 10
301.9872786794235
 20
224.2693183575658
 30
0.0
 10
301.9872786794235
 20
224.9493806549874
 30
0.0
 10
301.9872786794235
 20
224.9493806549874
 30
0.0
 10
301.9872786794235
 20
224.9493806549874
 30
0.0
 10
300.8538415170541
 20
224.9493806549874
 30
0.0
 10
300.8538415170541
 20
224.9493806549874
 30
0.0
 10
300.8538415170541
 20
224.9493806549874
 30
0.0
 10
300.8538415170541
 20
235.2638310874368
 30
0.0
 10
300.8538415170541
 20
235.2638310874368
 30
0.0
 10
300.8538415170541
 20
235.2638310874368
 30
0.0
 10
302.4406535443713
 20
235.2638310874368
 30
0.0
 10
302.4406535443713
 20
235.2638310874368
 30
0.0
 10
302.4406535443713
 20
235.2638310874368
 30
0.0
 10
302.4406535443713
 20
238.777486290782
 30
0.0
 10
302.4406535443713
 20
238.777486290782
 30
0.0
 10
302.4406535443713
 20
238.777486290782
 30
0.0
 10
301.193872665765
 20
238.777486290782
 30
0.0
 10
301.193872665765
 20
238.777486290782
 30
0.0
 10
301.193872665765
 20
238.777486290782
 30
0.0
 10
301.193872665765
 20
250.9056084379103
 30
0.0
 10
301.193872665765
 20
250.9056084379103
 30
0.0
 10
301.193872665765
 20
250.9056084379103
 30
0.0
 10
301.9872786794235
 20
250.9056084379103
 30
0.0
 10
301.9872786794235
 20
250.9056084379103
 30
0.0
 10
301.9872786794235
 20
250.9056084379103
 30
0.0
 10
301.9872786794235
 20
251.6990144515689
 30
0.0
 10
301.9872786794235
 20
251.6990144515689
 30
0.0
 10
301.9872786794235
 20
251.6990144515689
 30
0.0
 10
301.080528949528
 20
251.6990144515689
 30
0.0
 10
301.080528949528
 20
251.6990144515689
 30
0.0
 10
301.080528949528
 20
251.6990144515689
 30
0.0
 10
301.080528949528
 20
276.1817739234115
 30
0.0
 10
301.080528949528
 20
276.1817739234115
 30
0.0
 10
301.080528949528
 20
276.1817739234115
 30
0.0
 10
320.3493052195835
 20
276.1817739234115
 30
0.0
 10
320.3493052195835
 20
276.1817739234115
 30
0.0
 10
320.3493052195835
 20
276.1817739234115
 30
0.0
 10
320.3493052195835
 20
251.6990144515689
 30
0.0
 10
320.3493052195835
 20
251.6990144515689
 30
0.0
 10
320.3493052195835
 20
251.6990144515689
 30
0.0
 10
312.301556856985
 20
251.6990144515689
 30
0.0
 10
312.301556856985
 20
251.6990144515689
 30
0.0
 10
312.301556856985
 20
251.6990144515689
 30
0.0
 10
312.301556856985
 20
248.5252181420466
 30
0.0
 10
312.301556856985
 20
248.5252181420466
 30
0.0
 10
312.301556856985
 20
248.5252181420466
 30
0.0
 10
313.0949628706436
 20
248.5252181420466
 30
0.0
 10
313.0949628706436
 20
248.5252181420466
 30
0.0
 10
313.0949628706436
 20
248.5252181420466
 30
0.0
 10
313.0949628706436
 20
250.6789210054364
 30
0.0
 10
313.0949628706436
 20
250.6789210054364
 30
0.0
 10
313.0949628706436
 20
250.6789210054364
 30
0.0
 10
321.0293675170051
 20
250.6789210054364
 30
0.0
 10
321.0293675170051
 20
250.6789210054364
 30
0.0
 10
321.0293675170051
 20
250.6789210054364
 30
0.0
 10
321.0293675170051
 20
276.0684302071746
 30
0.0
 10
321.0293675170051
 20
276.0684302071746
 30
0.0
 10
321.0293675170051
 20
276.0684302071746
 30
0.0
 10
339.3913940571651
 20
276.0684302071746
 30
0.0
 10
339.3913940571651
 20
276.0684302071746
 30
0.0
 10
339.3913940571651
 20
276.0684302071746
 30
0.0
 10
339.3913940571651
 20
243.3114071951474
 30
0.0
 10
339.3913940571651
 20
243.3114071951474
 30
0.0
 10
339.3913940571651
 20
243.3114071951474
 30
0.0
 10
312.414900573222
 20
243.3114071951474
 30
0.0
 10
312.414900573222
 20
243.3114071951474
 30
0.0
 10
312.414900573222
 20
243.3114071951474
 30
0.0
 10
312.414900573222
 20
240.0242671693883
 30
0.0
 10
312.414900573222
 20
240.0242671693883
 30
0.0
 10
312.414900573222
 20
240.0242671693883
 30
0.0
 10
313.0949628706436
 20
240.0242671693883
 30
0.0
 10
313.0949628706436
 20
240.0242671693883
 30
0.0
 10
313.0949628706436
 20
240.0242671693883
 30
0.0
 10
313.0949628706436
 20
242.177970032778
 30
0.0
 10
313.0949628706436
 20
242.177970032778
 30
0.0
 10
313.0949628706436
 20
242.177970032778
 30
0.0
 10
339.5047377734021
 20
242.177970032778
 30
0.0
 10
339.5047377734021
 20
242.177970032778
 30
0.0
 10
339.5047377734021
 20
242.177970032778
 30
0.0
 10
339.5047377734021
 20
235.9438933848585
 30
0.0
 10
339.5047377734021
 20
235.9438933848585
 30
0.0
 10
339.5047377734021
 20
235.9438933848585
 30
0.0
 10
340.2981437870607
 20
235.9438933848585
 30
0.0
 10
340.2981437870607
 20
235.9438933848585
 30
0.0
 10
340.2981437870607
 20
235.9438933848585
 30
0.0
 10
340.2981437870607
 20
225.1760680874613
 30
0.0
 10
340.2981437870607
 20
225.1760680874613
 30
0.0
 10
340.2981437870607
 20
225.1760680874613
 30
0.0
 10
312.9816191544066
 20
225.1760680874613
 30
0.0
 10
312.9816191544066
 20
225.1760680874613
 30
0.0
 10
312.9816191544066
 20
225.1760680874613
 30
0.0
 10
312.9816191544066
 20
235.1504873711999
 30
0.0
 10
312.9816191544066
 20
235.1504873711999
 30
0.0
 10
312.9816191544066
 20
235.1504873711999
 30
0.0
 10
312.301556856985
 20
235.1504873711999
 30
0.0
 10
312.301556856985
 20
235.1504873711999
 30
0.0
 10
312.301556856985
 20
235.1504873711999
 30
0.0
 10
312.301556856985
 20
225.1760680874613
 30
0.0
 10
312.301556856985
 20
225.1760680874613
 30
0.0
 10
312.301556856985
 20
225.1760680874613
 30
0.0
 10
307.3144333425597
 20
225.1760680874613
 30
0.0
 10
307.3144333425597
 20
225.1760680874613
 30
0.0
 10
307.3144333425597
 20
225.1760680874613
 30
0.0
 10
307.3144333425597
 20
224.1559746413288
 30
0.0
 10
307.3144333425597
 20
224.1559746413288
 30
0.0
 10
307.3144333425597
 20
224.1559746413288
 30
0.0
 10
340.4114875032976
 20
224.1559746413288
 30
0.0
 10
340.4114875032976
 20
224.1559746413288
 30
0.0
 10
340.4114875032976
 20
224.1559746413288
 30
0.0
 10
340.4114875032976
 20
198.3129183197551
 30
0.0
 10
340.4114875032976
 20
198.3129183197551
 30
0.0
 10
340.4114875032976
 20
198.3129183197551
 30
0.0
 10
339.2780503409282
 20
198.3129183197551
 30
0.0
 10
339.2780503409282
 20
198.3129183197551
 30
0.0
 10
339.2780503409282
 20
198.3129183197551
 30
0.0
 10
339.2780503409282
 20
193.3257948053297
 30
0.0
 10
339.2780503409282
 20
193.3257948053297
 30
0.0
 10
339.2780503409282
 20
193.3257948053297
 30
0.0
 10
313.3216503031175
 20
193.3257948053297
 30
0.0
 10
313.3216503031175
 20
193.3257948053297
 30
0.0
 10
313.3216503031175
 20
193.3257948053297
 30
0.0
 10
313.3216503031175
 20
207.9473064547828
 30
0.0
 10
313.3216503031175
 20
207.9473064547828
 30
0.0
 10
313.3216503031175
 20
207.9473064547828
 30
0.0
 10
312.301556856985
 20
207.9473064547828
 30
0.0
 10
312.301556856985
 20
207.9473064547828
 30
0.0
 10
312.301556856985
 20
207.9473064547828
 30
0.0
 10
312.301556856985
 20
180.4040943896549
 30
0.0
 10
312.301556856985
 20
180.4040943896549
 30
0.0
 10
312.301556856985
 20
180.4040943896549
 30
0.0
 10
313.2083065868806
 20
180.4040943896549
 30
0.0
 10
313.2083065868806
 20
180.4040943896549
 30
0.0
 10
313.2083065868806
 20
180.4040943896549
 30
0.0
 10
313.2083065868806
 20
191.8519819844737
 30
0.0
 10
313.2083065868806
 20
191.8519819844737
 30
0.0
 10
313.2083065868806
 20
191.8519819844737
 30
0.0
 10
340.2981437870607
 20
191.8519819844737
 30
0.0
 10
340.2981437870607
 20
191.8519819844737
 30
0.0
 10
340.2981437870607
 20
191.8519819844737
 30
0.0
 10
340.2981437870607
 20
172.8098931468921
 30
0.0
 10
340.2981437870607
 20
172.8098931468921
 30
0.0
 10
340.2981437870607
 20
172.8098931468921
 30
0.0
 10
313.0949628706436
 20
172.8098931468921
 30
0.0
 10
313.0949628706436
 20
172.8098931468921
 30
0.0
 10
313.0949628706436
 20
172.8098931468921
 30
0.0
 10
313.0949628706436
 20
175.0767674716308
 30
0.0
 10
313.0949628706436
 20
175.0767674716308
 30
0.0
 10
313.0949628706436
 20
175.0767674716308
 30
0.0
 10
312.0748694245111
 20
175.0767674716308
 30
0.0
 10
312.0748694245111
 20
175.0767674716308
 30
0.0
 10
312.0748694245111
 20
175.0767674716308
 30
0.0
 10
312.0748694245111
 20
159.8883649861052
 30
0.0
 10
312.0748694245111
 20
159.8883649861052
 30
0.0
 10
312.0748694245111
 20
159.8883649861052
 30
0.0
 10
313.0953073804194
 20
160.0017087023421
 30
0.0
 10
313.0953073804194
 20
160.0017087023421
 30
0.0
 10
313.0953073804194
 20
160.0017087023421
 30
0.0
 10
313.0953073804194
 20
171.7897997007596
 30
0.0
 10
313.0953073804194
 20
171.7897997007596
 30
0.0
 10
313.0953073804194
 20
171.7897997007596
 30
0.0
 10
340.5248312195346
 20
171.7897997007596
 30
0.0
 10
340.5248312195346
 20
171.7897997007596
 30
0.0
 10
340.5248312195346
 20
171.7897997007596
 30
0.0
 10
340.5248312195346
 20
152.6341948920531
 30
0.0
 10
340.5248312195346
 20
152.6341948920531
 30
0.0
 10
340.5248312195346
 20
152.6341948920531
 30
0.0
 10
313.0949628706436
 20
152.6341948920531
 30
0.0
 10
313.0949628706436
 20
152.6341948920531
 30
0.0
 10
313.0949628706436
 20
152.6341948920531
 30
0.0
 10
313.0949628706436
 20
154.447866606732
 30
0.0
 10
313.0949628706436
 20
154.447866606732
 30
0.0
 10
313.0949628706436
 20
154.447866606732
 30
0.0
 10
312.301556856985
 20
154.447866606732
 30
0.0
 10
312.301556856985
 20
154.447866606732
 30
0.0
 10
312.301556856985
 20
154.447866606732
 30
0.0
 10
312.414900573222
 20
138.9194329724955
 30
0.0
 10
312.414900573222
 20
138.9194329724955
 30
0.0
 10
312.414900573222
 20
138.9194329724955
 30
0.0
 10
313.0953073804194
 20
138.9194329724955
 30
0.0
 10
313.0953073804194
 20
138.9194329724955
 30
0.0
 10
313.0953073804194
 20
138.9194329724955
 30
0.0
 10
313.0953073804194
 20
151.7274451621576
 30
0.0
 10
313.0953073804194
 20
151.7274451621576
 30
0.0
 10
313.0953073804194
 20
151.7274451621576
 30
0.0
 10
340.4114875032976
 20
151.7274451621576
 30
0.0
 10
340.4114875032976
 20
151.7274451621576
 30
0.0
 10
340.4114875032976
 20
151.7274451621576
 30
0.0
 10
340.4114875032976
 20
140.2795575673388
 30
0.0
 10
340.4114875032976
 20
140.2795575673388
 30
0.0
 10
340.4114875032976
 20
140.2795575673388
 30
0.0
 10
339.3913940571651
 20
140.2795575673388
 30
0.0
 10
339.3913940571651
 20
140.2795575673388
 30
0.0
 10
339.3913940571651
 20
140.2795575673388
 30
0.0
 10
339.3913940571651
 20
136.3125274990459
 30
0.0
 10
339.3913940571651
 20
136.3125274990459
 30
0.0
 10
339.3913940571651
 20
136.3125274990459
 30
0.0
 10
340.2981437870607
 20
136.3125274990459
 30
0.0
 10
340.2981437870607
 20
136.3125274990459
 30
0.0
 10
340.2981437870607
 20
136.3125274990459
 30
0.0
 10
340.2981437870607
 20
131.3254039846206
 30
0.0
 10
340.2981437870607
 20
131.3254039846206
 30
0.0
 10
340.2981437870607
 20
131.3254039846206
 30
0.0
 10
313.3216503031175
 20
131.3254039846206
 30
0.0
 10
313.3216503031175
 20
131.3254039846206
 30
0.0
 10
313.3216503031175
 20
131.3254039846206
 30
0.0
 10
313.3216503031175
 20
133.3655908768855
 30
0.0
 10
313.3216503031175
 20
133.3655908768855
 30
0.0
 10
313.3216503031175
 20
133.3655908768855
 30
0.0
 10
312.301556856985
 20
133.3655908768855
 30
0.0
 10
312.301556856985
 20
133.3655908768855
 30
0.0
 10
312.301556856985
 20
133.3655908768855
 30
0.0
 10
312.301556856985
 20
118.4038758238337
 30
0.0
 10
312.301556856985
 20
118.4038758238337
 30
0.0
 10
312.301556856985
 20
118.4038758238337
 30
0.0
 10
313.2083065868806
 20
118.4038758238337
 30
0.0
 10
313.2083065868806
 20
118.4038758238337
 30
0.0
 10
313.2083065868806
 20
118.4038758238337
 30
0.0
 10
313.2083065868806
 20
130.1919668222512
 30
0.0
 10
313.2083065868806
 20
130.1919668222512
 30
0.0
 10
313.2083065868806
 20
130.1919668222512
 30
0.0
 10
340.1848000708238
 20
130.1919668222512
 30
0.0
 10
340.1848000708238
 20
130.1919668222512
 30
0.0
 10
340.1848000708238
 20
130.1919668222512
 30
0.0
 10
340.1848000708238
 20
111.7162520560784
 30
0.0
 10
340.1848000708238
 20
111.7162520560784
 30
0.0
 10
340.1848000708238
 20
111.7162520560784
 30
0.0
 10
313.3216503031175
 20
111.7162520560784
 30
0.0
 10
313.3216503031175
 20
111.7162520560784
 30
0.0
 10
313.3216503031175
 20
111.7162520560784
 30
0.0
 10
313.3216503031175
 20
112.9630329346848
 30
0.0
 10
313.3216503031175
 20
112.9630329346848
 30
0.0
 10
313.3216503031175
 20
112.9630329346848
 30
0.0
 10
312.1882131407481
 20
112.9630329346848
 30
0.0
 10
312.1882131407481
 20
112.9630329346848
 30
0.0
 10
312.1882131407481
 20
112.9630329346848
 30
0.0
 10
312.1882131407481
 20
100.0415047738979
 30
0.0
 10
312.1882131407481
 20
100.0415047738979
 30
0.0
 10
312.1882131407481
 20
100.0415047738979
 30
0.0
 10
313.4349940193544
 20
100.0415047738979
 30
0.0
 10
313.4349940193544
 20
100.0415047738979
 30
0.0
 10
313.4349940193544
 20
100.0415047738979
 30
0.0
 10
313.4349940193544
 20
110.0160963125244
 30
0.0
 10
313.4349940193544
 20
110.0160963125244
 30
0.0
 10
313.4349940193544
 20
110.0160963125244
 30
0.0
 10
340.4114875032976
 20
110.0160963125244
 30
0.0
 10
340.4114875032976
 20
110.0160963125244
 30
0.0
 10
340.4114875032976
 20
110.0160963125244
 30
0.0
 10
340.4114875032976
 20
98.6813801790546
 30
0.0
 10
340.4114875032976
 20
98.6813801790546
 30
0.0
 10
340.4114875032976
 20
98.6813801790546
 30
0.0
 10
339.2780503409282
 20
98.6813801790546
 30
0.0
 10
339.2780503409282
 20
98.6813801790546
 30
0.0
 10
339.2780503409282
 20
98.6813801790546
 30
0.0
 10
339.2780503409282
 20
92.56081950225987
 30
0.0
 10
339.2780503409282
 20
92.56081950225987
 30
0.0
 10
339.2780503409282
 20
92.56081950225987
 30
0.0
 10
313.3216503031175
 20
92.56081950225987
 30
0.0
 10
313.3216503031175
 20
92.56081950225987
 30
0.0
 10
313.3216503031175
 20
92.56081950225987
 30
0.0
 10
313.3216503031175
 20
94.26097524581397
 30
0.0
 10
313.3216503031175
 20
94.26097524581397
 30
0.0
 10
313.3216503031175
 20
94.26097524581397
 30
0.0
 10
312.1882131407481
 20
94.26097524581397
 30
0.0
 10
312.1882131407481
 20
94.26097524581397
 30
0.0
 10
312.1882131407481
 20
94.26097524581397
 30
0.0
 10
312.1882131407481
 20
92.67416321849682
 30
0.0
 10
312.1882131407481
 20
92.67416321849682
 30
0.0
 10
312.1882131407481
 20
92.67416321849682
 30
0.0
 10
306.9744021938488
 20
92.67416321849682
 30
0.0
 10
306.9744021938488
 20
92.67416321849682
 30
0.0
 10
306.9744021938488
 20
92.67416321849682
 30
0.0
 10
306.9744021938488
 20
91.42738233989047
 30
0.0
 10
306.9744021938488
 20
91.42738233989047
 30
0.0
 10
306.9744021938488
 20
91.42738233989047
 30
0.0
 10
339.1647066246913
 20
91.42738233989047
 30
0.0
 10
339.1647066246913
 20
91.42738233989047
 30
0.0
 10
339.1647066246913
 20
91.42738233989047
 30
0.0
 10
339.1647066246913
 20
57.99029703044172
 30
0.0
 10
339.1647066246913
 20
57.99029703044172
 30
0.0
 10
339.1647066246913
 20
57.99029703044172
 30
0.0
 10
321.0293675170051
 20
57.99029703044172
 30
0.0
 10
321.0293675170051
 20
57.99029703044172
 30
0.0
 10
321.0293675170051
 20
57.99029703044172
 30
0.0
 10
321.0293675170051
 20
83.94635255847666
 30
0.0
 10
321.0293675170051
 20
83.94635255847666
 30
0.0
 10
321.0293675170051
 20
83.94635255847666
 30
0.0
 10
312.9816191544066
 20
83.94635255847666
 30
0.0
 10
312.9816191544066
 20
83.94635255847666
 30
0.0
 10
312.9816191544066
 20
83.94635255847666
 30
0.0
 10
312.9816191544066
 20
86.55325803192628
 30
0.0
 10
312.9816191544066
 20
86.55325803192628
 30
0.0
 10
312.9816191544066
 20
86.55325803192628
 30
0.0
 10
312.1882131407481
 20
86.55325803192628
 30
0.0
 10
312.1882131407481
 20
86.55325803192628
 30
0.0
 10
312.1882131407481
 20
86.55325803192628
 30
0.0
 10
312.1882131407481
 20
84.0596962747136
 30
0.0
 10
312.1882131407481
 20
84.0596962747136
 30
0.0
 10
312.1882131407481
 20
84.0596962747136
 30
0.0
 10
307.4277770587966
 20
84.0596962747136
 30
0.0
 10
307.4277770587966
 20
84.0596962747136
 30
0.0
 10
307.4277770587966
 20
84.0596962747136
 30
0.0
 10
307.4277770587966
 20
83.03960282858115
 30
0.0
 10
307.4277770587966
 20
83.03960282858115
 30
0.0
 10
307.4277770587966
 20
83.03960282858115
 30
0.0
 10
320.1226177871096
 20
83.03960282858115
 30
0.0
 10
320.1226177871096
 20
83.03960282858115
 30
0.0
 10
320.1226177871096
 20
83.03960282858115
 30
0.0
 10
320.1226177871096
 20
58.33032817915253
 30
0.0
 10
320.1226177871096
 20
58.33032817915253
 30
0.0
 10
320.1226177871096
 20
58.33032817915253
 30
0.0
 10
300.967185233291
 20
58.33032817915253
 30
0.0
 10
300.967185233291
 20
58.33032817915253
 30
0.0
 10
300.967185233291
 20
58.33032817915253
 30
0.0
 10
300.967185233291
 20
82.81325990588307
 30
0.0
 10
300.967185233291
 20
82.81325990588307
 30
0.0
 10
300.967185233291
 20
82.81325990588307
 30
0.0
 10
302.1006223956605
 20
82.81325990588307
 30
0.0
 10
302.1006223956605
 20
82.81325990588307
 30
0.0
 10
302.1006223956605
 20
82.81325990588307
 30
0.0
 10
302.1006223956605
 20
83.83335335201552
 30
0.0
 10
302.1006223956605
 20
83.83335335201552
 30
0.0
 10
302.1006223956605
 20
83.83335335201552
 30
0.0
 10
300.8538415170541
 20
83.83335335201552
 30
0.0
 10
300.8538415170541
 20
83.83335335201552
 30
0.0
 10
300.8538415170541
 20
83.83335335201552
 30
0.0
 10
300.8538415170541
 20
91.65406977236435
 30
0.0
 10
300.8538415170541
 20
91.65406977236435
 30
0.0
 10
300.8538415170541
 20
91.65406977236435
 30
0.0
 10
302.3273098281343
 20
91.65406977236435
 30
0.0
 10
302.3273098281343
 20
91.65406977236435
 30
0.0
 10
302.3273098281343
 20
91.65406977236435
 30
0.0
 10
302.3273098281343
 20
92.67416321849682
 30
0.0
 10
302.3273098281343
 20
92.67416321849682
 30
0.0
 10
302.3273098281343
 20
92.67416321849682
 30
0.0
 10
300.967185233291
 20
92.67416321849682
 30
0.0
 10
300.967185233291
 20
92.67416321849682
 30
0.0
 10
300.967185233291
 20
92.67416321849682
 30
0.0
 10
300.967185233291
 20
95.39475691795916
 30
0.0
 10
300.967185233291
 20
95.39475691795916
 30
0.0
 10
300.967185233291
 20
95.39475691795916
 30
0.0
 10
302.4406535443713
 20
95.39475691795916
 30
0.0
 10
302.4406535443713
 20
95.39475691795916
 30
0.0
 10
302.4406535443713
 20
95.39475691795916
 30
0.0
 10
302.4406535443713
 20
99.13509955377816
 30
0.0
 10
302.4406535443713
 20
99.13509955377816
 30
0.0
 10
302.4406535443713
 20
99.13509955377816
 30
0.0
 10
301.080528949528
 20
99.13509955377816
 30
0.0
 10
301.080528949528
 20
99.13509955377816
 30
0.0
 10
301.080528949528
 20
99.13509955377816
 30
0.0
 10
301.080528949528
 20
111.0361897586568
 30
0.0
 10
301.080528949528
 20
111.0361897586568
 30
0.0
 10
301.080528949528
 20
111.0361897586568
 30
0.0
 10
288.0456570725042
 20
111.0361897586568
 30
0.0
 10
288.0456570725042
 20
111.0361897586568
 30
0.0
 10
288.0456570725042
 20
111.0361897586568
 30
0.0
 10
288.0456570725042
 20
110.0160963125244
 30
0.0
 10
288.0456570725042
 20
110.0160963125244
 30
0.0
 10
288.0456570725042
 20
110.0160963125244
 30
0.0
 10
300.1737792196325
 20
110.0160963125244
 30
0.0
 10
300.1737792196325
 20
110.0160963125244
 30
0.0
 10
300.1737792196325
 20
110.0160963125244
 30
0.0
 10
300.1737792196325
 20
99.36178698625204
 30
0.0
 10
300.1737792196325
 20
99.36178698625204
 30
0.0
 10
300.1737792196325
 20
99.36178698625204
 30
0.0
 10
298.7003109085523
 20
99.36178698625204
 30
0.0
 10
298.7003109085523
 20
99.36178698625204
 30
0.0
 10
298.7003109085523
 20
99.36178698625204
 30
0.0
 10
298.7003109085523
 20
95.62144435043304
 30
0.0
 10
298.7003109085523
 20
95.62144435043304
 30
0.0
 10
298.7003109085523
 20
95.62144435043304
 30
0.0
 10
299.9470917871586
 20
95.62144435043304
 30
0.0
 10
299.9470917871586
 20
95.62144435043304
 30
0.0
 10
299.9470917871586
 20
95.62144435043304
 30
0.0
 10
299.9470917871586
 20
58.44367189538947
 30
0.0
 10
299.9470917871586
 20
58.44367189538947
 30
0.0
 10
299.9470917871586
 20
58.44367189538947
 30
0.0
 10
261.5228829632845
 20
58.44367189538947
 30
0.0
 10
261.5228829632845
 20
58.44367189538947
 30
0.0
 10
261.5228829632845
 20
58.44367189538947
 30
0.0
 10
261.5228829632845
 20
95.62144435043304
 30
0.0
 10
261.5228829632845
 20
95.62144435043304
 30
0.0
 10
261.5228829632845
 20
95.62144435043304
 30
0.0
 10
262.4296326931801
 20
95.62144435043304
 30
0.0
 10
262.4296326931801
 20
95.62144435043304
 30
0.0
 10
262.4296326931801
 20
95.62144435043304
 30
0.0
 10
262.4296326931801
 20
98.92115898300874
 30
0.0
 10
262.4296326931801
 20
98.92115898300874
 30
0.0
 10
262.4296326931801
 20
98.92115898300874
 30
0.0
 10
261.5228829632845
 20
98.92115898300874
 30
0.0
 10
261.5228829632845
 20
98.92115898300874
 30
0.0
 10
261.5228829632845
 20
98.92115898300874
 30
0.0
 10
261.5228829632845
 20
109.3360340151027
 30
0.0
 10
261.5228829632845
 20
109.3360340151027
 30
0.0
 10
261.5228829632845
 20
109.3360340151027
 30
0.0
 10
272.9705983032154
 20
109.3360340151027
 30
0.0
 10
272.9705983032154
 20
109.3360340151027
 30
0.0
 10
272.9705983032154
 20
109.3360340151027
 30
0.0
 10
272.9705983032154
 20
110.9228460424199
 30
0.0
 10
272.9705983032154
 20
110.9228460424199
 30
0.0
 10
272.9705983032154
 20
110.9228460424199
 30
0.0
 10
248.0346362213129
 20
110.9228460424199
 30
0.0
 10
248.0346362213129
 20
110.9228460424199
 30
0.0
 10
248.0346362213129
 20
110.9228460424199
 30
0.0
 10
248.0346362213129
 20
109.6760651638135
 30
0.0
 10
248.0346362213129
 20
109.6760651638135
 30
0.0
 10
248.0346362213129
 20
109.6760651638135
 30
0.0
 10
260.0490701424285
 20
109.6760651638135
 30
0.0
 10
260.0490701424285
 20
109.6760651638135
 30
0.0
 10
260.0490701424285
 20
109.6760651638135
 30
0.0
 10
260.0490701424285
 20
98.79506840506734
 30
0.0
 10
260.0490701424285
 20
98.79506840506734
 30
0.0
 10
260.0490701424285
 20
98.79506840506734
 30
0.0
 10
258.8022892638222
 20
98.79506840506734
 30
0.0
 10
258.8022892638222
 20
98.79506840506734
 30
0.0
 10
258.8022892638222
 20
98.79506840506734
 30
0.0
 10
258.8022892638222
 20
95.5081006341961
 30
0.0
 10
258.8022892638222
 20
95.5081006341961
 30
0.0
 10
258.8022892638222
 20
95.5081006341961
 30
0.0
 10
260.2757575749024
 20
95.5081006341961
 30
0.0
 10
260.2757575749024
 20
95.5081006341961
 30
0.0
 10
260.2757575749024
 20
95.5081006341961
 30
0.0
 10
260.2757575749024
 20
58.78370304410029
 30
0.0
 10
260.2757575749024
 20
58.78370304410029
 30
0.0
 10
260.2757575749024
 20
58.78370304410029
 30
0.0
 10
221.0581427373697
 20
58.78370304410029
 30
0.0
 10
221.0581427373697
 20
58.78370304410029
 30
0.0
 10
221.0581427373697
 20
58.78370304410029
 30
0.0
 10
221.0581427373697
 20
95.5081006341961
 30
0.0
 10
221.0581427373697
 20
95.5081006341961
 30
0.0
 10
221.0581427373697
 20
95.5081006341961
 30
0.0
 10
222.304923615976
 20
95.5081006341961
 30
0.0
 10
222.304923615976
 20
95.5081006341961
 30
0.0
 10
222.304923615976
 20
95.5081006341961
 30
0.0
 10
222.304923615976
 20
98.56838097259346
 30
0.0
 10
222.304923615976
 20
98.56838097259346
 30
0.0
 10
222.304923615976
 20
98.56838097259346
 30
0.0
 10
221.0581427373697
 20
98.56838097259346
 30
0.0
 10
221.0581427373697
 20
98.56838097259346
 30
0.0
 10
221.0581427373697
 20
98.56838097259346
 30
0.0
 10
221.0581427373697
 20
109.5627214475766
 30
0.0
 10
221.0581427373697
 20
109.5627214475766
 30
0.0
 10
221.0581427373697
 20
109.5627214475766
 30
0.0
 10
233.0729211682611
 20
109.5627214475766
 30
0.0
 10
233.0729211682611
 20
109.5627214475766
 30
0.0
 10
233.0729211682611
 20
109.5627214475766
 30
0.0
 10
233.0729211682611
 20
111.2632217009065
 30
0.0
 10
233.0729211682611
 20
111.2632217009065
 30
0.0
 10
233.0729211682611
 20
111.2632217009065
 30
0.0
 10
208.3636465188325
 20
111.2632217009065
 30
0.0
 10
208.3636465188325
 20
111.2632217009065
 30
0.0
 10
208.3636465188325
 20
111.2632217009065
 30
0.0
 10
208.3636465188325
 20
109.9027525962874
 30
0.0
 10
208.3636465188325
 20
109.9027525962874
 30
0.0
 10
208.3636465188325
 20
109.9027525962874
 30
0.0
 10
219.8113618587634
 20
109.9027525962874
 30
0.0
 10
219.8113618587634
 20
109.9027525962874
 30
0.0
 10
219.8113618587634
 20
109.9027525962874
 30
0.0
 10
219.8113618587634
 20
98.90841212130428
 30
0.0
 10
219.8113618587634
 20
98.90841212130428
 30
0.0
 10
219.8113618587634
 20
98.90841212130428
 30
0.0
 10
218.7912684126309
 20
98.90841212130428
 30
0.0
 10
218.7912684126309
 20
98.90841212130428
 30
0.0
 10
218.7912684126309
 20
98.90841212130428
 30
0.0
 10
218.7912684126309
 20
95.5081006341961
 30
0.0
 10
218.7912684126309
 20
95.5081006341961
 30
0.0
 10
218.7912684126309
 20
95.5081006341961
 30
0.0
 10
219.5846744262895
 20
95.5081006341961
 30
0.0
 10
219.5846744262895
 20
95.5081006341961
 30
0.0
 10
219.5846744262895
 20
95.5081006341961
 30
0.0
 10
219.5846744262895
 20
58.67070383763915
 30
0.0
 10
219.5846744262895
 20
58.67070383763915
 30
0.0
 10
219.5846744262895
 20
58.67070383763915
 30
0.0
 10
181.5004967511262
 20
58.67070383763915
 30
0.0
 10
181.5004967511262
 20
58.67070383763915
 30
0.0
 10
181.5004967511262
 20
58.67070383763915
 30
0.0
 10
181.5004967511262
 20
95.73478806666998
 30
0.0
 10
181.5004967511262
 20
95.73478806666998
 30
0.0
 10
181.5004967511262
 20
95.73478806666998
 30
0.0
 10
182.2937305098969
 20
95.73478806666998
 30
0.0
 10
182.2937305098969
 20
95.73478806666998
 30
0.0
 10
182.2937305098969
 20
95.73478806666998
 30
0.0
 10
182.2937305098969
 20
98.79506840506734
 30
0.0
 10
182.2937305098969
 20
98.79506840506734
 30
0.0
 10
182.2937305098969
 20
98.79506840506734
 30
0.0
 10
181.5001522413504
 20
98.79506840506734
 30
0.0
 10
181.5001522413504
 20
98.79506840506734
 30
0.0
 10
181.5001522413504
 20
98.79506840506734
 30
0.0
 10
181.5001522413504
 20
109.3363785248785
 30
0.0
 10
181.5001522413504
 20
109.3363785248785
 30
0.0
 10
181.5001522413504
 20
109.3363785248785
 30
0.0
 10
192.8348683748202
 20
109.3363785248785
 30
0.0
 10
192.8348683748202
 20
109.3363785248785
 30
0.0
 10
192.8348683748202
 20
109.3363785248785
 30
0.0
 10
192.8348683748202
 20
111.0365342684326
 30
0.0
 10
192.8348683748202
 20
111.0365342684326
 30
0.0
 10
192.8348683748202
 20
111.0365342684326
 30
0.0
 10
180.0266839302702
 20
111.0365342684326
 30
0.0
 10
180.0266839302702
 20
111.0365342684326
 30
0.0
 10
180.0266839302702
 20
111.0365342684326
 30
0.0
 10
180.0266839302702
 20
99.02175583754122
 30
0.0
 10
180.0266839302702
 20
99.02175583754122
 30
0.0
 10
180.0266839302702
 20
99.02175583754122
 30
0.0
 10
178.6665593354269
 20
99.02175583754122
 30
0.0
 10
178.6665593354269
 20
99.02175583754122
 30
0.0
 10
178.6665593354269
 20
99.02175583754122
 30
0.0
 10
178.6665593354269
 20
97.66163124269795
 30
0.0
 10
178.6665593354269
 20
97.66163124269795
 30
0.0
 10
178.6665593354269
 20
97.66163124269795
 30
0.0
 10
168.2387651867406
 20
97.66163124269795
 30
0.0
 10
168.2387651867406
 20
97.66163124269795
 30
0.0
 10
168.2387651867406
 20
97.66163124269795
 30
0.0
 10
168.2387651867406
 20
96.4148503640916
 30
0.0
 10
168.2387651867406
 20
96.4148503640916
 30
0.0
 10
168.2387651867406
 20
96.4148503640916
 30
0.0
 10
179.9133402140333
 20
96.4148503640916
 30
0.0
 10
179.9133402140333
 20
96.4148503640916
 30
0.0
 10
179.9133402140333
 20
96.4148503640916
 30
0.0
 10
179.9133402140333
 20
58.33067268892833
 30
0.0
 10
179.9133402140333
 20
58.33067268892833
 30
0.0
 10
179.9133402140333
 20
58.33067268892833
 30
0.0
 10
142.0558499713439
 20
58.33067268892833
 30
0.0
 10
142.0558499713439
 20
58.33067268892833
 30
0.0
 10
142.0558499713439
 20
58.33067268892833
 30
0.0
 10
142.0558499713439
 20
62.97776505464285
 30
0.0
 10
142.0558499713439
 20
62.97776505464285
 30
0.0
 10
142.0558499713439
 20
62.97776505464285
 30
0.0
 10
137.9753039319261
 20
62.97776505464285
 30
0.0
 10
137.9753039319261
 20
62.97776505464285
 30
0.0
 10
137.9753039319261
 20
62.97776505464285
 30
0.0
 10
137.9753039319261
 20
96.07481921538078
 30
0.0
 10
137.9753039319261
 20
96.07481921538078
 30
0.0
 10
137.9753039319261
 20
96.07481921538078
 30
0.0
 10
142.0558499713439
 20
96.07481921538078
 30
0.0
 10
142.0558499713439
 20
96.07481921538078
 30
0.0
 10
142.0558499713439
 20
96.07481921538078
 30
0.0
 10
142.0558499713439
 20
96.64153779656549
 30
0.0
 10
142.0558499713439
 20
96.64153779656549
 30
0.0
 10
142.0558499713439
 20
96.64153779656549
 30
0.0
 10
153.0503627012149
 20
96.64153779656549
 30
0.0
 10
153.0503627012149
 20
96.64153779656549
 30
0.0
 10
153.0503627012149
 20
96.64153779656549
 30
0.0
 10
153.0503627012149
 20
97.77497495893489
 30
0.0
 10
153.0503627012149
 20
97.77497495893489
 30
0.0
 10
153.0503627012149
 20
97.77497495893489
 30
0.0
 10
142.3958811200547
 20
97.77497495893489
 30
0.0
 10
142.3958811200547
 20
97.77497495893489
 30
0.0
 10
142.3958811200547
 20
97.77497495893489
 30
0.0
 10
142.3958811200547
 20
98.79506840506734
 30
0.0
 10
142.3958811200547
 20
98.79506840506734
 30
0.0
 10
142.3958811200547
 20
98.79506840506734
 30
0.0
 10
139.1089133491834
 20
98.79506840506734
 30
0.0
 10
139.1089133491834
 20
98.79506840506734
 30
0.0
 10
139.1089133491834
 20
98.79506840506734
 30
0.0
 10
139.1089133491834
 20
97.43494381022407
 30
0.0
 10
139.1089133491834
 20
97.43494381022407
 30
0.0
 10
139.1089133491834
 20
97.43494381022407
 30
0.0
 10
137.7486164994523
 20
97.43494381022407
 30
0.0
 10
137.7486164994523
 20
97.43494381022407
 30
0.0
 10
137.7486164994523
 20
97.43494381022407
 30
0.0
 10
137.7486164994523
 20
106.8428167676658
 30
0.0
 10
137.7486164994523
 20
106.8428167676658
 30
0.0
 10
137.7486164994523
 20
106.8428167676658
 30
0.0
 10
137.1822424280433
 20
106.8428167676658
 30
0.0
 10
137.1822424280433
 20
106.8428167676658
 30
0.0
 10
137.1822424280433
 20
106.8428167676658
 30
0.0
 10
137.1822424280433
 20
62.18435904098428
 30
0.0
 10
137.1822424280433
 20
62.18435904098428
 30
0.0
 10
137.1822424280433
 20
62.18435904098428
 30
0.0
 10
140.9225850638624
 20
62.18435904098428
 30
0.0
 10
140.9225850638624
 20
62.18435904098428
 30
0.0
 10
140.9225850638624
 20
62.18435904098428
 30
0.0
 10
140.9225850638624
 20
58.33067268892833
 30
0.0
 10
140.9225850638624
 20
58.33067268892833
 30
0.0
 10
140.9225850638624
 20
58.33067268892833
 30
0.0
 10
61.58043340401359
 20
58.33067268892833
 30
0.0
 10
61.58043340401359
 20
58.33067268892833
 30
0.0
 10
61.58043340401359
 20
58.33067268892833
 30
0.0
 10
61.58043340401359
 20
95.84813178290692
 30
0.0
 10
61.58043340401359
 20
95.84813178290692
 30
0.0
 10
61.58043340401359
 20
95.84813178290692
 30
0.0
 10
62.37383941767217
 20
95.84813178290692
 30
0.0
 10
62.37383941767217
 20
95.84813178290692
 30
0.0
 10
62.37383941767217
 20
95.84813178290692
 30
0.0
 10
62.37383941767217
 20
98.79506840506734
 30
0.0
 10
62.37383941767217
 20
98.79506840506734
 30
0.0
 10
62.37383941767217
 20
98.79506840506734
 30
0.0
 10
61.80712083648747
 20
98.79506840506734
 30
0.0
 10
61.80712083648747
 20
98.79506840506734
 30
0.0
 10
61.80712083648747
 20
98.79506840506734
 30
0.0
 10
61.80712083648747
 20
115.1169080529624
 30
0.0
 10
61.80712083648747
 20
115.1169080529624
 30
0.0
 10
61.80712083648747
 20
115.1169080529624
 30
0.0
 10
137.1822424280433
 20
115.1169080529624
 30
0.0
 10
137.1822424280433
 20
115.1169080529624
 30
0.0
 10
137.1822424280433
 20
115.1169080529624
 30
0.0
 10
137.1822424280433
 20
112.0566277145651
 30
0.0
 10
137.1822424280433
 20
112.0566277145651
 30
0.0
 10
137.1822424280433
 20
112.0566277145651
 30
0.0
 10
137.9756484417019
 20
112.0566277145651
 30
0.0
 10
137.9756484417019
 20
112.0566277145651
 30
0.0
 10
137.9756484417019
 20
112.0566277145651
 30
0.0
 10
137.9756484417019
 20
115.0035643367255
 30
0.0
 10
137.9756484417019
 20
115.0035643367255
 30
0.0
 10
137.9756484417019
 20
115.0035643367255
 30
0.0
 10
141.2627884674611
 20
115.0035643367255
 30
0.0
 10
141.2627884674611
 20
115.0035643367255
 30
0.0
 10
141.2627884674611
 20
115.0035643367255
 30
0.0
 10
141.2627884674611
 20
116.3636889315688
 30
0.0
 10
141.2627884674611
 20
116.3636889315688
 30
0.0
 10
141.2627884674611
 20
116.3636889315688
 30
0.0
 10
101.5916265100927
 20
116.3636889315688
 30
0.0
 10
101.5916265100927
 20
116.3636889315688
 30
0.0
 10
101.5916265100927
 20
116.3636889315688
 30
0.0
 10
101.5916265100927
 20
125.0914995915889
 30
0.0
 10
101.5916265100927
 20
125.0914995915889
 30
0.0
 10
101.5916265100927
 20
125.0914995915889
 30
0.0
 10
126.9811357118309
 20
125.0914995915889
 30
0.0
 10
126.9811357118309
 20
125.0914995915889
 30
0.0
 10
126.9811357118309
 20
125.0914995915889
 30
0.0
 10
126.9811357118309
 20
127.3583739163277
 30
0.0
 10
126.9811357118309
 20
127.3583739163277
 30
0.0
 10
126.9811357118309
 20
127.3583739163277
 30
0.0
 10
111.9060769425421
 20
127.3583739163277
 30
0.0
 10
111.9060769425421
 20
127.3583739163277
 30
0.0
 10
111.9060769425421
 20
127.3583739163277
 30
0.0
 10
111.9060769425421
 20
136.4258712152829
 30
0.0
 10
111.9060769425421
 20
136.4258712152829
 30
0.0
 10
111.9060769425421
 20
136.4258712152829
 30
0.0
 10
136.7288675630956
 20
136.4258712152829
 30
0.0
 10
136.7288675630956
 20
136.4258712152829
 30
0.0
 10
136.7288675630956
 20
136.4258712152829
 30
0.0
 10
136.7288675630956
 20
125.5448744565367
 30
0.0
 10
136.7288675630956
 20
125.5448744565367
 30
0.0
 10
136.7288675630956
 20
125.5448744565367
 30
0.0
 10
141.0359287800993
 20
125.5448744565367
 30
0.0
 10
141.0359287800993
 20
125.5448744565367
 30
0.0
 10
141.0359287800993
 20
125.5448744565367
 30
0.0
 10
141.0359287800993
 20
136.9929343062434
 30
0.0
 10
141.0359287800993
 20
136.9929343062434
 30
0.0
 10
141.0359287800993
 20
136.9929343062434
 30
0.0
 10
82.20933426891239
 20
136.9929343062434
 30
0.0
 10
82.20933426891239
 20
136.9929343062434
 30
0.0
 10
82.20933426891239
 20
136.9929343062434
 30
0.0
 10
82.20933426891239
 20
148.2137899588125
 30
0.0
 10
82.20933426891239
 20
148.2137899588125
 30
0.0
 10
82.20933426891239
 20
148.2137899588125
 30
0.0
 10
71.78154012022604
 20
152.2943359982302
 30
0.0
 10
71.78154012022604
 20
152.2943359982302
 30
0.0
 10
71.78154012022604
 20
152.2943359982302
 30
0.0
 10
71.55485268775217
 20
182.4442812819198
 30
0.0
 10
71.55485268775217
 20
182.4442812819198
 30
0.0
 10
71.55485268775217
 20
182.4442812819198
 30
0.0
 10
82.09771310155442
 20
186.2986566535274
 30
0.0
 10
82.09771310155442
 20
186.2986566535274
 30
0.0
  0
SPLINE
  5
55
330
1F
100
AcDbEntity
  8
Layer 2
 62
     1
370
    35
100
AcDbSpline
210
0.0
220
0.0
230
1.0
 70
    11
 71
     3
 72
    89
 73
    85
 74
     0
 42
0.0000000001
 43
0.0000000001
 40
0.0
 40
0.0
 40
0.0
 40
0.0
 40
1.0
 40
1.0
 40
1.0
 40
2.0
 40
2.0
 40
2.0
 40
3.0
 40
3.0
 40
3.0
 40
4.0
 40
4.0
 40
4.0
 40
5.0
 40
5.0
 40
5.0
 40
6.0
 40
6.0
 40
6.0
 40
7.0
 40
7.0
 40
7.0
 40
8.0
 40
8.0
 40
8.0
 40
9.0
 40
9.0
 40
9.0
 40
10.0
 40
10.0
 40
10.0
 40
11.0
 40
11.0
 40
11.0
 40
12.0
 40
12.0
 40
12.0
 40
13.0
 40
13.0
 40
13.0
 40
14.0
 40
14.0
 40
14.0
 40
15.0
 40
15.0
 40
15.0
 40
16.0
 40
16.0
 40
16.0
 40
17.0
 40
17.0
 40
17.0
 40
18.0
 40
18.0
 40
18.0
 40
19.0
 40
19.0
 40
19.0
 40
20.0
 40
20.0
 40
20.0
 40
21.0
 40
21.0
 40
21.0
 40
22.0
 40
22.0
 40
22.0
 40
23.0
 40
23.0
 40
23.0
 40
24.0
 40
24.0
 40
24.0
 40
25.0
 40
25.0
 40
25.0
 40
26.0
 40
26.0
 40
26.0
 40
27.0
 40
27.0
 40
27.0
 40
28.0
 40
28.0
 40
28.0
 40
28.0
 10
181.0173217905721
 20
176.4408539288958
 30
0.0
 10
181.0173217905721
 20
176.4408539288958
 30
0.0
 10
184.7030596269274
 20
176.9674371212002
 30
0.0
 10
184.7030596269274
 20
176.9674371212002
 30
0.0
 10
184.7030596269274
 20
176.9674371212002
 30
0.0
 10
182.9153984003211
 20
189.8055939162444
 30
0.0
 10
182.9153984003211
 20
189.8055939162444
 30
0.0
 10
182.9153984003211
 20
189.8055939162444
 30
0.0
 10
190.5883201268533
 20
190.7757334448865
 30
0.0
 10
190.5883201268533
 20
190.7757334448865
 30
0.0
 10
190.5883201268533
 20
190.7757334448865
 30
0.0
 10
191.2056816450801
 20
185.0430907756382
 30
0.0
 10
191.2056816450801
 20
185.0430907756382
 30
0.0
 10
191.2056816450801
 20
185.0430907756382
 30
0.0
 10
188.7362355721731
 20
184.6021182626191
 30
0.0
 10
188.7362355721731
 20
184.6021182626191
 30
0.0
 10
188.7362355721731
 20
184.6021182626191
 30
0.0
 10
189.6181805982113
 20
177.2819745465021
 30
0.0
 10
189.6181805982113
 20
177.2819745465021
 30
0.0
 10
189.6181805982113
 20
177.2819745465021
 30
0.0
 10
202.8473559887842
 20
179.0458645985785
 30
0.0
 10
202.8473559887842
 20
179.0458645985785
 30
0.0
 10
202.8473559887842
 20
179.0458645985785
 30
0.0
 10
203.3765230044071
 20
173.0486384215188
 30
0.0
 10
203.3765230044071
 20
173.0486384215188
 30
0.0
 10
203.3765230044071
 20
173.0486384215188
 30
0.0
 10
181.4160918560561
 20
170.8437758564233
 30
0.0
 10
181.4160918560561
 20
170.8437758564233
 30
0.0
 10
181.4160918560561
 20
170.8437758564233
 30
0.0
 10
181.4160918560561
 20
170.1382198355928
 30
0.0
 10
181.4160918560561
 20
170.1382198355928
 30
0.0
 10
181.4160918560561
 20
170.1382198355928
 30
0.0
 10
180.2695633222065
 20
170.1382198355928
 30
0.0
 10
180.2695633222065
 20
170.1382198355928
 30
0.0
 10
180.2695633222065
 20
170.1382198355928
 30
0.0
 10
180.2695633222065
 20
139.8875054424828
 30
0.0
 10
180.2695633222065
 20
139.8875054424828
 30
0.0
 10
180.2695633222065
 20
139.8875054424828
 30
0.0
 10
179.2112292909607
 20
139.8875054424828
 30
0.0
 10
179.2112292909607
 20
139.8875054424828
 30
0.0
 10
179.2112292909607
 20
139.8875054424828
 30
0.0
 10
179.2112292909607
 20
137.2416703643682
 30
0.0
 10
179.2112292909607
 20
137.2416703643682
 30
0.0
 10
179.2112292909607
 20
137.2416703643682
 30
0.0
 10
159.8084387181204
 20
137.2416703643682
 30
0.0
 10
159.8084387181204
 20
137.2416703643682
 30
0.0
 10
159.8084387181204
 20
137.2416703643682
 30
0.0
 10
159.8084387181204
 20
136.0951418305185
 30
0.0
 10
159.8084387181204
 20
136.0951418305185
 30
0.0
 10
159.8084387181204
 20
136.0951418305185
 30
0.0
 10
301.8015879102694
 20
136.0951418305185
 30
0.0
 10
301.8015879102694
 20
136.0951418305185
 30
0.0
 10
301.8015879102694
 20
136.0951418305185
 30
0.0
 10
301.8015879102694
 20
194.391708051643
 30
0.0
 10
301.8015879102694
 20
194.391708051643
 30
0.0
 10
301.8015879102694
 20
194.391708051643
 30
0.0
 10
303.0363109467228
 20
194.391708051643
 30
0.0
 10
303.0363109467228
 20
194.391708051643
 30
0.0
 10
303.0363109467228
 20
194.391708051643
 30
0.0
 10
303.6536724649496
 20
198.1840716636073
 30
0.0
 10
303.0363109467228
 20
198.1840716636073
 30
0.0
 10
302.4189494284961
 20
198.1840716636073
 30
0.0
 10
160.2494112311395
 20
198.1840716636073
 30
0.0
 10
160.2494112311395
 20
198.1840716636073
 30
0.0
 10
160.2494112311395
 20
198.1840716636073
 30
0.0
 10
160.2494112311395
 20
197.4785156427767
 30
0.0
 10
160.2494112311395
 20
197.4785156427767
 30
0.0
 10
160.2494112311395
 20
197.4785156427767
 30
0.0
 10
179.2112292909607
 20
197.4785156427767
 30
0.0
 10
179.2112292909607
 20
197.4785156427767
 30
0.0
 10
179.2112292909607
 20
197.4785156427767
 30
0.0
 10
179.2112292909607
 20
194.6562915594545
 30
0.0
 10
179.2112292909607
 20
194.6562915594545
 30
0.0
 10
179.2112292909607
 20
194.6562915594545
 30
0.0
 10
180.0931743169989
 20
194.6562915594545
 30
0.0
 10
180.0931743169989
 20
194.6562915594545
 30
0.0
 10
180.0931743169989
 20
194.6562915594545
 30
0.0
 10
180.0931743169989
 20
177.0173910386907
 30
0.0
 10
180.0931743169989
 20
177.0173910386907
 30
0.0
 10
180.0931743169989
 20
177.0173910386907
 30
0.0
 10
180.8869248404332
 20
177.0173910386907
 30
0.0
 10
180.8869248404332
 20
177.0173910386907
 30
0.0
 10
180.8869248404332
 20
177.0173910386907
 30
0.0
 10
181.0173217905721
 20
176.4408539288958
 30
0.0
 10
181.0173217905721
 20
176.4408539288958
 30
0.0
  0
POLYLINE
  5
56
330
1F
100
AcDbEntity
  8
Layer 2
 62
     1
370
    35
100
AcDb2dPolyline
 66
     1
 10
0.0
 20
0.0
 30
0.0
  0
VERTEX
  5
57
330
56
100
AcDbEntity
  8
Layer 2
 62
     1
370
    35
100
AcDbVertex
100
AcDb2dVertex
 10
273.1146033894982
 20
224.1311699374715
 30
0.0
  0
VERTEX
  5
58
330
56
100
AcDbEntity
  8
Layer 2
 62
     1
370
    35
100
AcDbVertex
100
AcDb2dVertex
 10
248.0332581822097
 20
224.1311699374715
 30
0.0
  0
VERTEX
  5
59
330
56
100
AcDbEntity
  8
Layer 2
 62
     1
370
    35
100
AcDbVertex
100
AcDb2dVertex
 10
248.0332581822097
 20
225.7994585267645
 30
0.0
  0
VERTEX
  5
5A
330
56
100
AcDbEntity
  8
Layer 2
 62
     1
370
    35
100
AcDbVertex
100
AcDb2dVertex
 10
273.1146033894982
 20
225.7994585267645
 30
0.0
  0
VERTEX
  5
5B
330
56
100
AcDbEntity
  8
Layer 2
 62
     1
370
    35
100
AcDbVertex
100
AcDb2dVertex
 10
273.1146033894982
 20
224.1311699374715
 30
0.0
  0
SEQEND
  5
5C
330
56
100
AcDbEntity
  8
Layer 2
370
    35
  0
POLYLINE
  5
5D
330
1F
100
AcDbEntity
  8
Layer 2
 62
     1
370
    35
100
AcDb2dPolyline
 66
     1
 10
0.0
 20
0.0
 30
0.0
  0
VERTEX
  5
5E
330
5D
100
AcDbEntity
  8
Layer 2
 62
     1
370
    35
100
AcDbVertex
100
AcDb2dVertex
 10
262.4926779821507
 20
235.4204107805362
 30
0.0
  0
VERTEX
  5
5F
330
5D
100
AcDbEntity
  8
Layer 2
 62
     1
370
    35
100
AcDbVertex
100
AcDb2dVertex
 10
258.8222708308184
 20
235.4204107805362
 30
0.0
  0
VERTEX
  5
60
330
5D
100
AcDbEntity
  8
Layer 2
 62
     1
370
    35
100
AcDbVertex
100
AcDb2dVertex
 10
258.8222708308184
 20
238.8684368715921
 30
0.0
  0
VERTEX
  5
61
330
5D
100
AcDbEntity
  8
Layer 2
 62
     1
370
    35
100
AcDbVertex
100
AcDb2dVertex
 10
262.4926779821507
 20
238.8684368715921
 30
0.0
  0
VERTEX
  5
62
330
5D
100
AcDbEntity
  8
Layer 2
 62
     1
370
    35
100
AcDbVertex
100
AcDb2dVertex
 10
262.4926779821507
 20
235.4204107805362
 30
0.0
  0
SEQEND
  5
63
330
5D
100
AcDbEntity
  8
Layer 2
370
    35
  0
POLYLINE
  5
64
330
1F
100
AcDbEntity
  8
Layer 2
 62
     1
370
    35
100
AcDb2dPolyline
 66
     1
 10
0.0
 20
0.0
 30
0.0
  0
VERTEX
  5
65
330
64
100
AcDbEntity
  8
Layer 2
 62
     1
370
    35
100
AcDbVertex
100
AcDb2dVertex
 10
101.7764560048074
 20
236.1077077832495
 30
0.0
  0
VERTEX
  5
66
330
64
100
AcDbEntity
  8
Layer 2
 62
     1
370
    35
100
AcDbVertex
100
AcDb2dVertex
 10
99.13062092669281
 20
236.1077077832495
 30
0.0
  0
VERTEX
  5
67
330
64
100
AcDbEntity
  8
Layer 2
 62
     1
370
    35
100
AcDbVertex
100
AcDb2dVertex
 10
99.13062092669281
 20
238.5771538561565
 30
0.0
  0
VERTEX
  5
68
330
64
100
AcDbEntity
  8
Layer 2
 62
     1
370
    35
100
AcDbVertex
100
AcDb2dVertex
 10
101.7764560048074
 20
238.5771538561565
 30
0.0
  0
VERTEX
  5
69
330
64
100
AcDbEntity
  8
Layer 2
 62
     1
370
    35
100
AcDbVertex
100
AcDb2dVertex
 10
101.7764560048074
 20
236.1077077832495
 30
0.0
  0
SEQEND
  5
6A
330
64
100
AcDbEntity
  8
Layer 2
370
    35
  0
POLYLINE
  5
6B
330
1F
100
AcDbEntity
  8
Layer 2
 62
     1
370
    35
100
AcDb2dPolyline
 66
     1
 10
0.0
 20
0.0
 30
0.0
  0
VERTEX
  5
6C
330
6B
100
AcDbEntity
  8
Layer 2
 62
     1
370
    35
100
AcDbVertex
100
AcDb2dVertex
 10
102.3056230204303
 20
95.87844864317698
 30
0.0
  0
VERTEX
  5
6D
330
6B
100
AcDbEntity
  8
Layer 2
 62
     1
370
    35
100
AcDbVertex
100
AcDb2dVertex
 10
98.6014539110699
 20
95.87844864317698
 30
0.0
  0
VERTEX
  5
6E
330
6B
100
AcDbEntity
  8
Layer 2
 62
     1
370
    35
100
AcDbVertex
100
AcDb2dVertex
 10
98.6014539110699
 20
99.05345073691447
 30
0.0
  0
VERTEX
  5
6F
330
6B
100
AcDbEntity
  8
Layer 2
 62
     1
370
    35
100
AcDbVertex
100
AcDb2dVertex
 10
102.3056230204303
 20
99.05345073691447
 30
0.0
  0
VERTEX
  5
70
330
6B
100
AcDbEntity
  8
Layer 2
 62
     1
370
    35
100
AcDbVertex
100
AcDb2dVertex
 10
102.3056230204303
 20
95.87844864317698
 30
0.0
  0
SEQEND
  5
71
330
6B
100
AcDbEntity
  8
Layer 2
370
    35
  0
POLYLINE
  5
73
330
1F
100
AcDbEntity
  8
Layer 3
 62
     4
370
   106
100
AcDb2dPolyline
 66
     1
 10
0.0
 20
0.0
 30
0.0
  0
VERTEX
  5
74
330
73
100
AcDbEntity
  8
Layer 3
 62
     4
370
   106
100
AcDbVertex
100
AcDb2dVertex
 10
132.5758022158728
 20
159.8297983242198
 30
0.0
  0
VERTEX
  5
75
330
73
100
AcDbEntity
  8
Layer 3
 62
     4
370
   106
100
AcDbVertex
100
AcDb2dVertex
 10
155.6300519023766
 20
159.8297983242198
 30
0.0
  0
SEQEND
  5
76
330
73
100
AcDbEntity
  8
Layer 3
370
   106
  0
POLYLINE
  5
77
330
1F
100
AcDbEntity
  8
Layer 3
 62
     4
370
   106
100
AcDb2dPolyline
 66
     1
 10
0.0
 20
0.0
 30
0.0
  0
VERTEX
  5
78
330
77
100
AcDbEntity
  8
Layer 3
 62
     4
370
   106
100
AcDbVertex
100
AcDb2dVertex
 10
132.9091154239556
 20
173.9075012925786
 30
0.0
  0
VERTEX
  5
79
330
77
100
AcDbEntity
  8
Layer 3
 62
     4
370
   106
100
AcDbVertex
100
AcDb2dVertex
 10
155.9631928555715
 20
173.9075012925786
 30
0.0
  0
SEQEND
  5
7A
330
77
100
AcDbEntity
  8
Layer 3
370
   106
  0
POLYLINE
  5
7B
330
1F
100
AcDbEntity
  8
Layer 3
 62
     4
370
   106
100
AcDb2dPolyline
 66
     1
 10
0.0
 20
0.0
 30
0.0
  0
VERTEX
  5
7C
330
7B
100
AcDbEntity
  8
Layer 3
 62
     4
370
   106
100
AcDbVertex
100
AcDb2dVertex
 10
148.3779488669794
 20
233.6019159289961
 30
0.0
  0
VERTEX
  5
7D
330
7B
100
AcDbEntity
  8
Layer 3
 62
     4
370
   106
100
AcDbVertex
100
AcDb2dVertex
 10
148.3779488669794
 20
104.3154930524252
 30
0.0
  0
SEQEND
  5
7E
330
7B
100
AcDbEntity
  8
Layer 3
370
   106
  0
POLYLINE
  5
7F
330
1F
100
AcDbEntity
  8
Layer 3
 62
     4
370
   106
100
AcDb2dPolyline
 66
     1
 10
0.0
 20
0.0
 30
0.0
  0
VERTEX
  5
80
330
7F
100
AcDbEntity
  8
Layer 3
 62
     4
370
   106
100
AcDbVertex
100
AcDb2dVertex
 10
106.5759939463117
 20
214.0235976253877
 30
0.0
  0
VERTEX
  5
81
330
7F
100
AcDbEntity
  8
Layer 3
 62
     4
370
   106
100
AcDbVertex
100
AcDb2dVertex
 10
150.494616929471
 20
214.0235976253877
 30
0.0
  0
SEQEND
  5
82
330
7F
100
AcDbEntity
  8
Layer 3
370
   106
  0
POLYLINE
  5
83
330
1F
100
AcDbEntity
  8
Layer 3
 62
     4
370
   106
100
AcDb2dPolyline
 66
     1
 10
0.0
 20
0.0
 30
0.0
  0
VERTEX
  5
84
330
83
100
AcDbEntity
  8
Layer 3
 62
     4
370
   106
100
AcDbVertex
100
AcDb2dVertex
 10
131.9746326571085
 20
216.1402656878794
 30
0.0
  0
VERTEX
  5
85
330
83
100
AcDbEntity
  8
Layer 3
 62
     4
370
   106
100
AcDbVertex
100
AcDb2dVertex
 10
131.9746326571085
 20
201.3242782699893
 30
0.0
  0
SEQEND
  5
86
330
83
100
AcDbEntity
  8
Layer 3
370
   106
  0
POLYLINE
  5
87
330
1F
100
AcDbEntity
  8
Layer 3
 62
     4
370
   106
100
AcDb2dPolyline
 66
     1
 10
0.0
 20
0.0
 30
0.0
  0
VERTEX
  5
88
330
87
100
AcDbEntity
  8
Layer 3
 62
     4
370
   106
100
AcDbVertex
100
AcDb2dVertex
 10
104.988492899443
 20
120.8950260126158
 30
0.0
  0
VERTEX
  5
89
330
87
100
AcDbEntity
  8
Layer 3
 62
     4
370
   106
100
AcDbVertex
100
AcDb2dVertex
 10
149.9654499138481
 20
120.8950260126158
 30
0.0
  0
SEQEND
  5
8A
330
87
100
AcDbEntity
  8
Layer 3
370
   106
  0
POLYLINE
  5
8B
330
1F
100
AcDbEntity
  8
Layer 3
 62
     4
370
   106
100
AcDb2dPolyline
 66
     1
 10
0.0
 20
0.0
 30
0.0
  0
VERTEX
  5
8C
330
8B
100
AcDbEntity
  8
Layer 3
 62
     4
370
   106
100
AcDbVertex
100
AcDb2dVertex
 10
131.4456378963735
 20
133.0651783523912
 30
0.0
  0
VERTEX
  5
8D
330
8B
100
AcDbEntity
  8
Layer 3
 62
     4
370
   106
100
AcDbVertex
100
AcDb2dVertex
 10
131.4456378963735
 20
119.8366919813699
 30
0.0
  0
SEQEND
  5
8E
330
8B
100
AcDbEntity
  8
Layer 3
370
   106
  0
POLYLINE
  5
8F
330
1F
100
AcDbEntity
  8
Layer 3
 62
     4
370
   106
100
AcDb2dPolyline
 66
     1
 10
0.0
 20
0.0
 30
0.0
  0
VERTEX
  5
90
330
8F
100
AcDbEntity
  8
Layer 3
 62
     4
370
   106
100
AcDbVertex
100
AcDb2dVertex
 10
308.1784638602565
 20
217.5512054746526
 30
0.0
  0
VERTEX
  5
91
330
8F
100
AcDbEntity
  8
Layer 3
 62
     4
370
   106
100
AcDbVertex
100
AcDb2dVertex
 10
308.1784638602565
 20
94.26131975558975
 30
0.0
  0
SEQEND
  5
92
330
8F
100
AcDbEntity
  8
Layer 3
370
   106
  0
POLYLINE
  5
93
330
1F
100
AcDbEntity
  8
Layer 3
 62
     4
370
   106
100
AcDb2dPolyline
 66
     1
 10
0.0
 20
0.0
 30
0.0
  0
VERTEX
  5
94
330
93
100
AcDbEntity
  8
Layer 3
 62
     4
370
   106
100
AcDbVertex
100
AcDb2dVertex
 10
145.7322860437527
 20
209.7906060101802
 30
0.0
  0
VERTEX
  5
95
330
93
100
AcDbEntity
  8
Layer 3
 62
     4
370
   106
100
AcDbVertex
100
AcDb2dVertex
 10
310.824298938371
 20
209.7906060101802
 30
0.0
  0
SEQEND
  5
96
330
93
100
AcDbEntity
  8
Layer 3
370
   106
  0
POLYLINE
  5
97
330
1F
100
AcDbEntity
  8
Layer 3
 62
     4
370
   106
100
AcDb2dPolyline
 66
     1
 10
0.0
 20
0.0
 30
0.0
  0
VERTEX
  5
98
330
97
100
AcDbEntity
  8
Layer 3
 62
     4
370
   106
100
AcDbVertex
100
AcDb2dVertex
 10
144.1449572517718
 20
126.715518674692
 30
0.0
  0
VERTEX
  5
99
330
97
100
AcDbEntity
  8
Layer 3
 62
     4
370
   106
100
AcDbVertex
100
AcDb2dVertex
 10
309.7659649071252
 20
126.715518674692
 30
0.0
  0
SEQEND
  5
9A
330
97
100
AcDbEntity
  8
Layer 3
370
   106
  0
POLYLINE
  5
9B
330
1F
100
AcDbEntity
  8
Layer 3
 62
     4
370
   106
100
AcDb2dPolyline
 66
     1
 10
0.0
 20
0.0
 30
0.0
  0
VERTEX
  5
9C
330
9B
100
AcDbEntity
  8
Layer 3
 62
     4
370
   106
100
AcDbVertex
100
AcDb2dVertex
 10
111.3376358124785
 20
226.1939222200511
 30
0.0
  0
VERTEX
  5
9D
330
9B
100
AcDbEntity
  8
Layer 3
 62
     4
370
   106
100
AcDbVertex
100
AcDb2dVertex
 10
150.494616929471
 20
226.1939222200511
 30
0.0
  0
SEQEND
  5
9E
330
9B
100
AcDbEntity
  8
Layer 3
370
   106
  0
POLYLINE
  5
9F
330
1F
100
AcDbEntity
  8
Layer 3
 62
     4
370
   106
100
AcDb2dPolyline
 66
     1
 10
0.0
 20
0.0
 30
0.0
  0
VERTEX
  5
A0
330
9F
100
AcDbEntity
  8
Layer 3
 62
     4
370
   106
100
AcDbVertex
100
AcDb2dVertex
 10
161.0774404772656
 20
261.1182562316119
 30
0.0
  0
VERTEX
  5
A1
330
9F
100
AcDbEntity
  8
Layer 3
 62
     4
370
   106
100
AcDbVertex
100
AcDb2dVertex
 10
161.0774404772656
 20
207.6739379476885
 30
0.0
  0
SEQEND
  5
A2
330
9F
100
AcDbEntity
  8
Layer 3
370
   106
  0
POLYLINE
  5
A3
330
1F
100
AcDbEntity
  8
Layer 3
 62
     4
370
   106
100
AcDb2dPolyline
 66
     1
 10
0.0
 20
0.0
 30
0.0
  0
VERTEX
  5
A4
330
A3
100
AcDbEntity
  8
Layer 3
 62
     4
370
   106
100
AcDbVertex
100
AcDb2dVertex
 10
199.7047378139716
 20
253.0048787567242
 30
0.0
  0
VERTEX
  5
A5
330
A3
100
AcDbEntity
  8
Layer 3
 62
     4
370
   106
100
AcDbVertex
100
AcDb2dVertex
 10
199.7047378139716
 20
207.6739379476885
 30
0.0
  0
SEQEND
  5
A6
330
A3
100
AcDbEntity
  8
Layer 3
370
   106
  0
POLYLINE
  5
A7
330
1F
100
AcDbEntity
  8
Layer 3
 62
     4
370
   106
100
AcDb2dPolyline
 66
     1
 10
0.0
 20
0.0
 30
0.0
  0
VERTEX
  5
A8
330
A7
100
AcDbEntity
  8
Layer 3
 62
     4
370
   106
100
AcDbVertex
100
AcDb2dVertex
 10
240.4485309582813
 20
242.4215384442659
 30
0.0
  0
VERTEX
  5
A9
330
A7
100
AcDbEntity
  8
Layer 3
 62
     4
370
   106
100
AcDbVertex
100
AcDb2dVertex
 10
240.4485309582813
 20
207.6739379476885
 30
0.0
  0
SEQEND
  5
AA
330
A7
100
AcDbEntity
  8
Layer 3
370
   106
  0
POLYLINE
  5
AB
330
1F
100
AcDbEntity
  8
Layer 3
 62
     4
370
   106
100
AcDb2dPolyline
 66
     1
 10
0.0
 20
0.0
 30
0.0
  0
VERTEX
  5
AC
330
AB
100
AcDbEntity
  8
Layer 3
 62
     4
370
   106
100
AcDbVertex
100
AcDb2dVertex
 10
280.6631570869681
 20
267.1159991733353
 30
0.0
  0
VERTEX
  5
AD
330
AB
100
AcDbEntity
  8
Layer 3
 62
     4
370
   106
100
AcDbVertex
100
AcDb2dVertex
 10
280.6631570869681
 20
207.6739379476885
 30
0.0
  0
SEQEND
  5
AE
330
AB
100
AcDbEntity
  8
Layer 3
370
   106
  0
POLYLINE
  5
AF
330
1F
100
AcDbEntity
  8
Layer 3
 62
     4
370
   106
100
AcDb2dPolyline
 66
     1
 10
0.0
 20
0.0
 30
0.0
  0
VERTEX
  5
B0
330
AF
100
AcDbEntity
  8
Layer 3
 62
     4
370
   106
100
AcDbVertex
100
AcDb2dVertex
 10
303.945472245049
 20
263.7628855255112
 30
0.0
  0
VERTEX
  5
B1
330
AF
100
AcDbEntity
  8
Layer 3
 62
     4
370
   106
100
AcDbVertex
100
AcDb2dVertex
 10
303.945472245049
 20
207.6739379476885
 30
0.0
  0
SEQEND
  5
B2
330
AF
100
AcDbEntity
  8
Layer 3
370
   106
  0
POLYLINE
  5
B3
330
1F
100
AcDbEntity
  8
Layer 3
 62
     4
370
   106
100
AcDb2dPolyline
 66
     1
 10
0.0
 20
0.0
 30
0.0
  0
VERTEX
  5
B4
330
B3
100
AcDbEntity
  8
Layer 3
 62
     4
370
   106
100
AcDbVertex
100
AcDb2dVertex
 10
323.7003518087529
 20
246.3012352843945
 30
0.0
  0
VERTEX
  5
B5
330
B3
100
AcDbEntity
  8
Layer 3
 62
     4
370
   106
100
AcDbVertex
100
AcDb2dVertex
 10
301.8288041825573
 20
246.3012352843945
 30
0.0
  0
SEQEND
  5
B6
330
B3
100
AcDbEntity
  8
Layer 3
370
   106
  0
POLYLINE
  5
B7
330
1F
100
AcDbEntity
  8
Layer 3
 62
     4
370
   106
100
AcDb2dPolyline
 66
     1
 10
0.0
 20
0.0
 30
0.0
  0
VERTEX
  5
B8
330
B7
100
AcDbEntity
  8
Layer 3
 62
     4
370
   106
100
AcDbVertex
100
AcDb2dVertex
 10
323.7003518087529
 20
237.8350797990915
 30
0.0
  0
VERTEX
  5
B9
330
B7
100
AcDbEntity
  8
Layer 3
 62
     4
370
   106
100
AcDbVertex
100
AcDb2dVertex
 10
301.8288041825573
 20
237.8350797990915
 30
0.0
  0
SEQEND
  5
BA
330
B7
100
AcDbEntity
  8
Layer 3
370
   106
  0
POLYLINE
  5
BB
330
1F
100
AcDbEntity
  8
Layer 3
 62
     4
370
   106
100
AcDb2dPolyline
 66
     1
 10
0.0
 20
0.0
 30
0.0
  0
VERTEX
  5
BC
330
BB
100
AcDbEntity
  8
Layer 3
 62
     4
370
   106
100
AcDbVertex
100
AcDb2dVertex
 10
302.7104046988197
 20
96.02520980766614
 30
0.0
  0
VERTEX
  5
BD
330
BB
100
AcDbEntity
  8
Layer 3
 62
     4
370
   106
100
AcDbVertex
100
AcDb2dVertex
 10
321.9016662693211
 20
96.02520980766614
 30
0.0
  0
SEQEND
  5
BE
330
BB
100
AcDbEntity
  8
Layer 3
370
   106
  0
POLYLINE
  5
BF
330
1F
100
AcDbEntity
  8
Layer 3
 62
     4
370
   106
100
AcDb2dPolyline
 66
     1
 10
0.0
 20
0.0
 30
0.0
  0
VERTEX
  5
C0
330
BF
100
AcDbEntity
  8
Layer 3
 62
     4
370
   106
100
AcDbVertex
100
AcDb2dVertex
 10
306.2381848029725
 20
115.426966851179
 30
0.0
  0
VERTEX
  5
C1
330
BF
100
AcDbEntity
  8
Layer 3
 62
     4
370
   106
100
AcDbVertex
100
AcDb2dVertex
 10
321.1961102484905
 20
115.426966851179
 30
0.0
  0
SEQEND
  5
C2
330
BF
100
AcDbEntity
  8
Layer 3
370
   106
  0
POLYLINE
  5
C3
330
1F
100
AcDbEntity
  8
Layer 3
 62
     4
370
   106
100
AcDb2dPolyline
 66
     1
 10
0.0
 20
0.0
 30
0.0
  0
VERTEX
  5
C4
330
C3
100
AcDbEntity
  8
Layer 3
 62
     4
370
   106
100
AcDbVertex
100
AcDb2dVertex
 10
306.2381848029725
 20
136.4165694513364
 30
0.0
  0
VERTEX
  5
C5
330
C3
100
AcDbEntity
  8
Layer 3
 62
     4
370
   106
100
AcDbVertex
100
AcDb2dVertex
 10
321.1961102484905
 20
136.4165694513364
 30
0.0
  0
SEQEND
  5
C6
330
C3
100
AcDbEntity
  8
Layer 3
370
   106
  0
POLYLINE
  5
C7
330
1F
100
AcDbEntity
  8
Layer 3
 62
     4
370
   106
100
AcDb2dPolyline
 66
     1
 10
0.0
 20
0.0
 30
0.0
  0
VERTEX
  5
C8
330
C7
100
AcDbEntity
  8
Layer 3
 62
     4
370
   106
100
AcDbVertex
100
AcDb2dVertex
 10
306.2381848029725
 20
157.5820442920377
 30
0.0
  0
VERTEX
  5
C9
330
C7
100
AcDbEntity
  8
Layer 3
 62
     4
370
   106
100
AcDbVertex
100
AcDb2dVertex
 10
324.7238903526433
 20
157.5820442920377
 30
0.0
  0
SEQEND
  5
CA
330
C7
100
AcDbEntity
  8
Layer 3
370
   106
  0
POLYLINE
  5
CB
330
1F
100
AcDbEntity
  8
Layer 3
 62
     4
370
   106
100
AcDb2dPolyline
 66
     1
 10
0.0
 20
0.0
 30
0.0
  0
VERTEX
  5
CC
330
CB
100
AcDbEntity
  8
Layer 3
 62
     4
370
   106
100
AcDbVertex
100
AcDb2dVertex
 10
306.2381848029725
 20
177.1601903407582
 30
0.0
  0
VERTEX
  5
CD
330
CB
100
AcDbEntity
  8
Layer 3
 62
     4
370
   106
100
AcDbVertex
100
AcDb2dVertex
 10
321.1961102484905
 20
177.1601903407582
 30
0.0
  0
SEQEND
  5
CE
330
CB
100
AcDbEntity
  8
Layer 3
370
   106
  0
POLYLINE
  5
CF
330
1F
100
AcDbEntity
  8
Layer 3
 62
     4
370
   106
100
AcDb2dPolyline
 66
     1
 10
0.0
 20
0.0
 30
0.0
  0
VERTEX
  5
D0
330
CF
100
AcDbEntity
  8
Layer 3
 62
     4
370
   106
100
AcDbVertex
100
AcDb2dVertex
 10
280.6631570869681
 20
128.8321867371837
 30
0.0
  0
VERTEX
  5
D1
330
CF
100
AcDbEntity
  8
Layer 3
 62
     4
370
   106
100
AcDbVertex
100
AcDb2dVertex
 10
280.6631570869681
 20
80.32624383441052
 30
0.0
  0
SEQEND
  5
D2
330
CF
100
AcDbEntity
  8
Layer 3
370
   106
  0
POLYLINE
  5
D3
330
1F
100
AcDbEntity
  8
Layer 3
 62
     4
370
   106
100
AcDb2dPolyline
 66
     1
 10
0.0
 20
0.0
 30
0.0
  0
VERTEX
  5
D4
330
D3
100
AcDbEntity
  8
Layer 3
 62
     4
370
   106
100
AcDbVertex
100
AcDb2dVertex
 10
240.9776979739042
 20
126.7158631844678
 30
0.0
  0
VERTEX
  5
D5
330
D3
100
AcDbEntity
  8
Layer 3
 62
     4
370
   106
100
AcDbVertex
100
AcDb2dVertex
 10
240.9776979739042
 20
81.73770038584743
 30
0.0
  0
SEQEND
  5
D6
330
D3
100
AcDbEntity
  8
Layer 3
370
   106
  0
POLYLINE
  5
D7
330
1F
100
AcDbEntity
  8
Layer 3
 62
     4
370
   106
100
AcDb2dPolyline
 66
     1
 10
0.0
 20
0.0
 30
0.0
  0
VERTEX
  5
D8
330
D7
100
AcDbEntity
  8
Layer 3
 62
     4
370
   106
100
AcDbVertex
100
AcDb2dVertex
 10
201.2920666059524
 20
126.7158631844678
 30
0.0
  0
VERTEX
  5
D9
330
D7
100
AcDbEntity
  8
Layer 3
 62
     4
370
   106
100
AcDbVertex
100
AcDb2dVertex
 10
201.2920666059524
 20
81.73770038584743
 30
0.0
  0
SEQEND
  5
DA
330
D7
100
AcDbEntity
  8
Layer 3
370
   106
  0
POLYLINE
  5
DB
330
1F
100
AcDbEntity
  8
Layer 3
 62
     4
370
   106
100
AcDb2dPolyline
 66
     1
 10
0.0
 20
0.0
 30
0.0
  0
VERTEX
  5
DC
330
DB
100
AcDbEntity
  8
Layer 3
 62
     4
370
   106
100
AcDbVertex
100
AcDb2dVertex
 10
160.0191064460198
 20
126.7158631844678
 30
0.0
  0
VERTEX
  5
DD
330
DB
100
AcDbEntity
  8
Layer 3
 62
     4
370
   106
100
AcDbVertex
100
AcDb2dVertex
 10
160.0191064460198
 20
72.38942761961839
 30
0.0
  0
SEQEND
  5
DE
330
DB
100
AcDbEntity
  8
Layer 3
370
   106
  0
POLYLINE
  5
DF
330
1F
100
AcDbEntity
  8
Layer 3
 62
     4
370
   106
100
AcDb2dPolyline
 66
     1
 10
0.0
 20
0.0
 30
0.0
  0
VERTEX
  5
E0
330
DF
100
AcDbEntity
  8
Layer 3
 62
     4
370
   106
100
AcDbVertex
100
AcDb2dVertex
 10
124.3900776880679
 20
109.2536961786874
 30
0.0
  0
VERTEX
  5
E1
330
DF
100
AcDbEntity
  8
Layer 3
 62
     4
370
   106
100
AcDbVertex
100
AcDb2dVertex
 10
149.9654499138481
 20
109.2536961786874
 30
0.0
  0
SEQEND
  5
E2
330
DF
100
AcDbEntity
  8
Layer 3
370
   106
  0
POLYLINE
  5
E3
330
1F
100
AcDbEntity
  8
Layer 3
 62
     4
370
   106
100
AcDb2dPolyline
 66
     1
 10
0.0
 20
0.0
 30
0.0
  0
VERTEX
  5
E4
330
E3
100
AcDbEntity
  8
Layer 3
 62
     4
370
   106
100
AcDbVertex
100
AcDb2dVertex
 10
122.8032656607508
 20
141.5315060925821
 30
0.0
  0
VERTEX
  5
E5
330
E3
100
AcDbEntity
  8
Layer 3
 62
     4
370
   106
100
AcDbVertex
100
AcDb2dVertex
 10
151.0237839450939
 20
141.5315060925821
 30
0.0
  0
SEQEND
  5
E6
330
E3
100
AcDbEntity
  8
Layer 3
370
   106
  0
POLYLINE
  5
E7
330
1F
100
AcDbEntity
  8
Layer 3
 62
     4
370
   106
100
AcDb2dPolyline
 66
     1
 10
0.0
 20
0.0
 30
0.0
  0
VERTEX
  5
E8
330
E7
100
AcDbEntity
  8
Layer 3
 62
     4
370
   106
100
AcDbVertex
100
AcDb2dVertex
 10
122.8032656607508
 20
192.8579505297985
 30
0.0
  0
VERTEX
  5
E9
330
E7
100
AcDbEntity
  8
Layer 3
 62
     4
370
   106
100
AcDbVertex
100
AcDb2dVertex
 10
151.0237839450939
 20
192.8579505297985
 30
0.0
  0
SEQEND
  5
EA
330
E7
100
AcDbEntity
  8
Layer 3
370
   106
  0
POLYLINE
  5
EB
330
1F
100
AcDbEntity
  8
Layer 3
 62
     4
370
   106
100
AcDb2dPolyline
 66
     1
 10
0.0
 20
0.0
 30
0.0
  0
VERTEX
  5
EC
330
EB
100
AcDbEntity
  8
Layer 3
 62
     4
370
   106
100
AcDbVertex
100
AcDb2dVertex
 10
181.7139205572319
 20
175.3964725435697
 30
0.0
  0
VERTEX
  5
ED
330
EB
100
AcDbEntity
  8
Layer 3
 62
     4
370
   106
100
AcDbVertex
100
AcDb2dVertex
 10
144.6741242673947
 20
175.3964725435697
 30
0.0
  0
SEQEND
  5
EE
330
EB
100
AcDbEntity
  8
Layer 3
370
   106
  0
POLYLINE
  5
EF
330
1F
100
AcDbEntity
  8
Layer 3
 62
     4
370
   106
100
AcDb2dPolyline
 66
     1
 10
0.0
 20
0.0
 30
0.0
  0
VERTEX
  5
F0
330
EF
100
AcDbEntity
  8
Layer 3
 62
     4
370
   106
100
AcDbVertex
100
AcDb2dVertex
 10
125.5889717078386
 20
219.5271412937315
 30
0.0
  0
VERTEX
  5
F1
330
EF
100
AcDbEntity
  8
Layer 3
 62
     4
370
   106
100
AcDbVertex
100
AcDb2dVertex
 10
62.08892983308873
 20
276.6771789810064
 30
0.0
  0
SEQEND
  5
F2
330
EF
100
AcDbEntity
  8
Layer 3
370
   106
  0
POLYLINE
  5
F3
330
1F
100
AcDbEntity
  8
Layer 3
 62
     4
370
   106
100
AcDb2dPolyline
 66
     1
 10
0.0
 20
0.0
 30
0.0
  0
VERTEX
  5
F4
330
F3
100
AcDbEntity
  8
Layer 3
 62
     4
370
   106
100
AcDbVertex
100
AcDb2dVertex
 10
141.463982176526
 20
238.9299318665718
 30
0.0
  0
VERTEX
  5
F5
330
F3
100
AcDbEntity
  8
Layer 3
 62
     4
370
   106
100
AcDbVertex
100
AcDb2dVertex
 10
179.9167853117912
 20
276.3244009705911
 30
0.0
  0
SEQEND
  5
F6
330
F3
100
AcDbEntity
  8
Layer 3
370
   106
  0
POLYLINE
  5
F7
330
1F
100
AcDbEntity
  8
Layer 3
 62
     4
370
   106
100
AcDb2dPolyline
 66
     1
 10
0.0
 20
0.0
 30
0.0
  0
VERTEX
  5
F8
330
F7
100
AcDbEntity
  8
Layer 3
 62
     4
370
   106
100
AcDbVertex
100
AcDb2dVertex
 10
181.3278973534523
 20
226.2299234916218
 30
0.0
  0
VERTEX
  5
F9
330
F7
100
AcDbEntity
  8
Layer 3
 62
     4
370
   106
100
AcDbVertex
100
AcDb2dVertex
 10
219.7807004887175
 20
275.9716229601758
 30
0.0
  0
SEQEND
  5
FA
330
F7
100
AcDbEntity
  8
Layer 3
370
   106
  0
POLYLINE
  5
FB
330
1F
100
AcDbEntity
  8
Layer 3
 62
     4
370
   106
100
AcDb2dPolyline
 66
     1
 10
0.0
 20
0.0
 30
0.0
  0
VERTEX
  5
FC
330
FB
100
AcDbEntity
  8
Layer 3
 62
     4
370
   106
100
AcDbVertex
100
AcDb2dVertex
 10
221.1918125303786
 20
225.8771454812065
 30
0.0
  0
VERTEX
  5
FD
330
FB
100
AcDbEntity
  8
Layer 3
 62
     4
370
   106
100
AcDbVertex
100
AcDb2dVertex
 10
299.8613088529854
 20
275.6188449497606
 30
0.0
  0
SEQEND
  5
FE
330
FB
100
AcDbEntity
  8
Layer 3
370
   106
  0
POLYLINE
  5
FF
330
1F
100
AcDbEntity
  8
Layer 3
 62
     4
370
   106
100
AcDb2dPolyline
 66
     1
 10
0.0
 20
0.0
 30
0.0
  0
VERTEX
  5
100
330
FF
100
AcDbEntity
  8
Layer 3
 62
     4
370
   106
100
AcDbVertex
100
AcDb2dVertex
 10
301.2724208946465
 20
251.982718251937
 30
0.0
  0
VERTEX
  5
101
330
FF
100
AcDbEntity
  8
Layer 3
 62
     4
370
   106
100
AcDbVertex
100
AcDb2dVertex
 10
320.3224334570714
 20
275.6188449497606
 30
0.0
  0
SEQEND
  5
102
330
FF
100
AcDbEntity
  8
Layer 3
370
   106
  0
POLYLINE
  5
103
330
1F
100
AcDbEntity
  8
Layer 3
 62
     4
370
   106
100
AcDb2dPolyline
 66
     1
 10
0.0
 20
0.0
 30
0.0
  0
VERTEX
  5
104
330
103
100
AcDbEntity
  8
Layer 3
 62
     4
370
   106
100
AcDbVertex
100
AcDb2dVertex
 10
338.6668899986659
 20
275.9716229601758
 30
0.0
  0
VERTEX
  5
105
330
103
100
AcDbEntity
  8
Layer 3
 62
     4
370
   106
100
AcDbVertex
100
AcDb2dVertex
 10
318.2057653945798
 20
244.2216020228009
 30
0.0
  0
SEQEND
  5
106
330
103
100
AcDbEntity
  8
Layer 3
370
   106
  0
POLYLINE
  5
107
330
1F
100
AcDbEntity
  8
Layer 3
 62
     4
370
   106
100
AcDb2dPolyline
 66
     1
 10
0.0
 20
0.0
 30
0.0
  0
VERTEX
  5
108
330
107
100
AcDbEntity
  8
Layer 3
 62
     4
370
   106
100
AcDbVertex
100
AcDb2dVertex
 10
313.2668732487659
 20
242.4577119707245
 30
0.0
  0
VERTEX
  5
109
330
107
100
AcDbEntity
  8
Layer 3
 62
     4
370
   106
100
AcDbVertex
100
AcDb2dVertex
 10
339.7252240299117
 20
225.171589460376
 30
0.0
  0
SEQEND
  5
10A
330
107
100
AcDbEntity
  8
Layer 3
370
   106
  0
POLYLINE
  5
10B
330
1F
100
AcDbEntity
  8
Layer 3
 62
     4
370
   106
100
AcDb2dPolyline
 66
     1
 10
0.0
 20
0.0
 30
0.0
  0
VERTEX
  5
10C
330
10B
100
AcDbEntity
  8
Layer 3
 62
     4
370
   106
100
AcDbVertex
100
AcDb2dVertex
 10
312.9140952383506
 20
173.3132219293303
 30
0.0
  0
VERTEX
  5
10D
330
10B
100
AcDbEntity
  8
Layer 3
 62
     4
370
   106
100
AcDbVertex
100
AcDb2dVertex
 10
339.7252240299117
 20
191.6576784709247
 30
0.0
  0
SEQEND
  5
10E
330
10B
100
AcDbEntity
  8
Layer 3
370
   106
  0
POLYLINE
  5
10F
330
1F
100
AcDbEntity
  8
Layer 3
 62
     4
370
   106
100
AcDb2dPolyline
 66
     1
 10
0.0
 20
0.0
 30
0.0
  0
VERTEX
  5
110
330
10F
100
AcDbEntity
  8
Layer 3
 62
     4
370
   106
100
AcDbVertex
100
AcDb2dVertex
 10
313.2668732487659
 20
153.2048753356595
 30
0.0
  0
VERTEX
  5
111
330
10F
100
AcDbEntity
  8
Layer 3
 62
     4
370
   106
100
AcDbVertex
100
AcDb2dVertex
 10
340.0780020403269
 20
171.5493318772539
 30
0.0
  0
SEQEND
  5
112
330
10F
100
AcDbEntity
  8
Layer 3
370
   106
  0
POLYLINE
  5
113
330
1F
100
AcDbEntity
  8
Layer 3
 62
     4
370
   106
100
AcDb2dPolyline
 66
     1
 10
0.0
 20
0.0
 30
0.0
  0
VERTEX
  5
114
330
113
100
AcDbEntity
  8
Layer 3
 62
     4
370
   106
100
AcDbVertex
100
AcDb2dVertex
 10
313.2668732487659
 20
132.0381947107429
 30
0.0
  0
VERTEX
  5
115
330
113
100
AcDbEntity
  8
Layer 3
 62
     4
370
   106
100
AcDbVertex
100
AcDb2dVertex
 10
339.7252240299117
 20
151.7937632939984
 30
0.0
  0
SEQEND
  5
116
330
113
100
AcDbEntity
  8
Layer 3
370
   106
  0
POLYLINE
  5
117
330
1F
100
AcDbEntity
  8
Layer 3
 62
     4
370
   106
100
AcDb2dPolyline
 66
     1
 10
0.0
 20
0.0
 30
0.0
  0
VERTEX
  5
118
330
117
100
AcDbEntity
  8
Layer 3
 62
     4
370
   106
100
AcDbVertex
100
AcDb2dVertex
 10
312.9140952383506
 20
111.9298481170721
 30
0.0
  0
VERTEX
  5
119
330
117
100
AcDbEntity
  8
Layer 3
 62
     4
370
   106
100
AcDbVertex
100
AcDb2dVertex
 10
339.7252240299117
 20
130.2743046586665
 30
0.0
  0
SEQEND
  5
11A
330
117
100
AcDbEntity
  8
Layer 3
370
   106
  0
POLYLINE
  5
11B
330
1F
100
AcDbEntity
  8
Layer 3
 62
     4
370
   106
100
AcDb2dPolyline
 66
     1
 10
0.0
 20
0.0
 30
0.0
  0
VERTEX
  5
11C
330
11B
100
AcDbEntity
  8
Layer 3
 62
     4
370
   106
100
AcDbVertex
100
AcDb2dVertex
 10
313.6196512591812
 20
92.87983555464712
 30
0.0
  0
VERTEX
  5
11D
330
11B
100
AcDbEntity
  8
Layer 3
 62
     4
370
   106
100
AcDbVertex
100
AcDb2dVertex
 10
339.7252240299117
 20
109.8131800545804
 30
0.0
  0
SEQEND
  5
11E
330
11B
100
AcDbEntity
  8
Layer 3
370
   106
  0
POLYLINE
  5
11F
330
1F
100
AcDbEntity
  8
Layer 3
 62
     4
370
   106
100
AcDb2dPolyline
 66
     1
 10
0.0
 20
0.0
 30
0.0
  0
VERTEX
  5
120
330
11F
100
AcDbEntity
  8
Layer 3
 62
     4
370
   106
100
AcDbVertex
100
AcDb2dVertex
 10
338.6668899986659
 20
59.01314655478054
 30
0.0
  0
VERTEX
  5
121
330
11F
100
AcDbEntity
  8
Layer 3
 62
     4
370
   106
100
AcDbVertex
100
AcDb2dVertex
 10
317.5002093737492
 20
91.11594550257074
 30
0.0
  0
SEQEND
  5
122
330
11F
100
AcDbEntity
  8
Layer 3
370
   106
  0
POLYLINE
  5
123
330
1F
100
AcDbEntity
  8
Layer 3
 62
     4
370
   106
100
AcDb2dPolyline
 66
     1
 10
0.0
 20
0.0
 30
0.0
  0
VERTEX
  5
124
330
123
100
AcDbEntity
  8
Layer 3
 62
     4
370
   106
100
AcDbVertex
100
AcDb2dVertex
 10
301.2724208946465
 20
82.64927325260409
 30
0.0
  0
VERTEX
  5
125
330
123
100
AcDbEntity
  8
Layer 3
 62
     4
370
   106
100
AcDbVertex
100
AcDb2dVertex
 10
319.9696554466561
 20
58.30759053394998
 30
0.0
  0
SEQEND
  5
126
330
123
100
AcDbEntity
  8
Layer 3
370
   106
  0
POLYLINE
  5
127
330
1F
100
AcDbEntity
  8
Layer 3
 62
     4
370
   106
100
AcDb2dPolyline
 66
     1
 10
0.0
 20
0.0
 30
0.0
  0
VERTEX
  5
128
330
127
100
AcDbEntity
  8
Layer 3
 62
     4
370
   106
100
AcDbVertex
100
AcDb2dVertex
 10
304.4474229883839
 20
75.59371304429855
 30
0.0
  0
VERTEX
  5
129
330
127
100
AcDbEntity
  8
Layer 3
 62
     4
370
   106
100
AcDbVertex
100
AcDb2dVertex
 10
304.4474229883839
 20
102.0520638254443
 30
0.0
  0
SEQEND
  5
12A
330
127
100
AcDbEntity
  8
Layer 3
370
   106
  0
POLYLINE
  5
12B
330
1F
100
AcDbEntity
  8
Layer 3
 62
     4
370
   106
100
AcDb2dPolyline
 66
     1
 10
0.0
 20
0.0
 30
0.0
  0
VERTEX
  5
12C
330
12B
100
AcDbEntity
  8
Layer 3
 62
     4
370
   106
100
AcDbVertex
100
AcDb2dVertex
 10
322.4391015195631
 20
87.58816539841797
 30
0.0
  0
VERTEX
  5
12D
330
12B
100
AcDbEntity
  8
Layer 3
 62
     4
370
   106
100
AcDbVertex
100
AcDb2dVertex
 10
302.6835329363076
 20
87.58816539841797
 30
0.0
  0
SEQEND
  5
12E
330
12B
100
AcDbEntity
  8
Layer 3
370
   106
  0
POLYLINE
  5
12F
330
1F
100
AcDbEntity
  8
Layer 3
 62
     4
370
   106
100
AcDb2dPolyline
 66
     1
 10
0.0
 20
0.0
 30
0.0
  0
VERTEX
  5
130
330
12F
100
AcDbEntity
  8
Layer 3
 62
     4
370
   106
100
AcDbVertex
100
AcDb2dVertex
 10
299.8613088529854
 20
110.1659580649957
 30
0.0
  0
VERTEX
  5
131
330
12F
100
AcDbEntity
  8
Layer 3
 62
     4
370
   106
100
AcDbVertex
100
AcDb2dVertex
 10
261.4085057177202
 20
59.01314655478054
 30
0.0
  0
SEQEND
  5
132
330
12F
100
AcDbEntity
  8
Layer 3
370
   106
  0
POLYLINE
  5
133
330
1F
100
AcDbEntity
  8
Layer 3
 62
     4
370
   106
100
AcDb2dPolyline
 66
     1
 10
0.0
 20
0.0
 30
0.0
  0
VERTEX
  5
134
330
133
100
AcDbEntity
  8
Layer 3
 62
     4
370
   106
100
AcDbVertex
100
AcDb2dVertex
 10
259.6446156656438
 20
109.4604020441651
 30
0.0
  0
VERTEX
  5
135
330
133
100
AcDbEntity
  8
Layer 3
 62
     4
370
   106
100
AcDbVertex
100
AcDb2dVertex
 10
221.1918125303786
 20
59.36592456519582
 30
0.0
  0
SEQEND
  5
136
330
133
100
AcDbEntity
  8
Layer 3
370
   106
  0
POLYLINE
  5
137
330
1F
100
AcDbEntity
  8
Layer 3
 62
     4
370
   106
100
AcDb2dPolyline
 66
     1
 10
0.0
 20
0.0
 30
0.0
  0
VERTEX
  5
138
330
137
100
AcDbEntity
  8
Layer 3
 62
     4
370
   106
100
AcDbVertex
100
AcDb2dVertex
 10
219.075144467887
 20
109.8131800545804
 30
0.0
  0
VERTEX
  5
139
330
137
100
AcDbEntity
  8
Layer 3
 62
     4
370
   106
100
AcDbVertex
100
AcDb2dVertex
 10
181.6806753638676
 20
59.36592456519582
 30
0.0
  0
SEQEND
  5
13A
330
137
100
AcDbEntity
  8
Layer 3
370
   106
  0
POLYLINE
  5
13B
330
1F
100
AcDbEntity
  8
Layer 3
 62
     4
370
   106
100
AcDb2dPolyline
 66
     1
 10
0.0
 20
0.0
 30
0.0
  0
VERTEX
  5
13C
330
13B
100
AcDbEntity
  8
Layer 3
 62
     4
370
   106
100
AcDbVertex
100
AcDb2dVertex
 10
138.2889800827886
 20
96.05483764838462
 30
0.0
  0
VERTEX
  5
13D
330
13B
100
AcDbEntity
  8
Layer 3
 62
     4
370
   106
100
AcDbVertex
100
AcDb2dVertex
 10
179.2112292909607
 20
59.01314655478054
 30
0.0
  0
SEQEND
  5
13E
330
13B
100
AcDbEntity
  8
Layer 3
370
   106
  0
POLYLINE
  5
13F
330
1F
100
AcDbEntity
  8
Layer 3
 62
     4
370
   106
100
AcDb2dPolyline
 66
     1
 10
0.0
 20
0.0
 30
0.0
  0
VERTEX
  5
140
330
13F
100
AcDbEntity
  8
Layer 3
 62
     4
370
   106
100
AcDbVertex
100
AcDb2dVertex
 10
136.8778680411274
 20
115.1048502108096
 30
0.0
  0
VERTEX
  5
141
330
13F
100
AcDbEntity
  8
Layer 3
 62
     4
370
   106
100
AcDbVertex
100
AcDb2dVertex
 10
61.73615182267346
 20
59.01314655478054
 30
0.0
  0
SEQEND
  5
142
330
13F
100
AcDbEntity
  8
Layer 3
370
   106
  0
POLYLINE
  5
143
330
1F
100
AcDbEntity
  8
Layer 3
 62
     4
370
   106
100
AcDb2dPolyline
 66
     1
 10
0.0
 20
0.0
 30
0.0
  0
VERTEX
  5
144
330
143
100
AcDbEntity
  8
Layer 3
 62
     4
370
   106
100
AcDbVertex
100
AcDb2dVertex
 10
71.96671412471649
 20
170.490997846008
 30
0.0
  0
VERTEX
  5
145
330
143
100
AcDbEntity
  8
Layer 3
 62
     4
370
   106
100
AcDbVertex
100
AcDb2dVertex
 10
135.4667559994663
 20
137.6826428773873
 30
0.0
  0
SEQEND
  5
146
330
143
100
AcDbEntity
  8
Layer 3
370
   106
  0
POLYLINE
  5
147
330
1F
100
AcDbEntity
  8
Layer 3
 62
     4
370
   106
100
AcDb2dPolyline
 66
     1
 10
0.0
 20
0.0
 30
0.0
  0
VERTEX
  5
148
330
147
100
AcDbEntity
  8
Layer 3
 62
     4
370
   106
100
AcDbVertex
100
AcDb2dVertex
 10
71.96671412471649
 20
166.9632177418553
 30
0.0
  0
VERTEX
  5
149
330
147
100
AcDbEntity
  8
Layer 3
 62
     4
370
   106
100
AcDbVertex
100
AcDb2dVertex
 10
132.6445319161441
 20
195.5382365854927
 30
0.0
  0
SEQEND
  5
14A
330
147
100
AcDbEntity
  8
Layer 3
370
   106
  0
ENDSEC
  0
SECTION
  2
OBJECTS
  0
DICTIONARY
  5
C
330
0
100
AcDbDictionary
281
     1
  3
ACAD_GROUP
350
D
  3
ACAD_LAYOUT
350
1A
  3
ACAD_MLINESTYLE
350
17
  3
ACAD_PLOTSETTINGS
350
19
  3
ACAD_PLOTSTYLENAME
350
E
  3
ACAD_TABLESTYLE
350
14B
  3
ACAD_VISUALSTYLE
350
2A
  0
DICTIONARY
  5
D
102
{ACAD_REACTORS
330
C
102
}
330
C
100
AcDbDictionary
281
     1
  0
DICTIONARY
  5
1A
102
{ACAD_REACTORS
330
C
102
}
330
C
100
AcDbDictionary
281
     1
  3
Layout1
350
1E
  3
Layout2
350
26
  3
Model
350
22
  0
DICTIONARY
  5
17
102
{ACAD_REACTORS
330
C
102
}
330
C
100
AcDbDictionary
281
     1
  3
Standard
350
18
  0
DICTIONARY
  5
19
102
{ACAD_REACTORS
330
C
102
}
330
C
100
AcDbDictionary
281
     1
  0
ACDBDICTIONARYWDFLT
  5
E
102
{ACAD_REACTORS
330
C
102
}
330
C
100
AcDbDictionary
281
     1
  3
Normal
350
F
100
AcDbDictionaryWithDefault
340
F
  0
DICTIONARY
  5
14B
102
{ACAD_REACTORS
330
C
102
}
330
C
100
AcDbDictionary
281
     1
  0
DICTIONARY
  5
2A
102
{ACAD_REACTORS
330
C
102
}
330
C
100
AcDbDictionary
281
     1
  3
2dWireframe
350
2F
  3
3D Hidden
350
31
  3
3dWireframe
350
30
  3
Basic
350
32
  3
Brighten
350
36
  3
ColorChange
350
3A
  3
Conceptual
350
34
  3
Dim
350
35
  3
Facepattern
350
39
  3
Flat
350
2B
  3
FlatWithEdges
350
2C
  3
Gouraud
350
2D
  3
GouraudWithEdges
350
2E
  3
Linepattern
350
38
  3
Realistic
350
33
  3
Thicken
350
37
  0
LAYOUT
  5
1E
102
{ACAD_REACTORS
330
1A
102
}
330
1A
100
AcDbPlotSettings
  1

  2
none_device
  4

  6

 40
0.0
 41
0.0
 42
0.0
 43
0.0
 44
0.0
 45
0.0
 46
0.0
 47
0.0
 48
0.0
 49
0.0
140
0.0
141
0.0
142
1.0
143
1.0
 70
   688
 72
     0
 73
     0
 74
     5
  7

 75
    16
147
1.0
148
0.0
149
0.0
100
AcDbLayout
  1
Layout1
 70
     1
 71
     1
 10
0.0
 20
0.0
 11
12.0
 21
9.0
 12
0.0
 22
0.0
 32
0.0
 14
1.000000000000000E+20
 24
1.000000000000000E+20
 34
1.000000000000000E+20
 15
-1.000000000000000E+20
 25
-1.000000000000000E+20
 35
-1.000000000000000E+20
146
0.0
 13
0.0
 23
0.0
 33
0.0
 16
1.0
 26
0.0
 36
0.0
 17
0.0
 27
1.0
 37
0.0
 76
     0
330
1B
  0
LAYOUT
  5
26
102
{ACAD_REACTORS
330
1A
102
}
330
1A
100
AcDbPlotSettings
  1

  2
none_device
  4

  6

 40
0.0
 41
0.0
 42
0.0
 43
0.0
 44
0.0
 45
0.0
 46
0.0
 47
0.0
 48
0.0
 49
0.0
140
0.0
141
0.0
142
1.0
143
1.0
 70
   688
 72
     0
 73
     0
 74
     5
  7

 75
    16
147
1.0
148
0.0
149
0.0
100
AcDbLayout
  1
Layout2
 70
     1
 71
     2
 10
0.0
 20
0.0
 11
0.0
 21
0.0
 12
0.0
 22
0.0
 32
0.0
 14
0.0
 24
0.0
 34
0.0
 15
0.0
 25
0.0
 35
0.0
146
0.0
 13
0.0
 23
0.0
 33
0.0
 16
1.0
 26
0.0
 36
0.0
 17
0.0
 27
1.0
 37
0.0
 76
     0
330
23
  0
LAYOUT
  5
22
102
{ACAD_REACTORS
330
1A
102
}
330
1A
100
AcDbPlotSettings
  1

  2
none_device
  4

  6

 40
0.0
 41
0.0
 42
0.0
 43
0.0
 44
0.0
 45
0.0
 46
0.0
 47
0.0
 48
0.0
 49
0.0
140
0.0
141
0.0
142
1.0
143
1.0
 70
  1712
 72
     0
 73
     0
 74
     0
  7

 75
     0
147
1.0
148
0.0
149
0.0
100
AcDbLayout
  1
Model
 70
     1
 71
     0
 10
0.0
 20
0.0
 11
12.0
 21
9.0
 12
0.0
 22
0.0
 32
0.0
 14
1.000000000000000E+20
 24
1.000000000000000E+20
 34
1.000000000000000E+20
 15
-1.000000000000000E+20
 25
-1.000000000000000E+20
 35
-1.000000000000000E+20
146
0.0
 13
0.0
 23
0.0
 33
0.0
 16
1.0
 26
0.0
 36
0.0
 17
0.0
 27
1.0
 37
0.0
 76
     0
330
1F
331
29
  0
MLINESTYLE
  5
18
102
{ACAD_REACTORS
330
17
102
}
330
17
100
AcDbMlineStyle
  2
Standard
 70
     0
  3

 62
   256
 51
90.0
 52
90.0
 71
     2
 49
0.5
 62
   256
  6
BYLAYER
 49
-0.5
 62
   256
  6
BYLAYER
  0
ACDBPLACEHOLDER
  5
F
102
{ACAD_REACTORS
330
E
102
}
330
E
  0
VISUALSTYLE
  5
2F
102
{ACAD_REACTORS
330
2A
102
}
330
2A
100
AcDbVisualStyle
  2
2dWireframe
 70
     4
 71
     0
 72
     2
 73
     0
 90
        0
 40
-0.6
 41
-30.0
 62
     5
 63
     7
 74
     1
 91
        4
 64
     7
 65
   257
 75
     1
175
     1
 42
1.0
 92
        0
 66
   257
 43
1.0
 76
     1
 77
     6
 78
     2
 67
     7
 79
     5
170
     0
171
     0
290
     0
174
     0
 93
        1
 44
0.0
173
     0
291
     0
 45
0.0
1001
ACAD
1000
AcDbSavedByObjectVersion
1070
     0
  0
VISUALSTYLE
  5
31
102
{ACAD_REACTORS
330
2A
102
}
330
2A
100
AcDbVisualStyle
  2
3D Hidden
 70
     6
 71
     1
 72
     2
 73
     2
 90
        0
 40
-0.6
 41
-30.0
 62
     5
 63
     7
 74
     2
 91
        2
 64
     7
 65
   257
 75
     2
175
     1
 42
40.0
 92
        0
 66
   257
 43
1.0
 76
     1
 77
     6
 78
     2
 67
     7
 79
     3
170
     0
171
     0
290
     0
174
     0
 93
        1
 44
0.0
173
     0
291
     0
 45
0.0
1001
ACAD
1000
AcDbSavedByObjectVersion
1070
     0
  0
VISUALSTYLE
  5
30
102
{ACAD_REACTORS
330
2A
102
}
330
2A
100
AcDbVisualStyle
  2
3dWireframe
 70
     5
 71
     0
 72
     2
 73
     0
 90
        0
 40
-0.6
 41
-30.0
 62
     5
 63
     7
 74
     1
 91
        4
 64
     7
 65
   257
 75
     1
175
     1
 42
1.0
 92
        0
 66
   257
 43
1.0
 76
     1
 77
     6
 78
     2
 67
     7
 79
     5
170
     0
171
     0
290
     0
174
     0
 93
        1
 44
0.0
173
     0
291
     0
 45
0.0
1001
ACAD
1000
AcDbSavedByObjectVersion
1070
     0
  0
VISUALSTYLE
  5
32
102
{ACAD_REACTORS
330
2A
102
}
330
2A
100
AcDbVisualStyle
  2
Basic
 70
     7
 71
     1
 72
     0
 73
     1
 90
        0
 40
-0.6
 41
-30.0
 62
     5
 63
     7
 74
     0
 91
        4
 64
     7
 65
   257
 75
     1
175
     1
 42
1.0
 92
        8
 66
     7
 43
1.0
 76
     1
 77
     6
 78
     2
 67
     7
 79
     5
170
     0
171
     0
290
     0
174
     0
 93
        1
 44
0.0
173
     0
291
     1
 45
0.0
1001
ACAD
1000
AcDbSavedByObjectVersion
1070
     0
  0
VISUALSTYLE
  5
36
102
{ACAD_REACTORS
330
2A
102
}
330
2A
100
AcDbVisualStyle
  2
Brighten
 70
    12
 71
     2
 72
     2
 73
     0
 90
        0
 40
-0.6
 41
-30.0
 62
     5
 63
     7
 74
     1
 91
        4
 64
     7
 65
   257
 75
     1
175
     1
 42
1.0
 92
        8
 66
     7
 43
1.0
 76
     1
 77
     6
 78
     2
 67
     7
 79
     5
170
     0
171
     0
290
     0
174
     0
 93
        1
 44
50.0
173
     0
291
     1
 45
0.0
1001
ACAD
1000
AcDbSavedByObjectVersion
1070
     0
  0
VISUALSTYLE
  5
3A
102
{ACAD_REACTORS
330
2A
102
}
330
2A
100
AcDbVisualStyle
  2
ColorChange
 70
    16
 71
     2
 72
     2
 73
     3
 90
        0
 40
-0.6
 41
-30.0
 62
     5
 63
     8
 74
     1
 91
        4
 64
     7
 65
   257
 75
     1
175
     1
 42
1.0
 92
        8
 66
     8
 43
1.0
 76
     1
 77
     6
 78
     2
 67
     7
 79
     5
170
     0
171
     0
290
     0
174
     0
 93
        1
 44
0.0
173
     0
291
     1
 45
0.0
1001
ACAD
1000
AcDbSavedByObjectVersion
1070
     0
  0
VISUALSTYLE
  5
34
102
{ACAD_REACTORS
330
2A
102
}
330
2A
100
AcDbVisualStyle
  2
Conceptual
 70
     9
 71
     3
 72
     2
 73
     0
 90
        0
 40
-0.6
 41
-30.0
 62
     5
 63
     7
 74
     2
 91
        2
 64
     7
 65
   257
 75
     1
175
     1
 42
40.0
 92
        8
 66
     7
 43
1.0
 76
     1
 77
     6
 78
     2
 67
     7
 79
     3
170
     0
171
     0
290
     0
174
     0
 93
        1
 44
0.0
173
     0
291
     0
 45
0.0
1001
ACAD
1000
AcDbSavedByObjectVersion
1070
     0
  0
VISUALSTYLE
  5
35
102
{ACAD_REACTORS
330
2A
102
}
330
2A
100
AcDbVisualStyle
  2
Dim
 70
    11
 71
     2
 72
     2
 73
     0
 90
        0
 40
-0.6
 41
-30.0
 62
     5
 63
     7
 74
     1
 91
        4
 64
     7
 65
   257
 75
     1
175
     1
 42
1.0
 92
        8
 66
     7
 43
1.0
 76
     1
 77
     6
 78
     2
 67
     7
 79
     5
170
     0
171
     0
290
     0
174
     0
 93
        1
 44
-50.0
173
     0
291
     1
 45
0.0
1001
ACAD
1000
AcDbSavedByObjectVersion
1070
     0
  0
VISUALSTYLE
  5
39
102
{ACAD_REACTORS
330
2A
102
}
330
2A
100
AcDbVisualStyle
  2
Facepattern
 70
    15
 71
     2
 72
     2
 73
     0
 90
        0
 40
-0.6
 41
-30.0
 62
     5
 63
     7
 74
     1
 91
        4
 64
     7
 65
   257
 75
     1
175
     1
 42
1.0
 92
        8
 66
     7
 43
1.0
 76
     1
 77
     6
 78
     2
 67
     7
 79
     5
170
     0
171
     0
290
     0
174
     0
 93
        1
 44
0.0
173
     0
291
     1
 45
0.0
1001
ACAD
1000
AcDbSavedByObjectVersion
1070
     0
  0
VISUALSTYLE
  5
2B
102
{ACAD_REACTORS
330
2A
102
}
330
2A
100
AcDbVisualStyle
  2
Flat
 70
     0
 71
     2
 72
     1
 73
     1
 90
        2
 40
-0.6
 41
30.0
 62
     5
 63
     7
 74
     0
 91
        4
 64
     7
 65
   257
 75
     1
175
     1
 42
1.0
 92
        8
 66
     7
 43
1.0
 76
     1
 77
     6
 78
     2
 67
     7
 79
     5
170
     0
171
     0
290
     0
174
     0
 93
       13
 44
0.0
173
     0
291
     1
 45
0.0
1001
ACAD
1000
AcDbSavedByObjectVersion
1070
     0
  0
VISUALSTYLE
  5
2C
102
{ACAD_REACTORS
330
2A
102
}
330
2A
100
AcDbVisualStyle
  2
FlatWithEdges
 70
     1
 71
     2
 72
     1
 73
     1
 90
        2
 40
-0.6
 41
30.0
 62
     5
 63
     7
 74
     1
 91
        4
 64
     7
 65
   257
 75
     1
175
     1
 42
1.0
 92
        0
 66
   257
 43
1.0
 76
     1
 77
     6
 78
     2
 67
     7
 79
     5
170
     0
171
     0
290
     0
174
     0
 93
       13
 44
0.0
173
     0
291
     1
 45
0.0
1001
ACAD
1000
AcDbSavedByObjectVersion
1070
     0
  0
VISUALSTYLE
  5
2D
102
{ACAD_REACTORS
330
2A
102
}
330
2A
100
AcDbVisualStyle
  2
Gouraud
 70
     2
 71
     2
 72
     2
 73
     1
 90
        2
 40
-0.6
 41
30.0
 62
     5
 63
     7
 74
     0
 91
        4
 64
     7
 65
   257
 75
     1
175
     1
 42
1.0
 92
        0
 66
     7
 43
1.0
 76
     1
 77
     6
 78
     2
 67
     7
 79
     5
170
     0
171
     0
290
     0
174
     0
 93
       13
 44
0.0
173
     0
291
     1
 45
0.0
1001
ACAD
1000
AcDbSavedByObjectVersion
1070
     0
  0
VISUALSTYLE
  5
2E
102
{ACAD_REACTORS
330
2A
102
}
330
2A
100
AcDbVisualStyle
  2
GouraudWithEdges
 70
     3
 71
     2
 72
     2
 73
     1
 90
        2
 40
-0.6
 41
30.0
 62
     5
 63
     7
 74
     1
 91
        4
 64
     7
 65
   257
 75
     1
175
     1
 42
1.0
 92
        0
 66
   257
 43
1.0
 76
     1
 77
     6
 78
     2
 67
     7
 79
     5
170
     0
171
     0
290
     0
174
     0
 93
       13
 44
0.0
173
     0
291
     1
 45
0.0
1001
ACAD
1000
AcDbSavedByObjectVersion
1070
     0
  0
VISUALSTYLE
  5
38
102
{ACAD_REACTORS
330
2A
102
}
330
2A
100
AcDbVisualStyle
  2
Linepattern
 70
    14
 71
     2
 72
     2
 73
     0
 90
        0
 40
-0.6
 41
-30.0
 62
     5
 63
     7
 74
     1
 91
        4
 64
     7
 65
   257
 75
     7
175
     7
 42
1.0
 92
        8
 66
     7
 43
1.0
 76
     1
 77
     6
 78
     2
 67
     7
 79
     5
170
     0
171
     0
290
     0
174
     0
 93
        1
 44
0.0
173
     0
291
     1
 45
0.0
1001
ACAD
1000
AcDbSavedByObjectVersion
1070
     0
  0
VISUALSTYLE
  5
33
102
{ACAD_REACTORS
330
2A
102
}
330
2A
100
AcDbVisualStyle
  2
Realistic
 70
     8
 71
     2
 72
     2
 73
     0
 90
        0
 40
-0.6
 41
-30.0
 62
     5
 63
     7
 74
     1
 91
        0
 64
     7
 65
   257
 75
     1
175
     1
 42
1.0
 92
        8
 66
     8
 43
1.0
 76
     1
 77
     6
 78
     2
 67
     7
 79
     5
170
     0
171
     0
290
     0
174
     0
 93
       13
 44
0.0
173
     0
291
     0
 45
0.0
1001
ACAD
1000
AcDbSavedByObjectVersion
1070
     0
  0
VISUALSTYLE
  5
37
102
{ACAD_REACTORS
330
2A
102
}
330
2A
100
AcDbVisualStyle
  2
Thicken
 70
    13
 71
     2
 72
     2
 73
     0
 90
        0
 40
-0.6
 41
-30.0
 62
     5
 63
     7
 74
     1
 91
        4
 64
     7
 65
   257
 75
     1
175
     1
 42
1.0
 92
       12
 66
     7
 43
1.0
 76
     1
 77
     6
 78
     2
 67
     7
 79
     5
170
     0
171
     0
290
     0
174
     0
 93
        1
 44
0.0
173
     0
291
     1
 45
0.0
1001
ACAD
1000
AcDbSavedByObjectVersion
1070
     0
  0
ENDSEC
  0
EOF
