  0
SECTION
  2
HEADER
  9
$ACADVER
  1
AC1015
  9
$ACADMAINTVER
 70
     6
  9
$DWGCODEPAGE
  3
ASCII
  9
$INSBASE
 10
0.0
 20
0.0
 30
0.0
  9
$EXTMIN
 10
1.000000000000000E+20
 20
1.000000000000000E+20
 30
1.000000000000000E+20
  9
$EXTMAX
 10
-1.000000000000000E+20
 20
-1.000000000000000E+20
 30
-1.000000000000000E+20
  9
$LIMMIN
 10
0.0
 20
0.0
  9
$LIMMAX
 10
12.0
 20
9.0
  9
$ORTHOMODE
 70
     0
  9
$REGENMODE
 70
     1
  9
$FILLMODE
 70
     1
  9
$QTEXTMODE
 70
     0
  9
$MIRRTEXT
 70
     1
  9
$LTSCALE
 40
1.0
  9
$ATTMODE
 70
     1
  9
$TEXTSIZE
 40
0.2
  9
$TRACEWID
 40
0.05
  9
$TEXTSTYLE
  7
Standard
  9
$CLAYER
  8
0
  9
$CELTYPE
  6
ByLayer
  9
$CECOLOR
 62
   256
  9
$CELTSCALE
 40
1.0
  9
$DISPSILH
 70
     0
  9
$DIMSCALE
 40
1.0
  9
$DIMASZ
 40
0.18
  9
$DIMEXO
 40
0.0625
  9
$DIMDLI
 40
0.38
  9
$DIMRND
 40
0.0
  9
$DIMDLE
 40
0.0
  9
$DIMEXE
 40
0.18
  9
$DIMTP
 40
0.0
  9
$DIMTM
 40
0.0
  9
$DIMTXT
 40
0.18
  9
$DIMCEN
 40
0.09
  9
$DIMTSZ
 40
0.0
  9
$DIMTOL
 70
     0
  9
$DIMLIM
 70
     0
  9
$DIMTIH
 70
     1
  9
$DIMTOH
 70
     1
  9
$DIMSE1
 70
     0
  9
$DIMSE2
 70
     0
  9
$DIMTAD
 70
     0
  9
$DIMZIN
 70
     0
  9
$DIMBLK
  1

  9
$DIMASO
 70
     1
  9
$DIMSHO
 70
     1
  9
$DIMPOST
  1

  9
$DIMAPOST
  1

  9
$DIMALT
 70
     0
  9
$DIMALTD
 70
     2
  9
$DIMALTF
 40
25.4
  9
$DIMLFAC
 40
1.0
  9
$DIMTOFL
 70
     0
  9
$DIMTVP
 40
0.0
  9
$DIMTIX
 70
     0
  9
$DIMSOXD
 70
     0
  9
$DIMSAH
 70
     0
  9
$DIMBLK1
  1

  9
$DIMBLK2
  1

  9
$DIMSTYLE
  2
Standard
  9
$DIMCLRD
 70
     0
  9
$DIMCLRE
 70
     0
  9
$DIMCLRT
 70
     0
  9
$DIMTFAC
 40
1.0
  9
$DIMGAP
 40
0.09
  9
$DIMJUST
 70
     0
  9
$DIMSD1
 70
     0
  9
$DIMSD2
 70
     0
  9
$DIMTOLJ
 70
     1
  9
$DIMTZIN
 70
     0
  9
$DIMALTZ
 70
     0
  9
$DIMALTTZ
 70
     0
  9
$DIMUPT
 70
     0
  9
$DIMDEC
 70
     4
  9
$DIMTDEC
 70
     4
  9
$DIMALTU
 70
     2
  9
$DIMALTTD
 70
     2
  9
$DIMTXSTY
  7
Standard
  9
$DIMAUNIT
 70
     0
  9
$DIMADEC
 70
     0
  9
$DIMALTRND
 40
0.0
  9
$DIMAZIN
 70
     0
  9
$DIMDSEP
 70
    46
  9
$DIMATFIT
 70
     3
  9
$DIMFRAC
 70
     0
  9
$DIMLDRBLK
  1

  9
$DIMLUNIT
 70
     2
  9
$DIMLWD
 70
    -2
  9
$DIMLWE
 70
    -2
  9
$DIMTMOVE
 70
     0
  9
$LUNITS
 70
     2
  9
$LUPREC
 70
     4
  9
$SKETCHINC
 40
0.1
  9
$FILLETRAD
 40
0.5
  9
$AUNITS
 70
     0
  9
$AUPREC
 70
     0
  9
$MENU
  1
.
  9
$ELEVATION
 40
0.0
  9
$PELEVATION
 40
0.0
  9
$THICKNESS
 40
0.0
  9
$LIMCHECK
 70
     0
  9
$CHAMFERA
 40
0.5
  9
$CHAMFERB
 40
0.5
  9
$CHAMFERC
 40
1.0
  9
$CHAMFERD
 40
0.0
  9
$SKPOLY
 70
     0
  9
$TDCREATE
 40
2456040.698773148
  9
$TDUCREATE
 40
2456040.282106481
  9
$TDUPDATE
 40
2456040.69877316
  9
$TDUUPDATE
 40
2456040.282106493
  9
$TDINDWG
 40
0.0000000116
  9
$TDUSRTIMER
 40
0.0000000116
  9
$USRTIMER
 70
     1
  9
$ANGBASE
 50
0.0
  9
$ANGDIR
 70
     0
  9
$PDMODE
 70
     0
  9
$PDSIZE
 40
0.0
  9
$PLINEWID
 40
0.0
  9
$SPLFRAME
 70
     0
  9
$SPLINETYPE
 70
     6
  9
$SPLINESEGS
 70
     8
  9
$HANDSEED
  5
FF
  9
$SURFTAB1
 70
     6
  9
$SURFTAB2
 70
     6
  9
$SURFTYPE
 70
     6
  9
$SURFU
 70
     6
  9
$SURFV
 70
     6
  9
$UCSBASE
  2

  9
$UCSNAME
  2

  9
$UCSORG
 10
0.0
 20
0.0
 30
0.0
  9
$UCSXDIR
 10
1.0
 20
0.0
 30
0.0
  9
$UCSYDIR
 10
0.0
 20
1.0
 30
0.0
  9
$UCSORTHOREF
  2

  9
$UCSORTHOVIEW
 70
     0
  9
$UCSORGTOP
 10
0.0
 20
0.0
 30
0.0
  9
$UCSORGBOTTOM
 10
0.0
 20
0.0
 30
0.0
  9
$UCSORGLEFT
 10
0.0
 20
0.0
 30
0.0
  9
$UCSORGRIGHT
 10
0.0
 20
0.0
 30
0.0
  9
$UCSORGFRONT
 10
0.0
 20
0.0
 30
0.0
  9
$UCSORGBACK
 10
0.0
 20
0.0
 30
0.0
  9
$PUCSBASE
  2

  9
$PUCSNAME
  2

  9
$PUCSORG
 10
0.0
 20
0.0
 30
0.0
  9
$PUCSXDIR
 10
1.0
 20
0.0
 30
0.0
  9
$PUCSYDIR
 10
0.0
 20
1.0
 30
0.0
  9
$PUCSORTHOREF
  2

  9
$PUCSORTHOVIEW
 70
     0
  9
$PUCSORGTOP
 10
0.0
 20
0.0
 30
0.0
  9
$PUCSORGBOTTOM
 10
0.0
 20
0.0
 30
0.0
  9
$PUCSORGLEFT
 10
0.0
 20
0.0
 30
0.0
  9
$PUCSORGRIGHT
 10
0.0
 20
0.0
 30
0.0
  9
$PUCSORGFRONT
 10
0.0
 20
0.0
 30
0.0
  9
$PUCSORGBACK
 10
0.0
 20
0.0
 30
0.0
  9
$USERI1
 70
     0
  9
$USERI2
 70
     0
  9
$USERI3
 70
     0
  9
$USERI4
 70
     0
  9
$USERI5
 70
     0
  9
$USERR1
 40
0.0
  9
$USERR2
 40
0.0
  9
$USERR3
 40
0.0
  9
$USERR4
 40
0.0
  9
$USERR5
 40
0.0
  9
$WORLDVIEW
 70
     1
  9
$SHADEDGE
 70
     3
  9
$SHADEDIF
 70
    70
  9
$TILEMODE
 70
     1
  9
$MAXACTVP
 70
    64
  9
$PINSBASE
 10
0.0
 20
0.0
 30
0.0
  9
$PLIMCHECK
 70
     0
  9
$PEXTMIN
 10
1.000000000000000E+20
 20
1.000000000000000E+20
 30
1.000000000000000E+20
  9
$PEXTMAX
 10
-1.000000000000000E+20
 20
-1.000000000000000E+20
 30
-1.000000000000000E+20
  9
$PLIMMIN
 10
0.0
 20
0.0
  9
$PLIMMAX
 10
12.0
 20
9.0
  9
$UNITMODE
 70
     0
  9
$VISRETAIN
 70
     1
  9
$PLINEGEN
 70
     0
  9
$PSLTSCALE
 70
     1
  9
$TREEDEPTH
 70
  3020
  9
$CMLSTYLE
  2
Standard
  9
$CMLJUST
 70
     0
  9
$CMLSCALE
 40
1.0
  9
$PROXYGRAPHICS
 70
     1
  9
$MEASUREMENT
 70
     0
  9
$CELWEIGHT
370
    -1
  9
$ENDCAPS
280
     0
  9
$JOINSTYLE
280
     0
  9
$LWDISPLAY
290
     1
  9
$INSUNITS
 70
     1
  9
$HYPERLINKBASE
  1

  9
$STYLESHEET
  1

  9
$XEDIT
290
     1
  9
$CEPSNTYPE
380
     0
  9
$PSTYLEMODE
290
     1
  9
$FINGERPRINTGUID
  2
{4D4DA4D3-43A7-D37E-E266-A102F38F24F3}
  9
$VERSIONGUID
  2
{FAEB1C32-E019-11D5-929B-00C0DF256EC4}
  9
$EXTNAMES
290
     1
  9
$PSVPSCALE
 40
0.0
  9
$OLESTARTUP
290
     0
  0
ENDSEC
  0
SECTION
  2
CLASSES
  0
CLASS
  1
ACDBDICTIONARYWDFLT
  2
AcDbDictionaryWithDefault
  3
ObjectDBX Classes
 90
        0
280
     0
281
     0
  0
CLASS
  1
VISUALSTYLE
  2
AcDbVisualStyle
  3
ObjectDBX Classes
 90
     4095
280
     0
281
     0
  0
CLASS
  1
ACDBPLACEHOLDER
  2
AcDbPlaceHolder
  3
ObjectDBX Classes
 90
        0
280
     0
281
     0
  0
CLASS
  1
LAYOUT
  2
AcDbLayout
  3
ObjectDBX Classes
 90
        0
280
     0
281
     0
  0
ENDSEC
  0
SECTION
  2
TABLES
  0
TABLE
  2
VPORT
  5
8
330
0
100
AcDbSymbolTable
 70
     1
  0
VPORT
  5
29
330
8
100
AcDbSymbolTableRecord
100
AcDbViewportTableRecord
  2
*Active
 70
     0
 10
0.0
 20
0.0
 11
1.0
 21
1.0
 12
0.0
 22
0.0
 13
0.0
 23
0.0
 14
0.5
 24
0.5
 15
0.5
 25
0.5
 16
0.0
 26
0.0
 36
1.0
 17
115.9503633280573
 27
104.9369025605175
 37
0.0
 40
78.39996909951263
 41
0.5725916878634737
 42
50.0
 43
0.0
 44
0.0
 50
0.0
 51
0.0
 71
     0
 72
   100
 73
     1
 74
     3
 75
     0
 76
     0
 77
     0
 78
     0
281
     0
 65
     1
110
0.0
120
0.0
130
0.0
111
1.0
121
0.0
131
0.0
112
0.0
122
1.0
132
0.0
 79
     0
146
0.0
  0
ENDTAB
  0
TABLE
  2
LTYPE
  5
5
330
0
100
AcDbSymbolTable
 70
     1
  0
LTYPE
  5
14
330
5
100
AcDbSymbolTableRecord
100
AcDbLinetypeTableRecord
  2
ByBlock
 70
     0
  3

 72
    65
 73
     0
 40
0.0
  0
LTYPE
  5
15
330
5
100
AcDbSymbolTableRecord
100
AcDbLinetypeTableRecord
  2
ByLayer
 70
     0
  3

 72
    65
 73
     0
 40
0.0
  0
LTYPE
  5
16
330
5
100
AcDbSymbolTableRecord
100
AcDbLinetypeTableRecord
  2
Continuous
 70
     0
  3
Solid line
 72
    65
 73
     0
 40
0.0
  0
ENDTAB
  0
TABLE
  2
LAYER
  5
2
330
0
100
AcDbSymbolTable
 70
     4
  0
LAYER
  5
10
330
2
100
AcDbSymbolTableRecord
100
AcDbLayerTableRecord
  2
0
 70
     0
 62
     7
  6
Continuous
370
    -3
390
F
  0
LAYER
  5
3B
330
2
100
AcDbSymbolTableRecord
100
AcDbLayerTableRecord
  2
Layer 1
 70
     4
 62
     7
  6
Continuous
370
    -3
390
F
  0
LAYER
  5
3C
330
2
100
AcDbSymbolTableRecord
100
AcDbLayerTableRecord
  2
Layer 2
 70
     0
 62
     7
  6
Continuous
370
    -3
390
F
  0
LAYER
  5
AD
330
2
100
AcDbSymbolTableRecord
100
AcDbLayerTableRecord
  2
Layer 3
 70
     0
 62
     7
  6
Continuous
370
    -3
390
F
  0
ENDTAB
  0
TABLE
  2
STYLE
  5
3
330
0
100
AcDbSymbolTable
 70
     1
  0
STYLE
  5
11
330
3
100
AcDbSymbolTableRecord
100
AcDbTextStyleTableRecord
  2
Standard
 70
     0
 40
0.0
 41
1.0
 50
0.0
 71
     0
 42
0.2
  3
txt
  4

  0
ENDTAB
  0
TABLE
  2
VIEW
  5
6
330
0
100
AcDbSymbolTable
 70
     0
  0
ENDTAB
  0
TABLE
  2
UCS
  5
7
330
0
100
AcDbSymbolTable
 70
     0
  0
ENDTAB
  0
TABLE
  2
APPID
  5
9
330
0
100
AcDbSymbolTable
 70
     1
  0
APPID
  5
12
330
9
100
AcDbSymbolTableRecord
100
AcDbRegAppTableRecord
  2
ACAD
 70
     0
  0
ENDTAB
  0
TABLE
  2
DIMSTYLE
  5
A
330
0
100
AcDbSymbolTable
 70
     1
100
AcDbDimStyleTable
  0
DIMSTYLE
105
27
330
A
100
AcDbSymbolTableRecord
100
AcDbDimStyleTableRecord
  2
Standard
 70
     0
340
11
  0
ENDTAB
  0
TABLE
  2
BLOCK_RECORD
  5
1
330
0
100
AcDbSymbolTable
 70
     1
  0
BLOCK_RECORD
  5
1F
330
1
100
AcDbSymbolTableRecord
100
AcDbBlockTableRecord
  2
*Model_Space
340
22
  0
BLOCK_RECORD
  5
1B
330
1
100
AcDbSymbolTableRecord
100
AcDbBlockTableRecord
  2
*Paper_Space
340
1E
  0
BLOCK_RECORD
  5
23
330
1
100
AcDbSymbolTableRecord
100
AcDbBlockTableRecord
  2
*Paper_Space0
340
26
  0
ENDTAB
  0
ENDSEC
  0
SECTION
  2
BLOCKS
  0
BLOCK
  5
20
330
1F
100
AcDbEntity
  8
0
100
AcDbBlockBegin
  2
*Model_Space
 70
     0
 71
     0
 10
0.0
 20
0.0
 30
0.0
  3
*Model_Space
  1

  0
ENDBLK
  5
21
330
1F
100
AcDbEntity
  8
0
100
AcDbBlockEnd
  0
BLOCK
  5
1C
330
1B
100
AcDbEntity
 67
     1
  8
0
100
AcDbBlockBegin
  2
*Paper_Space
 70
     0
 71
     0
 10
0.0
 20
0.0
 30
0.0
  3
*Paper_Space
  1

  0
ENDBLK
  5
1D
330
1B
100
AcDbEntity
 67
     1
  8
0
100
AcDbBlockEnd
  0
BLOCK
  5
24
330
23
100
AcDbEntity
  8
0
100
AcDbBlockBegin
  2
*Paper_Space0
 70
     0
 71
     0
 10
0.0
 20
0.0
 30
0.0
  3
*Paper_Space0
  1

  0
ENDBLK
  5
25
330
23
100
AcDbEntity
  8
0
100
AcDbBlockEnd
  0
ENDSEC
  0
SECTION
  2
ENTITIES
  0
POLYLINE
  5
3D
330
1F
100
AcDbEntity
  8
Layer 2
 62
     1
370
    35
100
AcDb2dPolyline
 66
     1
 10
0.0
 20
0.0
 30
0.0
  0
VERTEX
  5
3E
330
3D
100
AcDbEntity
  8
Layer 2
 62
     1
370
    35
100
AcDbVertex
100
AcDb2dVertex
 10
103.0259929616201
 20
130.1862824109506
 30
0.0
  0
VERTEX
  5
3F
330
3D
100
AcDbEntity
  8
Layer 2
 62
     1
370
    35
100
AcDbVertex
100
AcDb2dVertex
 10
110.8761649677995
 20
130.1862824109506
 30
0.0
  0
VERTEX
  5
40
330
3D
100
AcDbEntity
  8
Layer 2
 62
     1
370
    35
100
AcDbVertex
100
AcDb2dVertex
 10
110.8761649677995
 20
129.6004435372092
 30
0.0
  0
VERTEX
  5
41
330
3D
100
AcDbEntity
  8
Layer 2
 62
     1
370
    35
100
AcDbVertex
100
AcDb2dVertex
 10
105.9550150754391
 20
129.6004435372092
 30
0.0
  0
VERTEX
  5
42
330
3D
100
AcDbEntity
  8
Layer 2
 62
     1
370
    35
100
AcDbVertex
100
AcDb2dVertex
 10
105.9550150754391
 20
125.2653047734781
 30
0.0
  0
VERTEX
  5
43
330
3D
100
AcDbEntity
  8
Layer 2
 62
     1
370
    35
100
AcDbVertex
100
AcDb2dVertex
 10
110.7588593891409
 20
125.2653047734781
 30
0.0
  0
VERTEX
  5
44
330
3D
100
AcDbEntity
  8
Layer 2
 62
     1
370
    35
100
AcDbVertex
100
AcDb2dVertex
 10
110.7588593891409
 20
124.7965992235074
 30
0.0
  0
VERTEX
  5
45
330
3D
100
AcDbEntity
  8
Layer 2
 62
     1
370
    35
100
AcDbVertex
100
AcDb2dVertex
 10
103.2602596091615
 20
124.7965992235074
 30
0.0
  0
VERTEX
  5
46
330
3D
100
AcDbEntity
  8
Layer 2
 62
     1
370
    35
100
AcDbVertex
100
AcDb2dVertex
 10
103.2602596091615
 20
122.2189770810004
 30
0.0
  0
VERTEX
  5
47
330
3D
100
AcDbEntity
  8
Layer 2
 62
     1
370
    35
100
AcDbVertex
100
AcDb2dVertex
 10
111.1104316153409
 20
122.2189770810004
 30
0.0
  0
VERTEX
  5
48
330
3D
100
AcDbEntity
  8
Layer 2
 62
     1
370
    35
100
AcDbVertex
100
AcDb2dVertex
 10
111.1104316153409
 20
121.5160048834884
 30
0.0
  0
VERTEX
  5
49
330
3D
100
AcDbEntity
  8
Layer 2
 62
     1
370
    35
100
AcDbVertex
100
AcDb2dVertex
 10
102.5572874116494
 20
121.5160048834884
 30
0.0
  0
VERTEX
  5
4A
330
3D
100
AcDbEntity
  8
Layer 2
 62
     1
370
    35
100
AcDbVertex
100
AcDb2dVertex
 10
102.5572874116494
 20
133.7013156533989
 30
0.0
  0
VERTEX
  5
4B
330
3D
100
AcDbEntity
  8
Layer 2
 62
     1
370
    35
100
AcDbVertex
100
AcDb2dVertex
 10
117.9060591978082
 20
133.7013156533989
 30
0.0
  0
VERTEX
  5
4C
330
3D
100
AcDbEntity
  8
Layer 2
 62
     1
370
    35
100
AcDbVertex
100
AcDb2dVertex
 10
117.9060591978082
 20
132.9983434558868
 30
0.0
  0
VERTEX
  5
4D
330
3D
100
AcDbEntity
  8
Layer 2
 62
     1
370
    35
100
AcDbVertex
100
AcDb2dVertex
 10
103.1431262853908
 20
132.9983434558868
 30
0.0
  0
VERTEX
  5
4E
330
3D
100
AcDbEntity
  8
Layer 2
 62
     1
370
    35
100
AcDbVertex
100
AcDb2dVertex
 10
103.0259929616201
 20
130.1862824109506
 30
0.0
  0
SEQEND
  5
4F
330
3D
100
AcDbEntity
  8
Layer 2
370
    35
  0
POLYLINE
  5
50
330
1F
100
AcDbEntity
  8
Layer 2
 62
     1
370
    35
100
AcDb2dPolyline
 66
     1
 10
0.0
 20
0.0
 30
0.0
  0
VERTEX
  5
51
330
50
100
AcDbEntity
  8
Layer 2
 62
     1
370
    35
100
AcDbVertex
100
AcDb2dVertex
 10
94.4726765030407
 20
143.1918709570317
 30
0.0
  0
VERTEX
  5
52
330
50
100
AcDbEntity
  8
Layer 2
 62
     1
370
    35
100
AcDbVertex
100
AcDb2dVertex
 10
115.3284370553013
 20
143.1918709570317
 30
0.0
  0
VERTEX
  5
53
330
50
100
AcDbEntity
  8
Layer 2
 62
     1
370
    35
100
AcDbVertex
100
AcDb2dVertex
 10
115.3284370553013
 20
136.9820822483058
 30
0.0
  0
VERTEX
  5
54
330
50
100
AcDbEntity
  8
Layer 2
 62
     1
370
    35
100
AcDbVertex
100
AcDb2dVertex
 10
115.9142759290427
 20
136.9820822483058
 30
0.0
  0
VERTEX
  5
55
330
50
100
AcDbEntity
  8
Layer 2
 62
     1
370
    35
100
AcDbVertex
100
AcDb2dVertex
 10
115.9142759290427
 20
143.1918709570317
 30
0.0
  0
VERTEX
  5
56
330
50
100
AcDbEntity
  8
Layer 2
 62
     1
370
    35
100
AcDbVertex
100
AcDb2dVertex
 10
137.590142002586
 20
143.1918709570317
 30
0.0
  0
VERTEX
  5
57
330
50
100
AcDbEntity
  8
Layer 2
 62
     1
370
    35
100
AcDbVertex
100
AcDb2dVertex
 10
137.590142002586
 20
121.8675771096884
 30
0.0
  0
VERTEX
  5
58
330
50
100
AcDbEntity
  8
Layer 2
 62
     1
370
    35
100
AcDbVertex
100
AcDb2dVertex
 10
115.9142759290427
 20
121.8675771096884
 30
0.0
  0
VERTEX
  5
59
330
50
100
AcDbEntity
  8
Layer 2
 62
     1
370
    35
100
AcDbVertex
100
AcDb2dVertex
 10
115.9142759290427
 20
129.6004435372092
 30
0.0
  0
VERTEX
  5
5A
330
50
100
AcDbEntity
  8
Layer 2
 62
     1
370
    35
100
AcDbVertex
100
AcDb2dVertex
 10
117.7889258740375
 20
129.6004435372092
 30
0.0
  0
VERTEX
  5
5B
330
50
100
AcDbEntity
  8
Layer 2
 62
     1
370
    35
100
AcDbVertex
100
AcDb2dVertex
 10
117.7889258740375
 20
130.3035879896092
 30
0.0
  0
VERTEX
  5
5C
330
50
100
AcDbEntity
  8
Layer 2
 62
     1
370
    35
100
AcDbVertex
100
AcDb2dVertex
 10
114.9768648291013
 20
130.3035879896092
 30
0.0
  0
VERTEX
  5
5D
330
50
100
AcDbEntity
  8
Layer 2
 62
     1
370
    35
100
AcDbVertex
100
AcDb2dVertex
 10
114.9768648291013
 20
122.2189770810004
 30
0.0
  0
VERTEX
  5
5E
330
50
100
AcDbEntity
  8
Layer 2
 62
     1
370
    35
100
AcDbVertex
100
AcDb2dVertex
 10
113.6880537578478
 20
122.2189770810004
 30
0.0
  0
VERTEX
  5
5F
330
50
100
AcDbEntity
  8
Layer 2
 62
     1
370
    35
100
AcDbVertex
100
AcDb2dVertex
 10
113.6880537578478
 20
121.3988715597177
 30
0.0
  0
VERTEX
  5
60
330
50
100
AcDbEntity
  8
Layer 2
 62
     1
370
    35
100
AcDbVertex
100
AcDb2dVertex
 10
115.2113037315306
 20
121.3988715597177
 30
0.0
  0
VERTEX
  5
61
330
50
100
AcDbEntity
  8
Layer 2
 62
     1
370
    35
100
AcDbVertex
100
AcDb2dVertex
 10
115.2113037315306
 20
114.8375106247917
 30
0.0
  0
VERTEX
  5
62
330
50
100
AcDbEntity
  8
Layer 2
 62
     1
370
    35
100
AcDbVertex
100
AcDb2dVertex
 10
112.0476704603944
 20
114.8375106247917
 30
0.0
  0
VERTEX
  5
63
330
50
100
AcDbEntity
  8
Layer 2
 62
     1
370
    35
100
AcDbVertex
100
AcDb2dVertex
 10
112.0476704603944
 20
113.1971273273383
 30
0.0
  0
VERTEX
  5
64
330
50
100
AcDbEntity
  8
Layer 2
 62
     1
370
    35
100
AcDbVertex
100
AcDb2dVertex
 10
97.05047090043554
 20
113.1971273273383
 30
0.0
  0
VERTEX
  5
65
330
50
100
AcDbEntity
  8
Layer 2
 62
     1
370
    35
100
AcDbVertex
100
AcDb2dVertex
 10
97.05047090043554
 20
97.14521108877949
 30
0.0
  0
VERTEX
  5
66
330
50
100
AcDbEntity
  8
Layer 2
 62
     1
370
    35
100
AcDbVertex
100
AcDb2dVertex
 10
98.339281971689
 20
97.14521108877949
 30
0.0
  0
VERTEX
  5
67
330
50
100
AcDbEntity
  8
Layer 2
 62
     1
370
    35
100
AcDbVertex
100
AcDb2dVertex
 10
98.339281971689
 20
93.04451122747768
 30
0.0
  0
VERTEX
  5
68
330
50
100
AcDbEntity
  8
Layer 2
 62
     1
370
    35
100
AcDbVertex
100
AcDb2dVertex
 10
99.04225416920109
 20
93.04451122747768
 30
0.0
  0
VERTEX
  5
69
330
50
100
AcDbEntity
  8
Layer 2
 62
     1
370
    35
100
AcDbVertex
100
AcDb2dVertex
 10
99.04225416920109
 20
96.91094444123809
 30
0.0
  0
VERTEX
  5
6A
330
50
100
AcDbEntity
  8
Layer 2
 62
     1
370
    35
100
AcDbVertex
100
AcDb2dVertex
 10
105.7207484278977
 20
96.91094444123809
 30
0.0
  0
VERTEX
  5
6B
330
50
100
AcDbEntity
  8
Layer 2
 62
     1
370
    35
100
AcDbVertex
100
AcDb2dVertex
 10
105.7207484278977
 20
95.15325556512605
 30
0.0
  0
VERTEX
  5
6C
330
50
100
AcDbEntity
  8
Layer 2
 62
     1
370
    35
100
AcDbVertex
100
AcDb2dVertex
 10
115.0941704077599
 20
95.15325556512605
 30
0.0
  0
VERTEX
  5
6D
330
50
100
AcDbEntity
  8
Layer 2
 62
     1
370
    35
100
AcDbVertex
100
AcDb2dVertex
 10
115.0941704077599
 20
88.9434668564001
 30
0.0
  0
VERTEX
  5
6E
330
50
100
AcDbEntity
  8
Layer 2
 62
     1
370
    35
100
AcDbVertex
100
AcDb2dVertex
 10
113.9224926602771
 20
88.9434668564001
 30
0.0
  0
VERTEX
  5
6F
330
50
100
AcDbEntity
  8
Layer 2
 62
     1
370
    35
100
AcDbVertex
100
AcDb2dVertex
 10
113.9224926602771
 20
88.00640026623452
 30
0.0
  0
VERTEX
  5
70
330
50
100
AcDbEntity
  8
Layer 2
 62
     1
370
    35
100
AcDbVertex
100
AcDb2dVertex
 10
114.9768648291013
 20
88.00640026623452
 30
0.0
  0
VERTEX
  5
71
330
50
100
AcDbEntity
  8
Layer 2
 62
     1
370
    35
100
AcDbVertex
100
AcDb2dVertex
 10
114.9768648291013
 20
79.57004487653793
 30
0.0
  0
VERTEX
  5
72
330
50
100
AcDbEntity
  8
Layer 2
 62
     1
370
    35
100
AcDbVertex
100
AcDb2dVertex
 10
117.7889258740375
 20
79.57004487653793
 30
0.0
  0
VERTEX
  5
73
330
50
100
AcDbEntity
  8
Layer 2
 62
     1
370
    35
100
AcDbVertex
100
AcDb2dVertex
 10
117.7889258740375
 20
80.39032265270862
 30
0.0
  0
VERTEX
  5
74
330
50
100
AcDbEntity
  8
Layer 2
 62
     1
370
    35
100
AcDbVertex
100
AcDb2dVertex
 10
115.797142605272
 20
80.39032265270862
 30
0.0
  0
VERTEX
  5
75
330
50
100
AcDbEntity
  8
Layer 2
 62
     1
370
    35
100
AcDbVertex
100
AcDb2dVertex
 10
115.797142605272
 20
88.35780023754661
 30
0.0
  0
VERTEX
  5
76
330
50
100
AcDbEntity
  8
Layer 2
 62
     1
370
    35
100
AcDbVertex
100
AcDb2dVertex
 10
125.8735367826462
 20
88.35780023754661
 30
0.0
  0
VERTEX
  5
77
330
50
100
AcDbEntity
  8
Layer 2
 62
     1
370
    35
100
AcDbVertex
100
AcDb2dVertex
 10
125.8735367826462
 20
79.80465603385512
 30
0.0
  0
VERTEX
  5
78
330
50
100
AcDbEntity
  8
Layer 2
 62
     1
370
    35
100
AcDbVertex
100
AcDb2dVertex
 10
126.4592034014997
 20
79.80465603385512
 30
0.0
  0
VERTEX
  5
79
330
50
100
AcDbEntity
  8
Layer 2
 62
     1
370
    35
100
AcDbVertex
100
AcDb2dVertex
 10
126.4592034014997
 20
88.24066691377591
 30
0.0
  0
VERTEX
  5
7A
330
50
100
AcDbEntity
  8
Layer 2
 62
     1
370
    35
100
AcDbVertex
100
AcDb2dVertex
 10
136.7700364813032
 20
88.24066691377591
 30
0.0
  0
VERTEX
  5
7B
330
50
100
AcDbEntity
  8
Layer 2
 62
     1
370
    35
100
AcDbVertex
100
AcDb2dVertex
 10
136.7700364813032
 20
67.03333413531534
 30
0.0
  0
VERTEX
  5
7C
330
50
100
AcDbEntity
  8
Layer 2
 62
     1
370
    35
100
AcDbVertex
100
AcDb2dVertex
 10
126.2249367539583
 20
67.03333413531534
 30
0.0
  0
VERTEX
  5
7D
330
50
100
AcDbEntity
  8
Layer 2
 62
     1
370
    35
100
AcDbVertex
100
AcDb2dVertex
 10
126.2249367539583
 20
77.1095560578017
 30
0.0
  0
VERTEX
  5
7E
330
50
100
AcDbEntity
  8
Layer 2
 62
     1
370
    35
100
AcDbVertex
100
AcDb2dVertex
 10
125.1703923302462
 20
77.1095560578017
 30
0.0
  0
VERTEX
  5
7F
330
50
100
AcDbEntity
  8
Layer 2
 62
     1
370
    35
100
AcDbVertex
100
AcDb2dVertex
 10
125.1703923302462
 20
76.28962279140681
 30
0.0
  0
VERTEX
  5
80
330
50
100
AcDbEntity
  8
Layer 2
 62
     1
370
    35
100
AcDbVertex
100
AcDb2dVertex
 10
125.6390978802169
 20
76.28962279140681
 30
0.0
  0
VERTEX
  5
81
330
50
100
AcDbEntity
  8
Layer 2
 62
     1
370
    35
100
AcDbVertex
100
AcDb2dVertex
 10
125.6390978802169
 20
67.15046745908604
 30
0.0
  0
VERTEX
  5
82
330
50
100
AcDbEntity
  8
Layer 2
 62
     1
370
    35
100
AcDbVertex
100
AcDb2dVertex
 10
115.797142605272
 20
67.15046745908604
 30
0.0
  0
VERTEX
  5
83
330
50
100
AcDbEntity
  8
Layer 2
 62
     1
370
    35
100
AcDbVertex
100
AcDb2dVertex
 10
115.797142605272
 20
76.17248946763611
 30
0.0
  0
VERTEX
  5
84
330
50
100
AcDbEntity
  8
Layer 2
 62
     1
370
    35
100
AcDbVertex
100
AcDb2dVertex
 10
122.4756368639686
 20
76.17248946763611
 30
0.0
  0
VERTEX
  5
85
330
50
100
AcDbEntity
  8
Layer 2
 62
     1
370
    35
100
AcDbVertex
100
AcDb2dVertex
 10
122.4756368639686
 20
76.992422734031
 30
0.0
  0
VERTEX
  5
86
330
50
100
AcDbEntity
  8
Layer 2
 62
     1
370
    35
100
AcDbVertex
100
AcDb2dVertex
 10
114.7425981815599
 20
76.992422734031
 30
0.0
  0
VERTEX
  5
87
330
50
100
AcDbEntity
  8
Layer 2
 62
     1
370
    35
100
AcDbVertex
100
AcDb2dVertex
 10
114.7425981815599
 20
76.40675611517752
 30
0.0
  0
VERTEX
  5
88
330
50
100
AcDbEntity
  8
Layer 2
 62
     1
370
    35
100
AcDbVertex
100
AcDb2dVertex
 10
115.2113037315306
 20
76.40675611517752
 30
0.0
  0
VERTEX
  5
89
330
50
100
AcDbEntity
  8
Layer 2
 62
     1
370
    35
100
AcDbVertex
100
AcDb2dVertex
 10
115.2113037315306
 20
66.91620081154466
 30
0.0
  0
VERTEX
  5
8A
330
50
100
AcDbEntity
  8
Layer 2
 62
     1
370
    35
100
AcDbVertex
100
AcDb2dVertex
 10
103.1431262853908
 20
66.91620081154466
 30
0.0
  0
VERTEX
  5
8B
330
50
100
AcDbEntity
  8
Layer 2
 62
     1
370
    35
100
AcDbVertex
100
AcDb2dVertex
 10
103.1431262853908
 20
76.17248946763611
 30
0.0
  0
VERTEX
  5
8C
330
50
100
AcDbEntity
  8
Layer 2
 62
     1
370
    35
100
AcDbVertex
100
AcDb2dVertex
 10
112.164976039053
 20
76.17248946763611
 30
0.0
  0
VERTEX
  5
8D
330
50
100
AcDbEntity
  8
Layer 2
 62
     1
370
    35
100
AcDbVertex
100
AcDb2dVertex
 10
112.164976039053
 20
77.46130053888959
 30
0.0
  0
VERTEX
  5
8E
330
50
100
AcDbEntity
  8
Layer 2
 62
     1
370
    35
100
AcDbVertex
100
AcDb2dVertex
 10
102.9086873829615
 20
77.46130053888959
 30
0.0
  0
VERTEX
  5
8F
330
50
100
AcDbEntity
  8
Layer 2
 62
     1
370
    35
100
AcDbVertex
100
AcDb2dVertex
 10
102.9086873829615
 20
80.03892268139651
 30
0.0
  0
VERTEX
  5
90
330
50
100
AcDbEntity
  8
Layer 2
 62
     1
370
    35
100
AcDbVertex
100
AcDb2dVertex
 10
110.9932982915702
 20
80.03892268139651
 30
0.0
  0
VERTEX
  5
91
330
50
100
AcDbEntity
  8
Layer 2
 62
     1
370
    35
100
AcDbVertex
100
AcDb2dVertex
 10
110.9932982915702
 20
80.74172262402071
 30
0.0
  0
VERTEX
  5
92
330
50
100
AcDbEntity
  8
Layer 2
 62
     1
370
    35
100
AcDbVertex
100
AcDb2dVertex
 10
106.1894539778684
 20
80.74172262402071
 30
0.0
  0
VERTEX
  5
93
330
50
100
AcDbEntity
  8
Layer 2
 62
     1
370
    35
100
AcDbVertex
100
AcDb2dVertex
 10
106.1894539778684
 20
84.6085003475569
 30
0.0
  0
VERTEX
  5
94
330
50
100
AcDbEntity
  8
Layer 2
 62
     1
370
    35
100
AcDbVertex
100
AcDb2dVertex
 10
110.8761649677995
 20
84.6085003475569
 30
0.0
  0
VERTEX
  5
95
330
50
100
AcDbEntity
  8
Layer 2
 62
     1
370
    35
100
AcDbVertex
100
AcDb2dVertex
 10
110.8761649677995
 20
85.07703364263969
 30
0.0
  0
VERTEX
  5
96
330
50
100
AcDbEntity
  8
Layer 2
 62
     1
370
    35
100
AcDbVertex
100
AcDb2dVertex
 10
103.1431262853908
 20
85.07703364263969
 30
0.0
  0
VERTEX
  5
97
330
50
100
AcDbEntity
  8
Layer 2
 62
     1
370
    35
100
AcDbVertex
100
AcDb2dVertex
 10
103.1431262853908
 20
88.00640026623452
 30
0.0
  0
VERTEX
  5
98
330
50
100
AcDbEntity
  8
Layer 2
 62
     1
370
    35
100
AcDbVertex
100
AcDb2dVertex
 10
110.9932982915702
 20
88.00640026623452
 30
0.0
  0
VERTEX
  5
99
330
50
100
AcDbEntity
  8
Layer 2
 62
     1
370
    35
100
AcDbVertex
100
AcDb2dVertex
 10
110.9932982915702
 20
88.7092002088587
 30
0.0
  0
VERTEX
  5
9A
330
50
100
AcDbEntity
  8
Layer 2
 62
     1
370
    35
100
AcDbVertex
100
AcDb2dVertex
 10
102.4399818329908
 20
88.7092002088587
 30
0.0
  0
VERTEX
  5
9B
330
50
100
AcDbEntity
  8
Layer 2
 62
     1
370
    35
100
AcDbVertex
100
AcDb2dVertex
 10
102.4399818329908
 20
84.6085003475569
 30
0.0
  0
VERTEX
  5
9C
330
50
100
AcDbEntity
  8
Layer 2
 62
     1
370
    35
100
AcDbVertex
100
AcDb2dVertex
 10
101.3856096641666
 20
84.6085003475569
 30
0.0
  0
VERTEX
  5
9D
330
50
100
AcDbEntity
  8
Layer 2
 62
     1
370
    35
100
AcDbVertex
100
AcDb2dVertex
 10
101.3856096641666
 20
83.90535589515692
 30
0.0
  0
VERTEX
  5
9E
330
50
100
AcDbEntity
  8
Layer 2
 62
     1
370
    35
100
AcDbVertex
100
AcDb2dVertex
 10
102.4399818329908
 20
83.90535589515692
 30
0.0
  0
VERTEX
  5
9F
330
50
100
AcDbEntity
  8
Layer 2
 62
     1
370
    35
100
AcDbVertex
100
AcDb2dVertex
 10
102.4399818329908
 20
66.68193416400325
 30
0.0
  0
VERTEX
  5
A0
330
50
100
AcDbEntity
  8
Layer 2
 62
     1
370
    35
100
AcDbVertex
100
AcDb2dVertex
 10
94.12127653172861
 20
66.68193416400325
 30
0.0
  0
VERTEX
  5
A1
330
50
100
AcDbEntity
  8
Layer 2
 62
     1
370
    35
100
AcDbVertex
100
AcDb2dVertex
 10
94.12127653172861
 20
84.02248921892762
 30
0.0
  0
VERTEX
  5
A2
330
50
100
AcDbEntity
  8
Layer 2
 62
     1
370
    35
100
AcDbVertex
100
AcDb2dVertex
 10
99.04225416920109
 20
84.02248921892762
 30
0.0
  0
VERTEX
  5
A3
330
50
100
AcDbEntity
  8
Layer 2
 62
     1
370
    35
100
AcDbVertex
100
AcDb2dVertex
 10
99.04225416920109
 20
89.99801128011217
 30
0.0
  0
VERTEX
  5
A4
330
50
100
AcDbEntity
  8
Layer 2
 62
     1
370
    35
100
AcDbVertex
100
AcDb2dVertex
 10
98.339281971689
 20
89.99801128011217
 30
0.0
  0
VERTEX
  5
A5
330
50
100
AcDbEntity
  8
Layer 2
 62
     1
370
    35
100
AcDbVertex
100
AcDb2dVertex
 10
98.339281971689
 20
84.7256336713276
 30
0.0
  0
VERTEX
  5
A6
330
50
100
AcDbEntity
  8
Layer 2
 62
     1
370
    35
100
AcDbVertex
100
AcDb2dVertex
 10
94.35554317927001
 20
84.7256336713276
 30
0.0
  0
VERTEX
  5
A7
330
50
100
AcDbEntity
  8
Layer 2
 62
     1
370
    35
100
AcDbVertex
100
AcDb2dVertex
 10
94.35554317927001
 20
121.8675771096884
 30
0.0
  0
VERTEX
  5
A8
330
50
100
AcDbEntity
  8
Layer 2
 62
     1
370
    35
100
AcDbVertex
100
AcDb2dVertex
 10
99.97949301425457
 20
121.8675771096884
 30
0.0
  0
VERTEX
  5
A9
330
50
100
AcDbEntity
  8
Layer 2
 62
     1
370
    35
100
AcDbVertex
100
AcDb2dVertex
 10
99.97949301425457
 20
122.9219492785125
 30
0.0
  0
VERTEX
  5
AA
330
50
100
AcDbEntity
  8
Layer 2
 62
     1
370
    35
100
AcDbVertex
100
AcDb2dVertex
 10
94.23840985549931
 20
122.9219492785125
 30
0.0
  0
VERTEX
  5
AB
330
50
100
AcDbEntity
  8
Layer 2
 62
     1
370
    35
100
AcDbVertex
100
AcDb2dVertex
 10
94.4726765030407
 20
143.1918709570317
 30
0.0
  0
SEQEND
  5
AC
330
50
100
AcDbEntity
  8
Layer 2
370
    35
  0
POLYLINE
  5
AE
330
1F
100
AcDbEntity
  8
Layer 3
 62
     4
370
   106
100
AcDb2dPolyline
 66
     1
 10
0.0
 20
0.0
 30
0.0
  0
VERTEX
  5
AF
330
AE
100
AcDbEntity
  8
Layer 3
 62
     4
370
   106
100
AcDbVertex
100
AcDb2dVertex
 10
108.8692232688989
 20
135.7959350902396
 30
0.0
  0
VERTEX
  5
B0
330
AE
100
AcDbEntity
  8
Layer 3
 62
     4
370
   106
100
AcDbVertex
100
AcDb2dVertex
 10
130.5580084590346
 20
135.7959350902396
 30
0.0
  0
SEQEND
  5
B1
330
AE
100
AcDbEntity
  8
Layer 3
370
   106
  0
POLYLINE
  5
B2
330
1F
100
AcDbEntity
  8
Layer 3
 62
     4
370
   106
100
AcDb2dPolyline
 66
     1
 10
0.0
 20
0.0
 30
0.0
  0
VERTEX
  5
B3
330
B2
100
AcDbEntity
  8
Layer 3
 62
     4
370
   106
100
AcDbVertex
100
AcDb2dVertex
 10
126.1055641166449
 20
131.2265296789671
 30
0.0
  0
VERTEX
  5
B4
330
B2
100
AcDbEntity
  8
Layer 3
 62
     4
370
   106
100
AcDbVertex
100
AcDb2dVertex
 10
103.8443759340239
 20
131.2265296789671
 30
0.0
  0
SEQEND
  5
B5
330
B2
100
AcDbEntity
  8
Layer 3
370
   106
  0
POLYLINE
  5
B6
330
1F
100
AcDbEntity
  8
Layer 3
 62
     4
370
   106
100
AcDb2dPolyline
 66
     1
 10
0.0
 20
0.0
 30
0.0
  0
VERTEX
  5
B7
330
B6
100
AcDbEntity
  8
Layer 3
 62
     4
370
   106
100
AcDbVertex
100
AcDb2dVertex
 10
112.9833590114568
 20
132.5153407502206
 30
0.0
  0
VERTEX
  5
B8
330
B6
100
AcDbEntity
  8
Layer 3
 62
     4
370
   106
100
AcDbVertex
100
AcDb2dVertex
 10
112.9833590114568
 20
114.8230412142083
 30
0.0
  0
SEQEND
  5
B9
330
B6
100
AcDbEntity
  8
Layer 3
370
   106
  0
POLYLINE
  5
BA
330
1F
100
AcDbEntity
  8
Layer 3
 62
     4
370
   106
100
AcDb2dPolyline
 66
     1
 10
0.0
 20
0.0
 30
0.0
  0
VERTEX
  5
BB
330
BA
100
AcDbEntity
  8
Layer 3
 62
     4
370
   106
100
AcDbVertex
100
AcDb2dVertex
 10
114.0379034351688
 20
116.3462911878911
 30
0.0
  0
VERTEX
  5
BC
330
BA
100
AcDbEntity
  8
Layer 3
 62
     4
370
   106
100
AcDbVertex
100
AcDb2dVertex
 10
94.46854238573115
 20
116.3462911878911
 30
0.0
  0
SEQEND
  5
BD
330
BA
100
AcDbEntity
  8
Layer 3
370
   106
  0
POLYLINE
  5
BE
330
1F
100
AcDbEntity
  8
Layer 3
 62
     4
370
   106
100
AcDb2dPolyline
 66
     1
 10
0.0
 20
0.0
 30
0.0
  0
VERTEX
  5
BF
330
BE
100
AcDbEntity
  8
Layer 3
 62
     4
370
   106
100
AcDbVertex
100
AcDb2dVertex
 10
95.99420392784448
 20
118.4552077804273
 30
0.0
  0
VERTEX
  5
C0
330
BE
100
AcDbEntity
  8
Layer 3
 62
     4
370
   106
100
AcDbVertex
100
AcDb2dVertex
 10
95.99420392784448
 20
90.56955299815802
 30
0.0
  0
SEQEND
  5
C1
330
BE
100
AcDbEntity
  8
Layer 3
370
   106
  0
POLYLINE
  5
C2
330
1F
100
AcDbEntity
  8
Layer 3
 62
     4
370
   106
100
AcDb2dPolyline
 66
     1
 10
0.0
 20
0.0
 30
0.0
  0
VERTEX
  5
C3
330
C2
100
AcDbEntity
  8
Layer 3
 62
     4
370
   106
100
AcDbVertex
100
AcDb2dVertex
 10
94.47112620904963
 20
92.20976404072357
 30
0.0
  0
VERTEX
  5
C4
330
C2
100
AcDbEntity
  8
Layer 3
 62
     4
370
   106
100
AcDbVertex
100
AcDb2dVertex
 10
113.5691978851981
 20
92.20976404072357
 30
0.0
  0
SEQEND
  5
C5
330
C2
100
AcDbEntity
  8
Layer 3
370
   106
  0
POLYLINE
  5
C6
330
1F
100
AcDbEntity
  8
Layer 3
 62
     4
370
   106
100
AcDb2dPolyline
 66
     1
 10
0.0
 20
0.0
 30
0.0
  0
VERTEX
  5
C7
330
C6
100
AcDbEntity
  8
Layer 3
 62
     4
370
   106
100
AcDbVertex
100
AcDb2dVertex
 10
111.9289868426326
 20
93.61570843574773
 30
0.0
  0
VERTEX
  5
C8
330
C6
100
AcDbEntity
  8
Layer 3
 62
     4
370
   106
100
AcDbVertex
100
AcDb2dVertex
 10
111.9289868426326
 20
77.208774873231
 30
0.0
  0
SEQEND
  5
C9
330
C6
100
AcDbEntity
  8
Layer 3
370
   106
  0
POLYLINE
  5
CA
330
1F
100
AcDbEntity
  8
Layer 3
 62
     4
370
   106
100
AcDb2dPolyline
 66
     1
 10
0.0
 20
0.0
 30
0.0
  0
VERTEX
  5
CB
330
CA
100
AcDbEntity
  8
Layer 3
 62
     4
370
   106
100
AcDbVertex
100
AcDb2dVertex
 10
104.547348131536
 20
79.08704217087171
 30
0.0
  0
VERTEX
  5
CC
330
CA
100
AcDbEntity
  8
Layer 3
 62
     4
370
   106
100
AcDbVertex
100
AcDb2dVertex
 10
112.6319590401447
 20
79.08704217087171
 30
0.0
  0
SEQEND
  5
CD
330
CA
100
AcDbEntity
  8
Layer 3
370
   106
  0
POLYLINE
  5
CE
330
1F
100
AcDbEntity
  8
Layer 3
 62
     4
370
   106
100
AcDb2dPolyline
 66
     1
 10
0.0
 20
0.0
 30
0.0
  0
VERTEX
  5
CF
330
CE
100
AcDbEntity
  8
Layer 3
 62
     4
370
   106
100
AcDbVertex
100
AcDb2dVertex
 10
110.9915757426912
 20
78.03249774715964
 30
0.0
  0
VERTEX
  5
D0
330
CE
100
AcDbEntity
  8
Layer 3
 62
     4
370
   106
100
AcDbVertex
100
AcDb2dVertex
 10
132.1983917564881
 20
78.03249774715964
 30
0.0
  0
SEQEND
  5
D1
330
CE
100
AcDbEntity
  8
Layer 3
370
   106
  0
POLYLINE
  5
D2
330
1F
100
AcDbEntity
  8
Layer 3
 62
     4
370
   106
100
AcDb2dPolyline
 66
     1
 10
0.0
 20
0.0
 30
0.0
  0
VERTEX
  5
D3
330
D2
100
AcDbEntity
  8
Layer 3
 62
     4
370
   106
100
AcDbVertex
100
AcDb2dVertex
 10
123.411325415031
 20
79.55591997573029
 30
0.0
  0
VERTEX
  5
D4
330
D2
100
AcDbEntity
  8
Layer 3
 62
     4
370
   106
100
AcDbVertex
100
AcDb2dVertex
 10
123.411325415031
 20
72.40217448132285
 30
0.0
  0
SEQEND
  5
D5
330
D2
100
AcDbEntity
  8
Layer 3
370
   106
  0
POLYLINE
  5
D6
330
1F
100
AcDbEntity
  8
Layer 3
 62
     4
370
   106
100
AcDb2dPolyline
 66
     1
 10
0.0
 20
0.0
 30
0.0
  0
VERTEX
  5
D7
330
D6
100
AcDbEntity
  8
Layer 3
 62
     4
370
   106
100
AcDbVertex
100
AcDb2dVertex
 10
113.3349312376567
 20
78.96990884710101
 30
0.0
  0
VERTEX
  5
D8
330
D6
100
AcDbEntity
  8
Layer 3
 62
     4
370
   106
100
AcDbVertex
100
AcDb2dVertex
 10
113.3349312376567
 20
73.22624186502728
 30
0.0
  0
SEQEND
  5
D9
330
D6
100
AcDbEntity
  8
Layer 3
370
   106
  0
POLYLINE
  5
DA
330
1F
100
AcDbEntity
  8
Layer 3
 62
     4
370
   106
100
AcDb2dPolyline
 66
     1
 10
0.0
 20
0.0
 30
0.0
  0
VERTEX
  5
DB
330
DA
100
AcDbEntity
  8
Layer 3
 62
     4
370
   106
100
AcDbVertex
100
AcDb2dVertex
 10
100.7980482415463
 20
93.26430846443564
 30
0.0
  0
VERTEX
  5
DC
330
DA
100
AcDbEntity
  8
Layer 3
 62
     4
370
   106
100
AcDbVertex
100
AcDb2dVertex
 10
100.7980482415463
 20
79.2041754946424
 30
0.0
  0
SEQEND
  5
DD
330
DA
100
AcDbEntity
  8
Layer 3
370
   106
  0
POLYLINE
  5
DE
330
1F
100
AcDbEntity
  8
Layer 3
 62
     4
370
   106
100
AcDb2dPolyline
 66
     1
 10
0.0
 20
0.0
 30
0.0
  0
VERTEX
  5
DF
330
DE
100
AcDbEntity
  8
Layer 3
 62
     4
370
   106
100
AcDbVertex
100
AcDb2dVertex
 10
101.2662370268533
 20
115.291746764179
 30
0.0
  0
VERTEX
  5
E0
330
DE
100
AcDbEntity
  8
Layer 3
 62
     4
370
   106
100
AcDbVertex
100
AcDb2dVertex
 10
101.2662370268533
 20
127.1346148169481
 30
0.0
  0
SEQEND
  5
E1
330
DE
100
AcDbEntity
  8
Layer 3
370
   106
  0
POLYLINE
  5
E2
330
1F
100
AcDbEntity
  8
Layer 3
 62
     4
370
   106
100
AcDb2dPolyline
 66
     1
 10
0.0
 20
0.0
 30
0.0
  0
VERTEX
  5
E3
330
E2
100
AcDbEntity
  8
Layer 3
 62
     4
370
   106
100
AcDbVertex
100
AcDb2dVertex
 10
102.2036481267946
 20
122.6732132203877
 30
0.0
  0
VERTEX
  5
E4
330
E2
100
AcDbEntity
  8
Layer 3
 62
     4
370
   106
100
AcDbVertex
100
AcDb2dVertex
 10
95.40784828943941
 20
143.0602682226776
 30
0.0
  0
SEQEND
  5
E5
330
E2
100
AcDbEntity
  8
Layer 3
370
   106
  0
POLYLINE
  5
E6
330
1F
100
AcDbEntity
  8
Layer 3
 62
     4
370
   106
100
AcDb2dPolyline
 66
     1
 10
0.0
 20
0.0
 30
0.0
  0
VERTEX
  5
E7
330
E6
100
AcDbEntity
  8
Layer 3
 62
     4
370
   106
100
AcDbVertex
100
AcDb2dVertex
 10
94.70487609192733
 20
142.3572960251655
 30
0.0
  0
VERTEX
  5
E8
330
E6
100
AcDbEntity
  8
Layer 3
 62
     4
370
   106
100
AcDbVertex
100
AcDb2dVertex
 10
115.4435033204172
 20
134.0384184690154
 30
0.0
  0
SEQEND
  5
E9
330
E6
100
AcDbEntity
  8
Layer 3
370
   106
  0
POLYLINE
  5
EA
330
1F
100
AcDbEntity
  8
Layer 3
 62
     4
370
   106
100
AcDb2dPolyline
 66
     1
 10
0.0
 20
0.0
 30
0.0
  0
VERTEX
  5
EB
330
EA
100
AcDbEntity
  8
Layer 3
 62
     4
370
   106
100
AcDbVertex
100
AcDb2dVertex
 10
116.0293421941586
 20
122.0873743466463
 30
0.0
  0
VERTEX
  5
EC
330
EA
100
AcDbEntity
  8
Layer 3
 62
     4
370
   106
100
AcDbVertex
100
AcDb2dVertex
 10
137.5879026890433
 20
142.9431348989069
 30
0.0
  0
SEQEND
  5
ED
330
EA
100
AcDbEntity
  8
Layer 3
370
   106
  0
POLYLINE
  5
EE
330
1F
100
AcDbEntity
  8
Layer 3
 62
     4
370
   106
100
AcDb2dPolyline
 66
     1
 10
0.0
 20
0.0
 30
0.0
  0
VERTEX
  5
EF
330
EE
100
AcDbEntity
  8
Layer 3
 62
     4
370
   106
100
AcDbVertex
100
AcDb2dVertex
 10
126.4571363428449
 20
88.22619750319247
 30
0.0
  0
VERTEX
  5
F0
330
EE
100
AcDbEntity
  8
Layer 3
 62
     4
370
   106
100
AcDbVertex
100
AcDb2dVertex
 10
136.6506638439899
 20
67.2531313722733
 30
0.0
  0
SEQEND
  5
F1
330
EE
100
AcDbEntity
  8
Layer 3
370
   106
  0
POLYLINE
  5
F2
330
1F
100
AcDbEntity
  8
Layer 3
 62
     4
370
   106
100
AcDb2dPolyline
 66
     1
 10
0.0
 20
0.0
 30
0.0
  0
VERTEX
  5
F3
330
F2
100
AcDbEntity
  8
Layer 3
 62
     4
370
   106
100
AcDbVertex
100
AcDb2dVertex
 10
125.5197252429035
 20
76.27515338082337
 30
0.0
  0
VERTEX
  5
F4
330
F2
100
AcDbEntity
  8
Layer 3
 62
     4
370
   106
100
AcDbVertex
100
AcDb2dVertex
 10
116.0293421941586
 20
67.3706092058198
 30
0.0
  0
SEQEND
  5
F5
330
F2
100
AcDbEntity
  8
Layer 3
370
   106
  0
POLYLINE
  5
F6
330
1F
100
AcDbEntity
  8
Layer 3
 62
     4
370
   106
100
AcDb2dPolyline
 66
     1
 10
0.0
 20
0.0
 30
0.0
  0
VERTEX
  5
F7
330
F6
100
AcDbEntity
  8
Layer 3
 62
     4
370
   106
100
AcDbVertex
100
AcDb2dVertex
 10
114.9747977704465
 20
76.15802005705268
 30
0.0
  0
VERTEX
  5
F8
330
F6
100
AcDbEntity
  8
Layer 3
 62
     4
370
   106
100
AcDbVertex
100
AcDb2dVertex
 10
103.2580202956188
 20
67.2531313722733
 30
0.0
  0
SEQEND
  5
F9
330
F6
100
AcDbEntity
  8
Layer 3
370
   106
  0
POLYLINE
  5
FA
330
1F
100
AcDbEntity
  8
Layer 3
 62
     4
370
   106
100
AcDb2dPolyline
 66
     1
 10
0.0
 20
0.0
 30
0.0
  0
VERTEX
  5
FB
330
FA
100
AcDbEntity
  8
Layer 3
 62
     4
370
   106
100
AcDbVertex
100
AcDb2dVertex
 10
102.2036481267946
 20
83.77375316080278
 30
0.0
  0
VERTEX
  5
FC
330
FA
100
AcDbEntity
  8
Layer 3
 62
     4
370
   106
100
AcDbVertex
100
AcDb2dVertex
 10
94.47060944438593
 20
66.90173140096121
 30
0.0
  0
SEQEND
  5
FD
330
FA
100
AcDbEntity
  8
Layer 3
370
   106
  0
ENDSEC
  0
SECTION
  2
OBJECTS
  0
DICTIONARY
  5
C
330
0
100
AcDbDictionary
281
     1
  3
ACAD_GROUP
350
D
  3
ACAD_LAYOUT
350
1A
  3
ACAD_MLINESTYLE
350
17
  3
ACAD_PLOTSETTINGS
350
19
  3
ACAD_PLOTSTYLENAME
350
E
  3
ACAD_TABLESTYLE
350
FE
  3
ACAD_VISUALSTYLE
350
2A
  0
DICTIONARY
  5
D
102
{ACAD_REACTORS
330
C
102
}
330
C
100
AcDbDictionary
281
     1
  0
DICTIONARY
  5
1A
102
{ACAD_REACTORS
330
C
102
}
330
C
100
AcDbDictionary
281
     1
  3
Layout1
350
1E
  3
Layout2
350
26
  3
Model
350
22
  0
DICTIONARY
  5
17
102
{ACAD_REACTORS
330
C
102
}
330
C
100
AcDbDictionary
281
     1
  3
Standard
350
18
  0
DICTIONARY
  5
19
102
{ACAD_REACTORS
330
C
102
}
330
C
100
AcDbDictionary
281
     1
  0
ACDBDICTIONARYWDFLT
  5
E
102
{ACAD_REACTORS
330
C
102
}
330
C
100
AcDbDictionary
281
     1
  3
Normal
350
F
100
AcDbDictionaryWithDefault
340
F
  0
DICTIONARY
  5
FE
102
{ACAD_REACTORS
330
C
102
}
330
C
100
AcDbDictionary
281
     1
  0
DICTIONARY
  5
2A
102
{ACAD_REACTORS
330
C
102
}
330
C
100
AcDbDictionary
281
     1
  3
2dWireframe
350
2F
  3
3D Hidden
350
31
  3
3dWireframe
350
30
  3
Basic
350
32
  3
Brighten
350
36
  3
ColorChange
350
3A
  3
Conceptual
350
34
  3
Dim
350
35
  3
Facepattern
350
39
  3
Flat
350
2B
  3
FlatWithEdges
350
2C
  3
Gouraud
350
2D
  3
GouraudWithEdges
350
2E
  3
Linepattern
350
38
  3
Realistic
350
33
  3
Thicken
350
37
  0
LAYOUT
  5
1E
102
{ACAD_REACTORS
330
1A
102
}
330
1A
100
AcDbPlotSettings
  1

  2
none_device
  4

  6

 40
0.0
 41
0.0
 42
0.0
 43
0.0
 44
0.0
 45
0.0
 46
0.0
 47
0.0
 48
0.0
 49
0.0
140
0.0
141
0.0
142
1.0
143
1.0
 70
   688
 72
     0
 73
     0
 74
     5
  7

 75
    16
147
1.0
148
0.0
149
0.0
100
AcDbLayout
  1
Layout1
 70
     1
 71
     1
 10
0.0
 20
0.0
 11
12.0
 21
9.0
 12
0.0
 22
0.0
 32
0.0
 14
1.000000000000000E+20
 24
1.000000000000000E+20
 34
1.000000000000000E+20
 15
-1.000000000000000E+20
 25
-1.000000000000000E+20
 35
-1.000000000000000E+20
146
0.0
 13
0.0
 23
0.0
 33
0.0
 16
1.0
 26
0.0
 36
0.0
 17
0.0
 27
1.0
 37
0.0
 76
     0
330
1B
  0
LAYOUT
  5
26
102
{ACAD_REACTORS
330
1A
102
}
330
1A
100
AcDbPlotSettings
  1

  2
none_device
  4

  6

 40
0.0
 41
0.0
 42
0.0
 43
0.0
 44
0.0
 45
0.0
 46
0.0
 47
0.0
 48
0.0
 49
0.0
140
0.0
141
0.0
142
1.0
143
1.0
 70
   688
 72
     0
 73
     0
 74
     5
  7

 75
    16
147
1.0
148
0.0
149
0.0
100
AcDbLayout
  1
Layout2
 70
     1
 71
     2
 10
0.0
 20
0.0
 11
0.0
 21
0.0
 12
0.0
 22
0.0
 32
0.0
 14
0.0
 24
0.0
 34
0.0
 15
0.0
 25
0.0
 35
0.0
146
0.0
 13
0.0
 23
0.0
 33
0.0
 16
1.0
 26
0.0
 36
0.0
 17
0.0
 27
1.0
 37
0.0
 76
     0
330
23
  0
LAYOUT
  5
22
102
{ACAD_REACTORS
330
1A
102
}
330
1A
100
AcDbPlotSettings
  1

  2
none_device
  4

  6

 40
0.0
 41
0.0
 42
0.0
 43
0.0
 44
0.0
 45
0.0
 46
0.0
 47
0.0
 48
0.0
 49
0.0
140
0.0
141
0.0
142
1.0
143
1.0
 70
  1712
 72
     0
 73
     0
 74
     0
  7

 75
     0
147
1.0
148
0.0
149
0.0
100
AcDbLayout
  1
Model
 70
     1
 71
     0
 10
0.0
 20
0.0
 11
12.0
 21
9.0
 12
0.0
 22
0.0
 32
0.0
 14
1.000000000000000E+20
 24
1.000000000000000E+20
 34
1.000000000000000E+20
 15
-1.000000000000000E+20
 25
-1.000000000000000E+20
 35
-1.000000000000000E+20
146
0.0
 13
0.0
 23
0.0
 33
0.0
 16
1.0
 26
0.0
 36
0.0
 17
0.0
 27
1.0
 37
0.0
 76
     0
330
1F
331
29
  0
MLINESTYLE
  5
18
102
{ACAD_REACTORS
330
17
102
}
330
17
100
AcDbMlineStyle
  2
Standard
 70
     0
  3

 62
   256
 51
90.0
 52
90.0
 71
     2
 49
0.5
 62
   256
  6
BYLAYER
 49
-0.5
 62
   256
  6
BYLAYER
  0
ACDBPLACEHOLDER
  5
F
102
{ACAD_REACTORS
330
E
102
}
330
E
  0
VISUALSTYLE
  5
2F
102
{ACAD_REACTORS
330
2A
102
}
330
2A
100
AcDbVisualStyle
  2
2dWireframe
 70
     4
 71
     0
 72
     2
 73
     0
 90
        0
 40
-0.6
 41
-30.0
 62
     5
 63
     7
 74
     1
 91
        4
 64
     7
 65
   257
 75
     1
175
     1
 42
1.0
 92
        0
 66
   257
 43
1.0
 76
     1
 77
     6
 78
     2
 67
     7
 79
     5
170
     0
171
     0
290
     0
174
     0
 93
        1
 44
0.0
173
     0
291
     0
 45
0.0
1001
ACAD
1000
AcDbSavedByObjectVersion
1070
     0
  0
VISUALSTYLE
  5
31
102
{ACAD_REACTORS
330
2A
102
}
330
2A
100
AcDbVisualStyle
  2
3D Hidden
 70
     6
 71
     1
 72
     2
 73
     2
 90
        0
 40
-0.6
 41
-30.0
 62
     5
 63
     7
 74
     2
 91
        2
 64
     7
 65
   257
 75
     2
175
     1
 42
40.0
 92
        0
 66
   257
 43
1.0
 76
     1
 77
     6
 78
     2
 67
     7
 79
     3
170
     0
171
     0
290
     0
174
     0
 93
        1
 44
0.0
173
     0
291
     0
 45
0.0
1001
ACAD
1000
AcDbSavedByObjectVersion
1070
     0
  0
VISUALSTYLE
  5
30
102
{ACAD_REACTORS
330
2A
102
}
330
2A
100
AcDbVisualStyle
  2
3dWireframe
 70
     5
 71
     0
 72
     2
 73
     0
 90
        0
 40
-0.6
 41
-30.0
 62
     5
 63
     7
 74
     1
 91
        4
 64
     7
 65
   257
 75
     1
175
     1
 42
1.0
 92
        0
 66
   257
 43
1.0
 76
     1
 77
     6
 78
     2
 67
     7
 79
     5
170
     0
171
     0
290
     0
174
     0
 93
        1
 44
0.0
173
     0
291
     0
 45
0.0
1001
ACAD
1000
AcDbSavedByObjectVersion
1070
     0
  0
VISUALSTYLE
  5
32
102
{ACAD_REACTORS
330
2A
102
}
330
2A
100
AcDbVisualStyle
  2
Basic
 70
     7
 71
     1
 72
     0
 73
     1
 90
        0
 40
-0.6
 41
-30.0
 62
     5
 63
     7
 74
     0
 91
        4
 64
     7
 65
   257
 75
     1
175
     1
 42
1.0
 92
        8
 66
     7
 43
1.0
 76
     1
 77
     6
 78
     2
 67
     7
 79
     5
170
     0
171
     0
290
     0
174
     0
 93
        1
 44
0.0
173
     0
291
     1
 45
0.0
1001
ACAD
1000
AcDbSavedByObjectVersion
1070
     0
  0
VISUALSTYLE
  5
36
102
{ACAD_REACTORS
330
2A
102
}
330
2A
100
AcDbVisualStyle
  2
Brighten
 70
    12
 71
     2
 72
     2
 73
     0
 90
        0
 40
-0.6
 41
-30.0
 62
     5
 63
     7
 74
     1
 91
        4
 64
     7
 65
   257
 75
     1
175
     1
 42
1.0
 92
        8
 66
     7
 43
1.0
 76
     1
 77
     6
 78
     2
 67
     7
 79
     5
170
     0
171
     0
290
     0
174
     0
 93
        1
 44
50.0
173
     0
291
     1
 45
0.0
1001
ACAD
1000
AcDbSavedByObjectVersion
1070
     0
  0
VISUALSTYLE
  5
3A
102
{ACAD_REACTORS
330
2A
102
}
330
2A
100
AcDbVisualStyle
  2
ColorChange
 70
    16
 71
     2
 72
     2
 73
     3
 90
        0
 40
-0.6
 41
-30.0
 62
     5
 63
     8
 74
     1
 91
        4
 64
     7
 65
   257
 75
     1
175
     1
 42
1.0
 92
        8
 66
     8
 43
1.0
 76
     1
 77
     6
 78
     2
 67
     7
 79
     5
170
     0
171
     0
290
     0
174
     0
 93
        1
 44
0.0
173
     0
291
     1
 45
0.0
1001
ACAD
1000
AcDbSavedByObjectVersion
1070
     0
  0
VISUALSTYLE
  5
34
102
{ACAD_REACTORS
330
2A
102
}
330
2A
100
AcDbVisualStyle
  2
Conceptual
 70
     9
 71
     3
 72
     2
 73
     0
 90
        0
 40
-0.6
 41
-30.0
 62
     5
 63
     7
 74
     2
 91
        2
 64
     7
 65
   257
 75
     1
175
     1
 42
40.0
 92
        8
 66
     7
 43
1.0
 76
     1
 77
     6
 78
     2
 67
     7
 79
     3
170
     0
171
     0
290
     0
174
     0
 93
        1
 44
0.0
173
     0
291
     0
 45
0.0
1001
ACAD
1000
AcDbSavedByObjectVersion
1070
     0
  0
VISUALSTYLE
  5
35
102
{ACAD_REACTORS
330
2A
102
}
330
2A
100
AcDbVisualStyle
  2
Dim
 70
    11
 71
     2
 72
     2
 73
     0
 90
        0
 40
-0.6
 41
-30.0
 62
     5
 63
     7
 74
     1
 91
        4
 64
     7
 65
   257
 75
     1
175
     1
 42
1.0
 92
        8
 66
     7
 43
1.0
 76
     1
 77
     6
 78
     2
 67
     7
 79
     5
170
     0
171
     0
290
     0
174
     0
 93
        1
 44
-50.0
173
     0
291
     1
 45
0.0
1001
ACAD
1000
AcDbSavedByObjectVersion
1070
     0
  0
VISUALSTYLE
  5
39
102
{ACAD_REACTORS
330
2A
102
}
330
2A
100
AcDbVisualStyle
  2
Facepattern
 70
    15
 71
     2
 72
     2
 73
     0
 90
        0
 40
-0.6
 41
-30.0
 62
     5
 63
     7
 74
     1
 91
        4
 64
     7
 65
   257
 75
     1
175
     1
 42
1.0
 92
        8
 66
     7
 43
1.0
 76
     1
 77
     6
 78
     2
 67
     7
 79
     5
170
     0
171
     0
290
     0
174
     0
 93
        1
 44
0.0
173
     0
291
     1
 45
0.0
1001
ACAD
1000
AcDbSavedByObjectVersion
1070
     0
  0
VISUALSTYLE
  5
2B
102
{ACAD_REACTORS
330
2A
102
}
330
2A
100
AcDbVisualStyle
  2
Flat
 70
     0
 71
     2
 72
     1
 73
     1
 90
        2
 40
-0.6
 41
30.0
 62
     5
 63
     7
 74
     0
 91
        4
 64
     7
 65
   257
 75
     1
175
     1
 42
1.0
 92
        8
 66
     7
 43
1.0
 76
     1
 77
     6
 78
     2
 67
     7
 79
     5
170
     0
171
     0
290
     0
174
     0
 93
       13
 44
0.0
173
     0
291
     1
 45
0.0
1001
ACAD
1000
AcDbSavedByObjectVersion
1070
     0
  0
VISUALSTYLE
  5
2C
102
{ACAD_REACTORS
330
2A
102
}
330
2A
100
AcDbVisualStyle
  2
FlatWithEdges
 70
     1
 71
     2
 72
     1
 73
     1
 90
        2
 40
-0.6
 41
30.0
 62
     5
 63
     7
 74
     1
 91
        4
 64
     7
 65
   257
 75
     1
175
     1
 42
1.0
 92
        0
 66
   257
 43
1.0
 76
     1
 77
     6
 78
     2
 67
     7
 79
     5
170
     0
171
     0
290
     0
174
     0
 93
       13
 44
0.0
173
     0
291
     1
 45
0.0
1001
ACAD
1000
AcDbSavedByObjectVersion
1070
     0
  0
VISUALSTYLE
  5
2D
102
{ACAD_REACTORS
330
2A
102
}
330
2A
100
AcDbVisualStyle
  2
Gouraud
 70
     2
 71
     2
 72
     2
 73
     1
 90
        2
 40
-0.6
 41
30.0
 62
     5
 63
     7
 74
     0
 91
        4
 64
     7
 65
   257
 75
     1
175
     1
 42
1.0
 92
        0
 66
     7
 43
1.0
 76
     1
 77
     6
 78
     2
 67
     7
 79
     5
170
     0
171
     0
290
     0
174
     0
 93
       13
 44
0.0
173
     0
291
     1
 45
0.0
1001
ACAD
1000
AcDbSavedByObjectVersion
1070
     0
  0
VISUALSTYLE
  5
2E
102
{ACAD_REACTORS
330
2A
102
}
330
2A
100
AcDbVisualStyle
  2
GouraudWithEdges
 70
     3
 71
     2
 72
     2
 73
     1
 90
        2
 40
-0.6
 41
30.0
 62
     5
 63
     7
 74
     1
 91
        4
 64
     7
 65
   257
 75
     1
175
     1
 42
1.0
 92
        0
 66
   257
 43
1.0
 76
     1
 77
     6
 78
     2
 67
     7
 79
     5
170
     0
171
     0
290
     0
174
     0
 93
       13
 44
0.0
173
     0
291
     1
 45
0.0
1001
ACAD
1000
AcDbSavedByObjectVersion
1070
     0
  0
VISUALSTYLE
  5
38
102
{ACAD_REACTORS
330
2A
102
}
330
2A
100
AcDbVisualStyle
  2
Linepattern
 70
    14
 71
     2
 72
     2
 73
     0
 90
        0
 40
-0.6
 41
-30.0
 62
     5
 63
     7
 74
     1
 91
        4
 64
     7
 65
   257
 75
     7
175
     7
 42
1.0
 92
        8
 66
     7
 43
1.0
 76
     1
 77
     6
 78
     2
 67
     7
 79
     5
170
     0
171
     0
290
     0
174
     0
 93
        1
 44
0.0
173
     0
291
     1
 45
0.0
1001
ACAD
1000
AcDbSavedByObjectVersion
1070
     0
  0
VISUALSTYLE
  5
33
102
{ACAD_REACTORS
330
2A
102
}
330
2A
100
AcDbVisualStyle
  2
Realistic
 70
     8
 71
     2
 72
     2
 73
     0
 90
        0
 40
-0.6
 41
-30.0
 62
     5
 63
     7
 74
     1
 91
        0
 64
     7
 65
   257
 75
     1
175
     1
 42
1.0
 92
        8
 66
     8
 43
1.0
 76
     1
 77
     6
 78
     2
 67
     7
 79
     5
170
     0
171
     0
290
     0
174
     0
 93
       13
 44
0.0
173
     0
291
     0
 45
0.0
1001
ACAD
1000
AcDbSavedByObjectVersion
1070
     0
  0
VISUALSTYLE
  5
37
102
{ACAD_REACTORS
330
2A
102
}
330
2A
100
AcDbVisualStyle
  2
Thicken
 70
    13
 71
     2
 72
     2
 73
     0
 90
        0
 40
-0.6
 41
-30.0
 62
     5
 63
     7
 74
     1
 91
        4
 64
     7
 65
   257
 75
     1
175
     1
 42
1.0
 92
       12
 66
     7
 43
1.0
 76
     1
 77
     6
 78
     2
 67
     7
 79
     5
170
     0
171
     0
290
     0
174
     0
 93
        1
 44
0.0
173
     0
291
     1
 45
0.0
1001
ACAD
1000
AcDbSavedByObjectVersion
1070
     0
  0
ENDSEC
  0
EOF
