  0
SECTION
  2
HEADER
  9
$ACADVER
  1
AC1015
  9
$ACADMAINTVER
 70
     6
  9
$DWGCODEPAGE
  3
ASCII
  9
$INSBASE
 10
0.0
 20
0.0
 30
0.0
  9
$EXTMIN
 10
1.000000000000000E+20
 20
1.000000000000000E+20
 30
1.000000000000000E+20
  9
$EXTMAX
 10
-1.000000000000000E+20
 20
-1.000000000000000E+20
 30
-1.000000000000000E+20
  9
$LIMMIN
 10
0.0
 20
0.0
  9
$LIMMAX
 10
12.0
 20
9.0
  9
$ORTHOMODE
 70
     0
  9
$REGENMODE
 70
     1
  9
$FILLMODE
 70
     1
  9
$QTEXTMODE
 70
     0
  9
$MIRRTEXT
 70
     1
  9
$LTSCALE
 40
1.0
  9
$ATTMODE
 70
     1
  9
$TEXTSIZE
 40
0.2
  9
$TRACEWID
 40
0.05
  9
$TEXTSTYLE
  7
Standard
  9
$CLAYER
  8
0
  9
$CELTYPE
  6
ByLayer
  9
$CECOLOR
 62
   256
  9
$CELTSCALE
 40
1.0
  9
$DISPSILH
 70
     0
  9
$DIMSCALE
 40
1.0
  9
$DIMASZ
 40
0.18
  9
$DIMEXO
 40
0.0625
  9
$DIMDLI
 40
0.38
  9
$DIMRND
 40
0.0
  9
$DIMDLE
 40
0.0
  9
$DIMEXE
 40
0.18
  9
$DIMTP
 40
0.0
  9
$DIMTM
 40
0.0
  9
$DIMTXT
 40
0.18
  9
$DIMCEN
 40
0.09
  9
$DIMTSZ
 40
0.0
  9
$DIMTOL
 70
     0
  9
$DIMLIM
 70
     0
  9
$DIMTIH
 70
     1
  9
$DIMTOH
 70
     1
  9
$DIMSE1
 70
     0
  9
$DIMSE2
 70
     0
  9
$DIMTAD
 70
     0
  9
$DIMZIN
 70
     0
  9
$DIMBLK
  1

  9
$DIMASO
 70
     1
  9
$DIMSHO
 70
     1
  9
$DIMPOST
  1

  9
$DIMAPOST
  1

  9
$DIMALT
 70
     0
  9
$DIMALTD
 70
     2
  9
$DIMALTF
 40
25.4
  9
$DIMLFAC
 40
1.0
  9
$DIMTOFL
 70
     0
  9
$DIMTVP
 40
0.0
  9
$DIMTIX
 70
     0
  9
$DIMSOXD
 70
     0
  9
$DIMSAH
 70
     0
  9
$DIMBLK1
  1

  9
$DIMBLK2
  1

  9
$DIMSTYLE
  2
Standard
  9
$DIMCLRD
 70
     0
  9
$DIMCLRE
 70
     0
  9
$DIMCLRT
 70
     0
  9
$DIMTFAC
 40
1.0
  9
$DIMGAP
 40
0.09
  9
$DIMJUST
 70
     0
  9
$DIMSD1
 70
     0
  9
$DIMSD2
 70
     0
  9
$DIMTOLJ
 70
     1
  9
$DIMTZIN
 70
     0
  9
$DIMALTZ
 70
     0
  9
$DIMALTTZ
 70
     0
  9
$DIMUPT
 70
     0
  9
$DIMDEC
 70
     4
  9
$DIMTDEC
 70
     4
  9
$DIMALTU
 70
     2
  9
$DIMALTTD
 70
     2
  9
$DIMTXSTY
  7
Standard
  9
$DIMAUNIT
 70
     0
  9
$DIMADEC
 70
     0
  9
$DIMALTRND
 40
0.0
  9
$DIMAZIN
 70
     0
  9
$DIMDSEP
 70
    46
  9
$DIMATFIT
 70
     3
  9
$DIMFRAC
 70
     0
  9
$DIMLDRBLK
  1

  9
$DIMLUNIT
 70
     2
  9
$DIMLWD
 70
    -2
  9
$DIMLWE
 70
    -2
  9
$DIMTMOVE
 70
     0
  9
$LUNITS
 70
     2
  9
$LUPREC
 70
     4
  9
$SKETCHINC
 40
0.1
  9
$FILLETRAD
 40
0.5
  9
$AUNITS
 70
     0
  9
$AUPREC
 70
     0
  9
$MENU
  1
.
  9
$ELEVATION
 40
0.0
  9
$PELEVATION
 40
0.0
  9
$THICKNESS
 40
0.0
  9
$LIMCHECK
 70
     0
  9
$CHAMFERA
 40
0.5
  9
$CHAMFERB
 40
0.5
  9
$CHAMFERC
 40
1.0
  9
$CHAMFERD
 40
0.0
  9
$SKPOLY
 70
     0
  9
$TDCREATE
 40
2456040.666840278
  9
$TDUCREATE
 40
2456040.250173611
  9
$TDUPDATE
 40
2456040.666840289
  9
$TDUUPDATE
 40
2456040.250173623
  9
$TDINDWG
 40
0.0000000116
  9
$TDUSRTIMER
 40
0.0000000116
  9
$USRTIMER
 70
     1
  9
$ANGBASE
 50
0.0
  9
$ANGDIR
 70
     0
  9
$PDMODE
 70
     0
  9
$PDSIZE
 40
0.0
  9
$PLINEWID
 40
0.0
  9
$SPLFRAME
 70
     0
  9
$SPLINETYPE
 70
     6
  9
$SPLINESEGS
 70
     8
  9
$HANDSEED
  5
1CE
  9
$SURFTAB1
 70
     6
  9
$SURFTAB2
 70
     6
  9
$SURFTYPE
 70
     6
  9
$SURFU
 70
     6
  9
$SURFV
 70
     6
  9
$UCSBASE
  2

  9
$UCSNAME
  2

  9
$UCSORG
 10
0.0
 20
0.0
 30
0.0
  9
$UCSXDIR
 10
1.0
 20
0.0
 30
0.0
  9
$UCSYDIR
 10
0.0
 20
1.0
 30
0.0
  9
$UCSORTHOREF
  2

  9
$UCSORTHOVIEW
 70
     0
  9
$UCSORGTOP
 10
0.0
 20
0.0
 30
0.0
  9
$UCSORGBOTTOM
 10
0.0
 20
0.0
 30
0.0
  9
$UCSORGLEFT
 10
0.0
 20
0.0
 30
0.0
  9
$UCSORGRIGHT
 10
0.0
 20
0.0
 30
0.0
  9
$UCSORGFRONT
 10
0.0
 20
0.0
 30
0.0
  9
$UCSORGBACK
 10
0.0
 20
0.0
 30
0.0
  9
$PUCSBASE
  2

  9
$PUCSNAME
  2

  9
$PUCSORG
 10
0.0
 20
0.0
 30
0.0
  9
$PUCSXDIR
 10
1.0
 20
0.0
 30
0.0
  9
$PUCSYDIR
 10
0.0
 20
1.0
 30
0.0
  9
$PUCSORTHOREF
  2

  9
$PUCSORTHOVIEW
 70
     0
  9
$PUCSORGTOP
 10
0.0
 20
0.0
 30
0.0
  9
$PUCSORGBOTTOM
 10
0.0
 20
0.0
 30
0.0
  9
$PUCSORGLEFT
 10
0.0
 20
0.0
 30
0.0
  9
$PUCSORGRIGHT
 10
0.0
 20
0.0
 30
0.0
  9
$PUCSORGFRONT
 10
0.0
 20
0.0
 30
0.0
  9
$PUCSORGBACK
 10
0.0
 20
0.0
 30
0.0
  9
$USERI1
 70
     0
  9
$USERI2
 70
     0
  9
$USERI3
 70
     0
  9
$USERI4
 70
     0
  9
$USERI5
 70
     0
  9
$USERR1
 40
0.0
  9
$USERR2
 40
0.0
  9
$USERR3
 40
0.0
  9
$USERR4
 40
0.0
  9
$USERR5
 40
0.0
  9
$WORLDVIEW
 70
     1
  9
$SHADEDGE
 70
     3
  9
$SHADEDIF
 70
    70
  9
$TILEMODE
 70
     1
  9
$MAXACTVP
 70
    64
  9
$PINSBASE
 10
0.0
 20
0.0
 30
0.0
  9
$PLIMCHECK
 70
     0
  9
$PEXTMIN
 10
1.000000000000000E+20
 20
1.000000000000000E+20
 30
1.000000000000000E+20
  9
$PEXTMAX
 10
-1.000000000000000E+20
 20
-1.000000000000000E+20
 30
-1.000000000000000E+20
  9
$PLIMMIN
 10
0.0
 20
0.0
  9
$PLIMMAX
 10
12.0
 20
9.0
  9
$UNITMODE
 70
     0
  9
$VISRETAIN
 70
     1
  9
$PLINEGEN
 70
     0
  9
$PSLTSCALE
 70
     1
  9
$TREEDEPTH
 70
  3020
  9
$CMLSTYLE
  2
Standard
  9
$CMLJUST
 70
     0
  9
$CMLSCALE
 40
1.0
  9
$PROXYGRAPHICS
 70
     1
  9
$MEASUREMENT
 70
     0
  9
$CELWEIGHT
370
    -1
  9
$ENDCAPS
280
     0
  9
$JOINSTYLE
280
     0
  9
$LWDISPLAY
290
     1
  9
$INSUNITS
 70
     1
  9
$HYPERLINKBASE
  1

  9
$STYLESHEET
  1

  9
$XEDIT
290
     1
  9
$CEPSNTYPE
380
     0
  9
$PSTYLEMODE
290
     1
  9
$FINGERPRINTGUID
  2
{C95F4BA2-3502-B51F-75F2-D2011D7C09C3}
  9
$VERSIONGUID
  2
{FAEB1C32-E019-11D5-929B-00C0DF256EC4}
  9
$EXTNAMES
290
     1
  9
$PSVPSCALE
 40
0.0
  9
$OLESTARTUP
290
     0
  0
ENDSEC
  0
SECTION
  2
CLASSES
  0
CLASS
  1
ACDBDICTIONARYWDFLT
  2
AcDbDictionaryWithDefault
  3
ObjectDBX Classes
 90
        0
280
     0
281
     0
  0
CLASS
  1
VISUALSTYLE
  2
AcDbVisualStyle
  3
ObjectDBX Classes
 90
     4095
280
     0
281
     0
  0
CLASS
  1
ACDBPLACEHOLDER
  2
AcDbPlaceHolder
  3
ObjectDBX Classes
 90
        0
280
     0
281
     0
  0
CLASS
  1
LAYOUT
  2
AcDbLayout
  3
ObjectDBX Classes
 90
        0
280
     0
281
     0
  0
ENDSEC
  0
SECTION
  2
TABLES
  0
TABLE
  2
VPORT
  5
8
330
0
100
AcDbSymbolTable
 70
     1
  0
VPORT
  5
29
330
8
100
AcDbSymbolTableRecord
100
AcDbViewportTableRecord
  2
*Active
 70
     0
 10
0.0
 20
0.0
 11
1.0
 21
1.0
 12
0.0
 22
0.0
 13
0.0
 23
0.0
 14
0.5
 24
0.5
 15
0.5
 25
0.5
 16
0.0
 26
0.0
 36
1.0
 17
145.7565739829463
 27
97.65405202763043
 37
0.0
 40
144.6137385938932
 41
1.276277166517631
 42
50.0
 43
0.0
 44
0.0
 50
0.0
 51
0.0
 71
     0
 72
   100
 73
     1
 74
     3
 75
     0
 76
     0
 77
     0
 78
     0
281
     0
 65
     1
110
0.0
120
0.0
130
0.0
111
1.0
121
0.0
131
0.0
112
0.0
122
1.0
132
0.0
 79
     0
146
0.0
  0
ENDTAB
  0
TABLE
  2
LTYPE
  5
5
330
0
100
AcDbSymbolTable
 70
     1
  0
LTYPE
  5
14
330
5
100
AcDbSymbolTableRecord
100
AcDbLinetypeTableRecord
  2
ByBlock
 70
     0
  3

 72
    65
 73
     0
 40
0.0
  0
LTYPE
  5
15
330
5
100
AcDbSymbolTableRecord
100
AcDbLinetypeTableRecord
  2
ByLayer
 70
     0
  3

 72
    65
 73
     0
 40
0.0
  0
LTYPE
  5
16
330
5
100
AcDbSymbolTableRecord
100
AcDbLinetypeTableRecord
  2
Continuous
 70
     0
  3
Solid line
 72
    65
 73
     0
 40
0.0
  0
ENDTAB
  0
TABLE
  2
LAYER
  5
2
330
0
100
AcDbSymbolTable
 70
     4
  0
LAYER
  5
10
330
2
100
AcDbSymbolTableRecord
100
AcDbLayerTableRecord
  2
0
 70
     0
 62
     7
  6
Continuous
370
    -3
390
F
  0
LAYER
  5
3B
330
2
100
AcDbSymbolTableRecord
100
AcDbLayerTableRecord
  2
Layer 1
 70
     4
 62
     7
  6
Continuous
370
    -3
390
F
  0
LAYER
  5
3C
330
2
100
AcDbSymbolTableRecord
100
AcDbLayerTableRecord
  2
Layer 2
 70
     0
 62
     7
  6
Continuous
370
    -3
390
F
  0
LAYER
  5
74
330
2
100
AcDbSymbolTableRecord
100
AcDbLayerTableRecord
  2
Layer 3
 70
     0
 62
     7
  6
Continuous
370
    -3
390
F
  0
ENDTAB
  0
TABLE
  2
STYLE
  5
3
330
0
100
AcDbSymbolTable
 70
     1
  0
STYLE
  5
11
330
3
100
AcDbSymbolTableRecord
100
AcDbTextStyleTableRecord
  2
Standard
 70
     0
 40
0.0
 41
1.0
 50
0.0
 71
     0
 42
0.2
  3
txt
  4

  0
ENDTAB
  0
TABLE
  2
VIEW
  5
6
330
0
100
AcDbSymbolTable
 70
     0
  0
ENDTAB
  0
TABLE
  2
UCS
  5
7
330
0
100
AcDbSymbolTable
 70
     0
  0
ENDTAB
  0
TABLE
  2
APPID
  5
9
330
0
100
AcDbSymbolTable
 70
     1
  0
APPID
  5
12
330
9
100
AcDbSymbolTableRecord
100
AcDbRegAppTableRecord
  2
ACAD
 70
     0
  0
ENDTAB
  0
TABLE
  2
DIMSTYLE
  5
A
330
0
100
AcDbSymbolTable
 70
     1
100
AcDbDimStyleTable
  0
DIMSTYLE
105
27
330
A
100
AcDbSymbolTableRecord
100
AcDbDimStyleTableRecord
  2
Standard
 70
     0
340
11
  0
ENDTAB
  0
TABLE
  2
BLOCK_RECORD
  5
1
330
0
100
AcDbSymbolTable
 70
     1
  0
BLOCK_RECORD
  5
1F
330
1
100
AcDbSymbolTableRecord
100
AcDbBlockTableRecord
  2
*Model_Space
340
22
  0
BLOCK_RECORD
  5
1B
330
1
100
AcDbSymbolTableRecord
100
AcDbBlockTableRecord
  2
*Paper_Space
340
1E
  0
BLOCK_RECORD
  5
23
330
1
100
AcDbSymbolTableRecord
100
AcDbBlockTableRecord
  2
*Paper_Space0
340
26
  0
ENDTAB
  0
ENDSEC
  0
SECTION
  2
BLOCKS
  0
BLOCK
  5
20
330
1F
100
AcDbEntity
  8
0
100
AcDbBlockBegin
  2
*Model_Space
 70
     0
 71
     0
 10
0.0
 20
0.0
 30
0.0
  3
*Model_Space
  1

  0
ENDBLK
  5
21
330
1F
100
AcDbEntity
  8
0
100
AcDbBlockEnd
  0
BLOCK
  5
1C
330
1B
100
AcDbEntity
 67
     1
  8
0
100
AcDbBlockBegin
  2
*Paper_Space
 70
     0
 71
     0
 10
0.0
 20
0.0
 30
0.0
  3
*Paper_Space
  1

  0
ENDBLK
  5
1D
330
1B
100
AcDbEntity
 67
     1
  8
0
100
AcDbBlockEnd
  0
BLOCK
  5
24
330
23
100
AcDbEntity
  8
0
100
AcDbBlockBegin
  2
*Paper_Space0
 70
     0
 71
     0
 10
0.0
 20
0.0
 30
0.0
  3
*Paper_Space0
  1

  0
ENDBLK
  5
25
330
23
100
AcDbEntity
  8
0
100
AcDbBlockEnd
  0
ENDSEC
  0
SECTION
  2
ENTITIES
  0
SPLINE
  5
3D
330
1F
100
AcDbEntity
  8
Layer 2
 62
     1
370
    35
100
AcDbSpline
210
0.0
220
0.0
230
1.0
 70
    11
 71
     3
 72
  1532
 73
  1528
 74
     0
 42
0.0000000001
 43
0.0000000001
 40
0.0
 40
0.0
 40
0.0
 40
0.0
 40
1.0
 40
1.0
 40
1.0
 40
2.0
 40
2.0
 40
2.0
 40
3.0
 40
3.0
 40
3.0
 40
4.0
 40
4.0
 40
4.0
 40
5.0
 40
5.0
 40
5.0
 40
6.0
 40
6.0
 40
6.0
 40
7.0
 40
7.0
 40
7.0
 40
8.0
 40
8.0
 40
8.0
 40
9.0
 40
9.0
 40
9.0
 40
10.0
 40
10.0
 40
10.0
 40
11.0
 40
11.0
 40
11.0
 40
12.0
 40
12.0
 40
12.0
 40
13.0
 40
13.0
 40
13.0
 40
14.0
 40
14.0
 40
14.0
 40
15.0
 40
15.0
 40
15.0
 40
16.0
 40
16.0
 40
16.0
 40
17.0
 40
17.0
 40
17.0
 40
18.0
 40
18.0
 40
18.0
 40
19.0
 40
19.0
 40
19.0
 40
20.0
 40
20.0
 40
20.0
 40
21.0
 40
21.0
 40
21.0
 40
22.0
 40
22.0
 40
22.0
 40
23.0
 40
23.0
 40
23.0
 40
24.0
 40
24.0
 40
24.0
 40
25.0
 40
25.0
 40
25.0
 40
26.0
 40
26.0
 40
26.0
 40
27.0
 40
27.0
 40
27.0
 40
28.0
 40
28.0
 40
28.0
 40
29.0
 40
29.0
 40
29.0
 40
30.0
 40
30.0
 40
30.0
 40
31.0
 40
31.0
 40
31.0
 40
32.0
 40
32.0
 40
32.0
 40
33.0
 40
33.0
 40
33.0
 40
34.0
 40
34.0
 40
34.0
 40
35.0
 40
35.0
 40
35.0
 40
36.0
 40
36.0
 40
36.0
 40
37.0
 40
37.0
 40
37.0
 40
38.0
 40
38.0
 40
38.0
 40
39.0
 40
39.0
 40
39.0
 40
40.0
 40
40.0
 40
40.0
 40
41.0
 40
41.0
 40
41.0
 40
42.0
 40
42.0
 40
42.0
 40
43.0
 40
43.0
 40
43.0
 40
44.0
 40
44.0
 40
44.0
 40
45.0
 40
45.0
 40
45.0
 40
46.0
 40
46.0
 40
46.0
 40
47.0
 40
47.0
 40
47.0
 40
48.0
 40
48.0
 40
48.0
 40
49.0
 40
49.0
 40
49.0
 40
50.0
 40
50.0
 40
50.0
 40
51.0
 40
51.0
 40
51.0
 40
52.0
 40
52.0
 40
52.0
 40
53.0
 40
53.0
 40
53.0
 40
54.0
 40
54.0
 40
54.0
 40
55.0
 40
55.0
 40
55.0
 40
56.0
 40
56.0
 40
56.0
 40
57.0
 40
57.0
 40
57.0
 40
58.0
 40
58.0
 40
58.0
 40
59.0
 40
59.0
 40
59.0
 40
60.0
 40
60.0
 40
60.0
 40
61.0
 40
61.0
 40
61.0
 40
62.0
 40
62.0
 40
62.0
 40
63.0
 40
63.0
 40
63.0
 40
64.0
 40
64.0
 40
64.0
 40
65.0
 40
65.0
 40
65.0
 40
66.0
 40
66.0
 40
66.0
 40
67.0
 40
67.0
 40
67.0
 40
68.0
 40
68.0
 40
68.0
 40
69.0
 40
69.0
 40
69.0
 40
70.0
 40
70.0
 40
70.0
 40
71.0
 40
71.0
 40
71.0
 40
72.0
 40
72.0
 40
72.0
 40
73.0
 40
73.0
 40
73.0
 40
74.0
 40
74.0
 40
74.0
 40
75.0
 40
75.0
 40
75.0
 40
76.0
 40
76.0
 40
76.0
 40
77.0
 40
77.0
 40
77.0
 40
78.0
 40
78.0
 40
78.0
 40
79.0
 40
79.0
 40
79.0
 40
80.0
 40
80.0
 40
80.0
 40
81.0
 40
81.0
 40
81.0
 40
82.0
 40
82.0
 40
82.0
 40
83.0
 40
83.0
 40
83.0
 40
84.0
 40
84.0
 40
84.0
 40
85.0
 40
85.0
 40
85.0
 40
86.0
 40
86.0
 40
86.0
 40
87.0
 40
87.0
 40
87.0
 40
88.0
 40
88.0
 40
88.0
 40
89.0
 40
89.0
 40
89.0
 40
90.0
 40
90.0
 40
90.0
 40
91.0
 40
91.0
 40
91.0
 40
92.0
 40
92.0
 40
92.0
 40
93.0
 40
93.0
 40
93.0
 40
94.0
 40
94.0
 40
94.0
 40
95.0
 40
95.0
 40
95.0
 40
96.0
 40
96.0
 40
96.0
 40
97.0
 40
97.0
 40
97.0
 40
98.0
 40
98.0
 40
98.0
 40
99.0
 40
99.0
 40
99.0
 40
100.0
 40
100.0
 40
100.0
 40
101.0
 40
101.0
 40
101.0
 40
102.0
 40
102.0
 40
102.0
 40
103.0
 40
103.0
 40
103.0
 40
104.0
 40
104.0
 40
104.0
 40
105.0
 40
105.0
 40
105.0
 40
106.0
 40
106.0
 40
106.0
 40
107.0
 40
107.0
 40
107.0
 40
108.0
 40
108.0
 40
108.0
 40
109.0
 40
109.0
 40
109.0
 40
110.0
 40
110.0
 40
110.0
 40
111.0
 40
111.0
 40
111.0
 40
112.0
 40
112.0
 40
112.0
 40
113.0
 40
113.0
 40
113.0
 40
114.0
 40
114.0
 40
114.0
 40
115.0
 40
115.0
 40
115.0
 40
116.0
 40
116.0
 40
116.0
 40
117.0
 40
117.0
 40
117.0
 40
118.0
 40
118.0
 40
118.0
 40
119.0
 40
119.0
 40
119.0
 40
120.0
 40
120.0
 40
120.0
 40
121.0
 40
121.0
 40
121.0
 40
122.0
 40
122.0
 40
122.0
 40
123.0
 40
123.0
 40
123.0
 40
124.0
 40
124.0
 40
124.0
 40
125.0
 40
125.0
 40
125.0
 40
126.0
 40
126.0
 40
126.0
 40
127.0
 40
127.0
 40
127.0
 40
128.0
 40
128.0
 40
128.0
 40
129.0
 40
129.0
 40
129.0
 40
130.0
 40
130.0
 40
130.0
 40
131.0
 40
131.0
 40
131.0
 40
132.0
 40
132.0
 40
132.0
 40
133.0
 40
133.0
 40
133.0
 40
134.0
 40
134.0
 40
134.0
 40
135.0
 40
135.0
 40
135.0
 40
136.0
 40
136.0
 40
136.0
 40
137.0
 40
137.0
 40
137.0
 40
138.0
 40
138.0
 40
138.0
 40
139.0
 40
139.0
 40
139.0
 40
140.0
 40
140.0
 40
140.0
 40
141.0
 40
141.0
 40
141.0
 40
142.0
 40
142.0
 40
142.0
 40
143.0
 40
143.0
 40
143.0
 40
144.0
 40
144.0
 40
144.0
 40
145.0
 40
145.0
 40
145.0
 40
146.0
 40
146.0
 40
146.0
 40
147.0
 40
147.0
 40
147.0
 40
148.0
 40
148.0
 40
148.0
 40
149.0
 40
149.0
 40
149.0
 40
150.0
 40
150.0
 40
150.0
 40
151.0
 40
151.0
 40
151.0
 40
152.0
 40
152.0
 40
152.0
 40
153.0
 40
153.0
 40
153.0
 40
154.0
 40
154.0
 40
154.0
 40
155.0
 40
155.0
 40
155.0
 40
156.0
 40
156.0
 40
156.0
 40
157.0
 40
157.0
 40
157.0
 40
158.0
 40
158.0
 40
158.0
 40
159.0
 40
159.0
 40
159.0
 40
160.0
 40
160.0
 40
160.0
 40
161.0
 40
161.0
 40
161.0
 40
162.0
 40
162.0
 40
162.0
 40
163.0
 40
163.0
 40
163.0
 40
164.0
 40
164.0
 40
164.0
 40
165.0
 40
165.0
 40
165.0
 40
166.0
 40
166.0
 40
166.0
 40
167.0
 40
167.0
 40
167.0
 40
168.0
 40
168.0
 40
168.0
 40
169.0
 40
169.0
 40
169.0
 40
170.0
 40
170.0
 40
170.0
 40
171.0
 40
171.0
 40
171.0
 40
172.0
 40
172.0
 40
172.0
 40
173.0
 40
173.0
 40
173.0
 40
174.0
 40
174.0
 40
174.0
 40
175.0
 40
175.0
 40
175.0
 40
176.0
 40
176.0
 40
176.0
 40
177.0
 40
177.0
 40
177.0
 40
178.0
 40
178.0
 40
178.0
 40
179.0
 40
179.0
 40
179.0
 40
180.0
 40
180.0
 40
180.0
 40
181.0
 40
181.0
 40
181.0
 40
182.0
 40
182.0
 40
182.0
 40
183.0
 40
183.0
 40
183.0
 40
184.0
 40
184.0
 40
184.0
 40
185.0
 40
185.0
 40
185.0
 40
186.0
 40
186.0
 40
186.0
 40
187.0
 40
187.0
 40
187.0
 40
188.0
 40
188.0
 40
188.0
 40
189.0
 40
189.0
 40
189.0
 40
190.0
 40
190.0
 40
190.0
 40
191.0
 40
191.0
 40
191.0
 40
192.0
 40
192.0
 40
192.0
 40
193.0
 40
193.0
 40
193.0
 40
194.0
 40
194.0
 40
194.0
 40
195.0
 40
195.0
 40
195.0
 40
196.0
 40
196.0
 40
196.0
 40
197.0
 40
197.0
 40
197.0
 40
198.0
 40
198.0
 40
198.0
 40
199.0
 40
199.0
 40
199.0
 40
200.0
 40
200.0
 40
200.0
 40
201.0
 40
201.0
 40
201.0
 40
202.0
 40
202.0
 40
202.0
 40
203.0
 40
203.0
 40
203.0
 40
204.0
 40
204.0
 40
204.0
 40
205.0
 40
205.0
 40
205.0
 40
206.0
 40
206.0
 40
206.0
 40
207.0
 40
207.0
 40
207.0
 40
208.0
 40
208.0
 40
208.0
 40
209.0
 40
209.0
 40
209.0
 40
210.0
 40
210.0
 40
210.0
 40
211.0
 40
211.0
 40
211.0
 40
212.0
 40
212.0
 40
212.0
 40
213.0
 40
213.0
 40
213.0
 40
214.0
 40
214.0
 40
214.0
 40
215.0
 40
215.0
 40
215.0
 40
216.0
 40
216.0
 40
216.0
 40
217.0
 40
217.0
 40
217.0
 40
218.0
 40
218.0
 40
218.0
 40
219.0
 40
219.0
 40
219.0
 40
220.0
 40
220.0
 40
220.0
 40
221.0
 40
221.0
 40
221.0
 40
222.0
 40
222.0
 40
222.0
 40
223.0
 40
223.0
 40
223.0
 40
224.0
 40
224.0
 40
224.0
 40
225.0
 40
225.0
 40
225.0
 40
226.0
 40
226.0
 40
226.0
 40
227.0
 40
227.0
 40
227.0
 40
228.0
 40
228.0
 40
228.0
 40
229.0
 40
229.0
 40
229.0
 40
230.0
 40
230.0
 40
230.0
 40
231.0
 40
231.0
 40
231.0
 40
232.0
 40
232.0
 40
232.0
 40
233.0
 40
233.0
 40
233.0
 40
234.0
 40
234.0
 40
234.0
 40
235.0
 40
235.0
 40
235.0
 40
236.0
 40
236.0
 40
236.0
 40
237.0
 40
237.0
 40
237.0
 40
238.0
 40
238.0
 40
238.0
 40
239.0
 40
239.0
 40
239.0
 40
240.0
 40
240.0
 40
240.0
 40
241.0
 40
241.0
 40
241.0
 40
242.0
 40
242.0
 40
242.0
 40
243.0
 40
243.0
 40
243.0
 40
244.0
 40
244.0
 40
244.0
 40
245.0
 40
245.0
 40
245.0
 40
246.0
 40
246.0
 40
246.0
 40
247.0
 40
247.0
 40
247.0
 40
248.0
 40
248.0
 40
248.0
 40
249.0
 40
249.0
 40
249.0
 40
250.0
 40
250.0
 40
250.0
 40
251.0
 40
251.0
 40
251.0
 40
252.0
 40
252.0
 40
252.0
 40
253.0
 40
253.0
 40
253.0
 40
254.0
 40
254.0
 40
254.0
 40
255.0
 40
255.0
 40
255.0
 40
256.0
 40
256.0
 40
256.0
 40
257.0
 40
257.0
 40
257.0
 40
258.0
 40
258.0
 40
258.0
 40
259.0
 40
259.0
 40
259.0
 40
260.0
 40
260.0
 40
260.0
 40
261.0
 40
261.0
 40
261.0
 40
262.0
 40
262.0
 40
262.0
 40
263.0
 40
263.0
 40
263.0
 40
264.0
 40
264.0
 40
264.0
 40
265.0
 40
265.0
 40
265.0
 40
266.0
 40
266.0
 40
266.0
 40
267.0
 40
267.0
 40
267.0
 40
268.0
 40
268.0
 40
268.0
 40
269.0
 40
269.0
 40
269.0
 40
270.0
 40
270.0
 40
270.0
 40
271.0
 40
271.0
 40
271.0
 40
272.0
 40
272.0
 40
272.0
 40
273.0
 40
273.0
 40
273.0
 40
274.0
 40
274.0
 40
274.0
 40
275.0
 40
275.0
 40
275.0
 40
276.0
 40
276.0
 40
276.0
 40
277.0
 40
277.0
 40
277.0
 40
278.0
 40
278.0
 40
278.0
 40
279.0
 40
279.0
 40
279.0
 40
280.0
 40
280.0
 40
280.0
 40
281.0
 40
281.0
 40
281.0
 40
282.0
 40
282.0
 40
282.0
 40
283.0
 40
283.0
 40
283.0
 40
284.0
 40
284.0
 40
284.0
 40
285.0
 40
285.0
 40
285.0
 40
286.0
 40
286.0
 40
286.0
 40
287.0
 40
287.0
 40
287.0
 40
288.0
 40
288.0
 40
288.0
 40
289.0
 40
289.0
 40
289.0
 40
290.0
 40
290.0
 40
290.0
 40
291.0
 40
291.0
 40
291.0
 40
292.0
 40
292.0
 40
292.0
 40
293.0
 40
293.0
 40
293.0
 40
294.0
 40
294.0
 40
294.0
 40
295.0
 40
295.0
 40
295.0
 40
296.0
 40
296.0
 40
296.0
 40
297.0
 40
297.0
 40
297.0
 40
298.0
 40
298.0
 40
298.0
 40
299.0
 40
299.0
 40
299.0
 40
300.0
 40
300.0
 40
300.0
 40
301.0
 40
301.0
 40
301.0
 40
302.0
 40
302.0
 40
302.0
 40
303.0
 40
303.0
 40
303.0
 40
304.0
 40
304.0
 40
304.0
 40
305.0
 40
305.0
 40
305.0
 40
306.0
 40
306.0
 40
306.0
 40
307.0
 40
307.0
 40
307.0
 40
308.0
 40
308.0
 40
308.0
 40
309.0
 40
309.0
 40
309.0
 40
310.0
 40
310.0
 40
310.0
 40
311.0
 40
311.0
 40
311.0
 40
312.0
 40
312.0
 40
312.0
 40
313.0
 40
313.0
 40
313.0
 40
314.0
 40
314.0
 40
314.0
 40
315.0
 40
315.0
 40
315.0
 40
316.0
 40
316.0
 40
316.0
 40
317.0
 40
317.0
 40
317.0
 40
318.0
 40
318.0
 40
318.0
 40
319.0
 40
319.0
 40
319.0
 40
320.0
 40
320.0
 40
320.0
 40
321.0
 40
321.0
 40
321.0
 40
322.0
 40
322.0
 40
322.0
 40
323.0
 40
323.0
 40
323.0
 40
324.0
 40
324.0
 40
324.0
 40
325.0
 40
325.0
 40
325.0
 40
326.0
 40
326.0
 40
326.0
 40
327.0
 40
327.0
 40
327.0
 40
328.0
 40
328.0
 40
328.0
 40
329.0
 40
329.0
 40
329.0
 40
330.0
 40
330.0
 40
330.0
 40
331.0
 40
331.0
 40
331.0
 40
332.0
 40
332.0
 40
332.0
 40
333.0
 40
333.0
 40
333.0
 40
334.0
 40
334.0
 40
334.0
 40
335.0
 40
335.0
 40
335.0
 40
336.0
 40
336.0
 40
336.0
 40
337.0
 40
337.0
 40
337.0
 40
338.0
 40
338.0
 40
338.0
 40
339.0
 40
339.0
 40
339.0
 40
340.0
 40
340.0
 40
340.0
 40
341.0
 40
341.0
 40
341.0
 40
342.0
 40
342.0
 40
342.0
 40
343.0
 40
343.0
 40
343.0
 40
344.0
 40
344.0
 40
344.0
 40
345.0
 40
345.0
 40
345.0
 40
346.0
 40
346.0
 40
346.0
 40
347.0
 40
347.0
 40
347.0
 40
348.0
 40
348.0
 40
348.0
 40
349.0
 40
349.0
 40
349.0
 40
350.0
 40
350.0
 40
350.0
 40
351.0
 40
351.0
 40
351.0
 40
352.0
 40
352.0
 40
352.0
 40
353.0
 40
353.0
 40
353.0
 40
354.0
 40
354.0
 40
354.0
 40
355.0
 40
355.0
 40
355.0
 40
356.0
 40
356.0
 40
356.0
 40
357.0
 40
357.0
 40
357.0
 40
358.0
 40
358.0
 40
358.0
 40
359.0
 40
359.0
 40
359.0
 40
360.0
 40
360.0
 40
360.0
 40
361.0
 40
361.0
 40
361.0
 40
362.0
 40
362.0
 40
362.0
 40
363.0
 40
363.0
 40
363.0
 40
364.0
 40
364.0
 40
364.0
 40
365.0
 40
365.0
 40
365.0
 40
366.0
 40
366.0
 40
366.0
 40
367.0
 40
367.0
 40
367.0
 40
368.0
 40
368.0
 40
368.0
 40
369.0
 40
369.0
 40
369.0
 40
370.0
 40
370.0
 40
370.0
 40
371.0
 40
371.0
 40
371.0
 40
372.0
 40
372.0
 40
372.0
 40
373.0
 40
373.0
 40
373.0
 40
374.0
 40
374.0
 40
374.0
 40
375.0
 40
375.0
 40
375.0
 40
376.0
 40
376.0
 40
376.0
 40
377.0
 40
377.0
 40
377.0
 40
378.0
 40
378.0
 40
378.0
 40
379.0
 40
379.0
 40
379.0
 40
380.0
 40
380.0
 40
380.0
 40
381.0
 40
381.0
 40
381.0
 40
382.0
 40
382.0
 40
382.0
 40
383.0
 40
383.0
 40
383.0
 40
384.0
 40
384.0
 40
384.0
 40
385.0
 40
385.0
 40
385.0
 40
386.0
 40
386.0
 40
386.0
 40
387.0
 40
387.0
 40
387.0
 40
388.0
 40
388.0
 40
388.0
 40
389.0
 40
389.0
 40
389.0
 40
390.0
 40
390.0
 40
390.0
 40
391.0
 40
391.0
 40
391.0
 40
392.0
 40
392.0
 40
392.0
 40
393.0
 40
393.0
 40
393.0
 40
394.0
 40
394.0
 40
394.0
 40
395.0
 40
395.0
 40
395.0
 40
396.0
 40
396.0
 40
396.0
 40
397.0
 40
397.0
 40
397.0
 40
398.0
 40
398.0
 40
398.0
 40
399.0
 40
399.0
 40
399.0
 40
400.0
 40
400.0
 40
400.0
 40
401.0
 40
401.0
 40
401.0
 40
402.0
 40
402.0
 40
402.0
 40
403.0
 40
403.0
 40
403.0
 40
404.0
 40
404.0
 40
404.0
 40
405.0
 40
405.0
 40
405.0
 40
406.0
 40
406.0
 40
406.0
 40
407.0
 40
407.0
 40
407.0
 40
408.0
 40
408.0
 40
408.0
 40
409.0
 40
409.0
 40
409.0
 40
410.0
 40
410.0
 40
410.0
 40
411.0
 40
411.0
 40
411.0
 40
412.0
 40
412.0
 40
412.0
 40
413.0
 40
413.0
 40
413.0
 40
414.0
 40
414.0
 40
414.0
 40
415.0
 40
415.0
 40
415.0
 40
416.0
 40
416.0
 40
416.0
 40
417.0
 40
417.0
 40
417.0
 40
418.0
 40
418.0
 40
418.0
 40
419.0
 40
419.0
 40
419.0
 40
420.0
 40
420.0
 40
420.0
 40
421.0
 40
421.0
 40
421.0
 40
422.0
 40
422.0
 40
422.0
 40
423.0
 40
423.0
 40
423.0
 40
424.0
 40
424.0
 40
424.0
 40
425.0
 40
425.0
 40
425.0
 40
426.0
 40
426.0
 40
426.0
 40
427.0
 40
427.0
 40
427.0
 40
428.0
 40
428.0
 40
428.0
 40
429.0
 40
429.0
 40
429.0
 40
430.0
 40
430.0
 40
430.0
 40
431.0
 40
431.0
 40
431.0
 40
432.0
 40
432.0
 40
432.0
 40
433.0
 40
433.0
 40
433.0
 40
434.0
 40
434.0
 40
434.0
 40
435.0
 40
435.0
 40
435.0
 40
436.0
 40
436.0
 40
436.0
 40
437.0
 40
437.0
 40
437.0
 40
438.0
 40
438.0
 40
438.0
 40
439.0
 40
439.0
 40
439.0
 40
440.0
 40
440.0
 40
440.0
 40
441.0
 40
441.0
 40
441.0
 40
442.0
 40
442.0
 40
442.0
 40
443.0
 40
443.0
 40
443.0
 40
444.0
 40
444.0
 40
444.0
 40
445.0
 40
445.0
 40
445.0
 40
446.0
 40
446.0
 40
446.0
 40
447.0
 40
447.0
 40
447.0
 40
448.0
 40
448.0
 40
448.0
 40
449.0
 40
449.0
 40
449.0
 40
450.0
 40
450.0
 40
450.0
 40
451.0
 40
451.0
 40
451.0
 40
452.0
 40
452.0
 40
452.0
 40
453.0
 40
453.0
 40
453.0
 40
454.0
 40
454.0
 40
454.0
 40
455.0
 40
455.0
 40
455.0
 40
456.0
 40
456.0
 40
456.0
 40
457.0
 40
457.0
 40
457.0
 40
458.0
 40
458.0
 40
458.0
 40
459.0
 40
459.0
 40
459.0
 40
460.0
 40
460.0
 40
460.0
 40
461.0
 40
461.0
 40
461.0
 40
462.0
 40
462.0
 40
462.0
 40
463.0
 40
463.0
 40
463.0
 40
464.0
 40
464.0
 40
464.0
 40
465.0
 40
465.0
 40
465.0
 40
466.0
 40
466.0
 40
466.0
 40
467.0
 40
467.0
 40
467.0
 40
468.0
 40
468.0
 40
468.0
 40
469.0
 40
469.0
 40
469.0
 40
470.0
 40
470.0
 40
470.0
 40
471.0
 40
471.0
 40
471.0
 40
472.0
 40
472.0
 40
472.0
 40
473.0
 40
473.0
 40
473.0
 40
474.0
 40
474.0
 40
474.0
 40
475.0
 40
475.0
 40
475.0
 40
476.0
 40
476.0
 40
476.0
 40
477.0
 40
477.0
 40
477.0
 40
478.0
 40
478.0
 40
478.0
 40
479.0
 40
479.0
 40
479.0
 40
480.0
 40
480.0
 40
480.0
 40
481.0
 40
481.0
 40
481.0
 40
482.0
 40
482.0
 40
482.0
 40
483.0
 40
483.0
 40
483.0
 40
484.0
 40
484.0
 40
484.0
 40
485.0
 40
485.0
 40
485.0
 40
486.0
 40
486.0
 40
486.0
 40
487.0
 40
487.0
 40
487.0
 40
488.0
 40
488.0
 40
488.0
 40
489.0
 40
489.0
 40
489.0
 40
490.0
 40
490.0
 40
490.0
 40
491.0
 40
491.0
 40
491.0
 40
492.0
 40
492.0
 40
492.0
 40
493.0
 40
493.0
 40
493.0
 40
494.0
 40
494.0
 40
494.0
 40
495.0
 40
495.0
 40
495.0
 40
496.0
 40
496.0
 40
496.0
 40
497.0
 40
497.0
 40
497.0
 40
498.0
 40
498.0
 40
498.0
 40
499.0
 40
499.0
 40
499.0
 40
500.0
 40
500.0
 40
500.0
 40
501.0
 40
501.0
 40
501.0
 40
502.0
 40
502.0
 40
502.0
 40
503.0
 40
503.0
 40
503.0
 40
504.0
 40
504.0
 40
504.0
 40
505.0
 40
505.0
 40
505.0
 40
506.0
 40
506.0
 40
506.0
 40
507.0
 40
507.0
 40
507.0
 40
508.0
 40
508.0
 40
508.0
 40
509.0
 40
509.0
 40
509.0
 40
509.0
 10
123.1636228862336
 20
77.41685877781188
 30
0.0
 10
123.1636228862336
 20
77.41685877781188
 30
0.0
 10
123.1636228862336
 20
78.29880380385008
 30
0.0
 10
123.1636228862336
 20
78.29880380385008
 30
0.0
 10
123.1636228862336
 20
78.29880380385008
 30
0.0
 10
121.1792465776476
 20
78.29880380385008
 30
0.0
 10
121.1792465776476
 20
78.29880380385008
 30
0.0
 10
121.1792465776476
 20
78.29880380385008
 30
0.0
 10
121.1792465776476
 20
87.07415681293008
 30
0.0
 10
121.1792465776476
 20
87.07415681293008
 30
0.0
 10
121.1792465776476
 20
87.07415681293008
 30
0.0
 10
117.3427857143815
 20
87.33874032074154
 30
0.0
 10
117.3427857143815
 20
87.33874032074154
 30
0.0
 10
117.3427857143815
 20
87.33874032074154
 30
0.0
 10
117.2986884630796
 20
86.6772815512129
 30
0.0
 10
117.2986884630796
 20
86.6772815512129
 30
0.0
 10
117.2986884630796
 20
86.6772815512129
 30
0.0
 10
120.517787808119
 20
86.36860079209953
 30
0.0
 10
120.517787808119
 20
86.36860079209953
 30
0.0
 10
120.517787808119
 20
86.36860079209953
 30
0.0
 10
120.517787808119
 20
78.4310955577558
 30
0.0
 10
120.517787808119
 20
78.4310955577558
 30
0.0
 10
120.517787808119
 20
78.4310955577558
 30
0.0
 10
119.5035510281751
 20
78.4310955577558
 30
0.0
 10
119.5035510281751
 20
78.4310955577558
 30
0.0
 10
119.5035510281751
 20
78.4310955577558
 30
0.0
 10
119.5035510281751
 20
61.05677854480341
 30
0.0
 10
119.5035510281751
 20
61.05677854480341
 30
0.0
 10
119.5035510281751
 20
61.05677854480341
 30
0.0
 10
116.4167434370414
 20
61.05677854480341
 30
0.0
 10
116.4167434370414
 20
61.05677854480341
 30
0.0
 10
116.4167434370414
 20
61.05677854480341
 30
0.0
 10
116.4167434370414
 20
60.30712527267095
 30
0.0
 10
116.4167434370414
 20
60.30712527267095
 30
0.0
 10
116.4167434370414
 20
60.30712527267095
 30
0.0
 10
119.4153565255712
 20
60.30712527267095
 30
0.0
 10
119.4153565255712
 20
60.30712527267095
 30
0.0
 10
119.4153565255712
 20
60.30712527267095
 30
0.0
 10
119.4153565255712
 20
47.43072789251334
 30
0.0
 10
119.4153565255712
 20
47.43072789251334
 30
0.0
 10
119.4153565255712
 20
47.43072789251334
 30
0.0
 10
210.6084722179203
 20
47.43072789251334
 30
0.0
 10
210.6084722179203
 20
47.43072789251334
 30
0.0
 10
210.6084722179203
 20
47.43072789251334
 30
0.0
 10
210.6084722179203
 20
77.59324778301952
 30
0.0
 10
210.6084722179203
 20
77.59324778301952
 30
0.0
 10
210.6084722179203
 20
77.59324778301952
 30
0.0
 10
215.7237533689418
 20
77.46095602911379
 30
0.0
 10
215.7237533689418
 20
77.59324778301952
 30
0.0
 10
215.7237533689418
 20
77.72553953692524
 30
0.0
 10
215.7237533689418
 20
78.91616532207681
 30
0.0
 10
215.7237533689418
 20
78.91616532207681
 30
0.0
 10
215.7237533689418
 20
78.91616532207681
 30
0.0
 10
222.7793135772474
 20
78.91616532207681
 30
0.0
 10
222.7793135772474
 20
78.91616532207681
 30
0.0
 10
222.7793135772474
 20
78.91616532207681
 30
0.0
 10
222.7793135772474
 20
68.95018652784523
 30
0.0
 10
222.7793135772474
 20
68.95018652784523
 30
0.0
 10
222.7793135772474
 20
68.95018652784523
 30
0.0
 10
223.5730641006817
 20
68.95018652784523
 30
0.0
 10
223.5730641006817
 20
68.95018652784523
 30
0.0
 10
223.5730641006817
 20
68.95018652784523
 30
0.0
 10
223.5730641006817
 20
79.04845707598254
 30
0.0
 10
223.5730641006817
 20
79.04845707598254
 30
0.0
 10
223.5730641006817
 20
79.04845707598254
 30
0.0
 10
235.0824466904801
 20
79.04845707598254
 30
0.0
 10
235.0824466904801
 20
79.04845707598254
 30
0.0
 10
235.0824466904801
 20
79.04845707598254
 30
0.0
 10
235.0824466904801
 20
77.76963678822716
 30
0.0
 10
235.0824466904801
 20
77.76963678822716
 30
0.0
 10
235.0824466904801
 20
77.76963678822716
 30
0.0
 10
235.7439054600088
 20
77.76963678822716
 30
0.0
 10
235.7439054600088
 20
77.76963678822716
 30
0.0
 10
235.7439054600088
 20
77.76963678822716
 30
0.0
 10
235.7439054600088
 20
65.02553116197528
 30
0.0
 10
235.7439054600088
 20
65.02553116197528
 30
0.0
 10
235.7439054600088
 20
65.02553116197528
 30
0.0
 10
223.6612586032855
 20
65.02553116197528
 30
0.0
 10
223.6612586032855
 20
65.02553116197528
 30
0.0
 10
223.6612586032855
 20
65.02553116197528
 30
0.0
 10
223.6612586032855
 20
65.86337893671156
 30
0.0
 10
223.6612586032855
 20
65.86337893671156
 30
0.0
 10
223.6612586032855
 20
65.86337893671156
 30
0.0
 10
222.8675080798512
 20
65.86337893671156
 30
0.0
 10
222.8675080798512
 20
65.86337893671156
 30
0.0
 10
222.8675080798512
 20
65.86337893671156
 30
0.0
 10
222.8675080798512
 20
51.92864752530812
 30
0.0
 10
222.8675080798512
 20
51.92864752530812
 30
0.0
 10
222.8675080798512
 20
51.92864752530812
 30
0.0
 10
223.5289668493798
 20
51.92864752530812
 30
0.0
 10
223.5289668493798
 20
51.92864752530812
 30
0.0
 10
223.5289668493798
 20
51.92864752530812
 30
0.0
 10
223.5289668493798
 20
64.14358613593708
 30
0.0
 10
223.5289668493798
 20
64.14358613593708
 30
0.0
 10
223.5289668493798
 20
64.14358613593708
 30
0.0
 10
235.6998082087069
 20
64.14358613593708
 30
0.0
 10
235.6998082087069
 20
64.14358613593708
 30
0.0
 10
235.6998082087069
 20
64.14358613593708
 30
0.0
 10
235.6998082087069
 20
53.51614857217687
 30
0.0
 10
235.6998082087069
 20
53.51614857217687
 30
0.0
 10
235.6998082087069
 20
53.51614857217687
 30
0.0
 10
235.2588356956878
 20
53.51614857217687
 30
0.0
 10
235.2588356956878
 20
53.51614857217687
 30
0.0
 10
235.2588356956878
 20
53.51614857217687
 30
0.0
 10
235.2588356956878
 20
48.31267291855153
 30
0.0
 10
235.2588356956878
 20
48.31267291855153
 30
0.0
 10
235.2588356956878
 20
48.31267291855153
 30
0.0
 10
223.5730641006817
 20
48.31267291855153
 30
0.0
 10
223.5730641006817
 20
48.31267291855153
 30
0.0
 10
223.5730641006817
 20
48.31267291855153
 30
0.0
 10
223.5730641006817
 20
48.84183993417445
 30
0.0
 10
223.5730641006817
 20
48.84183993417445
 30
0.0
 10
223.5730641006817
 20
48.84183993417445
 30
0.0
 10
222.8234108285493
 20
48.84183993417445
 30
0.0
 10
222.8234108285493
 20
48.84183993417445
 30
0.0
 10
222.8234108285493
 20
48.84183993417445
 30
0.0
 10
222.8234108285493
 20
46.68107462038088
 30
0.0
 10
222.8234108285493
 20
46.68107462038088
 30
0.0
 10
222.8234108285493
 20
46.68107462038088
 30
0.0
 10
223.4848695980779
 20
46.68107462038088
 30
0.0
 10
223.4848695980779
 20
46.68107462038088
 30
0.0
 10
223.4848695980779
 20
46.68107462038088
 30
0.0
 10
223.4848695980779
 20
47.34253338990953
 30
0.0
 10
223.4848695980779
 20
47.34253338990953
 30
0.0
 10
223.4848695980779
 20
47.34253338990953
 30
0.0
 10
235.2147384443859
 20
47.34253338990953
 30
0.0
 10
235.2147384443859
 20
47.34253338990953
 30
0.0
 10
235.2147384443859
 20
47.34253338990953
 30
0.0
 10
235.2147384443859
 20
27.45467305274829
 30
0.0
 10
235.2147384443859
 20
27.45467305274829
 30
0.0
 10
235.2147384443859
 20
27.45467305274829
 30
0.0
 10
223.5730641006817
 20
27.45467305274829
 30
0.0
 10
223.5730641006817
 20
27.45467305274829
 30
0.0
 10
223.5730641006817
 20
27.45467305274829
 30
0.0
 10
223.5730641006817
 20
43.72655878315293
 30
0.0
 10
223.5730641006817
 20
43.72655878315293
 30
0.0
 10
223.5730641006817
 20
43.72655878315293
 30
0.0
 10
222.8234108285493
 20
43.72655878315293
 30
0.0
 10
222.8234108285493
 20
43.72655878315293
 30
0.0
 10
222.8234108285493
 20
43.72655878315293
 30
0.0
 10
222.8234108285493
 20
41.21301545894408
 30
0.0
 10
222.8234108285493
 20
41.21301545894408
 30
0.0
 10
222.8234108285493
 20
41.21301545894408
 30
0.0
 10
221.5445905407939
 20
41.21301545894408
 30
0.0
 10
221.5445905407939
 20
41.21301545894408
 30
0.0
 10
221.5445905407939
 20
41.21301545894408
 30
0.0
 10
221.5445905407939
 20
40.28697318160398
 30
0.0
 10
221.5445905407939
 20
40.28697318160398
 30
0.0
 10
221.5445905407939
 20
40.28697318160398
 30
0.0
 10
222.7793135772474
 20
40.28697318160398
 30
0.0
 10
222.7793135772474
 20
40.28697318160398
 30
0.0
 10
222.7793135772474
 20
40.28697318160398
 30
0.0
 10
222.7793135772474
 20
27.45467305274829
 30
0.0
 10
222.7793135772474
 20
27.45467305274829
 30
0.0
 10
222.7793135772474
 20
27.45467305274829
 30
0.0
 10
210.6084722179203
 20
27.45467305274829
 30
0.0
 10
210.6084722179203
 20
27.45467305274829
 30
0.0
 10
210.6084722179203
 20
27.45467305274829
 30
0.0
 10
210.6084722179203
 20
40.3751676842078
 30
0.0
 10
210.6084722179203
 20
40.3751676842078
 30
0.0
 10
210.6084722179203
 20
40.3751676842078
 30
0.0
 10
218.545977452264
 20
40.3751676842078
 30
0.0
 10
218.545977452264
 20
40.3751676842078
 30
0.0
 10
218.545977452264
 20
40.3751676842078
 30
0.0
 10
218.545977452264
 20
41.08072370503836
 30
0.0
 10
218.545977452264
 20
41.08072370503836
 30
0.0
 10
218.545977452264
 20
41.08072370503836
 30
0.0
 10
210.6084722179203
 20
41.08072370503836
 30
0.0
 10
210.6084722179203
 20
41.08072370503836
 30
0.0
 10
210.6084722179203
 20
41.08072370503836
 30
0.0
 10
210.6084722179203
 20
41.38940446415172
 30
0.0
 10
210.6084722179203
 20
41.38940446415172
 30
0.0
 10
210.6084722179203
 20
41.38940446415172
 30
0.0
 10
209.8147216944859
 20
41.38940446415172
 30
0.0
 10
209.8147216944859
 20
41.38940446415172
 30
0.0
 10
209.8147216944859
 20
41.38940446415172
 30
0.0
 10
209.8147216944859
 20
40.99252920243454
 30
0.0
 10
209.8147216944859
 20
40.99252920243454
 30
0.0
 10
209.8147216944859
 20
40.99252920243454
 30
0.0
 10
208.8445821658439
 20
40.99252920243454
 30
0.0
 10
208.8445821658439
 20
40.99252920243454
 30
0.0
 10
208.8445821658439
 20
40.99252920243454
 30
0.0
 10
208.8445821658439
 20
40.46336218681162
 30
0.0
 10
208.8445821658439
 20
40.46336218681162
 30
0.0
 10
208.8445821658439
 20
40.46336218681162
 30
0.0
 10
209.770624443184
 20
40.46336218681162
 30
0.0
 10
209.770624443184
 20
40.46336218681162
 30
0.0
 10
209.770624443184
 20
40.46336218681162
 30
0.0
 10
209.770624443184
 20
27.54286755535211
 30
0.0
 10
209.770624443184
 20
27.54286755535211
 30
0.0
 10
209.770624443184
 20
27.54286755535211
 30
0.0
 10
197.6879775864608
 20
27.54286755535211
 30
0.0
 10
197.6879775864608
 20
27.54286755535211
 30
0.0
 10
197.6879775864608
 20
27.54286755535211
 30
0.0
 10
197.6879775864608
 20
40.3751676842078
 30
0.0
 10
197.6879775864608
 20
40.3751676842078
 30
0.0
 10
197.6879775864608
 20
40.3751676842078
 30
0.0
 10
205.4931910668988
 20
40.3751676842078
 30
0.0
 10
205.4931910668988
 20
40.3751676842078
 30
0.0
 10
205.4931910668988
 20
40.3751676842078
 30
0.0
 10
205.4931910668988
 20
41.16891820764218
 30
0.0
 10
205.4931910668988
 20
41.16891820764218
 30
0.0
 10
205.4931910668988
 20
41.16891820764218
 30
0.0
 10
195.9240875343844
 20
41.16891820764218
 30
0.0
 10
195.9240875343844
 20
41.16891820764218
 30
0.0
 10
195.9240875343844
 20
41.16891820764218
 30
0.0
 10
195.9240875343844
 20
40.46336218681162
 30
0.0
 10
195.9240875343844
 20
40.46336218681162
 30
0.0
 10
195.9240875343844
 20
40.46336218681162
 30
0.0
 10
196.8060325604226
 20
40.46336218681162
 30
0.0
 10
196.8060325604226
 20
40.46336218681162
 30
0.0
 10
196.8060325604226
 20
40.46336218681162
 30
0.0
 10
196.8060325604226
 20
27.27828404754065
 30
0.0
 10
196.8060325604226
 20
27.27828404754065
 30
0.0
 10
196.8060325604226
 20
27.27828404754065
 30
0.0
 10
184.8115802063032
 20
27.27828404754065
 30
0.0
 10
184.8115802063032
 20
27.27828404754065
 30
0.0
 10
184.8115802063032
 20
27.27828404754065
 30
0.0
 10
184.8115802063032
 20
40.3751676842078
 30
0.0
 10
184.8115802063032
 20
40.3751676842078
 30
0.0
 10
184.8115802063032
 20
40.3751676842078
 30
0.0
 10
192.7490854406469
 20
40.3751676842078
 30
0.0
 10
192.7490854406469
 20
40.3751676842078
 30
0.0
 10
192.7490854406469
 20
40.3751676842078
 30
0.0
 10
192.7490854406469
 20
40.94843195113263
 30
0.0
 10
192.7490854406469
 20
40.94843195113263
 30
0.0
 10
192.7490854406469
 20
40.94843195113263
 30
0.0
 10
183.0035929029249
 20
40.94843195113263
 30
0.0
 10
183.0035929029249
 20
40.94843195113263
 30
0.0
 10
183.0035929029249
 20
40.94843195113263
 30
0.0
 10
183.0035929029249
 20
40.3751676842078
 30
0.0
 10
183.0035929029249
 20
40.3751676842078
 30
0.0
 10
183.0035929029249
 20
40.3751676842078
 30
0.0
 10
183.8414406776612
 20
40.3751676842078
 30
0.0
 10
183.8414406776612
 20
40.3751676842078
 30
0.0
 10
183.8414406776612
 20
40.3751676842078
 30
0.0
 10
183.8414406776612
 20
27.23418679623874
 30
0.0
 10
183.8414406776612
 20
27.23418679623874
 30
0.0
 10
183.8414406776612
 20
27.23418679623874
 30
0.0
 10
171.8028910722398
 20
27.23418679623874
 30
0.0
 10
171.8028910722398
 20
27.23418679623874
 30
0.0
 10
171.8028910722398
 20
27.23418679623874
 30
0.0
 10
171.8028910722398
 20
40.3310704329059
 30
0.0
 10
171.8028910722398
 20
40.3310704329059
 30
0.0
 10
171.8028910722398
 20
40.3310704329059
 30
0.0
 10
179.8285908091874
 20
40.3310704329059
 30
0.0
 10
179.8285908091874
 20
40.3310704329059
 30
0.0
 10
179.8285908091874
 20
40.3310704329059
 30
0.0
 10
179.8285908091874
 20
40.90433469983072
 30
0.0
 10
179.8285908091874
 20
40.90433469983072
 30
0.0
 10
179.8285908091874
 20
40.90433469983072
 30
0.0
 10
169.9508065175596
 20
40.90433469983072
 30
0.0
 10
169.9508065175596
 20
40.90433469983072
 30
0.0
 10
169.9508065175596
 20
40.90433469983072
 30
0.0
 10
169.9508065175596
 20
40.3751676842078
 30
0.0
 10
169.9508065175596
 20
40.3751676842078
 30
0.0
 10
169.9508065175596
 20
40.3751676842078
 30
0.0
 10
171.0532378001074
 20
40.3751676842078
 30
0.0
 10
171.0532378001074
 20
40.3751676842078
 30
0.0
 10
171.0532378001074
 20
40.3751676842078
 30
0.0
 10
171.0532378001074
 20
27.27828404754065
 30
0.0
 10
171.0532378001074
 20
27.27828404754065
 30
0.0
 10
171.0532378001074
 20
27.27828404754065
 30
0.0
 10
159.0146881946861
 20
27.27828404754065
 30
0.0
 10
159.0146881946861
 20
27.27828404754065
 30
0.0
 10
159.0146881946861
 20
27.27828404754065
 30
0.0
 10
159.0146881946861
 20
40.3310704329059
 30
0.0
 10
159.0146881946861
 20
40.3310704329059
 30
0.0
 10
159.0146881946861
 20
40.3310704329059
 30
0.0
 10
166.9080961777279
 20
40.3310704329059
 30
0.0
 10
166.9080961777279
 20
40.3310704329059
 30
0.0
 10
166.9080961777279
 20
40.3310704329059
 30
0.0
 10
166.9080961777279
 20
41.08072370503836
 30
0.0
 10
166.9080961777279
 20
41.08072370503836
 30
0.0
 10
166.9080961777279
 20
41.08072370503836
 30
0.0
 10
156.9421173834963
 20
41.08072370503836
 30
0.0
 10
156.9421173834963
 20
41.08072370503836
 30
0.0
 10
156.9421173834963
 20
41.08072370503836
 30
0.0
 10
156.9421173834963
 20
40.41926493550972
 30
0.0
 10
156.9421173834963
 20
40.41926493550972
 30
0.0
 10
156.9421173834963
 20
40.41926493550972
 30
0.0
 10
158.1768404199498
 20
40.41926493550972
 30
0.0
 10
158.1768404199498
 20
40.41926493550972
 30
0.0
 10
158.1768404199498
 20
40.41926493550972
 30
0.0
 10
158.1768404199498
 20
27.41057580144638
 30
0.0
 10
158.1768404199498
 20
27.41057580144638
 30
0.0
 10
158.1768404199498
 20
27.41057580144638
 30
0.0
 10
146.0941935632266
 20
27.41057580144638
 30
0.0
 10
146.0941935632266
 20
27.41057580144638
 30
0.0
 10
146.0941935632266
 20
27.41057580144638
 30
0.0
 10
146.0941935632266
 20
40.41926493550972
 30
0.0
 10
146.0941935632266
 20
40.41926493550972
 30
0.0
 10
146.0941935632266
 20
40.41926493550972
 30
0.0
 10
154.0316987975703
 20
40.41926493550972
 30
0.0
 10
154.0316987975703
 20
40.41926493550972
 30
0.0
 10
154.0316987975703
 20
40.41926493550972
 30
0.0
 10
154.0316987975703
 20
41.03662645373645
 30
0.0
 10
154.0316987975703
 20
41.03662645373645
 30
0.0
 10
154.0316987975703
 20
41.03662645373645
 30
0.0
 10
144.1980117572444
 20
41.03662645373645
 30
0.0
 10
144.1980117572444
 20
41.03662645373645
 30
0.0
 10
144.1980117572444
 20
41.03662645373645
 30
0.0
 10
144.1980117572444
 20
40.46336218681162
 30
0.0
 10
144.1980117572444
 20
40.46336218681162
 30
0.0
 10
144.1980117572444
 20
40.46336218681162
 30
0.0
 10
145.3004430397922
 20
40.46336218681162
 30
0.0
 10
145.3004430397922
 20
40.46336218681162
 30
0.0
 10
145.3004430397922
 20
40.46336218681162
 30
0.0
 10
145.3004430397922
 20
27.45467305274829
 30
0.0
 10
145.3004430397922
 20
27.45467305274829
 30
0.0
 10
145.3004430397922
 20
27.45467305274829
 30
0.0
 10
133.1296016804651
 20
27.45467305274829
 30
0.0
 10
133.1296016804651
 20
27.45467305274829
 30
0.0
 10
133.1296016804651
 20
27.45467305274829
 30
0.0
 10
133.1296016804651
 20
40.3751676842078
 30
0.0
 10
133.1296016804651
 20
40.3751676842078
 30
0.0
 10
133.1296016804651
 20
40.3751676842078
 30
0.0
 10
140.978912412205
 20
40.3751676842078
 30
0.0
 10
140.978912412205
 20
40.3751676842078
 30
0.0
 10
140.978912412205
 20
40.3751676842078
 30
0.0
 10
140.978912412205
 20
41.03662645373645
 30
0.0
 10
140.978912412205
 20
41.03662645373645
 30
0.0
 10
140.978912412205
 20
41.03662645373645
 30
0.0
 10
131.1452253718792
 20
41.03662645373645
 30
0.0
 10
131.1452253718792
 20
41.03662645373645
 30
0.0
 10
131.1452253718792
 20
41.03662645373645
 30
0.0
 10
131.1452253718792
 20
40.3310704329059
 30
0.0
 10
131.1452253718792
 20
40.3310704329059
 30
0.0
 10
131.1452253718792
 20
40.3310704329059
 30
0.0
 10
132.2917539057288
 20
40.3310704329059
 30
0.0
 10
132.2917539057288
 20
40.3310704329059
 30
0.0
 10
132.2917539057288
 20
40.3310704329059
 30
0.0
 10
132.2917539057288
 20
27.36647855014447
 30
0.0
 10
132.2917539057288
 20
27.36647855014447
 30
0.0
 10
132.2917539057288
 20
27.36647855014447
 30
0.0
 10
120.2091070490056
 20
27.36647855014447
 30
0.0
 10
120.2091070490056
 20
27.36647855014447
 30
0.0
 10
120.2091070490056
 20
27.36647855014447
 30
0.0
 10
120.2091070490056
 20
40.3751676842078
 30
0.0
 10
120.2091070490056
 20
40.3751676842078
 30
0.0
 10
120.2091070490056
 20
40.3751676842078
 30
0.0
 10
127.9702232781417
 20
40.3751676842078
 30
0.0
 10
127.9702232781417
 20
40.3751676842078
 30
0.0
 10
127.9702232781417
 20
40.3751676842078
 30
0.0
 10
127.9702232781417
 20
41.03662645373645
 30
0.0
 10
127.9702232781417
 20
41.03662645373645
 30
0.0
 10
127.9702232781417
 20
41.03662645373645
 30
0.0
 10
118.2247307404197
 20
41.03662645373645
 30
0.0
 10
118.2247307404197
 20
41.03662645373645
 30
0.0
 10
118.2247307404197
 20
41.03662645373645
 30
0.0
 10
118.2247307404197
 20
40.3751676842078
 30
0.0
 10
118.2247307404197
 20
40.3751676842078
 30
0.0
 10
118.2247307404197
 20
40.3751676842078
 30
0.0
 10
119.4153565255712
 20
40.3751676842078
 30
0.0
 10
119.4153565255712
 20
40.3751676842078
 30
0.0
 10
119.4153565255712
 20
40.3751676842078
 30
0.0
 10
119.4153565255712
 20
27.27828404754065
 30
0.0
 10
119.4153565255712
 20
27.27828404754065
 30
0.0
 10
119.4153565255712
 20
27.27828404754065
 30
0.0
 10
94.27992328348274
 20
27.27828404754065
 30
0.0
 10
94.27992328348274
 20
27.27828404754065
 30
0.0
 10
94.27992328348274
 20
27.27828404754065
 30
0.0
 10
94.27992328348274
 20
40.46336218681162
 30
0.0
 10
94.27992328348274
 20
40.46336218681162
 30
0.0
 10
94.27992328348274
 20
40.46336218681162
 30
0.0
 10
102.2615257691284
 20
40.46336218681162
 30
0.0
 10
102.2615257691284
 20
40.46336218681162
 30
0.0
 10
102.2615257691284
 20
40.46336218681162
 30
0.0
 10
102.2615257691284
 20
40.99252920243454
 30
0.0
 10
102.2615257691284
 20
40.99252920243454
 30
0.0
 10
102.2615257691284
 20
40.99252920243454
 30
0.0
 10
92.33964422619873
 20
40.99252920243454
 30
0.0
 10
92.33964422619873
 20
40.99252920243454
 30
0.0
 10
92.33964422619873
 20
40.99252920243454
 30
0.0
 10
92.33964422619873
 20
40.3310704329059
 30
0.0
 10
92.33964422619873
 20
40.3310704329059
 30
0.0
 10
92.33964422619873
 20
40.3310704329059
 30
0.0
 10
93.44207550874647
 20
40.3310704329059
 30
0.0
 10
93.44207550874647
 20
40.3310704329059
 30
0.0
 10
93.44207550874647
 20
40.3310704329059
 30
0.0
 10
93.44207550874647
 20
27.27828404754065
 30
0.0
 10
93.44207550874647
 20
27.27828404754065
 30
0.0
 10
93.44207550874647
 20
27.27828404754065
 30
0.0
 10
81.35942865202324
 20
27.27828404754065
 30
0.0
 10
81.35942865202324
 20
27.27828404754065
 30
0.0
 10
81.35942865202324
 20
27.27828404754065
 30
0.0
 10
81.35942865202324
 20
40.3751676842078
 30
0.0
 10
81.35942865202324
 20
40.3751676842078
 30
0.0
 10
81.35942865202324
 20
40.3751676842078
 30
0.0
 10
89.20873938376315
 20
40.3751676842078
 30
0.0
 10
89.20873938376315
 20
40.3751676842078
 30
0.0
 10
89.20873938376315
 20
40.3751676842078
 30
0.0
 10
89.20873938376315
 20
41.08072370503836
 30
0.0
 10
89.20873938376315
 20
41.08072370503836
 30
0.0
 10
89.20873938376315
 20
41.08072370503836
 30
0.0
 10
81.40352590332515
 20
41.08072370503836
 30
0.0
 10
81.40352590332515
 20
41.08072370503836
 30
0.0
 10
81.40352590332515
 20
41.08072370503836
 30
0.0
 10
81.40352590332515
 20
41.43350171545364
 30
0.0
 10
81.40352590332515
 20
41.43350171545364
 30
0.0
 10
81.40352590332515
 20
41.43350171545364
 30
0.0
 10
80.56567812858886
 20
41.43350171545364
 30
0.0
 10
80.56567812858886
 20
41.43350171545364
 30
0.0
 10
80.56567812858886
 20
41.43350171545364
 30
0.0
 10
80.56567812858886
 20
37.33245734437604
 30
0.0
 10
80.56567812858886
 20
37.33245734437604
 30
0.0
 10
80.56567812858886
 20
37.33245734437604
 30
0.0
 10
79.55144134864494
 20
37.33245734437604
 30
0.0
 10
79.55144134864494
 20
37.33245734437604
 30
0.0
 10
79.55144134864494
 20
37.33245734437604
 30
0.0
 10
79.55144134864494
 20
36.62690132354549
 30
0.0
 10
79.55144134864494
 20
36.62690132354549
 30
0.0
 10
79.55144134864494
 20
36.62690132354549
 30
0.0
 10
80.52158087728695
 20
36.62690132354549
 30
0.0
 10
80.52158087728695
 20
36.62690132354549
 30
0.0
 10
80.52158087728695
 20
36.62690132354549
 30
0.0
 10
80.52158087728695
 20
27.27828404754065
 30
0.0
 10
80.52158087728695
 20
27.27828404754065
 30
0.0
 10
80.52158087728695
 20
27.27828404754065
 30
0.0
 10
55.69482839431184
 20
27.27828404754065
 30
0.0
 10
55.69482839431184
 20
27.27828404754065
 30
0.0
 10
55.69482839431184
 20
27.27828404754065
 30
0.0
 10
55.69482839431184
 20
47.34253338990953
 30
0.0
 10
55.69482839431184
 20
47.34253338990953
 30
0.0
 10
55.69482839431184
 20
47.34253338990953
 30
0.0
 10
67.29240548671407
 20
47.34253338990953
 30
0.0
 10
67.29240548671407
 20
47.34253338990953
 30
0.0
 10
67.29240548671407
 20
47.34253338990953
 30
0.0
 10
67.29240548671407
 20
36.53870682094167
 30
0.0
 10
67.29240548671407
 20
36.53870682094167
 30
0.0
 10
67.29240548671407
 20
36.53870682094167
 30
0.0
 10
76.68512001402081
 20
36.53870682094167
 30
0.0
 10
76.68512001402081
 20
36.53870682094167
 30
0.0
 10
76.68512001402081
 20
36.53870682094167
 30
0.0
 10
76.68512001402081
 20
37.1560683391684
 30
0.0
 10
76.68512001402081
 20
37.1560683391684
 30
0.0
 10
76.68512001402081
 20
37.1560683391684
 30
0.0
 10
68.17435051275226
 20
37.1560683391684
 30
0.0
 10
68.17435051275226
 20
37.1560683391684
 30
0.0
 10
68.17435051275226
 20
37.1560683391684
 30
0.0
 10
68.17435051275226
 20
47.29843613860761
 30
0.0
 10
68.17435051275226
 20
47.29843613860761
 30
0.0
 10
68.17435051275226
 20
47.29843613860761
 30
0.0
 10
76.68512001402081
 20
47.29843613860761
 30
0.0
 10
76.68512001402081
 20
47.29843613860761
 30
0.0
 10
76.68512001402081
 20
47.29843613860761
 30
0.0
 10
76.68512001402081
 20
47.87170040553244
 30
0.0
 10
76.68512001402081
 20
47.87170040553244
 30
0.0
 10
76.68512001402081
 20
47.87170040553244
 30
0.0
 10
55.65073114300993
 20
47.87170040553244
 30
0.0
 10
55.65073114300993
 20
47.87170040553244
 30
0.0
 10
55.65073114300993
 20
47.87170040553244
 30
0.0
 10
55.65073114300993
 20
51.53177226359094
 30
0.0
 10
55.65073114300993
 20
51.53177226359094
 30
0.0
 10
55.65073114300993
 20
51.53177226359094
 30
0.0
 10
55.91531465082139
 20
51.53177226359094
 30
0.0
 10
55.91531465082139
 20
51.53177226359094
 30
0.0
 10
55.91531465082139
 20
51.53177226359094
 30
0.0
 10
55.91531465082139
 20
53.29566231566732
 30
0.0
 10
55.91531465082139
 20
53.29566231566732
 30
0.0
 10
55.91531465082139
 20
53.29566231566732
 30
0.0
 10
55.60663389170802
 20
53.29566231566732
 30
0.0
 10
55.60663389170802
 20
53.29566231566732
 30
0.0
 10
55.60663389170802
 20
53.29566231566732
 30
0.0
 10
55.60663389170802
 20
63.92309987942754
 30
0.0
 10
55.60663389170802
 20
63.92309987942754
 30
0.0
 10
55.60663389170802
 20
63.92309987942754
 30
0.0
 10
79.41914959473921
 20
63.92309987942754
 30
0.0
 10
79.41914959473921
 20
63.92309987942754
 30
0.0
 10
79.41914959473921
 20
63.92309987942754
 30
0.0
 10
79.41914959473921
 20
53.25156506436541
 30
0.0
 10
79.41914959473921
 20
53.25156506436541
 30
0.0
 10
79.41914959473921
 20
53.25156506436541
 30
0.0
 10
80.12470561556977
 20
53.25156506436541
 30
0.0
 10
80.12470561556977
 20
53.25156506436541
 30
0.0
 10
80.12470561556977
 20
53.25156506436541
 30
0.0
 10
80.12470561556977
 20
51.75225852010048
 30
0.0
 10
80.12470561556977
 20
51.75225852010048
 30
0.0
 10
80.12470561556977
 20
51.75225852010048
 30
0.0
 10
80.7420671337965
 20
51.75225852010048
 30
0.0
 10
80.7420671337965
 20
51.75225852010048
 30
0.0
 10
80.7420671337965
 20
51.75225852010048
 30
0.0
 10
80.7420671337965
 20
47.82760315423053
 30
0.0
 10
80.7420671337965
 20
47.82760315423053
 30
0.0
 10
80.7420671337965
 20
47.82760315423053
 30
0.0
 10
79.72783035385258
 20
47.82760315423053
 30
0.0
 10
79.72783035385258
 20
47.82760315423053
 30
0.0
 10
79.72783035385258
 20
47.82760315423053
 30
0.0
 10
79.72783035385258
 20
47.38663064121143
 30
0.0
 10
79.72783035385258
 20
47.38663064121143
 30
0.0
 10
79.72783035385258
 20
47.38663064121143
 30
0.0
 10
84.04936098143972
 20
47.38663064121143
 30
0.0
 10
84.04936098143972
 20
47.38663064121143
 30
0.0
 10
84.04936098143972
 20
47.38663064121143
 30
0.0
 10
84.04936098143972
 20
48.00399215943817
 30
0.0
 10
84.04936098143972
 20
48.00399215943817
 30
0.0
 10
84.04936098143972
 20
48.00399215943817
 30
0.0
 10
81.97679017024997
 20
48.00399215943817
 30
0.0
 10
81.97679017024997
 20
48.00399215943817
 30
0.0
 10
81.97679017024997
 20
48.00399215943817
 30
0.0
 10
81.97679017024997
 20
52.54600904353486
 30
0.0
 10
81.97679017024997
 20
52.54600904353486
 30
0.0
 10
81.97679017024997
 20
52.54600904353486
 30
0.0
 10
83.9611664788359
 20
52.54600904353486
 30
0.0
 10
83.9611664788359
 20
52.54600904353486
 30
0.0
 10
83.9611664788359
 20
52.54600904353486
 30
0.0
 10
83.9611664788359
 20
53.29566231566732
 30
0.0
 10
83.9611664788359
 20
53.29566231566732
 30
0.0
 10
83.9611664788359
 20
53.29566231566732
 30
0.0
 10
83.0351242014958
 20
53.29566231566732
 30
0.0
 10
83.0351242014958
 20
53.29566231566732
 30
0.0
 10
83.0351242014958
 20
53.29566231566732
 30
0.0
 10
83.0351242014958
 20
59.07240223621748
 30
0.0
 10
83.0351242014958
 20
59.07240223621748
 30
0.0
 10
83.0351242014958
 20
59.07240223621748
 30
0.0
 10
87.00387681866766
 20
59.07240223621748
 30
0.0
 10
87.00387681866766
 20
59.07240223621748
 30
0.0
 10
87.00387681866766
 20
59.07240223621748
 30
0.0
 10
87.00387681866766
 20
47.25433888730571
 30
0.0
 10
87.00387681866766
 20
47.25433888730571
 30
0.0
 10
87.00387681866766
 20
47.25433888730571
 30
0.0
 10
107.2004179149423
 20
47.25433888730571
 30
0.0
 10
107.2004179149423
 20
47.25433888730571
 30
0.0
 10
107.2004179149423
 20
47.25433888730571
 30
0.0
 10
107.2004179149423
 20
51.48767501228902
 30
0.0
 10
107.2004179149423
 20
51.48767501228902
 30
0.0
 10
107.2004179149423
 20
51.48767501228902
 30
0.0
 10
107.7295849305652
 20
51.48767501228902
 30
0.0
 10
107.7295849305652
 20
51.48767501228902
 30
0.0
 10
107.7295849305652
 20
51.48767501228902
 30
0.0
 10
107.7295849305652
 20
53.2074678130635
 30
0.0
 10
107.7295849305652
 20
53.2074678130635
 30
0.0
 10
107.7295849305652
 20
53.2074678130635
 30
0.0
 10
106.0097921297907
 20
53.2074678130635
 30
0.0
 10
106.0097921297907
 20
53.2074678130635
 30
0.0
 10
106.0097921297907
 20
53.2074678130635
 30
0.0
 10
106.0097921297907
 20
51.53177226359094
 30
0.0
 10
106.0097921297907
 20
51.53177226359094
 30
0.0
 10
106.0097921297907
 20
51.53177226359094
 30
0.0
 10
106.4066673915079
 20
51.53177226359094
 30
0.0
 10
106.4066673915079
 20
51.53177226359094
 30
0.0
 10
106.4066673915079
 20
51.53177226359094
 30
0.0
 10
106.4066673915079
 20
47.95989490813626
 30
0.0
 10
106.4066673915079
 20
47.95989490813626
 30
0.0
 10
106.4066673915079
 20
47.95989490813626
 30
0.0
 10
87.66533558819631
 20
47.95989490813626
 30
0.0
 10
87.66533558819631
 20
47.95989490813626
 30
0.0
 10
87.66533558819631
 20
47.95989490813626
 30
0.0
 10
87.66533558819631
 20
63.92309987942754
 30
0.0
 10
87.66533558819631
 20
63.92309987942754
 30
0.0
 10
87.66533558819631
 20
63.92309987942754
 30
0.0
 10
106.2743756376022
 20
63.92309987942754
 30
0.0
 10
106.2743756376022
 20
63.92309987942754
 30
0.0
 10
106.2743756376022
 20
63.92309987942754
 30
0.0
 10
106.3446556318646
 20
58.87775421289265
 30
0.0
 10
106.3446556318646
 20
58.87775421289265
 30
0.0
 10
106.3446556318646
 20
58.87775421289265
 30
0.0
 10
106.8745116670391
 20
58.87775421289265
 30
0.0
 10
106.8745116670391
 20
58.87775421289265
 30
0.0
 10
106.8745116670391
 20
58.87775421289265
 30
0.0
 10
106.8745116670391
 20
64.79402059264025
 30
0.0
 10
106.8745116670391
 20
64.79402059264025
 30
0.0
 10
106.8745116670391
 20
64.79402059264025
 30
0.0
 10
81.49172040592896
 20
64.88221509524408
 30
0.0
 10
81.49172040592896
 20
64.88221509524408
 30
0.0
 10
81.49172040592896
 20
64.88221509524408
 30
0.0
 10
81.57991490853279
 20
71.49060161456619
 30
0.0
 10
81.57991490853279
 20
71.49060161456619
 30
0.0
 10
81.57991490853279
 20
71.49060161456619
 30
0.0
 10
87.97401634730967
 20
71.49060161456619
 30
0.0
 10
87.97401634730967
 20
71.49060161456619
 30
0.0
 10
87.97401634730967
 20
71.49060161456619
 30
0.0
 10
87.97401634730967
 20
70.49359032341206
 30
0.0
 10
87.97401634730967
 20
70.49359032341206
 30
0.0
 10
87.97401634730967
 20
70.49359032341206
 30
0.0
 10
97.93999514154125
 20
70.49359032341206
 30
0.0
 10
97.93999514154125
 20
70.49359032341206
 30
0.0
 10
97.93999514154125
 20
70.49359032341206
 30
0.0
 10
97.93999514154125
 20
72.2182062610477
 30
0.0
 10
97.93999514154125
 20
72.2182062610477
 30
0.0
 10
97.93999514154125
 20
72.2182062610477
 30
0.0
 10
81.62401215983469
 20
72.2182062610477
 30
0.0
 10
81.62401215983469
 20
72.2182062610477
 30
0.0
 10
81.62401215983469
 20
72.2182062610477
 30
0.0
 10
81.6681094111366
 20
77.68626542248448
 30
0.0
 10
81.6681094111366
 20
77.68626542248448
 30
0.0
 10
81.6681094111366
 20
77.68626542248448
 30
0.0
 10
103.0084229630545
 20
77.68626542248448
 30
0.0
 10
103.0084229630545
 20
77.68626542248448
 30
0.0
 10
103.0084229630545
 20
77.68626542248448
 30
0.0
 10
103.0084229630545
 20
70.52046208592417
 30
0.0
 10
103.0084229630545
 20
70.52046208592417
 30
0.0
 10
103.0084229630545
 20
70.52046208592417
 30
0.0
 10
106.8745116670391
 20
70.53286443785284
 30
0.0
 10
106.8745116670391
 20
70.53286443785284
 30
0.0
 10
106.8745116670391
 20
70.53286443785284
 30
0.0
 10
106.8745116670391
 20
76.6241417837049
 30
0.0
 10
106.8745116670391
 20
76.6241417837049
 30
0.0
 10
106.8745116670391
 20
76.6241417837049
 30
0.0
 10
107.7573179675168
 20
76.6241417837049
 30
0.0
 10
107.7573179675168
 20
76.6241417837049
 30
0.0
 10
107.7573179675168
 20
76.6241417837049
 30
0.0
 10
107.7573179675168
 20
78.65468240224752
 30
0.0
 10
107.7573179675168
 20
78.65468240224752
 30
0.0
 10
107.7573179675168
 20
78.65468240224752
 30
0.0
 10
68.92400378488472
 20
78.65468240224752
 30
0.0
 10
68.92400378488472
 20
78.65468240224752
 30
0.0
 10
68.92400378488472
 20
78.65468240224752
 30
0.0
 10
68.96810103618664
 20
85.53075301736325
 30
0.0
 10
68.96810103618664
 20
85.53075301736325
 30
0.0
 10
68.96810103618664
 20
85.53075301736325
 30
0.0
 10
62.3976105922021
 20
85.53075301736325
 30
0.0
 10
62.3976105922021
 20
85.53075301736325
 30
0.0
 10
62.3976105922021
 20
85.53075301736325
 30
0.0
 10
62.3976105922021
 20
109.8724357360174
 30
0.0
 10
62.3976105922021
 20
109.8724357360174
 30
0.0
 10
62.3976105922021
 20
109.8724357360174
 30
0.0
 10
68.96810103618664
 20
109.8724357360174
 30
0.0
 10
68.96810103618664
 20
109.8724357360174
 30
0.0
 10
68.96810103618664
 20
109.8724357360174
 30
0.0
 10
68.96810103618664
 20
116.7951874257535
 30
0.0
 10
68.96810103618664
 20
116.7951874257535
 30
0.0
 10
68.96810103618664
 20
116.7951874257535
 30
0.0
 10
107.1563206636404
 20
116.7951874257535
 30
0.0
 10
107.1563206636404
 20
116.7951874257535
 30
0.0
 10
107.1563206636404
 20
116.7951874257535
 30
0.0
 10
107.2274619323423
 20
125.0062334220794
 30
0.0
 10
107.2274619323423
 20
125.0062334220794
 30
0.0
 10
107.2274619323423
 20
125.0062334220794
 30
0.0
 10
104.2899993290162
 20
125.0062334220794
 30
0.0
 10
104.2899993290162
 20
125.0062334220794
 30
0.0
 10
104.2899993290162
 20
125.0062334220794
 30
0.0
 10
104.2899993290162
 20
117.80839067637
 30
0.0
 10
104.2899993290162
 20
117.80839067637
 30
0.0
 10
104.2899993290162
 20
117.80839067637
 30
0.0
 10
82.17815613420284
 20
117.80839067637
 30
0.0
 10
82.17815613420284
 20
117.80839067637
 30
0.0
 10
82.17815613420284
 20
117.80839067637
 30
0.0
 10
82.17815613420284
 20
123.3644720855227
 30
0.0
 10
82.17815613420284
 20
123.3644720855227
 30
0.0
 10
82.17815613420284
 20
123.3644720855227
 30
0.0
 10
97.93999514154125
 20
123.3644720855227
 30
0.0
 10
97.93999514154125
 20
123.3644720855227
 30
0.0
 10
97.93999514154125
 20
123.3644720855227
 30
0.0
 10
97.94740210172087
 20
124.9977929325724
 30
0.0
 10
97.94740210172087
 20
124.9977929325724
 30
0.0
 10
97.94740210172087
 20
124.9977929325724
 30
0.0
 10
81.71220666243852
 20
124.9977929325724
 30
0.0
 10
81.71220666243852
 20
124.9977929325724
 30
0.0
 10
81.71220666243852
 20
124.9977929325724
 30
0.0
 10
81.71220666243852
 20
130.3776575914053
 30
0.0
 10
81.71220666243852
 20
130.3776575914053
 30
0.0
 10
81.71220666243852
 20
130.3776575914053
 30
0.0
 10
107.0512451820225
 20
130.3914379824372
 30
0.0
 10
107.0512451820225
 20
130.3914379824372
 30
0.0
 10
107.0512451820225
 20
130.3914379824372
 30
0.0
 10
107.0512451820225
 20
131.1862220351989
 30
0.0
 10
107.0512451820225
 20
131.1862220351989
 30
0.0
 10
107.0512451820225
 20
131.1862220351989
 30
0.0
 10
105.7269496038621
 20
131.1862220351989
 30
0.0
 10
105.7269496038621
 20
131.1862220351989
 30
0.0
 10
105.7269496038621
 20
131.1862220351989
 30
0.0
 10
105.7269496038621
 20
142.2222481930534
 30
0.0
 10
105.7269496038621
 20
142.2222481930534
 30
0.0
 10
105.7269496038621
 20
142.2222481930534
 30
0.0
 10
107.4043677022136
 20
142.2222481930534
 30
0.0
 10
107.4043677022136
 20
142.2222481930534
 30
0.0
 10
107.4043677022136
 20
142.2222481930534
 30
0.0
 10
107.5972931766594
 20
142.8277241240152
 30
0.0
 10
107.5972931766594
 20
142.8277241240152
 30
0.0
 10
107.5972931766594
 20
142.8277241240152
 30
0.0
 10
110.772295270397
 20
142.8277241240152
 30
0.0
 10
110.772295270397
 20
142.8277241240152
 30
0.0
 10
110.772295270397
 20
142.8277241240152
 30
0.0
 10
110.772295270397
 20
143.458521523498
 30
0.0
 10
110.772295270397
 20
143.458521523498
 30
0.0
 10
110.772295270397
 20
143.458521523498
 30
0.0
 10
105.9936001703283
 20
143.458521523498
 30
0.0
 10
105.9936001703283
 20
143.458521523498
 30
0.0
 10
105.9936001703283
 20
143.458521523498
 30
0.0
 10
105.9936001703283
 20
142.7503816793489
 30
0.0
 10
105.9936001703283
 20
142.7503816793489
 30
0.0
 10
105.9936001703283
 20
142.7503816793489
 30
0.0
 10
104.4532969627436
 20
142.7503816793489
 30
0.0
 10
104.4532969627436
 20
142.7503816793489
 30
0.0
 10
104.4532969627436
 20
142.7503816793489
 30
0.0
 10
104.4532969627436
 20
133.508390178953
 30
0.0
 10
104.4532969627436
 20
133.508390178953
 30
0.0
 10
104.4532969627436
 20
133.508390178953
 30
0.0
 10
96.13562519080881
 20
133.508390178953
 30
0.0
 10
96.13562519080881
 20
133.508390178953
 30
0.0
 10
96.13562519080881
 20
133.508390178953
 30
0.0
 10
96.13562519080881
 20
142.8120489292164
 30
0.0
 10
96.13562519080881
 20
142.8120489292164
 30
0.0
 10
96.13562519080881
 20
142.8120489292164
 30
0.0
 10
93.48617276004838
 20
142.8120489292164
 30
0.0
 10
93.48617276004838
 20
142.8120489292164
 30
0.0
 10
93.48617276004838
 20
142.8120489292164
 30
0.0
 10
93.48617276004838
 20
134.6173671472409
 30
0.0
 10
93.48617276004838
 20
134.6173671472409
 30
0.0
 10
93.48617276004838
 20
134.6173671472409
 30
0.0
 10
72.53773907809864
 20
134.6173671472409
 30
0.0
 10
72.53773907809864
 20
134.6173671472409
 30
0.0
 10
72.53773907809864
 20
134.6173671472409
 30
0.0
 10
72.53773907809864
 20
131.475093482204
 30
0.0
 10
72.53773907809864
 20
131.475093482204
 30
0.0
 10
72.53773907809864
 20
131.475093482204
 30
0.0
 10
55.96389052920865
 20
131.475093482204
 30
0.0
 10
55.96389052920865
 20
131.475093482204
 30
0.0
 10
55.96389052920865
 20
131.475093482204
 30
0.0
 10
55.96389052920865
 20
143.7976913977693
 30
0.0
 10
55.96389052920865
 20
143.7976913977693
 30
0.0
 10
55.96389052920865
 20
143.7976913977693
 30
0.0
 10
57.93551997609012
 20
143.7976913977693
 30
0.0
 10
57.93551997609012
 20
143.7976913977693
 30
0.0
 10
57.93551997609012
 20
143.7976913977693
 30
0.0
 10
57.93551997609012
 20
168.3197249840527
 30
0.0
 10
57.93551997609012
 20
168.3197249840527
 30
0.0
 10
57.93551997609012
 20
168.3197249840527
 30
0.0
 10
93.42450551018086
 20
168.3197249840527
 30
0.0
 10
93.42450551018086
 20
168.3197249840527
 30
0.0
 10
93.42450551018086
 20
168.3197249840527
 30
0.0
 10
93.42450551018086
 20
148.0491142859819
 30
0.0
 10
93.42450551018086
 20
148.0491142859819
 30
0.0
 10
93.42450551018086
 20
148.0491142859819
 30
0.0
 10
98.66174312183422
 20
148.0491142859819
 30
0.0
 10
98.66174312183422
 20
148.0491142859819
 30
0.0
 10
98.66174312183422
 20
148.0491142859819
 30
0.0
 10
98.66174312183422
 20
148.726765014973
 30
0.0
 10
98.66174312183422
 20
148.726765014973
 30
0.0
 10
98.66174312183422
 20
148.726765014973
 30
0.0
 10
94.28715798877447
 20
148.726765014973
 30
0.0
 10
94.28715798877447
 20
148.726765014973
 30
0.0
 10
94.28715798877447
 20
148.726765014973
 30
0.0
 10
94.28715798877447
 20
168.1965627392055
 30
0.0
 10
94.28715798877447
 20
168.1965627392055
 30
0.0
 10
94.28715798877447
 20
168.1965627392055
 30
0.0
 10
119.5485095539164
 20
168.1965627392055
 30
0.0
 10
119.5485095539164
 20
168.1965627392055
 30
0.0
 10
119.5485095539164
 20
168.1965627392055
 30
0.0
 10
119.5485095539164
 20
154.5799861057499
 30
0.0
 10
119.5485095539164
 20
154.5799861057499
 30
0.0
 10
119.5485095539164
 20
154.5799861057499
 30
0.0
 10
106.4249264096251
 20
154.5799861057499
 30
0.0
 10
106.4249264096251
 20
154.5799861057499
 30
0.0
 10
106.4249264096251
 20
154.5799861057499
 30
0.0
 10
106.4249264096251
 20
148.7884322648405
 30
0.0
 10
106.4249264096251
 20
148.7884322648405
 30
0.0
 10
106.4249264096251
 20
148.7884322648405
 30
0.0
 10
101.8040167868711
 20
148.7884322648405
 30
0.0
 10
101.8040167868711
 20
148.7884322648405
 30
0.0
 10
101.8040167868711
 20
148.7884322648405
 30
0.0
 10
101.8040167868711
 20
148.172276530829
 30
0.0
 10
101.8040167868711
 20
148.172276530829
 30
0.0
 10
101.8040167868711
 20
148.172276530829
 30
0.0
 10
107.2259116383512
 20
148.172276530829
 30
0.0
 10
107.2259116383512
 20
148.172276530829
 30
0.0
 10
107.2259116383512
 20
148.172276530829
 30
0.0
 10
107.2259116383512
 20
153.7791731319117
 30
0.0
 10
107.2259116383512
 20
153.7791731319117
 30
0.0
 10
107.2259116383512
 20
153.7791731319117
 30
0.0
 10
121.4584717509304
 20
153.7791731319117
 30
0.0
 10
121.4584717509304
 20
153.7791731319117
 30
0.0
 10
121.4584717509304
 20
153.7791731319117
 30
0.0
 10
121.4584717509304
 20
154.4568238609027
 30
0.0
 10
121.4584717509304
 20
154.4568238609027
 30
0.0
 10
121.4584717509304
 20
154.4568238609027
 30
0.0
 10
120.1646652879279
 20
154.4568238609027
 30
0.0
 10
120.1646652879279
 20
154.4568238609027
 30
0.0
 10
120.1646652879279
 20
154.4568238609027
 30
0.0
 10
120.1646652879279
 20
168.134895489338
 30
0.0
 10
120.1646652879279
 20
168.134895489338
 30
0.0
 10
120.1646652879279
 20
168.134895489338
 30
0.0
 10
132.3639287037581
 20
168.134895489338
 30
0.0
 10
132.3639287037581
 20
168.134895489338
 30
0.0
 10
132.3639287037581
 20
168.134895489338
 30
0.0
 10
132.3639287037581
 20
154.4566516060148
 30
0.0
 10
132.3639287037581
 20
154.4566516060148
 30
0.0
 10
132.3639287037581
 20
154.4566516060148
 30
0.0
 10
124.2925814215176
 20
154.4566516060148
 30
0.0
 10
124.2925814215176
 20
154.4566516060148
 30
0.0
 10
124.2925814215176
 20
154.4566516060148
 30
0.0
 10
124.2925814215176
 20
153.9021631218709
 30
0.0
 10
124.2925814215176
 20
153.9021631218709
 30
0.0
 10
124.2925814215176
 20
153.9021631218709
 30
0.0
 10
134.0890614060575
 20
153.9021631218709
 30
0.0
 10
134.0890614060575
 20
153.9021631218709
 30
0.0
 10
134.0890614060575
 20
153.9021631218709
 30
0.0
 10
134.0890614060575
 20
154.579813850862
 30
0.0
 10
134.0890614060575
 20
154.579813850862
 30
0.0
 10
134.0890614060575
 20
154.579813850862
 30
0.0
 10
133.0417516876371
 20
154.579813850862
 30
0.0
 10
133.0417516876371
 20
154.579813850862
 30
0.0
 10
133.0417516876371
 20
154.579813850862
 30
0.0
 10
133.0417516876371
 20
168.1963904843176
 30
0.0
 10
133.0417516876371
 20
168.1963904843176
 30
0.0
 10
133.0417516876371
 20
168.1963904843176
 30
0.0
 10
145.2411873583552
 20
168.1963904843176
 30
0.0
 10
145.2411873583552
 20
168.1963904843176
 30
0.0
 10
145.2411873583552
 20
168.1963904843176
 30
0.0
 10
145.2411873583552
 20
154.5183188558824
 30
0.0
 10
145.2411873583552
 20
154.5183188558824
 30
0.0
 10
145.2411873583552
 20
154.5183188558824
 30
0.0
 10
137.2313350710943
 20
154.5183188558824
 30
0.0
 10
137.2313350710943
 20
154.5183188558824
 30
0.0
 10
137.2313350710943
 20
154.5183188558824
 30
0.0
 10
137.2313350710943
 20
153.9021631218709
 30
0.0
 10
137.2313350710943
 20
153.9021631218709
 30
0.0
 10
137.2313350710943
 20
153.9021631218709
 30
0.0
 10
147.0278150556342
 20
153.9021631218709
 30
0.0
 10
147.0278150556342
 20
153.9021631218709
 30
0.0
 10
147.0278150556342
 20
153.9021631218709
 30
0.0
 10
147.0278150556342
 20
154.5870485561537
 30
0.0
 10
147.0278150556342
 20
154.5870485561537
 30
0.0
 10
147.0278150556342
 20
154.5870485561537
 30
0.0
 10
145.9619018093208
 20
154.5870485561537
 30
0.0
 10
145.9619018093208
 20
154.5870485561537
 30
0.0
 10
145.9619018093208
 20
154.5870485561537
 30
0.0
 10
145.9619018093208
 20
168.1395463713113
 30
0.0
 10
145.9619018093208
 20
168.1395463713113
 30
0.0
 10
145.9619018093208
 20
168.1395463713113
 30
0.0
 10
158.1623710093664
 20
168.1395463713113
 30
0.0
 10
158.1623710093664
 20
168.1395463713113
 30
0.0
 10
158.1623710093664
 20
168.1395463713113
 30
0.0
 10
158.1623710093664
 20
154.4693984677193
 30
0.0
 10
158.1623710093664
 20
154.4693984677193
 30
0.0
 10
158.1623710093664
 20
154.4693984677193
 30
0.0
 10
150.2248657750226
 20
154.4693984677193
 30
0.0
 10
150.2248657750226
 20
154.4693984677193
 30
0.0
 10
150.2248657750226
 20
154.4693984677193
 30
0.0
 10
150.2248657750226
 20
153.8814925353231
 30
0.0
 10
150.2248657750226
 20
153.8814925353231
 30
0.0
 10
150.2248657750226
 20
153.8814925353231
 30
0.0
 10
160.0144555640466
 20
153.8814925353231
 30
0.0
 10
160.0144555640466
 20
153.8814925353231
 30
0.0
 10
160.0144555640466
 20
153.8814925353231
 30
0.0
 10
160.0144555640466
 20
154.5283096393805
 30
0.0
 10
160.0144555640466
 20
154.5283096393805
 30
0.0
 10
160.0144555640466
 20
154.5283096393805
 30
0.0
 10
158.9854048637434
 20
154.5283096393805
 30
0.0
 10
158.9854048637434
 20
154.5283096393805
 30
0.0
 10
158.9854048637434
 20
154.5283096393805
 30
0.0
 10
158.9854048637434
 20
168.1690019571419
 30
0.0
 10
158.9854048637434
 20
168.1690019571419
 30
0.0
 10
158.9854048637434
 20
168.1690019571419
 30
0.0
 10
170.8623793843163
 20
168.1690019571419
 30
0.0
 10
170.8623793843163
 20
168.1690019571419
 30
0.0
 10
170.8623793843163
 20
168.1690019571419
 30
0.0
 10
170.8623793843163
 20
154.4988540535499
 30
0.0
 10
170.8623793843163
 20
154.4988540535499
 30
0.0
 10
170.8623793843163
 20
154.4988540535499
 30
0.0
 10
163.189457657784
 20
154.4988540535499
 30
0.0
 10
163.189457657784
 20
154.4988540535499
 30
0.0
 10
163.189457657784
 20
154.4988540535499
 30
0.0
 10
163.189457657784
 20
153.9109481211537
 30
0.0
 10
163.189457657784
 20
153.9109481211537
 30
0.0
 10
163.189457657784
 20
153.9109481211537
 30
0.0
 10
173.0083307777506
 20
153.9109481211537
 30
0.0
 10
173.0083307777506
 20
153.9109481211537
 30
0.0
 10
173.0083307777506
 20
153.9109481211537
 30
0.0
 10
173.0083307777506
 20
154.4693984677193
 30
0.0
 10
173.0083307777506
 20
154.4693984677193
 30
0.0
 10
173.0083307777506
 20
154.4693984677193
 30
0.0
 10
171.6854132386933
 20
154.4693984677193
 30
0.0
 10
171.6854132386933
 20
154.4693984677193
 30
0.0
 10
171.6854132386933
 20
154.4693984677193
 30
0.0
 10
171.6854132386933
 20
168.1984575429724
 30
0.0
 10
171.6854132386933
 20
168.1984575429724
 30
0.0
 10
171.6854132386933
 20
168.1984575429724
 30
0.0
 10
184.0033602722854
 20
168.1984575429724
 30
0.0
 10
184.0033602722854
 20
168.1984575429724
 30
0.0
 10
184.0033602722854
 20
168.1984575429724
 30
0.0
 10
184.0033602722854
 20
154.5283096393805
 30
0.0
 10
184.0033602722854
 20
154.5283096393805
 30
0.0
 10
184.0033602722854
 20
154.5283096393805
 30
0.0
 10
176.1833328714881
 20
154.5283096393805
 30
0.0
 10
176.1833328714881
 20
154.5283096393805
 30
0.0
 10
176.1833328714881
 20
154.5283096393805
 30
0.0
 10
176.1833328714881
 20
153.969687037927
 30
0.0
 10
176.1833328714881
 20
153.969687037927
 30
0.0
 10
176.1833328714881
 20
153.969687037927
 30
0.0
 10
185.8847281579083
 20
153.969687037927
 30
0.0
 10
185.8847281579083
 20
153.969687037927
 30
0.0
 10
185.8847281579083
 20
153.969687037927
 30
0.0
 10
185.8847281579083
 20
154.5870485561537
 30
0.0
 10
185.8847281579083
 20
154.5870485561537
 30
0.0
 10
185.8847281579083
 20
154.5870485561537
 30
0.0
 10
184.7971107957198
 20
154.5870485561537
 30
0.0
 10
184.7971107957198
 20
154.5870485561537
 30
0.0
 10
184.7971107957198
 20
154.5870485561537
 30
0.0
 10
184.7971107957198
 20
168.2571964597457
 30
0.0
 10
184.7971107957198
 20
168.2571964597457
 30
0.0
 10
184.7971107957198
 20
168.2571964597457
 30
0.0
 10
196.8794131426672
 20
168.2571964597457
 30
0.0
 10
196.8794131426672
 20
168.2571964597457
 30
0.0
 10
196.8794131426672
 20
168.2571964597457
 30
0.0
 10
196.8794131426672
 20
154.5575929703231
 30
0.0
 10
196.8794131426672
 20
154.5575929703231
 30
0.0
 10
196.8794131426672
 20
154.5575929703231
 30
0.0
 10
189.1479247542496
 20
154.5575929703231
 30
0.0
 10
189.1479247542496
 20
154.5575929703231
 30
0.0
 10
189.1479247542496
 20
154.5575929703231
 30
0.0
 10
189.1479247542496
 20
153.969687037927
 30
0.0
 10
189.1479247542496
 20
153.969687037927
 30
0.0
 10
189.1479247542496
 20
153.969687037927
 30
0.0
 10
196.8208464807818
 20
153.969687037927
 30
0.0
 10
196.8208464807818
 20
153.969687037927
 30
0.0
 10
196.8208464807818
 20
153.969687037927
 30
0.0
 10
196.8208464807818
 20
152.999547509285
 30
0.0
 10
196.8208464807818
 20
152.999547509285
 30
0.0
 10
196.8208464807818
 20
152.999547509285
 30
0.0
 10
197.6731636661015
 20
152.999547509285
 30
0.0
 10
197.6731636661015
 20
152.999547509285
 30
0.0
 10
197.6731636661015
 20
152.999547509285
 30
0.0
 10
197.6731636661015
 20
153.9107758662658
 30
0.0
 10
197.6731636661015
 20
153.9107758662658
 30
0.0
 10
197.6731636661015
 20
153.9107758662658
 30
0.0
 10
198.8786033716123
 20
153.9107758662658
 30
0.0
 10
198.8786033716123
 20
153.9107758662658
 30
0.0
 10
198.8786033716123
 20
153.9107758662658
 30
0.0
 10
198.8786033716123
 20
154.5575929703231
 30
0.0
 10
198.8786033716123
 20
154.5575929703231
 30
0.0
 10
198.8786033716123
 20
154.5575929703231
 30
0.0
 10
197.6731636661015
 20
154.5575929703231
 30
0.0
 10
197.6731636661015
 20
154.5575929703231
 30
0.0
 10
197.6731636661015
 20
154.5575929703231
 30
0.0
 10
197.6731636661015
 20
168.1395463713113
 30
0.0
 10
197.6731636661015
 20
168.1395463713113
 30
0.0
 10
197.6731636661015
 20
168.1395463713113
 30
0.0
 10
209.8736328661471
 20
168.1395463713113
 30
0.0
 10
209.8736328661471
 20
168.1395463713113
 30
0.0
 10
209.8736328661471
 20
168.1395463713113
 30
0.0
 10
209.8736328661471
 20
154.6457874729269
 30
0.0
 10
209.8736328661471
 20
154.6457874729269
 30
0.0
 10
209.8736328661471
 20
154.6457874729269
 30
0.0
 10
202.0536054653498
 20
154.6457874729269
 30
0.0
 10
202.0536054653498
 20
154.6457874729269
 30
0.0
 10
202.0536054653498
 20
154.6457874729269
 30
0.0
 10
202.0536054653498
 20
153.822581363662
 30
0.0
 10
202.0536054653498
 20
153.822581363662
 30
0.0
 10
202.0536054653498
 20
153.822581363662
 30
0.0
 10
211.6375229182235
 20
153.822581363662
 30
0.0
 10
211.6375229182235
 20
153.822581363662
 30
0.0
 10
211.6375229182235
 20
153.822581363662
 30
0.0
 10
211.6375229182235
 20
154.5283096393805
 30
0.0
 10
211.6375229182235
 20
154.5283096393805
 30
0.0
 10
211.6375229182235
 20
154.5283096393805
 30
0.0
 10
210.637755548863
 20
154.5283096393805
 30
0.0
 10
210.637755548863
 20
154.5283096393805
 30
0.0
 10
210.637755548863
 20
154.5283096393805
 30
0.0
 10
210.637755548863
 20
168.1102630403686
 30
0.0
 10
210.637755548863
 20
168.1102630403686
 30
0.0
 10
210.637755548863
 20
168.1102630403686
 30
0.0
 10
222.80859690819
 20
168.1102630403686
 30
0.0
 10
222.80859690819
 20
168.1102630403686
 30
0.0
 10
222.80859690819
 20
168.1102630403686
 30
0.0
 10
222.80859690819
 20
154.5575929703231
 30
0.0
 10
222.80859690819
 20
154.5575929703231
 30
0.0
 10
222.80859690819
 20
154.5575929703231
 30
0.0
 10
214.7239859995813
 20
154.5575929703231
 30
0.0
 10
214.7239859995813
 20
154.5575929703231
 30
0.0
 10
214.7239859995813
 20
154.5575929703231
 30
0.0
 10
214.7239859995813
 20
153.7932980327193
 30
0.0
 10
214.7239859995813
 20
153.7932980327193
 30
0.0
 10
214.7239859995813
 20
153.7932980327193
 30
0.0
 10
223.0731804160015
 20
153.7932980327193
 30
0.0
 10
223.0731804160015
 20
153.7932980327193
 30
0.0
 10
223.0731804160015
 20
153.7932980327193
 30
0.0
 10
223.0731804160015
 20
152.3821859910582
 30
0.0
 10
223.0731804160015
 20
152.3821859910582
 30
0.0
 10
223.0731804160015
 20
152.3821859910582
 30
0.0
 10
223.8376476084932
 20
152.3821859910582
 30
0.0
 10
223.8376476084932
 20
152.3821859910582
 30
0.0
 10
223.8376476084932
 20
152.3821859910582
 30
0.0
 10
223.8376476084932
 20
153.8814925353231
 30
0.0
 10
223.8376476084932
 20
153.8814925353231
 30
0.0
 10
223.8376476084932
 20
153.8814925353231
 30
0.0
 10
224.8370704680779
 20
153.8814925353231
 30
0.0
 10
224.8370704680779
 20
153.8814925353231
 30
0.0
 10
224.8370704680779
 20
153.8814925353231
 30
0.0
 10
224.8370704680779
 20
154.5575929703231
 30
0.0
 10
224.8370704680779
 20
154.5575929703231
 30
0.0
 10
224.8370704680779
 20
154.5575929703231
 30
0.0
 10
223.778736436832
 20
154.5575929703231
 30
0.0
 10
223.778736436832
 20
154.5575929703231
 30
0.0
 10
223.778736436832
 20
154.5575929703231
 30
0.0
 10
223.778736436832
 20
168.080807454538
 30
0.0
 10
223.778736436832
 20
168.080807454538
 30
0.0
 10
223.778736436832
 20
168.080807454538
 30
0.0
 10
235.5382331238585
 20
168.080807454538
 30
0.0
 10
235.5382331238585
 20
168.080807454538
 30
0.0
 10
235.5382331238585
 20
168.080807454538
 30
0.0
 10
235.5382331238585
 20
144.9443921865068
 30
0.0
 10
235.5382331238585
 20
144.9443921865068
 30
0.0
 10
235.5382331238585
 20
144.9443921865068
 30
0.0
 10
223.8376476084932
 20
144.9443921865068
 30
0.0
 10
223.8376476084932
 20
144.9443921865068
 30
0.0
 10
223.8376476084932
 20
144.9443921865068
 30
0.0
 10
223.8376476084932
 20
149.4717674051322
 30
0.0
 10
223.8376476084932
 20
149.4717674051322
 30
0.0
 10
223.8376476084932
 20
149.4717674051322
 30
0.0
 10
223.1320915876626
 20
149.4717674051322
 30
0.0
 10
223.1320915876626
 20
149.4717674051322
 30
0.0
 10
223.1320915876626
 20
149.4717674051322
 30
0.0
 10
223.1320915876626
 20
140.2408002175617
 30
0.0
 10
223.1320915876626
 20
140.2408002175617
 30
0.0
 10
223.1320915876626
 20
140.2408002175617
 30
0.0
 10
223.778736436832
 20
140.2408002175617
 30
0.0
 10
223.778736436832
 20
140.2408002175617
 30
0.0
 10
223.778736436832
 20
140.2408002175617
 30
0.0
 10
223.778736436832
 20
144.2388361656763
 30
0.0
 10
223.778736436832
 20
144.2388361656763
 30
0.0
 10
223.778736436832
 20
144.2388361656763
 30
0.0
 10
235.3618441186509
 20
144.2388361656763
 30
0.0
 10
235.3618441186509
 20
144.2388361656763
 30
0.0
 10
235.3618441186509
 20
144.2388361656763
 30
0.0
 10
235.3618441186509
 20
142.0634291864114
 30
0.0
 10
235.3618441186509
 20
142.0634291864114
 30
0.0
 10
235.3618441186509
 20
142.0634291864114
 30
0.0
 10
235.8910111342738
 20
142.0634291864114
 30
0.0
 10
235.8910111342738
 20
142.0634291864114
 30
0.0
 10
235.8910111342738
 20
142.0634291864114
 30
0.0
 10
235.8910111342738
 20
117.7804853845305
 30
0.0
 10
235.8910111342738
 20
117.7804853845305
 30
0.0
 10
235.8910111342738
 20
117.7804853845305
 30
0.0
 10
235.2440217753285
 20
117.7804853845305
 30
0.0
 10
235.2440217753285
 20
117.7804853845305
 30
0.0
 10
235.2440217753285
 20
117.7804853845305
 30
0.0
 10
235.2440217753285
 20
116.1929843376618
 30
0.0
 10
235.2440217753285
 20
116.1929843376618
 30
0.0
 10
235.2440217753285
 20
116.1929843376618
 30
0.0
 10
212.0195842595814
 20
116.1929843376618
 30
0.0
 10
212.0195842595814
 20
116.1929843376618
 30
0.0
 10
212.0195842595814
 20
116.1929843376618
 30
0.0
 10
212.0195842595814
 20
117.7217464677573
 30
0.0
 10
212.0195842595814
 20
117.7217464677573
 30
0.0
 10
212.0195842595814
 20
117.7217464677573
 30
0.0
 10
185.2084554680204
 20
117.7217464677573
 30
0.0
 10
185.2084554680204
 20
117.7217464677573
 30
0.0
 10
185.2084554680204
 20
117.7217464677573
 30
0.0
 10
185.2084554680204
 20
142.8864630407884
 30
0.0
 10
185.2084554680204
 20
142.8864630407884
 30
0.0
 10
185.2084554680204
 20
142.8864630407884
 30
0.0
 10
197.0265188169321
 20
142.8864630407884
 30
0.0
 10
197.0265188169321
 20
142.8864630407884
 30
0.0
 10
197.0265188169321
 20
142.8864630407884
 30
0.0
 10
197.0265188169321
 20
140.3582780511082
 30
0.0
 10
197.0265188169321
 20
140.3582780511082
 30
0.0
 10
197.0265188169321
 20
140.3582780511082
 30
0.0
 10
197.5556858325551
 20
140.3582780511082
 30
0.0
 10
197.5556858325551
 20
140.3582780511082
 30
0.0
 10
197.5556858325551
 20
140.3582780511082
 30
0.0
 10
197.5556858325551
 20
147.7078773530558
 30
0.0
 10
197.5556858325551
 20
147.7078773530558
 30
0.0
 10
197.5556858325551
 20
147.7078773530558
 30
0.0
 10
196.9090409833857
 20
147.7078773530558
 30
0.0
 10
196.9090409833857
 20
147.7078773530558
 30
0.0
 10
196.9090409833857
 20
147.7078773530558
 30
0.0
 10
196.9090409833857
 20
145.0031311032801
 30
0.0
 10
196.9090409833857
 20
145.0031311032801
 30
0.0
 10
196.9090409833857
 20
145.0031311032801
 30
0.0
 10
185.149888806135
 20
145.0031311032801
 30
0.0
 10
185.149888806135
 20
145.0031311032801
 30
0.0
 10
185.149888806135
 20
145.0031311032801
 30
0.0
 10
185.149888806135
 20
148.3545222022252
 30
0.0
 10
185.149888806135
 20
148.3545222022252
 30
0.0
 10
185.149888806135
 20
148.3545222022252
 30
0.0
 10
132.4681429109365
 20
148.3545222022252
 30
0.0
 10
132.4681429109365
 20
148.3545222022252
 30
0.0
 10
132.4681429109365
 20
148.3545222022252
 30
0.0
 10
132.4681429109365
 20
147.5902272646214
 30
0.0
 10
132.4681429109365
 20
147.5902272646214
 30
0.0
 10
132.4681429109365
 20
147.5902272646214
 30
0.0
 10
119.9445235411941
 20
147.5902272646214
 30
0.0
 10
119.9445235411941
 20
147.5902272646214
 30
0.0
 10
119.9445235411941
 20
147.5902272646214
 30
0.0
 10
119.9445235411941
 20
146.4144153998291
 30
0.0
 10
119.9445235411941
 20
146.4144153998291
 30
0.0
 10
119.9445235411941
 20
146.4144153998291
 30
0.0
 10
120.5324294735903
 20
146.4144153998291
 30
0.0
 10
120.5324294735903
 20
146.4144153998291
 30
0.0
 10
120.5324294735903
 20
146.4144153998291
 30
0.0
 10
120.5324294735903
 20
147.0023213322253
 30
0.0
 10
120.5324294735903
 20
147.0023213322253
 30
0.0
 10
120.5324294735903
 20
147.0023213322253
 30
0.0
 10
132.2917539057288
 20
147.0023213322253
 30
0.0
 10
132.2917539057288
 20
147.0023213322253
 30
0.0
 10
132.2917539057288
 20
147.0023213322253
 30
0.0
 10
132.2917539057288
 20
138.0652209834089
 30
0.0
 10
132.2917539057288
 20
138.0652209834089
 30
0.0
 10
132.2917539057288
 20
138.0652209834089
 30
0.0
 10
120.4736905568171
 20
138.0652209834089
 30
0.0
 10
120.4736905568171
 20
138.0652209834089
 30
0.0
 10
120.4736905568171
 20
138.0652209834089
 30
0.0
 10
120.4736905568171
 20
143.7096691500534
 30
0.0
 10
120.4736905568171
 20
143.7096691500534
 30
0.0
 10
120.4736905568171
 20
143.7096691500534
 30
0.0
 10
119.8857846244209
 20
143.7096691500534
 30
0.0
 10
119.8857846244209
 20
143.7096691500534
 30
0.0
 10
119.8857846244209
 20
143.7096691500534
 30
0.0
 10
119.8857846244209
 20
143.1805021344304
 30
0.0
 10
119.8857846244209
 20
143.1805021344304
 30
0.0
 10
119.8857846244209
 20
143.1805021344304
 30
0.0
 10
116.7695214474567
 20
143.1805021344304
 30
0.0
 10
116.7695214474567
 20
143.1805021344304
 30
0.0
 10
116.7695214474567
 20
143.1805021344304
 30
0.0
 10
116.7695214474567
 20
142.533857285261
 30
0.0
 10
116.7695214474567
 20
142.533857285261
 30
0.0
 10
116.7695214474567
 20
142.533857285261
 30
0.0
 10
120.0032624579674
 20
142.533857285261
 30
0.0
 10
120.0032624579674
 20
142.533857285261
 30
0.0
 10
120.0032624579674
 20
142.533857285261
 30
0.0
 10
120.0032624579674
 20
138.4769101654854
 30
0.0
 10
120.0032624579674
 20
138.4769101654854
 30
0.0
 10
120.0032624579674
 20
138.4769101654854
 30
0.0
 10
118.7098005047407
 20
138.4769101654854
 30
0.0
 10
118.7098005047407
 20
138.4769101654854
 30
0.0
 10
118.7098005047407
 20
138.4769101654854
 30
0.0
 10
118.7098005047407
 20
137.1245370405975
 30
0.0
 10
118.7098005047407
 20
137.1245370405975
 30
0.0
 10
118.7098005047407
 20
137.1245370405975
 30
0.0
 10
119.9445235411941
 20
137.1245370405975
 30
0.0
 10
119.9445235411941
 20
137.1245370405975
 30
0.0
 10
119.9445235411941
 20
137.1245370405975
 30
0.0
 10
119.9445235411941
 20
118.1332633949458
 30
0.0
 10
119.9445235411941
 20
118.1332633949458
 30
0.0
 10
119.9445235411941
 20
118.1332633949458
 30
0.0
 10
118.7685394215139
 20
118.1332633949458
 30
0.0
 10
118.7685394215139
 20
118.1332633949458
 30
0.0
 10
118.7685394215139
 20
118.1332633949458
 30
0.0
 10
118.7685394215139
 20
117.368968457342
 30
0.0
 10
118.7685394215139
 20
117.368968457342
 30
0.0
 10
118.7685394215139
 20
117.368968457342
 30
0.0
 10
120.5913406452514
 20
117.368968457342
 30
0.0
 10
120.5913406452514
 20
117.368968457342
 30
0.0
 10
120.5913406452514
 20
117.368968457342
 30
0.0
 10
120.5913406452514
 20
109.372724306225
 30
0.0
 10
120.5913406452514
 20
109.372724306225
 30
0.0
 10
120.5913406452514
 20
109.372724306225
 30
0.0
 10
117.1222994578719
 20
108.5495181969601
 30
0.0
 10
117.1222994578719
 20
108.5495181969601
 30
0.0
 10
117.1222994578719
 20
108.5495181969601
 30
0.0
 10
117.2399495463063
 20
107.9616122645639
 30
0.0
 10
117.2399495463063
 20
107.9616122645639
 30
0.0
 10
117.2399495463063
 20
107.9616122645639
 30
0.0
 10
120.4736905568171
 20
108.6671682853945
 30
0.0
 10
120.4736905568171
 20
108.6671682853945
 30
0.0
 10
120.4736905568171
 20
108.6671682853945
 30
0.0
 10
121.3556355828553
 20
108.6671682853945
 30
0.0
 10
121.3556355828553
 20
108.6671682853945
 30
0.0
 10
121.3556355828553
 20
108.6671682853945
 30
0.0
 10
121.3556355828553
 20
117.0161904469267
 30
0.0
 10
121.3556355828553
 20
117.0161904469267
 30
0.0
 10
121.3556355828553
 20
117.0161904469267
 30
0.0
 10
123.2959146401393
 20
117.0161904469267
 30
0.0
 10
123.2959146401393
 20
117.0161904469267
 30
0.0
 10
123.2959146401393
 20
117.0161904469267
 30
0.0
 10
123.2959146401393
 20
117.8393965561917
 30
0.0
 10
123.2959146401393
 20
117.8393965561917
 30
0.0
 10
123.2959146401393
 20
117.8393965561917
 30
0.0
 10
120.5324294735903
 20
117.8393965561917
 30
0.0
 10
120.5324294735903
 20
117.8393965561917
 30
0.0
 10
120.5324294735903
 20
117.8393965561917
 30
0.0
 10
120.5324294735903
 20
137.3596649625784
 30
0.0
 10
120.5324294735903
 20
137.3596649625784
 30
0.0
 10
120.5324294735903
 20
137.3596649625784
 30
0.0
 10
132.2917539057288
 20
137.3596649625784
 30
0.0
 10
132.2917539057288
 20
137.3596649625784
 30
0.0
 10
132.2917539057288
 20
137.3596649625784
 30
0.0
 10
132.2917539057288
 20
117.8981354729649
 30
0.0
 10
132.2917539057288
 20
117.8981354729649
 30
0.0
 10
132.2917539057288
 20
117.8981354729649
 30
0.0
 10
129.9986968380295
 20
117.8981354729649
 30
0.0
 10
129.9986968380295
 20
117.8981354729649
 30
0.0
 10
129.9986968380295
 20
117.8981354729649
 30
0.0
 10
129.9986968380295
 20
117.3102295405687
 30
0.0
 10
129.9986968380295
 20
117.3102295405687
 30
0.0
 10
129.9986968380295
 20
117.3102295405687
 30
0.0
 10
131.8213258068792
 20
117.3102295405687
 30
0.0
 10
131.8213258068792
 20
117.3102295405687
 30
0.0
 10
131.8213258068792
 20
117.3102295405687
 30
0.0
 10
131.8213258068792
 20
115.4874283168312
 30
0.0
 10
131.8213258068792
 20
115.4874283168312
 30
0.0
 10
131.8213258068792
 20
115.4874283168312
 30
0.0
 10
133.2913490202014
 20
115.4874283168312
 30
0.0
 10
133.2913490202014
 20
115.4874283168312
 30
0.0
 10
133.2913490202014
 20
115.4874283168312
 30
0.0
 10
133.2913490202014
 20
102.728681025108
 30
0.0
 10
133.2913490202014
 20
102.728681025108
 30
0.0
 10
133.2913490202014
 20
102.728681025108
 30
0.0
 10
134.9963279006166
 20
102.728681025108
 30
0.0
 10
134.9963279006166
 20
102.728681025108
 30
0.0
 10
134.9963279006166
 20
102.728681025108
 30
0.0
 10
134.1143828745785
 20
112.6064653167358
 30
0.0
 10
134.1143828745785
 20
112.6064653167358
 30
0.0
 10
134.1143828745785
 20
112.6064653167358
 30
0.0
 10
138.4066301712229
 20
112.9005044103778
 30
0.0
 10
138.4066301712229
 20
112.9005044103778
 30
0.0
 10
138.4066301712229
 20
112.9005044103778
 30
0.0
 10
138.8181470984115
 20
109.372724306225
 30
0.0
 10
138.8181470984115
 20
109.372724306225
 30
0.0
 10
138.8181470984115
 20
109.372724306225
 30
0.0
 10
138.0538521608077
 20
109.2550742177906
 30
0.0
 10
138.0538521608077
 20
109.2550742177906
 30
0.0
 10
138.0538521608077
 20
109.2550742177906
 30
0.0
 10
138.7004970099771
 20
102.8461588586545
 30
0.0
 10
138.7004970099771
 20
102.8461588586545
 30
0.0
 10
138.7004970099771
 20
102.8461588586545
 30
0.0
 10
139.4821896912586
 20
102.8509819955156
 30
0.0
 10
139.4821896912586
 20
102.8509819955156
 30
0.0
 10
139.4821896912586
 20
102.8509819955156
 30
0.0
 10
139.4821896912586
 20
115.1346503064159
 30
0.0
 10
139.4821896912586
 20
115.1346503064159
 30
0.0
 10
139.4821896912586
 20
115.1346503064159
 30
0.0
 10
144.7566343586979
 20
115.1346503064159
 30
0.0
 10
144.7566343586979
 20
115.1346503064159
 30
0.0
 10
144.7566343586979
 20
115.1346503064159
 30
0.0
 10
144.7566343586979
 20
102.5977673103055
 30
0.0
 10
144.7566343586979
 20
102.5977673103055
 30
0.0
 10
144.7566343586979
 20
102.5977673103055
 30
0.0
 10
145.6535655599832
 20
102.5977673103055
 30
0.0
 10
145.6535655599832
 20
102.5977673103055
 30
0.0
 10
145.6535655599832
 20
102.5977673103055
 30
0.0
 10
145.6535655599832
 20
116.2518955093229
 30
0.0
 10
145.6535655599832
 20
116.2518955093229
 30
0.0
 10
145.6535655599832
 20
116.2518955093229
 30
0.0
 10
146.6381744992087
 20
116.2518955093229
 30
0.0
 10
146.6381744992087
 20
116.2518955093229
 30
0.0
 10
146.6381744992087
 20
116.2518955093229
 30
0.0
 10
146.6381744992087
 20
116.9574515301535
 30
0.0
 10
146.6381744992087
 20
116.9574515301535
 30
0.0
 10
146.6381744992087
 20
116.9574515301535
 30
0.0
 10
148.8723203952468
 20
116.9574515301535
 30
0.0
 10
148.8723203952468
 20
116.9574515301535
 30
0.0
 10
148.8723203952468
 20
116.9574515301535
 30
0.0
 10
148.8723203952468
 20
117.663007550984
 30
0.0
 10
148.8723203952468
 20
117.663007550984
 30
0.0
 10
148.8723203952468
 20
117.663007550984
 30
0.0
 10
133.5264769421823
 20
117.663007550984
 30
0.0
 10
133.5264769421823
 20
117.663007550984
 30
0.0
 10
133.5264769421823
 20
117.663007550984
 30
0.0
 10
133.5264769421823
 20
143.7685803217145
 30
0.0
 10
133.5264769421823
 20
143.7685803217145
 30
0.0
 10
133.5264769421823
 20
143.7685803217145
 30
0.0
 10
133.0562210982205
 20
143.7685803217145
 30
0.0
 10
133.0562210982205
 20
143.7685803217145
 30
0.0
 10
133.0562210982205
 20
143.7685803217145
 30
0.0
 10
133.0562210982205
 20
147.1199714206597
 30
0.0
 10
133.0562210982205
 20
147.1199714206597
 30
0.0
 10
133.0562210982205
 20
147.1199714206597
 30
0.0
 10
158.2209376712517
 20
147.1199714206597
 30
0.0
 10
158.2209376712517
 20
147.1199714206597
 30
0.0
 10
158.2209376712517
 20
147.1199714206597
 30
0.0
 10
158.2209376712517
 20
143.7096691500534
 30
0.0
 10
158.2209376712517
 20
143.7096691500534
 30
0.0
 10
158.2209376712517
 20
143.7096691500534
 30
0.0
 10
157.6917706556288
 20
143.7096691500534
 30
0.0
 10
157.6917706556288
 20
143.7096691500534
 30
0.0
 10
157.6917706556288
 20
143.7096691500534
 30
0.0
 10
157.6917706556288
 20
117.6040963793229
 30
0.0
 10
157.6917706556288
 20
117.6040963793229
 30
0.0
 10
157.6917706556288
 20
117.6040963793229
 30
0.0
 10
155.5165359312518
 20
117.6040963793229
 30
0.0
 10
155.5165359312518
 20
117.6040963793229
 30
0.0
 10
155.5165359312518
 20
117.6040963793229
 30
0.0
 10
155.5165359312518
 20
116.7810625249458
 30
0.0
 10
155.5165359312518
 20
116.7810625249458
 30
0.0
 10
155.5165359312518
 20
116.7810625249458
 30
0.0
 10
157.7506818272899
 20
116.7810625249458
 30
0.0
 10
157.7506818272899
 20
116.7810625249458
 30
0.0
 10
157.7506818272899
 20
116.7810625249458
 30
0.0
 10
157.7506818272899
 20
115.428689400058
 30
0.0
 10
157.7506818272899
 20
115.428689400058
 30
0.0
 10
157.7506818272899
 20
115.428689400058
 30
0.0
 10
159.3970940458198
 20
115.428689400058
 30
0.0
 10
159.3970940458198
 20
115.428689400058
 30
0.0
 10
159.3970940458198
 20
115.428689400058
 30
0.0
 10
159.3970940458198
 20
116.4282845145305
 30
0.0
 10
159.3970940458198
 20
116.4282845145305
 30
0.0
 10
159.3970940458198
 20
116.4282845145305
 30
0.0
 10
172.3909692595239
 20
116.4282845145305
 30
0.0
 10
172.3909692595239
 20
116.4282845145305
 30
0.0
 10
172.3909692595239
 20
116.4282845145305
 30
0.0
 10
172.3909692595239
 20
116.7221513532847
 30
0.0
 10
172.3909692595239
 20
116.7221513532847
 30
0.0
 10
172.3909692595239
 20
116.7221513532847
 30
0.0
 10
174.8604153324308
 20
116.7221513532847
 30
0.0
 10
174.8604153324308
 20
116.7221513532847
 30
0.0
 10
174.8604153324308
 20
116.7221513532847
 30
0.0
 10
174.8604153324308
 20
117.6040963793229
 30
0.0
 10
174.8604153324308
 20
117.6040963793229
 30
0.0
 10
174.8604153324308
 20
117.6040963793229
 30
0.0
 10
159.3970940458198
 20
117.6040963793229
 30
0.0
 10
159.3970940458198
 20
117.6040963793229
 30
0.0
 10
159.3970940458198
 20
117.6040963793229
 30
0.0
 10
159.3970940458198
 20
143.6509302332801
 30
0.0
 10
159.3970940458198
 20
143.6509302332801
 30
0.0
 10
159.3970940458198
 20
143.6509302332801
 30
0.0
 10
158.8090158585358
 20
143.6509302332801
 30
0.0
 10
158.8090158585358
 20
143.6509302332801
 30
0.0
 10
158.8090158585358
 20
143.6509302332801
 30
0.0
 10
158.8090158585358
 20
147.0610602489985
 30
0.0
 10
158.8090158585358
 20
147.0610602489985
 30
0.0
 10
158.8090158585358
 20
147.0610602489985
 30
0.0
 10
184.5028994471898
 20
147.0610602489985
 30
0.0
 10
184.5028994471898
 20
147.0610602489985
 30
0.0
 10
184.5028994471898
 20
147.0610602489985
 30
0.0
 10
184.5028994471898
 20
143.9447970720342
 30
0.0
 10
184.5028994471898
 20
143.9447970720342
 30
0.0
 10
184.5028994471898
 20
143.9447970720342
 30
0.0
 10
183.5620432494905
 20
143.9447970720342
 30
0.0
 10
183.5620432494905
 20
143.9447970720342
 30
0.0
 10
183.5620432494905
 20
143.9447970720342
 30
0.0
 10
183.5620432494905
 20
117.4277073741152
 30
0.0
 10
183.5620432494905
 20
117.4277073741152
 30
0.0
 10
183.5620432494905
 20
117.4277073741152
 30
0.0
 10
181.3868085251135
 20
117.4277073741152
 30
0.0
 10
181.3868085251135
 20
117.4277073741152
 30
0.0
 10
181.3868085251135
 20
117.4277073741152
 30
0.0
 10
181.3868085251135
 20
116.7808902700579
 30
0.0
 10
181.3868085251135
 20
116.7808902700579
 30
0.0
 10
181.3868085251135
 20
116.7808902700579
 30
0.0
 10
183.5620432494905
 20
116.7808902700579
 30
0.0
 10
183.5620432494905
 20
116.7808902700579
 30
0.0
 10
183.5620432494905
 20
116.7808902700579
 30
0.0
 10
183.5620432494905
 20
115.3697782283968
 30
0.0
 10
183.5620432494905
 20
115.3697782283968
 30
0.0
 10
183.5620432494905
 20
115.3697782283968
 30
0.0
 10
185.2673666396815
 20
115.3697782283968
 30
0.0
 10
185.2673666396815
 20
115.3697782283968
 30
0.0
 10
185.2673666396815
 20
115.3697782283968
 30
0.0
 10
185.2673666396815
 20
116.4281122596426
 30
0.0
 10
185.2673666396815
 20
116.4281122596426
 30
0.0
 10
185.2673666396815
 20
116.4281122596426
 30
0.0
 10
209.3737491814668
 20
116.4281122596426
 30
0.0
 10
209.3737491814668
 20
116.4281122596426
 30
0.0
 10
209.3737491814668
 20
116.4281122596426
 30
0.0
 10
209.3737491814668
 20
110.9013141814326
 30
0.0
 10
209.3737491814668
 20
110.9013141814326
 30
0.0
 10
209.3737491814668
 20
110.9013141814326
 30
0.0
 10
230.3054741392905
 20
110.9013141814326
 30
0.0
 10
230.3054741392905
 20
110.9013141814326
 30
0.0
 10
230.3054741392905
 20
110.9013141814326
 30
0.0
 10
230.3054741392905
 20
102.3169918430316
 30
0.0
 10
230.3054741392905
 20
102.3169918430316
 30
0.0
 10
230.3054741392905
 20
102.3169918430316
 30
0.0
 10
235.126543941782
 20
103.3753258742774
 30
0.0
 10
235.126543941782
 20
103.3753258742774
 30
0.0
 10
235.126543941782
 20
103.3753258742774
 30
0.0
 10
235.126543941782
 20
92.20425188431084
 30
0.0
 10
235.126543941782
 20
92.20425188431084
 30
0.0
 10
235.126543941782
 20
92.20425188431084
 30
0.0
 10
230.1876517959682
 20
93.08619691034903
 30
0.0
 10
230.1876517959682
 20
93.08619691034903
 30
0.0
 10
230.1876517959682
 20
93.08619691034903
 30
0.0
 10
230.1876517959682
 20
84.5017023170601
 30
0.0
 10
230.1876517959682
 20
84.5017023170601
 30
0.0
 10
230.1876517959682
 20
84.5017023170601
 30
0.0
 10
209.432660353128
 20
84.5017023170601
 30
0.0
 10
209.432660353128
 20
84.5017023170601
 30
0.0
 10
209.432660353128
 20
84.5017023170601
 30
0.0
 10
209.432660353128
 20
78.85725415041566
 30
0.0
 10
209.432660353128
 20
78.85725415041566
 30
0.0
 10
209.432660353128
 20
78.85725415041566
 30
0.0
 10
196.3209627961016
 20
78.85725415041566
 30
0.0
 10
196.3209627961016
 20
78.85725415041566
 30
0.0
 10
196.3209627961016
 20
78.85725415041566
 30
0.0
 10
196.3209627961016
 20
78.32808713479274
 30
0.0
 10
196.3209627961016
 20
78.32808713479274
 30
0.0
 10
196.3209627961016
 20
78.32808713479274
 30
0.0
 10
194.1457280717246
 20
78.32808713479274
 30
0.0
 10
194.1457280717246
 20
78.32808713479274
 30
0.0
 10
194.1457280717246
 20
78.32808713479274
 30
0.0
 10
194.1457280717246
 20
77.44614210875456
 30
0.0
 10
194.1457280717246
 20
77.44614210875456
 30
0.0
 10
194.1457280717246
 20
77.44614210875456
 30
0.0
 10
209.6679605299968
 20
77.44614210875456
 30
0.0
 10
209.6679605299968
 20
77.44614210875456
 30
0.0
 10
209.6679605299968
 20
77.44614210875456
 30
0.0
 10
209.6679605299968
 20
53.39832622885458
 30
0.0
 10
209.6679605299968
 20
53.39832622885458
 30
0.0
 10
209.6679605299968
 20
53.39832622885458
 30
0.0
 10
209.3737491814668
 20
53.39832622885458
 30
0.0
 10
209.3737491814668
 20
53.39832622885458
 30
0.0
 10
209.3737491814668
 20
53.39832622885458
 30
0.0
 10
209.3737491814668
 20
51.63443617677819
 30
0.0
 10
209.3737491814668
 20
51.63443617677819
 30
0.0
 10
209.3737491814668
 20
51.63443617677819
 30
0.0
 10
209.7265271918821
 20
51.63443617677819
 30
0.0
 10
209.7265271918821
 20
51.63443617677819
 30
0.0
 10
209.7265271918821
 20
51.63443617677819
 30
0.0
 10
209.7265271918821
 20
48.34195624949421
 30
0.0
 10
209.7265271918821
 20
48.34195624949421
 30
0.0
 10
209.7265271918821
 20
48.34195624949421
 30
0.0
 10
184.9734998009274
 20
48.34195624949421
 30
0.0
 10
184.9734998009274
 20
48.34195624949421
 30
0.0
 10
184.9734998009274
 20
48.34195624949421
 30
0.0
 10
184.9734998009274
 20
51.63443617677819
 30
0.0
 10
184.9734998009274
 20
51.63443617677819
 30
0.0
 10
184.9734998009274
 20
51.63443617677819
 30
0.0
 10
185.4437556448892
 20
51.63443617677819
 30
0.0
 10
185.4437556448892
 20
51.63443617677819
 30
0.0
 10
185.4437556448892
 20
51.63443617677819
 30
0.0
 10
185.4437556448892
 20
53.28084839530808
 30
0.0
 10
185.4437556448892
 20
53.28084839530808
 30
0.0
 10
185.4437556448892
 20
53.28084839530808
 30
0.0
 10
184.9734998009274
 20
53.28084839530808
 30
0.0
 10
184.9734998009274
 20
53.28084839530808
 30
0.0
 10
184.9734998009274
 20
53.28084839530808
 30
0.0
 10
184.9734998009274
 20
77.6225311139622
 30
0.0
 10
184.9734998009274
 20
77.6225311139622
 30
0.0
 10
184.9734998009274
 20
77.6225311139622
 30
0.0
 10
187.5015125357197
 20
77.6225311139622
 30
0.0
 10
187.5015125357197
 20
77.6225311139622
 30
0.0
 10
187.5015125357197
 20
77.6225311139622
 30
0.0
 10
187.5015125357197
 20
78.38699830645389
 30
0.0
 10
187.5015125357197
 20
78.38699830645389
 30
0.0
 10
187.5015125357197
 20
78.38699830645389
 30
0.0
 10
185.2084554680204
 20
78.38699830645389
 30
0.0
 10
185.2084554680204
 20
78.38699830645389
 30
0.0
 10
185.2084554680204
 20
78.38699830645389
 30
0.0
 10
185.2084554680204
 20
80.03306601520798
 30
0.0
 10
185.2084554680204
 20
80.03306601520798
 30
0.0
 10
185.2084554680204
 20
80.03306601520798
 30
0.0
 10
183.5034765876051
 20
80.03306601520798
 30
0.0
 10
183.5034765876051
 20
80.03306601520798
 30
0.0
 10
183.5034765876051
 20
80.03306601520798
 30
0.0
 10
183.5034765876051
 20
78.32808713479274
 30
0.0
 10
183.5034765876051
 20
78.32808713479274
 30
0.0
 10
183.5034765876051
 20
78.32808713479274
 30
0.0
 10
181.3868085251135
 20
78.32808713479274
 30
0.0
 10
181.3868085251135
 20
78.32808713479274
 30
0.0
 10
181.3868085251135
 20
78.32808713479274
 30
0.0
 10
181.3868085251135
 20
77.44614210875456
 30
0.0
 10
181.3868085251135
 20
77.44614210875456
 30
0.0
 10
181.3868085251135
 20
77.44614210875456
 30
0.0
 10
184.0326436032281
 20
77.44614210875456
 30
0.0
 10
184.0326436032281
 20
77.44614210875456
 30
0.0
 10
184.0326436032281
 20
77.44614210875456
 30
0.0
 10
184.0326436032281
 20
53.51614857217687
 30
0.0
 10
184.0326436032281
 20
53.51614857217687
 30
0.0
 10
184.0326436032281
 20
53.51614857217687
 30
0.0
 10
183.444565415944
 20
53.51614857217687
 30
0.0
 10
183.444565415944
 20
53.51614857217687
 30
0.0
 10
183.444565415944
 20
53.51614857217687
 30
0.0
 10
183.444565415944
 20
51.57586951489284
 30
0.0
 10
183.444565415944
 20
51.57586951489284
 30
0.0
 10
183.444565415944
 20
51.57586951489284
 30
0.0
 10
183.9737324315669
 20
51.57586951489284
 30
0.0
 10
183.9737324315669
 20
51.57586951489284
 30
0.0
 10
183.9737324315669
 20
51.57586951489284
 30
0.0
 10
183.9737324315669
 20
48.34195624949421
 30
0.0
 10
183.9737324315669
 20
48.34195624949421
 30
0.0
 10
183.9737324315669
 20
48.34195624949421
 30
0.0
 10
158.8679270301969
 20
48.34195624949421
 30
0.0
 10
158.8679270301969
 20
48.34195624949421
 30
0.0
 10
158.8679270301969
 20
48.34195624949421
 30
0.0
 10
158.8679270301969
 20
51.5169583432317
 30
0.0
 10
158.8679270301969
 20
51.5169583432317
 30
0.0
 10
158.8679270301969
 20
51.5169583432317
 30
0.0
 10
159.3381828741587
 20
51.5169583432317
 30
0.0
 10
159.3381828741587
 20
51.5169583432317
 30
0.0
 10
159.3381828741587
 20
51.5169583432317
 30
0.0
 10
159.3381828741587
 20
53.33975956696923
 30
0.0
 10
159.3381828741587
 20
53.33975956696923
 30
0.0
 10
159.3381828741587
 20
53.33975956696923
 30
0.0
 10
158.9854048637434
 20
53.33975956696923
 30
0.0
 10
158.9854048637434
 20
53.33975956696923
 30
0.0
 10
158.9854048637434
 20
53.33975956696923
 30
0.0
 10
158.9854048637434
 20
77.68144228562333
 30
0.0
 10
158.9854048637434
 20
77.68144228562333
 30
0.0
 10
158.9854048637434
 20
77.68144228562333
 30
0.0
 10
174.919326504092
 20
77.68144228562333
 30
0.0
 10
174.919326504092
 20
77.68144228562333
 30
0.0
 10
174.919326504092
 20
77.68144228562333
 30
0.0
 10
174.919326504092
 20
78.38699830645389
 30
0.0
 10
174.919326504092
 20
78.38699830645389
 30
0.0
 10
174.919326504092
 20
78.38699830645389
 30
0.0
 10
172.5084470930704
 20
78.38699830645389
 30
0.0
 10
172.5084470930704
 20
78.38699830645389
 30
0.0
 10
172.5084470930704
 20
78.38699830645389
 30
0.0
 10
172.5084470930704
 20
79.09255432728445
 30
0.0
 10
172.5084470930704
 20
79.09255432728445
 30
0.0
 10
172.5084470930704
 20
79.09255432728445
 30
0.0
 10
159.3970940458198
 20
79.09255432728445
 30
0.0
 10
159.3970940458198
 20
79.09255432728445
 30
0.0
 10
159.3970940458198
 20
79.09255432728445
 30
0.0
 10
159.3970940458198
 20
80.03306601520798
 30
0.0
 10
159.3970940458198
 20
80.03306601520798
 30
0.0
 10
159.3970940458198
 20
80.03306601520798
 30
0.0
 10
157.7506818272899
 20
80.03306601520798
 30
0.0
 10
157.7506818272899
 20
80.03306601520798
 30
0.0
 10
157.7506818272899
 20
80.03306601520798
 30
0.0
 10
157.7506818272899
 20
78.2691759631316
 30
0.0
 10
157.7506818272899
 20
78.2691759631316
 30
0.0
 10
157.7506818272899
 20
78.2691759631316
 30
0.0
 10
155.5165359312518
 20
78.2691759631316
 30
0.0
 10
155.5165359312518
 20
78.2691759631316
 30
0.0
 10
155.5165359312518
 20
78.2691759631316
 30
0.0
 10
155.5165359312518
 20
75.97611889543231
 30
0.0
 10
155.5165359312518
 20
75.97611889543231
 30
0.0
 10
155.5165359312518
 20
75.97611889543231
 30
0.0
 10
158.2209376712517
 20
75.97611889543231
 30
0.0
 10
158.2209376712517
 20
75.97611889543231
 30
0.0
 10
158.2209376712517
 20
75.97611889543231
 30
0.0
 10
158.2209376712517
 20
53.33975956696923
 30
0.0
 10
158.2209376712517
 20
53.33975956696923
 30
0.0
 10
158.2209376712517
 20
53.33975956696923
 30
0.0
 10
157.6332039937434
 20
53.33975956696923
 30
0.0
 10
157.6332039937434
 20
53.33975956696923
 30
0.0
 10
157.6332039937434
 20
53.33975956696923
 30
0.0
 10
157.6332039937434
 20
51.63443617677819
 30
0.0
 10
157.6332039937434
 20
51.63443617677819
 30
0.0
 10
157.6332039937434
 20
51.63443617677819
 30
0.0
 10
158.0445486660441
 20
51.63443617677819
 30
0.0
 10
158.0445486660441
 20
51.63443617677819
 30
0.0
 10
158.0445486660441
 20
51.63443617677819
 30
0.0
 10
158.0445486660441
 20
48.4594340830407
 30
0.0
 10
158.0445486660441
 20
48.4594340830407
 30
0.0
 10
158.0445486660441
 20
48.4594340830407
 30
0.0
 10
120.179651463175
 20
48.4594340830407
 30
0.0
 10
120.179651463175
 20
48.4594340830407
 30
0.0
 10
120.179651463175
 20
48.4594340830407
 30
0.0
 10
120.179651463175
 20
77.5050532804157
 30
0.0
 10
120.179651463175
 20
77.5050532804157
 30
0.0
 10
120.179651463175
 20
77.5050532804157
 30
0.0
 10
123.1636228862336
 20
77.41685877781188
 30
0.0
 10
123.1636228862336
 20
77.41685877781188
 30
0.0
  0
SPLINE
  5
3E
330
1F
100
AcDbEntity
  8
Layer 2
 62
     1
370
    35
100
AcDbSpline
210
0.0
220
0.0
230
1.0
 70
    11
 71
     3
 72
    89
 73
    85
 74
     0
 42
0.0000000001
 43
0.0000000001
 40
0.0
 40
0.0
 40
0.0
 40
0.0
 40
1.0
 40
1.0
 40
1.0
 40
2.0
 40
2.0
 40
2.0
 40
3.0
 40
3.0
 40
3.0
 40
4.0
 40
4.0
 40
4.0
 40
5.0
 40
5.0
 40
5.0
 40
6.0
 40
6.0
 40
6.0
 40
7.0
 40
7.0
 40
7.0
 40
8.0
 40
8.0
 40
8.0
 40
9.0
 40
9.0
 40
9.0
 40
10.0
 40
10.0
 40
10.0
 40
11.0
 40
11.0
 40
11.0
 40
12.0
 40
12.0
 40
12.0
 40
13.0
 40
13.0
 40
13.0
 40
14.0
 40
14.0
 40
14.0
 40
15.0
 40
15.0
 40
15.0
 40
16.0
 40
16.0
 40
16.0
 40
17.0
 40
17.0
 40
17.0
 40
18.0
 40
18.0
 40
18.0
 40
19.0
 40
19.0
 40
19.0
 40
20.0
 40
20.0
 40
20.0
 40
21.0
 40
21.0
 40
21.0
 40
22.0
 40
22.0
 40
22.0
 40
23.0
 40
23.0
 40
23.0
 40
24.0
 40
24.0
 40
24.0
 40
25.0
 40
25.0
 40
25.0
 40
26.0
 40
26.0
 40
26.0
 40
27.0
 40
27.0
 40
27.0
 40
28.0
 40
28.0
 40
28.0
 40
28.0
 10
106.9627061696429
 20
107.4346845624837
 30
0.0
 10
106.9627061696429
 20
107.4346845624837
 30
0.0
 10
106.9627061696429
 20
111.4103273751714
 30
0.0
 10
106.9627061696429
 20
111.4104996300593
 30
0.0
 10
106.9627061696429
 20
111.4104996300593
 30
0.0
 10
97.30868097739477
 20
111.4104996300593
 30
0.0
 10
97.30868097739477
 20
111.4104996300593
 30
0.0
 10
97.30868097739477
 20
111.4104996300593
 30
0.0
 10
97.42753685004445
 20
83.952553734441
 30
0.0
 10
97.42753685004445
 20
83.952553734441
 30
0.0
 10
97.42753685004445
 20
83.952553734441
 30
0.0
 10
106.9627061696429
 20
83.952553734441
 30
0.0
 10
106.9627061696429
 20
83.952553734441
 30
0.0
 10
106.9627061696429
 20
83.952553734441
 30
0.0
 10
106.9720079335894
 20
87.44588286101416
 30
0.0
 10
106.9720079335894
 20
87.44588286101416
 30
0.0
 10
106.9720079335894
 20
87.44588286101416
 30
0.0
 10
109.8552102472275
 20
87.47998932881796
 30
0.0
 10
109.8552102472275
 20
87.47998932881796
 30
0.0
 10
109.8552102472275
 20
87.47998932881796
 30
0.0
 10
109.8552102472275
 20
88.2330876987084
 30
0.0
 10
109.8552102472275
 20
88.2330876987084
 30
0.0
 10
109.8552102472275
 20
88.2330876987084
 30
0.0
 10
106.9730414629168
 20
88.26719416651221
 30
0.0
 10
106.9730414629168
 20
88.26719416651221
 30
0.0
 10
106.9730414629168
 20
88.26719416651221
 30
0.0
 10
106.9809651877601
 20
91.33953234706244
 30
0.0
 10
106.9809651877601
 20
91.33953234706244
 30
0.0
 10
106.9809651877601
 20
91.33953234706244
 30
0.0
 10
106.2400969149105
 20
91.33953234706244
 30
0.0
 10
106.2400969149105
 20
91.33953234706244
 30
0.0
 10
106.2400969149105
 20
91.33953234706244
 30
0.0
 10
106.2400969149105
 20
88.97550626554914
 30
0.0
 10
106.2400969149105
 20
88.97550626554914
 30
0.0
 10
106.2400969149105
 20
88.97550626554914
 30
0.0
 10
97.98426464773105
 20
88.97550626554914
 30
0.0
 10
97.98426464773105
 20
88.97550626554914
 30
0.0
 10
97.98426464773105
 20
88.97550626554914
 30
0.0
 10
97.98426464773105
 20
97.26682303963554
 30
0.0
 10
97.98426464773105
 20
97.26682303963554
 30
0.0
 10
97.98426464773105
 20
97.26682303963554
 30
0.0
 10
106.2047846628913
 20
97.26682303963554
 30
0.0
 10
106.2047846628913
 20
97.26682303963554
 30
0.0
 10
106.2047846628913
 20
97.26682303963554
 30
0.0
 10
106.2047846628913
 20
95.18529497427508
 30
0.0
 10
106.2047846628913
 20
95.18529497427508
 30
0.0
 10
106.2047846628913
 20
95.18529497427508
 30
0.0
 10
107.0515896917983
 20
95.18529497427508
 30
0.0
 10
107.0515896917983
 20
95.18529497427508
 30
0.0
 10
107.0515896917983
 20
95.18529497427508
 30
0.0
 10
107.0515896917983
 20
100.1245316298648
 30
0.0
 10
107.0515896917983
 20
100.1245316298648
 30
0.0
 10
107.0515896917983
 20
100.1245316298648
 30
0.0
 10
106.2754091669295
 20
100.1245316298648
 30
0.0
 10
106.2754091669295
 20
100.1245316298648
 30
0.0
 10
106.2754091669295
 20
100.1245316298648
 30
0.0
 10
106.2754091669295
 20
98.07814356163551
 30
0.0
 10
106.2754091669295
 20
98.07814356163551
 30
0.0
 10
106.2754091669295
 20
98.07814356163551
 30
0.0
 10
97.98426464773105
 20
98.07814356163551
 30
0.0
 10
97.98426464773105
 20
98.07814356163551
 30
0.0
 10
97.98426464773105
 20
98.07814356163551
 30
0.0
 10
97.98426464773105
 20
106.1928990756264
 30
0.0
 10
97.98426464773105
 20
106.1928990756264
 30
0.0
 10
97.98426464773105
 20
106.1928990756264
 30
0.0
 10
106.2754091669295
 20
106.1928990756264
 30
0.0
 10
106.2754091669295
 20
106.1928990756264
 30
0.0
 10
106.2754091669295
 20
106.1928990756264
 30
0.0
 10
106.2754091669295
 20
104.0054342542086
 30
0.0
 10
106.2754091669295
 20
104.0054342542086
 30
0.0
 10
106.2754091669295
 20
104.0054342542086
 30
0.0
 10
106.9627061696429
 20
104.0054342542086
 30
0.0
 10
106.9627061696429
 20
104.0054342542086
 30
0.0
 10
106.9627061696429
 20
104.0054342542086
 30
0.0
 10
106.9627061696429
 20
106.8185288284722
 30
0.0
 10
106.9627061696429
 20
106.8185288284722
 30
0.0
 10
106.9627061696429
 20
106.8185288284722
 30
0.0
 10
110.0262593509103
 20
107.126520568034
 30
0.0
 10
110.0262593509103
 20
107.126520568034
 30
0.0
 10
110.0262593509103
 20
107.126520568034
 30
0.0
 10
109.9235954377231
 20
107.811061492541
 30
0.0
 10
109.9235954377231
 20
107.811061492541
 30
0.0
 10
109.9235954377231
 20
107.811061492541
 30
0.0
 10
106.9627061696429
 20
107.4346845624837
 30
0.0
 10
106.9627061696429
 20
107.4346845624837
 30
0.0
  0
POLYLINE
  5
3F
330
1F
100
AcDbEntity
  8
Layer 2
 62
     1
370
    35
100
AcDb2dPolyline
 66
     1
 10
0.0
 20
0.0
 30
0.0
  0
VERTEX
  5
40
330
3F
100
AcDbEntity
  8
Layer 2
 62
     1
370
    35
100
AcDbVertex
100
AcDb2dVertex
 10
129.8810467495952
 20
77.5050532804157
 30
0.0
  0
VERTEX
  5
41
330
3F
100
AcDbEntity
  8
Layer 2
 62
     1
370
    35
100
AcDbVertex
100
AcDb2dVertex
 10
129.8810467495952
 20
78.18132597030358
 30
0.0
  0
VERTEX
  5
42
330
3F
100
AcDbEntity
  8
Layer 2
 62
     1
370
    35
100
AcDbVertex
100
AcDb2dVertex
 10
131.8213258068792
 20
78.18132597030358
 30
0.0
  0
VERTEX
  5
43
330
3F
100
AcDbEntity
  8
Layer 2
 62
     1
370
    35
100
AcDbVertex
100
AcDb2dVertex
 10
131.8213258068792
 20
79.94521602237997
 30
0.0
  0
VERTEX
  5
44
330
3F
100
AcDbEntity
  8
Layer 2
 62
     1
370
    35
100
AcDbVertex
100
AcDb2dVertex
 10
132.8564054282588
 20
79.94521602237997
 30
0.0
  0
VERTEX
  5
45
330
3F
100
AcDbEntity
  8
Layer 2
 62
     1
370
    35
100
AcDbVertex
100
AcDb2dVertex
 10
132.8564054282588
 20
92.37133912557198
 30
0.0
  0
VERTEX
  5
46
330
3F
100
AcDbEntity
  8
Layer 2
 62
     1
370
    35
100
AcDbVertex
100
AcDb2dVertex
 10
139.4728879273121
 20
92.37133912557198
 30
0.0
  0
VERTEX
  5
47
330
3F
100
AcDbEntity
  8
Layer 2
 62
     1
370
    35
100
AcDbVertex
100
AcDb2dVertex
 10
139.4728879273121
 20
85.14111246093778
 30
0.0
  0
VERTEX
  5
48
330
3F
100
AcDbEntity
  8
Layer 2
 62
     1
370
    35
100
AcDbVertex
100
AcDb2dVertex
 10
133.5044283165313
 20
85.78913534921037
 30
0.0
  0
VERTEX
  5
49
330
3F
100
AcDbEntity
  8
Layer 2
 62
     1
370
    35
100
AcDbVertex
100
AcDb2dVertex
 10
133.4873750826294
 20
80.11230326364111
 30
0.0
  0
VERTEX
  5
4A
330
3F
100
AcDbEntity
  8
Layer 2
 62
     1
370
    35
100
AcDbVertex
100
AcDb2dVertex
 10
144.6570710334928
 20
80.2659546236462
 30
0.0
  0
VERTEX
  5
4B
330
3F
100
AcDbEntity
  8
Layer 2
 62
     1
370
    35
100
AcDbVertex
100
AcDb2dVertex
 10
144.6491473086495
 20
92.65177008307006
 30
0.0
  0
VERTEX
  5
4C
330
3F
100
AcDbEntity
  8
Layer 2
 62
     1
370
    35
100
AcDbVertex
100
AcDb2dVertex
 10
145.2634082388941
 20
92.65177008307006
 30
0.0
  0
VERTEX
  5
4D
330
3F
100
AcDbEntity
  8
Layer 2
 62
     1
370
    35
100
AcDbVertex
100
AcDb2dVertex
 10
145.2634082388941
 20
78.73254161157745
 30
0.0
  0
VERTEX
  5
4E
330
3F
100
AcDbEntity
  8
Layer 2
 62
     1
370
    35
100
AcDbVertex
100
AcDb2dVertex
 10
146.6605676346354
 20
78.73254161157745
 30
0.0
  0
VERTEX
  5
4F
330
3F
100
AcDbEntity
  8
Layer 2
 62
     1
370
    35
100
AcDbVertex
100
AcDb2dVertex
 10
146.6605676346354
 20
78.12207028886664
 30
0.0
  0
VERTEX
  5
50
330
3F
100
AcDbEntity
  8
Layer 2
 62
     1
370
    35
100
AcDbVertex
100
AcDb2dVertex
 10
148.7253869758698
 20
78.12207028886664
 30
0.0
  0
VERTEX
  5
51
330
3F
100
AcDbEntity
  8
Layer 2
 62
     1
370
    35
100
AcDbVertex
100
AcDb2dVertex
 10
148.7253869758698
 20
77.50470877063991
 30
0.0
  0
VERTEX
  5
52
330
3F
100
AcDbEntity
  8
Layer 2
 62
     1
370
    35
100
AcDbVertex
100
AcDb2dVertex
 10
129.8810467495952
 20
77.5050532804157
 30
0.0
  0
SEQEND
  5
53
330
3F
100
AcDbEntity
  8
Layer 2
370
    35
  0
POLYLINE
  5
54
330
1F
100
AcDbEntity
  8
Layer 2
 62
     1
370
    35
100
AcDb2dPolyline
 66
     1
 10
0.0
 20
0.0
 30
0.0
  0
VERTEX
  5
55
330
54
100
AcDbEntity
  8
Layer 2
 62
     1
370
    35
100
AcDbVertex
100
AcDb2dVertex
 10
105.2160416063563
 20
40.3751676842078
 30
0.0
  0
VERTEX
  5
56
330
54
100
AcDbEntity
  8
Layer 2
 62
     1
370
    35
100
AcDbVertex
100
AcDb2dVertex
 10
115.0497286466822
 20
40.3751676842078
 30
0.0
  0
VERTEX
  5
57
330
54
100
AcDbEntity
  8
Layer 2
 62
     1
370
    35
100
AcDbVertex
100
AcDb2dVertex
 10
115.0497286466822
 20
41.16891820764218
 30
0.0
  0
VERTEX
  5
58
330
54
100
AcDbEntity
  8
Layer 2
 62
     1
370
    35
100
AcDbVertex
100
AcDb2dVertex
 10
105.2601388576582
 20
41.16891820764218
 30
0.0
  0
VERTEX
  5
59
330
54
100
AcDbEntity
  8
Layer 2
 62
     1
370
    35
100
AcDbVertex
100
AcDb2dVertex
 10
105.2160416063563
 20
40.3751676842078
 30
0.0
  0
SEQEND
  5
5A
330
54
100
AcDbEntity
  8
Layer 2
370
    35
  0
POLYLINE
  5
5B
330
1F
100
AcDbEntity
  8
Layer 2
 62
     1
370
    35
100
AcDb2dPolyline
 66
     1
 10
0.0
 20
0.0
 30
0.0
  0
VERTEX
  5
5C
330
5B
100
AcDbEntity
  8
Layer 2
 62
     1
370
    35
100
AcDbVertex
100
AcDb2dVertex
 10
205.6695800721064
 20
141.0050951551655
 30
0.0
  0
VERTEX
  5
5D
330
5B
100
AcDbEntity
  8
Layer 2
 62
     1
370
    35
100
AcDbVertex
100
AcDb2dVertex
 10
205.6695800721064
 20
140.1231501291273
 30
0.0
  0
VERTEX
  5
5E
330
5B
100
AcDbEntity
  8
Layer 2
 62
     1
370
    35
100
AcDbVertex
100
AcDb2dVertex
 10
215.25349752498
 20
140.1231501291273
 30
0.0
  0
VERTEX
  5
5F
330
5B
100
AcDbEntity
  8
Layer 2
 62
     1
370
    35
100
AcDbVertex
100
AcDb2dVertex
 10
215.25349752498
 20
140.9461839835044
 30
0.0
  0
VERTEX
  5
60
330
5B
100
AcDbEntity
  8
Layer 2
 62
     1
370
    35
100
AcDbVertex
100
AcDb2dVertex
 10
205.6695800721064
 20
141.0050951551655
 30
0.0
  0
SEQEND
  5
61
330
5B
100
AcDbEntity
  8
Layer 2
370
    35
  0
POLYLINE
  5
62
330
1F
100
AcDbEntity
  8
Layer 2
 62
     1
370
    35
100
AcDb2dPolyline
 66
     1
 10
0.0
 20
0.0
 30
0.0
  0
VERTEX
  5
63
330
62
100
AcDbEntity
  8
Layer 2
 62
     1
370
    35
100
AcDbVertex
100
AcDb2dVertex
 10
209.432660353128
 20
143.9447970720342
 30
0.0
  0
VERTEX
  5
64
330
62
100
AcDbEntity
  8
Layer 2
 62
     1
370
    35
100
AcDbVertex
100
AcDb2dVertex
 10
209.432660353128
 20
142.2985571083923
 30
0.0
  0
VERTEX
  5
65
330
62
100
AcDbEntity
  8
Layer 2
 62
     1
370
    35
100
AcDbVertex
100
AcDb2dVertex
 10
211.0787280618821
 20
142.2985571083923
 30
0.0
  0
VERTEX
  5
66
330
62
100
AcDbEntity
  8
Layer 2
 62
     1
370
    35
100
AcDbVertex
100
AcDb2dVertex
 10
211.0787280618821
 20
143.886058155261
 30
0.0
  0
VERTEX
  5
67
330
62
100
AcDbEntity
  8
Layer 2
 62
     1
370
    35
100
AcDbVertex
100
AcDb2dVertex
 10
209.432660353128
 20
143.9447970720342
 30
0.0
  0
SEQEND
  5
68
330
62
100
AcDbEntity
  8
Layer 2
370
    35
  0
POLYLINE
  5
69
330
1F
100
AcDbEntity
  8
Layer 2
 62
     1
370
    35
100
AcDb2dPolyline
 66
     1
 10
0.0
 20
0.0
 30
0.0
  0
VERTEX
  5
6A
330
69
100
AcDbEntity
  8
Layer 2
 62
     1
370
    35
100
AcDbVertex
100
AcDb2dVertex
 10
80.02186944749461
 20
143.7096691500534
 30
0.0
  0
VERTEX
  5
6B
330
69
100
AcDbEntity
  8
Layer 2
 62
     1
370
    35
100
AcDbVertex
100
AcDb2dVertex
 10
81.785759499571
 20
143.7096691500534
 30
0.0
  0
VERTEX
  5
6C
330
69
100
AcDbEntity
  8
Layer 2
 62
     1
370
    35
100
AcDbVertex
100
AcDb2dVertex
 10
81.785759499571
 20
143.0041131292228
 30
0.0
  0
VERTEX
  5
6D
330
69
100
AcDbEntity
  8
Layer 2
 62
     1
370
    35
100
AcDbVertex
100
AcDb2dVertex
 10
90.37008183797204
 20
143.0041131292228
 30
0.0
  0
VERTEX
  5
6E
330
69
100
AcDbEntity
  8
Layer 2
 62
     1
370
    35
100
AcDbVertex
100
AcDb2dVertex
 10
90.37008183797204
 20
140.1231501291273
 30
0.0
  0
VERTEX
  5
6F
330
69
100
AcDbEntity
  8
Layer 2
 62
     1
370
    35
100
AcDbVertex
100
AcDb2dVertex
 10
72.55479231200054
 20
140.1231501291273
 30
0.0
  0
VERTEX
  5
70
330
69
100
AcDbEntity
  8
Layer 2
 62
     1
370
    35
100
AcDbVertex
100
AcDb2dVertex
 10
72.55479231200054
 20
143.0041131292228
 30
0.0
  0
VERTEX
  5
71
330
69
100
AcDbEntity
  8
Layer 2
 62
     1
370
    35
100
AcDbVertex
100
AcDb2dVertex
 10
80.02186944749461
 20
143.0041131292228
 30
0.0
  0
VERTEX
  5
72
330
69
100
AcDbEntity
  8
Layer 2
 62
     1
370
    35
100
AcDbVertex
100
AcDb2dVertex
 10
80.02186944749461
 20
143.7096691500534
 30
0.0
  0
SEQEND
  5
73
330
69
100
AcDbEntity
  8
Layer 2
370
    35
  0
POLYLINE
  5
75
330
1F
100
AcDbEntity
  8
Layer 3
 62
     4
370
   106
100
AcDb2dPolyline
 66
     1
 10
0.0
 20
0.0
 30
0.0
  0
VERTEX
  5
76
330
75
100
AcDbEntity
  8
Layer 3
 62
     4
370
   106
100
AcDbVertex
100
AcDb2dVertex
 10
101.2667537915169
 20
93.06655985312864
 30
0.0
  0
VERTEX
  5
77
330
75
100
AcDbEntity
  8
Layer 3
 62
     4
370
   106
100
AcDbVertex
100
AcDb2dVertex
 10
114.7577566116949
 20
93.06655985312864
 30
0.0
  0
SEQEND
  5
78
330
75
100
AcDbEntity
  8
Layer 3
370
   106
  0
POLYLINE
  5
79
330
1F
100
AcDbEntity
  8
Layer 3
 62
     4
370
   106
100
AcDb2dPolyline
 66
     1
 10
0.0
 20
0.0
 30
0.0
  0
VERTEX
  5
7A
330
79
100
AcDbEntity
  8
Layer 3
 62
     4
370
   106
100
AcDbVertex
100
AcDb2dVertex
 10
101.1089683142023
 20
102.028981670466
 30
0.0
  0
VERTEX
  5
7B
330
79
100
AcDbEntity
  8
Layer 3
 62
     4
370
   106
100
AcDbVertex
100
AcDb2dVertex
 10
114.5999711343803
 20
102.028981670466
 30
0.0
  0
SEQEND
  5
7C
330
79
100
AcDbEntity
  8
Layer 3
370
   106
  0
POLYLINE
  5
7D
330
1F
100
AcDbEntity
  8
Layer 3
 62
     4
370
   106
100
AcDb2dPolyline
 66
     1
 10
0.0
 20
0.0
 30
0.0
  0
VERTEX
  5
7E
330
7D
100
AcDbEntity
  8
Layer 3
 62
     4
370
   106
100
AcDbVertex
100
AcDb2dVertex
 10
113.5945193537192
 20
151.5884354676238
 30
0.0
  0
VERTEX
  5
7F
330
7D
100
AcDbEntity
  8
Layer 3
 62
     4
370
   106
100
AcDbVertex
100
AcDb2dVertex
 10
113.5945193537192
 20
42.58003024930328
 30
0.0
  0
SEQEND
  5
80
330
7D
100
AcDbEntity
  8
Layer 3
370
   106
  0
POLYLINE
  5
81
330
1F
100
AcDbEntity
  8
Layer 3
 62
     4
370
   106
100
AcDb2dPolyline
 66
     1
 10
0.0
 20
0.0
 30
0.0
  0
VERTEX
  5
82
330
81
100
AcDbEntity
  8
Layer 3
 62
     4
370
   106
100
AcDbVertex
100
AcDb2dVertex
 10
112.5361853224733
 20
150.3537124311704
 30
0.0
  0
VERTEX
  5
83
330
81
100
AcDbEntity
  8
Layer 3
 62
     4
370
   106
100
AcDbVertex
100
AcDb2dVertex
 10
228.0709837334765
 20
150.3537124311704
 30
0.0
  0
SEQEND
  5
84
330
81
100
AcDbEntity
  8
Layer 3
370
   106
  0
POLYLINE
  5
85
330
1F
100
AcDbEntity
  8
Layer 3
 62
     4
370
   106
100
AcDb2dPolyline
 66
     1
 10
0.0
 20
0.0
 30
0.0
  0
VERTEX
  5
86
330
85
100
AcDbEntity
  8
Layer 3
 62
     4
370
   106
100
AcDbVertex
100
AcDb2dVertex
 10
122.5903586193087
 20
158.820384681137
 30
0.0
  0
VERTEX
  5
87
330
85
100
AcDbEntity
  8
Layer 3
 62
     4
370
   106
100
AcDbVertex
100
AcDb2dVertex
 10
122.5903586193087
 20
149.6481564103398
 30
0.0
  0
SEQEND
  5
88
330
85
100
AcDbEntity
  8
Layer 3
370
   106
  0
POLYLINE
  5
89
330
1F
100
AcDbEntity
  8
Layer 3
 62
     4
370
   106
100
AcDb2dPolyline
 66
     1
 10
0.0
 20
0.0
 30
0.0
  0
VERTEX
  5
8A
330
89
100
AcDbEntity
  8
Layer 3
 62
     4
370
   106
100
AcDbVertex
100
AcDb2dVertex
 10
135.4667559994663
 20
159.5259407019676
 30
0.0
  0
VERTEX
  5
8B
330
89
100
AcDbEntity
  8
Layer 3
 62
     4
370
   106
100
AcDbVertex
100
AcDb2dVertex
 10
135.4667559994663
 20
149.6481564103398
 30
0.0
  0
SEQEND
  5
8C
330
89
100
AcDbEntity
  8
Layer 3
370
   106
  0
POLYLINE
  5
8D
330
1F
100
AcDbEntity
  8
Layer 3
 62
     4
370
   106
100
AcDb2dPolyline
 66
     1
 10
0.0
 20
0.0
 30
0.0
  0
VERTEX
  5
8E
330
8D
100
AcDbEntity
  8
Layer 3
 62
     4
370
   106
100
AcDbVertex
100
AcDb2dVertex
 10
148.3431533796239
 20
159.1731626915523
 30
0.0
  0
VERTEX
  5
8F
330
8D
100
AcDbEntity
  8
Layer 3
 62
     4
370
   106
100
AcDbVertex
100
AcDb2dVertex
 10
148.3431533796239
 20
149.6481564103398
 30
0.0
  0
SEQEND
  5
90
330
8D
100
AcDbEntity
  8
Layer 3
370
   106
  0
POLYLINE
  5
91
330
1F
100
AcDbEntity
  8
Layer 3
 62
     4
370
   106
100
AcDb2dPolyline
 66
     1
 10
0.0
 20
0.0
 30
0.0
  0
VERTEX
  5
92
330
91
100
AcDbEntity
  8
Layer 3
 62
     4
370
   106
100
AcDbVertex
100
AcDb2dVertex
 10
161.3959397649892
 20
159.7023297071752
 30
0.0
  0
VERTEX
  5
93
330
91
100
AcDbEntity
  8
Layer 3
 62
     4
370
   106
100
AcDbVertex
100
AcDb2dVertex
 10
161.3959397649892
 20
149.6481564103398
 30
0.0
  0
SEQEND
  5
94
330
91
100
AcDbEntity
  8
Layer 3
370
   106
  0
POLYLINE
  5
95
330
1F
100
AcDbEntity
  8
Layer 3
 62
     4
370
   106
100
AcDb2dPolyline
 66
     1
 10
0.0
 20
0.0
 30
0.0
  0
VERTEX
  5
96
330
95
100
AcDbEntity
  8
Layer 3
 62
     4
370
   106
100
AcDbVertex
100
AcDb2dVertex
 10
174.2723371451468
 20
159.3495516967599
 30
0.0
  0
VERTEX
  5
97
330
95
100
AcDbEntity
  8
Layer 3
 62
     4
370
   106
100
AcDbVertex
100
AcDb2dVertex
 10
174.2723371451468
 20
149.6481564103398
 30
0.0
  0
SEQEND
  5
98
330
95
100
AcDbEntity
  8
Layer 3
370
   106
  0
POLYLINE
  5
99
330
1F
100
AcDbEntity
  8
Layer 3
 62
     4
370
   106
100
AcDb2dPolyline
 66
     1
 10
0.0
 20
0.0
 30
0.0
  0
VERTEX
  5
9A
330
99
100
AcDbEntity
  8
Layer 3
 62
     4
370
   106
100
AcDbVertex
100
AcDb2dVertex
 10
187.1487345253044
 20
158.9967736863447
 30
0.0
  0
VERTEX
  5
9B
330
99
100
AcDbEntity
  8
Layer 3
 62
     4
370
   106
100
AcDbVertex
100
AcDb2dVertex
 10
187.1487345253044
 20
149.6481564103398
 30
0.0
  0
SEQEND
  5
9C
330
99
100
AcDbEntity
  8
Layer 3
370
   106
  0
POLYLINE
  5
9D
330
1F
100
AcDbEntity
  8
Layer 3
 62
     4
370
   106
100
AcDb2dPolyline
 66
     1
 10
0.0
 20
0.0
 30
0.0
  0
VERTEX
  5
9E
330
9D
100
AcDbEntity
  8
Layer 3
 62
     4
370
   106
100
AcDbVertex
100
AcDb2dVertex
 10
200.2015209106696
 20
159.7023297071752
 30
0.0
  0
VERTEX
  5
9F
330
9D
100
AcDbEntity
  8
Layer 3
 62
     4
370
   106
100
AcDbVertex
100
AcDb2dVertex
 10
200.2015209106696
 20
149.6481564103398
 30
0.0
  0
SEQEND
  5
A0
330
9D
100
AcDbEntity
  8
Layer 3
370
   106
  0
POLYLINE
  5
A1
330
1F
100
AcDbEntity
  8
Layer 3
 62
     4
370
   106
100
AcDb2dPolyline
 66
     1
 10
0.0
 20
0.0
 30
0.0
  0
VERTEX
  5
A2
330
A1
100
AcDbEntity
  8
Layer 3
 62
     4
370
   106
100
AcDbVertex
100
AcDb2dVertex
 10
213.0779182908273
 20
159.7023297071752
 30
0.0
  0
VERTEX
  5
A3
330
A1
100
AcDbEntity
  8
Layer 3
 62
     4
370
   106
100
AcDbVertex
100
AcDb2dVertex
 10
213.0779182908273
 20
149.6481564103398
 30
0.0
  0
SEQEND
  5
A4
330
A1
100
AcDbEntity
  8
Layer 3
370
   106
  0
POLYLINE
  5
A5
330
1F
100
AcDbEntity
  8
Layer 3
 62
     4
370
   106
100
AcDb2dPolyline
 66
     1
 10
0.0
 20
0.0
 30
0.0
  0
VERTEX
  5
A6
330
A5
100
AcDbEntity
  8
Layer 3
 62
     4
370
   106
100
AcDbVertex
100
AcDb2dVertex
 10
219.9570894939251
 20
151.4120464624162
 30
0.0
  0
VERTEX
  5
A7
330
A5
100
AcDbEntity
  8
Layer 3
 62
     4
370
   106
100
AcDbVertex
100
AcDb2dVertex
 10
219.9570894939251
 20
123.1898056291941
 30
0.0
  0
SEQEND
  5
A8
330
A5
100
AcDbEntity
  8
Layer 3
370
   106
  0
POLYLINE
  5
A9
330
1F
100
AcDbEntity
  8
Layer 3
 62
     4
370
   106
100
AcDb2dPolyline
 66
     1
 10
0.0
 20
0.0
 30
0.0
  0
VERTEX
  5
AA
330
A9
100
AcDbEntity
  8
Layer 3
 62
     4
370
   106
100
AcDbVertex
100
AcDb2dVertex
 10
201.965410962746
 20
151.4120464624162
 30
0.0
  0
VERTEX
  5
AB
330
A9
100
AcDbEntity
  8
Layer 3
 62
     4
370
   106
100
AcDbVertex
100
AcDb2dVertex
 10
201.965410962746
 20
133.0675899208218
 30
0.0
  0
SEQEND
  5
AC
330
A9
100
AcDbEntity
  8
Layer 3
370
   106
  0
POLYLINE
  5
AD
330
1F
100
AcDbEntity
  8
Layer 3
 62
     4
370
   106
100
AcDb2dPolyline
 66
     1
 10
0.0
 20
0.0
 30
0.0
  0
VERTEX
  5
AE
330
AD
100
AcDbEntity
  8
Layer 3
 62
     4
370
   106
100
AcDbVertex
100
AcDb2dVertex
 10
114.4764643797574
 20
146.1203763061871
 30
0.0
  0
VERTEX
  5
AF
330
AD
100
AcDbEntity
  8
Layer 3
 62
     4
370
   106
100
AcDbVertex
100
AcDb2dVertex
 10
68.43893402056372
 20
146.1203763061871
 30
0.0
  0
SEQEND
  5
B0
330
AD
100
AcDbEntity
  8
Layer 3
370
   106
  0
POLYLINE
  5
B1
330
1F
100
AcDbEntity
  8
Layer 3
 62
     4
370
   106
100
AcDb2dPolyline
 66
     1
 10
0.0
 20
0.0
 30
0.0
  0
VERTEX
  5
B2
330
B1
100
AcDbEntity
  8
Layer 3
 62
     4
370
   106
100
AcDbVertex
100
AcDb2dVertex
 10
100.012565952731
 20
144.8856532697336
 30
0.0
  0
VERTEX
  5
B3
330
B1
100
AcDbEntity
  8
Layer 3
 62
     4
370
   106
100
AcDbVertex
100
AcDb2dVertex
 10
100.012565952731
 20
154.2342705457384
 30
0.0
  0
SEQEND
  5
B4
330
B1
100
AcDbEntity
  8
Layer 3
370
   106
  0
POLYLINE
  5
B5
330
1F
100
AcDbEntity
  8
Layer 3
 62
     4
370
   106
100
AcDb2dPolyline
 66
     1
 10
0.0
 20
0.0
 30
0.0
  0
VERTEX
  5
B6
330
B5
100
AcDbEntity
  8
Layer 3
 62
     4
370
   106
100
AcDbVertex
100
AcDb2dVertex
 10
93.1333947496331
 20
114.0175773583969
 30
0.0
  0
VERTEX
  5
B7
330
B5
100
AcDbEntity
  8
Layer 3
 62
     4
370
   106
100
AcDbVertex
100
AcDb2dVertex
 10
114.652853384965
 20
114.0175773583969
 30
0.0
  0
SEQEND
  5
B8
330
B5
100
AcDbEntity
  8
Layer 3
370
   106
  0
POLYLINE
  5
B9
330
1F
100
AcDbEntity
  8
Layer 3
 62
     4
370
   106
100
AcDb2dPolyline
 66
     1
 10
0.0
 20
0.0
 30
0.0
  0
VERTEX
  5
BA
330
B9
100
AcDbEntity
  8
Layer 3
 62
     4
370
   106
100
AcDbVertex
100
AcDb2dVertex
 10
92.78061673921782
 20
81.38561139498374
 30
0.0
  0
VERTEX
  5
BB
330
B9
100
AcDbEntity
  8
Layer 3
 62
     4
370
   106
100
AcDbVertex
100
AcDb2dVertex
 10
114.652853384965
 20
81.38561139498374
 30
0.0
  0
SEQEND
  5
BC
330
B9
100
AcDbEntity
  8
Layer 3
370
   106
  0
POLYLINE
  5
BD
330
1F
100
AcDbEntity
  8
Layer 3
 62
     4
370
   106
100
AcDb2dPolyline
 66
     1
 10
0.0
 20
0.0
 30
0.0
  0
VERTEX
  5
BE
330
BD
100
AcDbEntity
  8
Layer 3
 62
     4
370
   106
100
AcDbVertex
100
AcDb2dVertex
 10
88.5472806142345
 20
127.9523087698003
 30
0.0
  0
VERTEX
  5
BF
330
BD
100
AcDbEntity
  8
Layer 3
 62
     4
370
   106
100
AcDbVertex
100
AcDb2dVertex
 10
114.652853384965
 20
127.9523087698003
 30
0.0
  0
SEQEND
  5
C0
330
BD
100
AcDbEntity
  8
Layer 3
370
   106
  0
POLYLINE
  5
C1
330
1F
100
AcDbEntity
  8
Layer 3
 62
     4
370
   106
100
AcDb2dPolyline
 66
     1
 10
0.0
 20
0.0
 30
0.0
  0
VERTEX
  5
C2
330
C1
100
AcDbEntity
  8
Layer 3
 62
     4
370
   106
100
AcDbVertex
100
AcDb2dVertex
 10
88.5472806142345
 20
67.62726898878795
 30
0.0
  0
VERTEX
  5
C3
330
C1
100
AcDbEntity
  8
Layer 3
 62
     4
370
   106
100
AcDbVertex
100
AcDb2dVertex
 10
114.652853384965
 20
67.62726898878795
 30
0.0
  0
SEQEND
  5
C4
330
C1
100
AcDbEntity
  8
Layer 3
370
   106
  0
POLYLINE
  5
C5
330
1F
100
AcDbEntity
  8
Layer 3
 62
     4
370
   106
100
AcDb2dPolyline
 66
     1
 10
0.0
 20
0.0
 30
0.0
  0
VERTEX
  5
C6
330
C5
100
AcDbEntity
  8
Layer 3
 62
     4
370
   106
100
AcDbVertex
100
AcDb2dVertex
 10
101.0708999839768
 20
66.92171296795739
 30
0.0
  0
VERTEX
  5
C7
330
C5
100
AcDbEntity
  8
Layer 3
 62
     4
370
   106
100
AcDbVertex
100
AcDb2dVertex
 10
101.0708999839768
 20
75.03560720750876
 30
0.0
  0
SEQEND
  5
C8
330
C5
100
AcDbEntity
  8
Layer 3
370
   106
  0
POLYLINE
  5
C9
330
1F
100
AcDbEntity
  8
Layer 3
 62
     4
370
   106
100
AcDb2dPolyline
 66
     1
 10
0.0
 20
0.0
 30
0.0
  0
VERTEX
  5
CA
330
C9
100
AcDbEntity
  8
Layer 3
 62
     4
370
   106
100
AcDbVertex
100
AcDb2dVertex
 10
102.1292340152227
 20
129.0106428010461
 30
0.0
  0
VERTEX
  5
CB
330
C9
100
AcDbEntity
  8
Layer 3
 62
     4
370
   106
100
AcDbVertex
100
AcDb2dVertex
 10
102.1292340152227
 20
120.8967485614948
 30
0.0
  0
SEQEND
  5
CC
330
C9
100
AcDbEntity
  8
Layer 3
370
   106
  0
POLYLINE
  5
CD
330
1F
100
AcDbEntity
  8
Layer 3
 62
     4
370
   106
100
AcDb2dPolyline
 66
     1
 10
0.0
 20
0.0
 30
0.0
  0
VERTEX
  5
CE
330
CD
100
AcDbEntity
  8
Layer 3
 62
     4
370
   106
100
AcDbVertex
100
AcDb2dVertex
 10
75.49449422886926
 20
43.81475328575675
 30
0.0
  0
VERTEX
  5
CF
330
CD
100
AcDbEntity
  8
Layer 3
 62
     4
370
   106
100
AcDbVertex
100
AcDb2dVertex
 10
219.7807004887175
 20
43.81475328575675
 30
0.0
  0
SEQEND
  5
D0
330
CD
100
AcDbEntity
  8
Layer 3
370
   106
  0
POLYLINE
  5
D1
330
1F
100
AcDbEntity
  8
Layer 3
 62
     4
370
   106
100
AcDb2dPolyline
 66
     1
 10
0.0
 20
0.0
 30
0.0
  0
VERTEX
  5
D2
330
D1
100
AcDbEntity
  8
Layer 3
 62
     4
370
   106
100
AcDbVertex
100
AcDb2dVertex
 10
216.9584764053953
 20
42.40364124409565
 30
0.0
  0
VERTEX
  5
D3
330
D1
100
AcDbEntity
  8
Layer 3
 62
     4
370
   106
100
AcDbVertex
100
AcDb2dVertex
 10
216.9584764053953
 20
70.09671506169488
 30
0.0
  0
SEQEND
  5
D4
330
D1
100
AcDbEntity
  8
Layer 3
370
   106
  0
POLYLINE
  5
D5
330
1F
100
AcDbEntity
  8
Layer 3
 62
     4
370
   106
100
AcDb2dPolyline
 66
     1
 10
0.0
 20
0.0
 30
0.0
  0
VERTEX
  5
D6
330
D5
100
AcDbEntity
  8
Layer 3
 62
     4
370
   106
100
AcDbVertex
100
AcDb2dVertex
 10
215.9001423741495
 20
45.22586532741786
 30
0.0
  0
VERTEX
  5
D7
330
D5
100
AcDbEntity
  8
Layer 3
 62
     4
370
   106
100
AcDbVertex
100
AcDb2dVertex
 10
226.8362606970231
 20
45.22586532741786
 30
0.0
  0
SEQEND
  5
D8
330
D5
100
AcDbEntity
  8
Layer 3
370
   106
  0
POLYLINE
  5
D9
330
1F
100
AcDbEntity
  8
Layer 3
 62
     4
370
   106
100
AcDb2dPolyline
 66
     1
 10
0.0
 20
0.0
 30
0.0
  0
VERTEX
  5
DA
330
D9
100
AcDbEntity
  8
Layer 3
 62
     4
370
   106
100
AcDbVertex
100
AcDb2dVertex
 10
215.9001423741495
 20
50.34114647843938
 30
0.0
  0
VERTEX
  5
DB
330
D9
100
AcDbEntity
  8
Layer 3
 62
     4
370
   106
100
AcDbVertex
100
AcDb2dVertex
 10
226.8362606970231
 20
50.34114647843938
 30
0.0
  0
SEQEND
  5
DC
330
D9
100
AcDbEntity
  8
Layer 3
370
   106
  0
POLYLINE
  5
DD
330
1F
100
AcDbEntity
  8
Layer 3
 62
     4
370
   106
100
AcDb2dPolyline
 66
     1
 10
0.0
 20
0.0
 30
0.0
  0
VERTEX
  5
DE
330
DD
100
AcDbEntity
  8
Layer 3
 62
     4
370
   106
100
AcDbVertex
100
AcDb2dVertex
 10
215.9001423741495
 20
67.27449097837267
 30
0.0
  0
VERTEX
  5
DF
330
DD
100
AcDbEntity
  8
Layer 3
 62
     4
370
   106
100
AcDbVertex
100
AcDb2dVertex
 10
226.8362606970231
 20
67.27449097837267
 30
0.0
  0
SEQEND
  5
E0
330
DD
100
AcDbEntity
  8
Layer 3
370
   106
  0
POLYLINE
  5
E1
330
1F
100
AcDbEntity
  8
Layer 3
 62
     4
370
   106
100
AcDb2dPolyline
 66
     1
 10
0.0
 20
0.0
 30
0.0
  0
VERTEX
  5
E2
330
E1
100
AcDbEntity
  8
Layer 3
 62
     4
370
   106
100
AcDbVertex
100
AcDb2dVertex
 10
218.8987554626793
 20
44.52030930658731
 30
0.0
  0
VERTEX
  5
E3
330
E1
100
AcDbEntity
  8
Layer 3
 62
     4
370
   106
100
AcDbVertex
100
AcDb2dVertex
 10
218.8987554626793
 20
33.936968994129
 30
0.0
  0
SEQEND
  5
E4
330
E1
100
AcDbEntity
  8
Layer 3
370
   106
  0
POLYLINE
  5
E5
330
1F
100
AcDbEntity
  8
Layer 3
 62
     4
370
   106
100
AcDb2dPolyline
 66
     1
 10
0.0
 20
0.0
 30
0.0
  0
VERTEX
  5
E6
330
E5
100
AcDbEntity
  8
Layer 3
 62
     4
370
   106
100
AcDbVertex
100
AcDb2dVertex
 10
207.2570811189752
 20
44.52030930658731
 30
0.0
  0
VERTEX
  5
E7
330
E5
100
AcDbEntity
  8
Layer 3
 62
     4
370
   106
100
AcDbVertex
100
AcDb2dVertex
 10
207.2570811189752
 20
36.40641506703594
 30
0.0
  0
SEQEND
  5
E8
330
E5
100
AcDbEntity
  8
Layer 3
370
   106
  0
POLYLINE
  5
E9
330
1F
100
AcDbEntity
  8
Layer 3
 62
     4
370
   106
100
AcDb2dPolyline
 66
     1
 10
0.0
 20
0.0
 30
0.0
  0
VERTEX
  5
EA
330
E9
100
AcDbEntity
  8
Layer 3
 62
     4
370
   106
100
AcDbVertex
100
AcDb2dVertex
 10
194.3806837388176
 20
44.52030930658731
 30
0.0
  0
VERTEX
  5
EB
330
E9
100
AcDbEntity
  8
Layer 3
 62
     4
370
   106
100
AcDbVertex
100
AcDb2dVertex
 10
194.3806837388176
 20
36.75919307745122
 30
0.0
  0
SEQEND
  5
EC
330
E9
100
AcDbEntity
  8
Layer 3
370
   106
  0
POLYLINE
  5
ED
330
1F
100
AcDbEntity
  8
Layer 3
 62
     4
370
   106
100
AcDb2dPolyline
 66
     1
 10
0.0
 20
0.0
 30
0.0
  0
VERTEX
  5
EE
330
ED
100
AcDbEntity
  8
Layer 3
 62
     4
370
   106
100
AcDbVertex
100
AcDb2dVertex
 10
181.3278973534523
 20
44.52030930658731
 30
0.0
  0
VERTEX
  5
EF
330
ED
100
AcDbEntity
  8
Layer 3
 62
     4
370
   106
100
AcDbVertex
100
AcDb2dVertex
 10
181.3278973534523
 20
36.75919307745122
 30
0.0
  0
SEQEND
  5
F0
330
ED
100
AcDbEntity
  8
Layer 3
370
   106
  0
POLYLINE
  5
F1
330
1F
100
AcDbEntity
  8
Layer 3
 62
     4
370
   106
100
AcDb2dPolyline
 66
     1
 10
0.0
 20
0.0
 30
0.0
  0
VERTEX
  5
F2
330
F1
100
AcDbEntity
  8
Layer 3
 62
     4
370
   106
100
AcDbVertex
100
AcDb2dVertex
 10
168.4514999732947
 20
44.52030930658731
 30
0.0
  0
VERTEX
  5
F3
330
F1
100
AcDbEntity
  8
Layer 3
 62
     4
370
   106
100
AcDbVertex
100
AcDb2dVertex
 10
168.4514999732947
 20
36.40641506703594
 30
0.0
  0
SEQEND
  5
F4
330
F1
100
AcDbEntity
  8
Layer 3
370
   106
  0
POLYLINE
  5
F5
330
1F
100
AcDbEntity
  8
Layer 3
 62
     4
370
   106
100
AcDb2dPolyline
 66
     1
 10
0.0
 20
0.0
 30
0.0
  0
VERTEX
  5
F6
330
F5
100
AcDbEntity
  8
Layer 3
 62
     4
370
   106
100
AcDbVertex
100
AcDb2dVertex
 10
155.3987135879295
 20
44.52030930658731
 30
0.0
  0
VERTEX
  5
F7
330
F5
100
AcDbEntity
  8
Layer 3
 62
     4
370
   106
100
AcDbVertex
100
AcDb2dVertex
 10
155.3987135879295
 20
36.40641506703594
 30
0.0
  0
SEQEND
  5
F8
330
F5
100
AcDbEntity
  8
Layer 3
370
   106
  0
POLYLINE
  5
F9
330
1F
100
AcDbEntity
  8
Layer 3
 62
     4
370
   106
100
AcDb2dPolyline
 66
     1
 10
0.0
 20
0.0
 30
0.0
  0
VERTEX
  5
FA
330
F9
100
AcDbEntity
  8
Layer 3
 62
     4
370
   106
100
AcDbVertex
100
AcDb2dVertex
 10
142.6987052129795
 20
44.52030930658731
 30
0.0
  0
VERTEX
  5
FB
330
F9
100
AcDbEntity
  8
Layer 3
 62
     4
370
   106
100
AcDbVertex
100
AcDb2dVertex
 10
142.6987052129795
 20
36.40641506703594
 30
0.0
  0
SEQEND
  5
FC
330
F9
100
AcDbEntity
  8
Layer 3
370
   106
  0
POLYLINE
  5
FD
330
1F
100
AcDbEntity
  8
Layer 3
 62
     4
370
   106
100
AcDb2dPolyline
 66
     1
 10
0.0
 20
0.0
 30
0.0
  0
VERTEX
  5
FE
330
FD
100
AcDbEntity
  8
Layer 3
 62
     4
370
   106
100
AcDbVertex
100
AcDb2dVertex
 10
129.6459188276143
 20
44.52030930658731
 30
0.0
  0
VERTEX
  5
FF
330
FD
100
AcDbEntity
  8
Layer 3
 62
     4
370
   106
100
AcDbVertex
100
AcDb2dVertex
 10
129.6459188276143
 20
36.40641506703594
 30
0.0
  0
SEQEND
  5
100
330
FD
100
AcDbEntity
  8
Layer 3
370
   106
  0
POLYLINE
  5
101
330
1F
100
AcDbEntity
  8
Layer 3
 62
     4
370
   106
100
AcDb2dPolyline
 66
     1
 10
0.0
 20
0.0
 30
0.0
  0
VERTEX
  5
102
330
101
100
AcDbEntity
  8
Layer 3
 62
     4
370
   106
100
AcDbVertex
100
AcDb2dVertex
 10
116.7695214474567
 20
44.52030930658731
 30
0.0
  0
VERTEX
  5
103
330
101
100
AcDbEntity
  8
Layer 3
 62
     4
370
   106
100
AcDbVertex
100
AcDb2dVertex
 10
116.7695214474567
 20
37.46474909828177
 30
0.0
  0
SEQEND
  5
104
330
101
100
AcDbEntity
  8
Layer 3
370
   106
  0
POLYLINE
  5
105
330
1F
100
AcDbEntity
  8
Layer 3
 62
     4
370
   106
100
AcDb2dPolyline
 66
     1
 10
0.0
 20
0.0
 30
0.0
  0
VERTEX
  5
106
330
105
100
AcDbEntity
  8
Layer 3
 62
     4
370
   106
100
AcDbVertex
100
AcDb2dVertex
 10
103.5403460568838
 20
44.52030930658731
 30
0.0
  0
VERTEX
  5
107
330
105
100
AcDbEntity
  8
Layer 3
 62
     4
370
   106
100
AcDbVertex
100
AcDb2dVertex
 10
103.5403460568838
 20
30.40918888997623
 30
0.0
  0
SEQEND
  5
108
330
105
100
AcDbEntity
  8
Layer 3
370
   106
  0
POLYLINE
  5
109
330
1F
100
AcDbEntity
  8
Layer 3
 62
     4
370
   106
100
AcDb2dPolyline
 66
     1
 10
0.0
 20
0.0
 30
0.0
  0
VERTEX
  5
10A
330
109
100
AcDbEntity
  8
Layer 3
 62
     4
370
   106
100
AcDbVertex
100
AcDb2dVertex
 10
90.66394867672616
 20
44.52030930658731
 30
0.0
  0
VERTEX
  5
10B
330
109
100
AcDbEntity
  8
Layer 3
 62
     4
370
   106
100
AcDbVertex
100
AcDb2dVertex
 10
90.66394867672616
 20
35.70085904620539
 30
0.0
  0
SEQEND
  5
10C
330
109
100
AcDbEntity
  8
Layer 3
370
   106
  0
POLYLINE
  5
10D
330
1F
100
AcDbEntity
  8
Layer 3
 62
     4
370
   106
100
AcDb2dPolyline
 66
     1
 10
0.0
 20
0.0
 30
0.0
  0
VERTEX
  5
10E
330
10D
100
AcDbEntity
  8
Layer 3
 62
     4
370
   106
100
AcDbVertex
100
AcDb2dVertex
 10
78.84588532781439
 20
44.52030930658731
 30
0.0
  0
VERTEX
  5
10F
330
10D
100
AcDbEntity
  8
Layer 3
 62
     4
370
   106
100
AcDbVertex
100
AcDb2dVertex
 10
78.84588532781439
 20
33.58419098371373
 30
0.0
  0
SEQEND
  5
110
330
10D
100
AcDbEntity
  8
Layer 3
370
   106
  0
POLYLINE
  5
111
330
1F
100
AcDbEntity
  8
Layer 3
 62
     4
370
   106
100
AcDb2dPolyline
 66
     1
 10
0.0
 20
0.0
 30
0.0
  0
VERTEX
  5
112
330
111
100
AcDbEntity
  8
Layer 3
 62
     4
370
   106
100
AcDbVertex
100
AcDb2dVertex
 10
77.08199527573801
 20
52.2814255357234
 30
0.0
  0
VERTEX
  5
113
330
111
100
AcDbEntity
  8
Layer 3
 62
     4
370
   106
100
AcDbVertex
100
AcDb2dVertex
 10
77.08199527573801
 20
42.40364124409565
 30
0.0
  0
SEQEND
  5
114
330
111
100
AcDbEntity
  8
Layer 3
370
   106
  0
POLYLINE
  5
115
330
1F
100
AcDbEntity
  8
Layer 3
 62
     4
370
   106
100
AcDb2dPolyline
 66
     1
 10
0.0
 20
0.0
 30
0.0
  0
VERTEX
  5
116
330
115
100
AcDbEntity
  8
Layer 3
 62
     4
370
   106
100
AcDbVertex
100
AcDb2dVertex
 10
112.1834073120581
 20
97.61339987408648
 30
0.0
  0
VERTEX
  5
117
330
115
100
AcDbEntity
  8
Layer 3
 62
     4
370
   106
100
AcDbVertex
100
AcDb2dVertex
 10
196.8501298117245
 20
97.61339987408648
 30
0.0
  0
SEQEND
  5
118
330
115
100
AcDbEntity
  8
Layer 3
370
   106
  0
POLYLINE
  5
119
330
1F
100
AcDbEntity
  8
Layer 3
 62
     4
370
   106
100
AcDb2dPolyline
 66
     1
 10
0.0
 20
0.0
 30
0.0
  0
VERTEX
  5
11A
330
119
100
AcDbEntity
  8
Layer 3
 62
     4
370
   106
100
AcDbVertex
100
AcDb2dVertex
 10
190.6765146294572
 20
54.92726061383797
 30
0.0
  0
VERTEX
  5
11B
330
119
100
AcDbEntity
  8
Layer 3
 62
     4
370
   106
100
AcDbVertex
100
AcDb2dVertex
 10
190.6765146294572
 20
98.84812291053996
 30
0.0
  0
SEQEND
  5
11C
330
119
100
AcDbEntity
  8
Layer 3
370
   106
  0
POLYLINE
  5
11D
330
1F
100
AcDbEntity
  8
Layer 3
 62
     4
370
   106
100
AcDb2dPolyline
 66
     1
 10
0.0
 20
0.0
 30
0.0
  0
VERTEX
  5
11E
330
11D
100
AcDbEntity
  8
Layer 3
 62
     4
370
   106
100
AcDbVertex
100
AcDb2dVertex
 10
151.5181554733614
 20
64.27587788984282
 30
0.0
  0
VERTEX
  5
11F
330
11D
100
AcDbEntity
  8
Layer 3
 62
     4
370
   106
100
AcDbVertex
100
AcDb2dVertex
 10
151.5181554733614
 20
99.37728992616286
 30
0.0
  0
SEQEND
  5
120
330
11D
100
AcDbEntity
  8
Layer 3
370
   106
  0
POLYLINE
  5
121
330
1F
100
AcDbEntity
  8
Layer 3
 62
     4
370
   106
100
AcDb2dPolyline
 66
     1
 10
0.0
 20
0.0
 30
0.0
  0
VERTEX
  5
122
330
121
100
AcDbEntity
  8
Layer 3
 62
     4
370
   106
100
AcDbVertex
100
AcDb2dVertex
 10
177.094561228469
 20
68.15643600441086
 30
0.0
  0
VERTEX
  5
123
330
121
100
AcDbEntity
  8
Layer 3
 62
     4
370
   106
100
AcDbVertex
100
AcDb2dVertex
 10
177.094561228469
 20
99.37728992616286
 30
0.0
  0
SEQEND
  5
124
330
121
100
AcDbEntity
  8
Layer 3
370
   106
  0
POLYLINE
  5
125
330
1F
100
AcDbEntity
  8
Layer 3
 62
     4
370
   106
100
AcDb2dPolyline
 66
     1
 10
0.0
 20
0.0
 30
0.0
  0
VERTEX
  5
126
330
125
100
AcDbEntity
  8
Layer 3
 62
     4
370
   106
100
AcDbVertex
100
AcDb2dVertex
 10
126.2945277286691
 20
67.27449097837267
 30
0.0
  0
VERTEX
  5
127
330
125
100
AcDbEntity
  8
Layer 3
 62
     4
370
   106
100
AcDbVertex
100
AcDb2dVertex
 10
126.2945277286691
 20
97.43701086887884
 30
0.0
  0
SEQEND
  5
128
330
125
100
AcDbEntity
  8
Layer 3
370
   106
  0
POLYLINE
  5
129
330
1F
100
AcDbEntity
  8
Layer 3
 62
     4
370
   106
100
AcDb2dPolyline
 66
     1
 10
0.0
 20
0.0
 30
0.0
  0
VERTEX
  5
12A
330
129
100
AcDbEntity
  8
Layer 3
 62
     4
370
   106
100
AcDbVertex
100
AcDb2dVertex
 10
152.9292675150225
 20
127.0703637437621
 30
0.0
  0
VERTEX
  5
12B
330
129
100
AcDbEntity
  8
Layer 3
 62
     4
370
   106
100
AcDbVertex
100
AcDb2dVertex
 10
152.9292675150225
 20
96.20228783242537
 30
0.0
  0
SEQEND
  5
12C
330
129
100
AcDbEntity
  8
Layer 3
370
   106
  0
POLYLINE
  5
12D
330
1F
100
AcDbEntity
  8
Layer 3
 62
     4
370
   106
100
AcDb2dPolyline
 66
     1
 10
0.0
 20
0.0
 30
0.0
  0
VERTEX
  5
12E
330
12D
100
AcDbEntity
  8
Layer 3
 62
     4
370
   106
100
AcDbVertex
100
AcDb2dVertex
 10
178.6820622753378
 20
127.0703637437621
 30
0.0
  0
VERTEX
  5
12F
330
12D
100
AcDbEntity
  8
Layer 3
 62
     4
370
   106
100
AcDbVertex
100
AcDb2dVertex
 10
178.6820622753378
 20
96.20228783242537
 30
0.0
  0
SEQEND
  5
130
330
12D
100
AcDbEntity
  8
Layer 3
370
   106
  0
POLYLINE
  5
131
330
1F
100
AcDbEntity
  8
Layer 3
 62
     4
370
   106
100
AcDb2dPolyline
 66
     1
 10
0.0
 20
0.0
 30
0.0
  0
VERTEX
  5
132
330
131
100
AcDbEntity
  8
Layer 3
 62
     4
370
   106
100
AcDbVertex
100
AcDb2dVertex
 10
120.2973015516094
 20
154.939826566569
 30
0.0
  0
VERTEX
  5
133
330
131
100
AcDbEntity
  8
Layer 3
 62
     4
370
   106
100
AcDbVertex
100
AcDb2dVertex
 10
131.9389758953135
 20
167.8162239467266
 30
0.0
  0
SEQEND
  5
134
330
131
100
AcDbEntity
  8
Layer 3
370
   106
  0
POLYLINE
  5
135
330
1F
100
AcDbEntity
  8
Layer 3
 62
     4
370
   106
100
AcDb2dPolyline
 66
     1
 10
0.0
 20
0.0
 30
0.0
  0
VERTEX
  5
136
330
135
100
AcDbEntity
  8
Layer 3
 62
     4
370
   106
100
AcDbVertex
100
AcDb2dVertex
 10
133.173698931767
 20
154.7634375613613
 30
0.0
  0
VERTEX
  5
137
330
135
100
AcDbEntity
  8
Layer 3
 62
     4
370
   106
100
AcDbVertex
100
AcDb2dVertex
 10
145.1681512858864
 20
168.1690019571419
 30
0.0
  0
SEQEND
  5
138
330
135
100
AcDbEntity
  8
Layer 3
370
   106
  0
POLYLINE
  5
139
330
1F
100
AcDbEntity
  8
Layer 3
 62
     4
370
   106
100
AcDb2dPolyline
 66
     1
 10
0.0
 20
0.0
 30
0.0
  0
VERTEX
  5
13A
330
139
100
AcDbEntity
  8
Layer 3
 62
     4
370
   106
100
AcDbVertex
100
AcDb2dVertex
 10
146.0500963119246
 20
154.7634375613613
 30
0.0
  0
VERTEX
  5
13B
330
139
100
AcDbEntity
  8
Layer 3
 62
     4
370
   106
100
AcDbVertex
100
AcDb2dVertex
 10
157.6917706556288
 20
167.8162239467266
 30
0.0
  0
SEQEND
  5
13C
330
139
100
AcDbEntity
  8
Layer 3
370
   106
  0
POLYLINE
  5
13D
330
1F
100
AcDbEntity
  8
Layer 3
 62
     4
370
   106
100
AcDb2dPolyline
 66
     1
 10
0.0
 20
0.0
 30
0.0
  0
VERTEX
  5
13E
330
13D
100
AcDbEntity
  8
Layer 3
 62
     4
370
   106
100
AcDbVertex
100
AcDb2dVertex
 10
158.9264936920822
 20
154.939826566569
 30
0.0
  0
VERTEX
  5
13F
330
13D
100
AcDbEntity
  8
Layer 3
 62
     4
370
   106
100
AcDbVertex
100
AcDb2dVertex
 10
170.5681680357864
 20
167.9926129519342
 30
0.0
  0
SEQEND
  5
140
330
13D
100
AcDbEntity
  8
Layer 3
370
   106
  0
POLYLINE
  5
141
330
1F
100
AcDbEntity
  8
Layer 3
 62
     4
370
   106
100
AcDb2dPolyline
 66
     1
 10
0.0
 20
0.0
 30
0.0
  0
VERTEX
  5
142
330
141
100
AcDbEntity
  8
Layer 3
 62
     4
370
   106
100
AcDbVertex
100
AcDb2dVertex
 10
171.9792800774475
 20
154.7634375613613
 30
0.0
  0
VERTEX
  5
143
330
141
100
AcDbEntity
  8
Layer 3
 62
     4
370
   106
100
AcDbVertex
100
AcDb2dVertex
 10
183.6209544211516
 20
167.9926129519342
 30
0.0
  0
SEQEND
  5
144
330
141
100
AcDbEntity
  8
Layer 3
370
   106
  0
POLYLINE
  5
145
330
1F
100
AcDbEntity
  8
Layer 3
 62
     4
370
   106
100
AcDb2dPolyline
 66
     1
 10
0.0
 20
0.0
 30
0.0
  0
VERTEX
  5
146
330
145
100
AcDbEntity
  8
Layer 3
 62
     4
370
   106
100
AcDbVertex
100
AcDb2dVertex
 10
185.0320664628127
 20
154.939826566569
 30
0.0
  0
VERTEX
  5
147
330
145
100
AcDbEntity
  8
Layer 3
 62
     4
370
   106
100
AcDbVertex
100
AcDb2dVertex
 10
196.4973518013092
 20
167.9926129519342
 30
0.0
  0
SEQEND
  5
148
330
145
100
AcDbEntity
  8
Layer 3
370
   106
  0
POLYLINE
  5
149
330
1F
100
AcDbEntity
  8
Layer 3
 62
     4
370
   106
100
AcDb2dPolyline
 66
     1
 10
0.0
 20
0.0
 30
0.0
  0
VERTEX
  5
14A
330
149
100
AcDbEntity
  8
Layer 3
 62
     4
370
   106
100
AcDbVertex
100
AcDb2dVertex
 10
197.9084638429703
 20
154.7634375613613
 30
0.0
  0
VERTEX
  5
14B
330
149
100
AcDbEntity
  8
Layer 3
 62
     4
370
   106
100
AcDbVertex
100
AcDb2dVertex
 10
209.5501381866745
 20
167.9926129519342
 30
0.0
  0
SEQEND
  5
14C
330
149
100
AcDbEntity
  8
Layer 3
370
   106
  0
POLYLINE
  5
14D
330
1F
100
AcDbEntity
  8
Layer 3
 62
     4
370
   106
100
AcDb2dPolyline
 66
     1
 10
0.0
 20
0.0
 30
0.0
  0
VERTEX
  5
14E
330
14D
100
AcDbEntity
  8
Layer 3
 62
     4
370
   106
100
AcDbVertex
100
AcDb2dVertex
 10
210.7848612231279
 20
154.939826566569
 30
0.0
  0
VERTEX
  5
14F
330
14D
100
AcDbEntity
  8
Layer 3
 62
     4
370
   106
100
AcDbVertex
100
AcDb2dVertex
 10
222.6029245720397
 20
167.9926129519342
 30
0.0
  0
SEQEND
  5
150
330
14D
100
AcDbEntity
  8
Layer 3
370
   106
  0
POLYLINE
  5
151
330
1F
100
AcDbEntity
  8
Layer 3
 62
     4
370
   106
100
AcDb2dPolyline
 66
     1
 10
0.0
 20
0.0
 30
0.0
  0
VERTEX
  5
152
330
151
100
AcDbEntity
  8
Layer 3
 62
     4
370
   106
100
AcDbVertex
100
AcDb2dVertex
 10
224.0140366137008
 20
145.4148202853565
 30
0.0
  0
VERTEX
  5
153
330
151
100
AcDbEntity
  8
Layer 3
 62
     4
370
   106
100
AcDbVertex
100
AcDb2dVertex
 10
235.126543941782
 20
168.1690019571419
 30
0.0
  0
SEQEND
  5
154
330
151
100
AcDbEntity
  8
Layer 3
370
   106
  0
POLYLINE
  5
155
330
1F
100
AcDbEntity
  8
Layer 3
 62
     4
370
   106
100
AcDb2dPolyline
 66
     1
 10
0.0
 20
0.0
 30
0.0
  0
VERTEX
  5
156
330
155
100
AcDbEntity
  8
Layer 3
 62
     4
370
   106
100
AcDbVertex
100
AcDb2dVertex
 10
184.8556774576051
 20
144.5328752593183
 30
0.0
  0
VERTEX
  5
157
330
155
100
AcDbEntity
  8
Layer 3
 62
     4
370
   106
100
AcDbVertex
100
AcDb2dVertex
 10
235.126543941782
 20
116.8398014417191
 30
0.0
  0
SEQEND
  5
158
330
155
100
AcDbEntity
  8
Layer 3
370
   106
  0
POLYLINE
  5
159
330
1F
100
AcDbEntity
  8
Layer 3
 62
     4
370
   106
100
AcDb2dPolyline
 66
     1
 10
0.0
 20
0.0
 30
0.0
  0
VERTEX
  5
15A
330
159
100
AcDbEntity
  8
Layer 3
 62
     4
370
   106
100
AcDbVertex
100
AcDb2dVertex
 10
94.36811778608657
 20
149.1189893947169
 30
0.0
  0
VERTEX
  5
15B
330
159
100
AcDbEntity
  8
Layer 3
 62
     4
370
   106
100
AcDbVertex
100
AcDb2dVertex
 10
119.4153565255712
 20
167.9926129519342
 30
0.0
  0
SEQEND
  5
15C
330
159
100
AcDbEntity
  8
Layer 3
370
   106
  0
POLYLINE
  5
15D
330
1F
100
AcDbEntity
  8
Layer 3
 62
     4
370
   106
100
AcDb2dPolyline
 66
     1
 10
0.0
 20
0.0
 30
0.0
  0
VERTEX
  5
15E
330
15D
100
AcDbEntity
  8
Layer 3
 62
     4
370
   106
100
AcDbVertex
100
AcDb2dVertex
 10
56.09170365602903
 20
131.6564778791607
 30
0.0
  0
VERTEX
  5
15F
330
15D
100
AcDbEntity
  8
Layer 3
 62
     4
370
   106
100
AcDbVertex
100
AcDb2dVertex
 10
92.60422773401018
 20
168.1690019571419
 30
0.0
  0
SEQEND
  5
160
330
15D
100
AcDbEntity
  8
Layer 3
370
   106
  0
POLYLINE
  5
161
330
1F
100
AcDbEntity
  8
Layer 3
 62
     4
370
   106
100
AcDb2dPolyline
 66
     1
 10
0.0
 20
0.0
 30
0.0
  0
VERTEX
  5
162
330
161
100
AcDbEntity
  8
Layer 3
 62
     4
370
   106
100
AcDbVertex
100
AcDb2dVertex
 10
132.8209209213518
 20
147.1787103374329
 30
0.0
  0
VERTEX
  5
163
330
161
100
AcDbEntity
  8
Layer 3
 62
     4
370
   106
100
AcDbVertex
100
AcDb2dVertex
 10
157.3389926452135
 20
117.7217464677573
 30
0.0
  0
SEQEND
  5
164
330
161
100
AcDbEntity
  8
Layer 3
370
   106
  0
POLYLINE
  5
165
330
1F
100
AcDbEntity
  8
Layer 3
 62
     4
370
   106
100
AcDb2dPolyline
 66
     1
 10
0.0
 20
0.0
 30
0.0
  0
VERTEX
  5
166
330
165
100
AcDbEntity
  8
Layer 3
 62
     4
370
   106
100
AcDbVertex
100
AcDb2dVertex
 10
159.1028826972899
 20
147.0023213322253
 30
0.0
  0
VERTEX
  5
167
330
165
100
AcDbEntity
  8
Layer 3
 62
     4
370
   106
100
AcDbVertex
100
AcDb2dVertex
 10
183.2681764107363
 20
117.7217464677573
 30
0.0
  0
SEQEND
  5
168
330
165
100
AcDbEntity
  8
Layer 3
370
   106
  0
POLYLINE
  5
169
330
1F
100
AcDbEntity
  8
Layer 3
 62
     4
370
   106
100
AcDb2dPolyline
 66
     1
 10
0.0
 20
0.0
 30
0.0
  0
VERTEX
  5
16A
330
169
100
AcDbEntity
  8
Layer 3
 62
     4
370
   106
100
AcDbVertex
100
AcDb2dVertex
 10
120.2973015516094
 20
77.5050532804157
 30
0.0
  0
VERTEX
  5
16B
330
169
100
AcDbEntity
  8
Layer 3
 62
     4
370
   106
100
AcDbVertex
100
AcDb2dVertex
 10
143.0514832233948
 20
48.57725642636299
 30
0.0
  0
SEQEND
  5
16C
330
169
100
AcDbEntity
  8
Layer 3
370
   106
  0
POLYLINE
  5
16D
330
1F
100
AcDbEntity
  8
Layer 3
 62
     4
370
   106
100
AcDb2dPolyline
 66
     1
 10
0.0
 20
0.0
 30
0.0
  0
VERTEX
  5
16E
330
16D
100
AcDbEntity
  8
Layer 3
 62
     4
370
   106
100
AcDbVertex
100
AcDb2dVertex
 10
138.4653690879962
 20
48.57725642636299
 30
0.0
  0
VERTEX
  5
16F
330
16D
100
AcDbEntity
  8
Layer 3
 62
     4
370
   106
100
AcDbVertex
100
AcDb2dVertex
 10
158.0445486660441
 20
76.0939412387546
 30
0.0
  0
SEQEND
  5
170
330
16D
100
AcDbEntity
  8
Layer 3
370
   106
  0
POLYLINE
  5
171
330
1F
100
AcDbEntity
  8
Layer 3
 62
     4
370
   106
100
AcDb2dPolyline
 66
     1
 10
0.0
 20
0.0
 30
0.0
  0
VERTEX
  5
172
330
171
100
AcDbEntity
  8
Layer 3
 62
     4
370
   106
100
AcDbVertex
100
AcDb2dVertex
 10
183.6209544211516
 20
77.32866427520806
 30
0.0
  0
VERTEX
  5
173
330
171
100
AcDbEntity
  8
Layer 3
 62
     4
370
   106
100
AcDbVertex
100
AcDb2dVertex
 10
159.1028826972899
 20
48.57725642636299
 30
0.0
  0
SEQEND
  5
174
330
171
100
AcDbEntity
  8
Layer 3
370
   106
  0
POLYLINE
  5
175
330
1F
100
AcDbEntity
  8
Layer 3
 62
     4
370
   106
100
AcDb2dPolyline
 66
     1
 10
0.0
 20
0.0
 30
0.0
  0
VERTEX
  5
176
330
175
100
AcDbEntity
  8
Layer 3
 62
     4
370
   106
100
AcDbVertex
100
AcDb2dVertex
 10
209.1973601762592
 20
77.32866427520806
 30
0.0
  0
VERTEX
  5
177
330
175
100
AcDbEntity
  8
Layer 3
 62
     4
370
   106
100
AcDbVertex
100
AcDb2dVertex
 10
185.0320664628127
 20
48.75364543157063
 30
0.0
  0
SEQEND
  5
178
330
175
100
AcDbEntity
  8
Layer 3
370
   106
  0
POLYLINE
  5
179
330
1F
100
AcDbEntity
  8
Layer 3
 62
     4
370
   106
100
AcDb2dPolyline
 66
     1
 10
0.0
 20
0.0
 30
0.0
  0
VERTEX
  5
17A
330
179
100
AcDbEntity
  8
Layer 3
 62
     4
370
   106
100
AcDbVertex
100
AcDb2dVertex
 10
235.8320999626126
 20
78.73977631686917
 30
0.0
  0
VERTEX
  5
17B
330
179
100
AcDbEntity
  8
Layer 3
 62
     4
370
   106
100
AcDbVertex
100
AcDb2dVertex
 10
223.6612586032855
 20
64.80504490546573
 30
0.0
  0
SEQEND
  5
17C
330
179
100
AcDbEntity
  8
Layer 3
370
   106
  0
POLYLINE
  5
17D
330
1F
100
AcDbEntity
  8
Layer 3
 62
     4
370
   106
100
AcDb2dPolyline
 66
     1
 10
0.0
 20
0.0
 30
0.0
  0
VERTEX
  5
17E
330
17D
100
AcDbEntity
  8
Layer 3
 62
     4
370
   106
100
AcDbVertex
100
AcDb2dVertex
 10
235.4793219521973
 20
63.7467108742199
 30
0.0
  0
VERTEX
  5
17F
330
17D
100
AcDbEntity
  8
Layer 3
 62
     4
370
   106
100
AcDbVertex
100
AcDb2dVertex
 10
223.6612586032855
 20
48.75364543157063
 30
0.0
  0
SEQEND
  5
180
330
17D
100
AcDbEntity
  8
Layer 3
370
   106
  0
POLYLINE
  5
181
330
1F
100
AcDbEntity
  8
Layer 3
 62
     4
370
   106
100
AcDb2dPolyline
 66
     1
 10
0.0
 20
0.0
 30
0.0
  0
VERTEX
  5
182
330
181
100
AcDbEntity
  8
Layer 3
 62
     4
370
   106
100
AcDbVertex
100
AcDb2dVertex
 10
223.6612586032855
 20
47.16614438470189
 30
0.0
  0
VERTEX
  5
183
330
181
100
AcDbEntity
  8
Layer 3
 62
     4
370
   106
100
AcDbVertex
100
AcDb2dVertex
 10
235.3029329469897
 20
27.93974281706929
 30
0.0
  0
SEQEND
  5
184
330
181
100
AcDbEntity
  8
Layer 3
370
   106
  0
POLYLINE
  5
185
330
1F
100
AcDbEntity
  8
Layer 3
 62
     4
370
   106
100
AcDb2dPolyline
 66
     1
 10
0.0
 20
0.0
 30
0.0
  0
VERTEX
  5
186
330
185
100
AcDbEntity
  8
Layer 3
 62
     4
370
   106
100
AcDbVertex
100
AcDb2dVertex
 10
222.6029245720397
 20
40.46336218681162
 30
0.0
  0
VERTEX
  5
187
330
185
100
AcDbEntity
  8
Layer 3
 62
     4
370
   106
100
AcDbVertex
100
AcDb2dVertex
 10
210.7848612231279
 20
27.93974281706929
 30
0.0
  0
SEQEND
  5
188
330
185
100
AcDbEntity
  8
Layer 3
370
   106
  0
POLYLINE
  5
189
330
1F
100
AcDbEntity
  8
Layer 3
 62
     4
370
   106
100
AcDb2dPolyline
 66
     1
 10
0.0
 20
0.0
 30
0.0
  0
VERTEX
  5
18A
330
189
100
AcDbEntity
  8
Layer 3
 62
     4
370
   106
100
AcDbVertex
100
AcDb2dVertex
 10
209.5501381866745
 20
40.28697318160398
 30
0.0
  0
VERTEX
  5
18B
330
189
100
AcDbEntity
  8
Layer 3
 62
     4
370
   106
100
AcDbVertex
100
AcDb2dVertex
 10
197.9084638429703
 20
27.76335381186166
 30
0.0
  0
SEQEND
  5
18C
330
189
100
AcDbEntity
  8
Layer 3
370
   106
  0
POLYLINE
  5
18D
330
1F
100
AcDbEntity
  8
Layer 3
 62
     4
370
   106
100
AcDb2dPolyline
 66
     1
 10
0.0
 20
0.0
 30
0.0
  0
VERTEX
  5
18E
330
18D
100
AcDbEntity
  8
Layer 3
 62
     4
370
   106
100
AcDbVertex
100
AcDb2dVertex
 10
196.4973518013092
 20
40.28697318160398
 30
0.0
  0
VERTEX
  5
18F
330
18D
100
AcDbEntity
  8
Layer 3
 62
     4
370
   106
100
AcDbVertex
100
AcDb2dVertex
 10
185.0320664628127
 20
27.58696480665402
 30
0.0
  0
SEQEND
  5
190
330
18D
100
AcDbEntity
  8
Layer 3
370
   106
  0
POLYLINE
  5
191
330
1F
100
AcDbEntity
  8
Layer 3
 62
     4
370
   106
100
AcDb2dPolyline
 66
     1
 10
0.0
 20
0.0
 30
0.0
  0
VERTEX
  5
192
330
191
100
AcDbEntity
  8
Layer 3
 62
     4
370
   106
100
AcDbVertex
100
AcDb2dVertex
 10
183.7973434263593
 20
40.46336218681162
 30
0.0
  0
VERTEX
  5
193
330
191
100
AcDbEntity
  8
Layer 3
 62
     4
370
   106
100
AcDbVertex
100
AcDb2dVertex
 10
172.1556690826551
 20
27.58696480665402
 30
0.0
  0
SEQEND
  5
194
330
191
100
AcDbEntity
  8
Layer 3
370
   106
  0
POLYLINE
  5
195
330
1F
100
AcDbEntity
  8
Layer 3
 62
     4
370
   106
100
AcDb2dPolyline
 66
     1
 10
0.0
 20
0.0
 30
0.0
  0
VERTEX
  5
196
330
195
100
AcDbEntity
  8
Layer 3
 62
     4
370
   106
100
AcDbVertex
100
AcDb2dVertex
 10
170.744557040994
 20
40.28697318160398
 30
0.0
  0
VERTEX
  5
197
330
195
100
AcDbEntity
  8
Layer 3
 62
     4
370
   106
100
AcDbVertex
100
AcDb2dVertex
 10
159.2792717024975
 20
27.58696480665402
 30
0.0
  0
SEQEND
  5
198
330
195
100
AcDbEntity
  8
Layer 3
370
   106
  0
POLYLINE
  5
199
330
1F
100
AcDbEntity
  8
Layer 3
 62
     4
370
   106
100
AcDb2dPolyline
 66
     1
 10
0.0
 20
0.0
 30
0.0
  0
VERTEX
  5
19A
330
199
100
AcDbEntity
  8
Layer 3
 62
     4
370
   106
100
AcDbVertex
100
AcDb2dVertex
 10
157.8681596608364
 20
40.28697318160398
 30
0.0
  0
VERTEX
  5
19B
330
199
100
AcDbEntity
  8
Layer 3
 62
     4
370
   106
100
AcDbVertex
100
AcDb2dVertex
 10
146.4028743223399
 20
27.76335381186166
 30
0.0
  0
SEQEND
  5
19C
330
199
100
AcDbEntity
  8
Layer 3
370
   106
  0
POLYLINE
  5
19D
330
1F
100
AcDbEntity
  8
Layer 3
 62
     4
370
   106
100
AcDb2dPolyline
 66
     1
 10
0.0
 20
0.0
 30
0.0
  0
VERTEX
  5
19E
330
19D
100
AcDbEntity
  8
Layer 3
 62
     4
370
   106
100
AcDbVertex
100
AcDb2dVertex
 10
144.9917622806788
 20
40.11058417639634
 30
0.0
  0
VERTEX
  5
19F
330
19D
100
AcDbEntity
  8
Layer 3
 62
     4
370
   106
100
AcDbVertex
100
AcDb2dVertex
 10
133.3500879369747
 20
27.76335381186166
 30
0.0
  0
SEQEND
  5
1A0
330
19D
100
AcDbEntity
  8
Layer 3
370
   106
  0
POLYLINE
  5
1A1
330
1F
100
AcDbEntity
  8
Layer 3
 62
     4
370
   106
100
AcDb2dPolyline
 66
     1
 10
0.0
 20
0.0
 30
0.0
  0
VERTEX
  5
1A2
330
1A1
100
AcDbEntity
  8
Layer 3
 62
     4
370
   106
100
AcDbVertex
100
AcDb2dVertex
 10
132.2917539057288
 20
40.28697318160398
 30
0.0
  0
VERTEX
  5
1A3
330
1A1
100
AcDbEntity
  8
Layer 3
 62
     4
370
   106
100
AcDbVertex
100
AcDb2dVertex
 10
120.4736905568171
 20
27.76335381186166
 30
0.0
  0
SEQEND
  5
1A4
330
1A1
100
AcDbEntity
  8
Layer 3
370
   106
  0
POLYLINE
  5
1A5
330
1F
100
AcDbEntity
  8
Layer 3
 62
     4
370
   106
100
AcDb2dPolyline
 66
     1
 10
0.0
 20
0.0
 30
0.0
  0
VERTEX
  5
1A6
330
1A5
100
AcDbEntity
  8
Layer 3
 62
     4
370
   106
100
AcDbVertex
100
AcDb2dVertex
 10
119.2389675203636
 20
40.11058417639634
 30
0.0
  0
VERTEX
  5
1A7
330
1A5
100
AcDbEntity
  8
Layer 3
 62
     4
370
   106
100
AcDbVertex
100
AcDb2dVertex
 10
94.54450679129421
 20
27.23418679623874
 30
0.0
  0
SEQEND
  5
1A8
330
1A5
100
AcDbEntity
  8
Layer 3
370
   106
  0
POLYLINE
  5
1A9
330
1F
100
AcDbEntity
  8
Layer 3
 62
     4
370
   106
100
AcDb2dPolyline
 66
     1
 10
0.0
 20
0.0
 30
0.0
  0
VERTEX
  5
1AA
330
1A9
100
AcDbEntity
  8
Layer 3
 62
     4
370
   106
100
AcDbVertex
100
AcDb2dVertex
 10
93.30978375484074
 20
40.11058417639634
 30
0.0
  0
VERTEX
  5
1AB
330
1A9
100
AcDbEntity
  8
Layer 3
 62
     4
370
   106
100
AcDbVertex
100
AcDb2dVertex
 10
81.49172040592896
 20
27.58696480665402
 30
0.0
  0
SEQEND
  5
1AC
330
1A9
100
AcDbEntity
  8
Layer 3
370
   106
  0
POLYLINE
  5
1AD
330
1F
100
AcDbEntity
  8
Layer 3
 62
     4
370
   106
100
AcDb2dPolyline
 66
     1
 10
0.0
 20
0.0
 30
0.0
  0
VERTEX
  5
1AE
330
1AD
100
AcDbEntity
  8
Layer 3
 62
     4
370
   106
100
AcDbVertex
100
AcDb2dVertex
 10
80.2569973694755
 20
36.58280407224358
 30
0.0
  0
VERTEX
  5
1AF
330
1AD
100
AcDbEntity
  8
Layer 3
 62
     4
370
   106
100
AcDbVertex
100
AcDb2dVertex
 10
64.38198690078804
 20
27.58696480665402
 30
0.0
  0
SEQEND
  5
1B0
330
1AD
100
AcDbEntity
  8
Layer 3
370
   106
  0
POLYLINE
  5
1B1
330
1F
100
AcDbEntity
  8
Layer 3
 62
     4
370
   106
100
AcDb2dPolyline
 66
     1
 10
0.0
 20
0.0
 30
0.0
  0
VERTEX
  5
1B2
330
1B1
100
AcDbEntity
  8
Layer 3
 62
     4
370
   106
100
AcDbVertex
100
AcDb2dVertex
 10
67.20421098411025
 20
27.23418679623874
 30
0.0
  0
VERTEX
  5
1B3
330
1B1
100
AcDbEntity
  8
Layer 3
 62
     4
370
   106
100
AcDbVertex
100
AcDb2dVertex
 10
55.91531465082139
 20
47.51892239511716
 30
0.0
  0
SEQEND
  5
1B4
330
1B1
100
AcDbEntity
  8
Layer 3
370
   106
  0
POLYLINE
  5
1B5
330
1F
100
AcDbEntity
  8
Layer 3
 62
     4
370
   106
100
AcDb2dPolyline
 66
     1
 10
0.0
 20
0.0
 30
0.0
  0
VERTEX
  5
1B6
330
1B5
100
AcDbEntity
  8
Layer 3
 62
     4
370
   106
100
AcDbVertex
100
AcDb2dVertex
 10
80.43338637468314
 20
48.22447841594771
 30
0.0
  0
VERTEX
  5
1B7
330
1B5
100
AcDbEntity
  8
Layer 3
 62
     4
370
   106
100
AcDbVertex
100
AcDb2dVertex
 10
55.56253664040611
 20
63.7467108742199
 30
0.0
  0
SEQEND
  5
1B8
330
1B5
100
AcDbEntity
  8
Layer 3
370
   106
  0
POLYLINE
  5
1B9
330
1F
100
AcDbEntity
  8
Layer 3
 62
     4
370
   106
100
AcDb2dPolyline
 66
     1
 10
0.0
 20
0.0
 30
0.0
  0
VERTEX
  5
1BA
330
1B9
100
AcDbEntity
  8
Layer 3
 62
     4
370
   106
100
AcDbVertex
100
AcDb2dVertex
 10
99.83617694752336
 20
78.73977631686917
 30
0.0
  0
VERTEX
  5
1BB
330
1B9
100
AcDbEntity
  8
Layer 3
 62
     4
370
   106
100
AcDbVertex
100
AcDb2dVertex
 10
62.61809684871165
 20
99.5536789313705
 30
0.0
  0
SEQEND
  5
1BC
330
1B9
100
AcDbEntity
  8
Layer 3
370
   106
  0
POLYLINE
  5
1BD
330
1F
100
AcDbEntity
  8
Layer 3
 62
     4
370
   106
100
AcDb2dPolyline
 66
     1
 10
0.0
 20
0.0
 30
0.0
  0
VERTEX
  5
1BE
330
1BD
100
AcDbEntity
  8
Layer 3
 62
     4
370
   106
100
AcDbVertex
100
AcDb2dVertex
 10
62.26531883829637
 20
96.02589882721773
 30
0.0
  0
VERTEX
  5
1BF
330
1BD
100
AcDbEntity
  8
Layer 3
 62
     4
370
   106
100
AcDbVertex
100
AcDb2dVertex
 10
100.5417329683539
 20
116.4870234313038
 30
0.0
  0
SEQEND
  5
1C0
330
1BD
100
AcDbEntity
  8
Layer 3
370
   106
  0
POLYLINE
  5
1C1
330
1F
100
AcDbEntity
  8
Layer 3
 62
     4
370
   106
100
AcDb2dPolyline
 66
     1
 10
0.0
 20
0.0
 30
0.0
  0
VERTEX
  5
1C2
330
1C1
100
AcDbEntity
  8
Layer 3
 62
     4
370
   106
100
AcDbVertex
100
AcDb2dVertex
 10
140.7584261556955
 20
81.91477841060666
 30
0.0
  0
VERTEX
  5
1C3
330
1C1
100
AcDbEntity
  8
Layer 3
 62
     4
370
   106
100
AcDbVertex
100
AcDb2dVertex
 10
140.7584261556955
 20
98.67173390533232
 30
0.0
  0
SEQEND
  5
1C4
330
1C1
100
AcDbEntity
  8
Layer 3
370
   106
  0
POLYLINE
  5
1C5
330
1F
100
AcDbEntity
  8
Layer 3
 62
     4
370
   106
100
AcDb2dPolyline
 66
     1
 10
0.0
 20
0.0
 30
0.0
  0
VERTEX
  5
1C6
330
1C5
100
AcDbEntity
  8
Layer 3
 62
     4
370
   106
100
AcDbVertex
100
AcDb2dVertex
 10
143.5806502390177
 20
96.73145484804829
 30
0.0
  0
VERTEX
  5
1C7
330
1C5
100
AcDbEntity
  8
Layer 3
 62
     4
370
   106
100
AcDbVertex
100
AcDb2dVertex
 10
143.5806502390177
 20
112.2536873063205
 30
0.0
  0
SEQEND
  5
1C8
330
1C5
100
AcDbEntity
  8
Layer 3
370
   106
  0
POLYLINE
  5
1C9
330
1F
100
AcDbEntity
  8
Layer 3
 62
     4
370
   106
100
AcDb2dPolyline
 66
     1
 10
0.0
 20
0.0
 30
0.0
  0
VERTEX
  5
1CA
330
1C9
100
AcDbEntity
  8
Layer 3
 62
     4
370
   106
100
AcDbVertex
100
AcDb2dVertex
 10
137.2306460515427
 20
96.55506584284065
 30
0.0
  0
VERTEX
  5
1CB
330
1C9
100
AcDbEntity
  8
Layer 3
 62
     4
370
   106
100
AcDbVertex
100
AcDb2dVertex
 10
135.9959230150892
 20
110.8425752646594
 30
0.0
  0
SEQEND
  5
1CC
330
1C9
100
AcDbEntity
  8
Layer 3
370
   106
  0
ENDSEC
  0
SECTION
  2
OBJECTS
  0
DICTIONARY
  5
C
330
0
100
AcDbDictionary
281
     1
  3
ACAD_GROUP
350
D
  3
ACAD_LAYOUT
350
1A
  3
ACAD_MLINESTYLE
350
17
  3
ACAD_PLOTSETTINGS
350
19
  3
ACAD_PLOTSTYLENAME
350
E
  3
ACAD_TABLESTYLE
350
1CD
  3
ACAD_VISUALSTYLE
350
2A
  0
DICTIONARY
  5
D
102
{ACAD_REACTORS
330
C
102
}
330
C
100
AcDbDictionary
281
     1
  0
DICTIONARY
  5
1A
102
{ACAD_REACTORS
330
C
102
}
330
C
100
AcDbDictionary
281
     1
  3
Layout1
350
1E
  3
Layout2
350
26
  3
Model
350
22
  0
DICTIONARY
  5
17
102
{ACAD_REACTORS
330
C
102
}
330
C
100
AcDbDictionary
281
     1
  3
Standard
350
18
  0
DICTIONARY
  5
19
102
{ACAD_REACTORS
330
C
102
}
330
C
100
AcDbDictionary
281
     1
  0
ACDBDICTIONARYWDFLT
  5
E
102
{ACAD_REACTORS
330
C
102
}
330
C
100
AcDbDictionary
281
     1
  3
Normal
350
F
100
AcDbDictionaryWithDefault
340
F
  0
DICTIONARY
  5
1CD
102
{ACAD_REACTORS
330
C
102
}
330
C
100
AcDbDictionary
281
     1
  0
DICTIONARY
  5
2A
102
{ACAD_REACTORS
330
C
102
}
330
C
100
AcDbDictionary
281
     1
  3
2dWireframe
350
2F
  3
3D Hidden
350
31
  3
3dWireframe
350
30
  3
Basic
350
32
  3
Brighten
350
36
  3
ColorChange
350
3A
  3
Conceptual
350
34
  3
Dim
350
35
  3
Facepattern
350
39
  3
Flat
350
2B
  3
FlatWithEdges
350
2C
  3
Gouraud
350
2D
  3
GouraudWithEdges
350
2E
  3
Linepattern
350
38
  3
Realistic
350
33
  3
Thicken
350
37
  0
LAYOUT
  5
1E
102
{ACAD_REACTORS
330
1A
102
}
330
1A
100
AcDbPlotSettings
  1

  2
none_device
  4

  6

 40
0.0
 41
0.0
 42
0.0
 43
0.0
 44
0.0
 45
0.0
 46
0.0
 47
0.0
 48
0.0
 49
0.0
140
0.0
141
0.0
142
1.0
143
1.0
 70
   688
 72
     0
 73
     0
 74
     5
  7

 75
    16
147
1.0
148
0.0
149
0.0
100
AcDbLayout
  1
Layout1
 70
     1
 71
     1
 10
0.0
 20
0.0
 11
12.0
 21
9.0
 12
0.0
 22
0.0
 32
0.0
 14
1.000000000000000E+20
 24
1.000000000000000E+20
 34
1.000000000000000E+20
 15
-1.000000000000000E+20
 25
-1.000000000000000E+20
 35
-1.000000000000000E+20
146
0.0
 13
0.0
 23
0.0
 33
0.0
 16
1.0
 26
0.0
 36
0.0
 17
0.0
 27
1.0
 37
0.0
 76
     0
330
1B
  0
LAYOUT
  5
26
102
{ACAD_REACTORS
330
1A
102
}
330
1A
100
AcDbPlotSettings
  1

  2
none_device
  4

  6

 40
0.0
 41
0.0
 42
0.0
 43
0.0
 44
0.0
 45
0.0
 46
0.0
 47
0.0
 48
0.0
 49
0.0
140
0.0
141
0.0
142
1.0
143
1.0
 70
   688
 72
     0
 73
     0
 74
     5
  7

 75
    16
147
1.0
148
0.0
149
0.0
100
AcDbLayout
  1
Layout2
 70
     1
 71
     2
 10
0.0
 20
0.0
 11
0.0
 21
0.0
 12
0.0
 22
0.0
 32
0.0
 14
0.0
 24
0.0
 34
0.0
 15
0.0
 25
0.0
 35
0.0
146
0.0
 13
0.0
 23
0.0
 33
0.0
 16
1.0
 26
0.0
 36
0.0
 17
0.0
 27
1.0
 37
0.0
 76
     0
330
23
  0
LAYOUT
  5
22
102
{ACAD_REACTORS
330
1A
102
}
330
1A
100
AcDbPlotSettings
  1

  2
none_device
  4

  6

 40
0.0
 41
0.0
 42
0.0
 43
0.0
 44
0.0
 45
0.0
 46
0.0
 47
0.0
 48
0.0
 49
0.0
140
0.0
141
0.0
142
1.0
143
1.0
 70
  1712
 72
     0
 73
     0
 74
     0
  7

 75
     0
147
1.0
148
0.0
149
0.0
100
AcDbLayout
  1
Model
 70
     1
 71
     0
 10
0.0
 20
0.0
 11
12.0
 21
9.0
 12
0.0
 22
0.0
 32
0.0
 14
1.000000000000000E+20
 24
1.000000000000000E+20
 34
1.000000000000000E+20
 15
-1.000000000000000E+20
 25
-1.000000000000000E+20
 35
-1.000000000000000E+20
146
0.0
 13
0.0
 23
0.0
 33
0.0
 16
1.0
 26
0.0
 36
0.0
 17
0.0
 27
1.0
 37
0.0
 76
     0
330
1F
331
29
  0
MLINESTYLE
  5
18
102
{ACAD_REACTORS
330
17
102
}
330
17
100
AcDbMlineStyle
  2
Standard
 70
     0
  3

 62
   256
 51
90.0
 52
90.0
 71
     2
 49
0.5
 62
   256
  6
BYLAYER
 49
-0.5
 62
   256
  6
BYLAYER
  0
ACDBPLACEHOLDER
  5
F
102
{ACAD_REACTORS
330
E
102
}
330
E
  0
VISUALSTYLE
  5
2F
102
{ACAD_REACTORS
330
2A
102
}
330
2A
100
AcDbVisualStyle
  2
2dWireframe
 70
     4
 71
     0
 72
     2
 73
     0
 90
        0
 40
-0.6
 41
-30.0
 62
     5
 63
     7
 74
     1
 91
        4
 64
     7
 65
   257
 75
     1
175
     1
 42
1.0
 92
        0
 66
   257
 43
1.0
 76
     1
 77
     6
 78
     2
 67
     7
 79
     5
170
     0
171
     0
290
     0
174
     0
 93
        1
 44
0.0
173
     0
291
     0
 45
0.0
1001
ACAD
1000
AcDbSavedByObjectVersion
1070
     0
  0
VISUALSTYLE
  5
31
102
{ACAD_REACTORS
330
2A
102
}
330
2A
100
AcDbVisualStyle
  2
3D Hidden
 70
     6
 71
     1
 72
     2
 73
     2
 90
        0
 40
-0.6
 41
-30.0
 62
     5
 63
     7
 74
     2
 91
        2
 64
     7
 65
   257
 75
     2
175
     1
 42
40.0
 92
        0
 66
   257
 43
1.0
 76
     1
 77
     6
 78
     2
 67
     7
 79
     3
170
     0
171
     0
290
     0
174
     0
 93
        1
 44
0.0
173
     0
291
     0
 45
0.0
1001
ACAD
1000
AcDbSavedByObjectVersion
1070
     0
  0
VISUALSTYLE
  5
30
102
{ACAD_REACTORS
330
2A
102
}
330
2A
100
AcDbVisualStyle
  2
3dWireframe
 70
     5
 71
     0
 72
     2
 73
     0
 90
        0
 40
-0.6
 41
-30.0
 62
     5
 63
     7
 74
     1
 91
        4
 64
     7
 65
   257
 75
     1
175
     1
 42
1.0
 92
        0
 66
   257
 43
1.0
 76
     1
 77
     6
 78
     2
 67
     7
 79
     5
170
     0
171
     0
290
     0
174
     0
 93
        1
 44
0.0
173
     0
291
     0
 45
0.0
1001
ACAD
1000
AcDbSavedByObjectVersion
1070
     0
  0
VISUALSTYLE
  5
32
102
{ACAD_REACTORS
330
2A
102
}
330
2A
100
AcDbVisualStyle
  2
Basic
 70
     7
 71
     1
 72
     0
 73
     1
 90
        0
 40
-0.6
 41
-30.0
 62
     5
 63
     7
 74
     0
 91
        4
 64
     7
 65
   257
 75
     1
175
     1
 42
1.0
 92
        8
 66
     7
 43
1.0
 76
     1
 77
     6
 78
     2
 67
     7
 79
     5
170
     0
171
     0
290
     0
174
     0
 93
        1
 44
0.0
173
     0
291
     1
 45
0.0
1001
ACAD
1000
AcDbSavedByObjectVersion
1070
     0
  0
VISUALSTYLE
  5
36
102
{ACAD_REACTORS
330
2A
102
}
330
2A
100
AcDbVisualStyle
  2
Brighten
 70
    12
 71
     2
 72
     2
 73
     0
 90
        0
 40
-0.6
 41
-30.0
 62
     5
 63
     7
 74
     1
 91
        4
 64
     7
 65
   257
 75
     1
175
     1
 42
1.0
 92
        8
 66
     7
 43
1.0
 76
     1
 77
     6
 78
     2
 67
     7
 79
     5
170
     0
171
     0
290
     0
174
     0
 93
        1
 44
50.0
173
     0
291
     1
 45
0.0
1001
ACAD
1000
AcDbSavedByObjectVersion
1070
     0
  0
VISUALSTYLE
  5
3A
102
{ACAD_REACTORS
330
2A
102
}
330
2A
100
AcDbVisualStyle
  2
ColorChange
 70
    16
 71
     2
 72
     2
 73
     3
 90
        0
 40
-0.6
 41
-30.0
 62
     5
 63
     8
 74
     1
 91
        4
 64
     7
 65
   257
 75
     1
175
     1
 42
1.0
 92
        8
 66
     8
 43
1.0
 76
     1
 77
     6
 78
     2
 67
     7
 79
     5
170
     0
171
     0
290
     0
174
     0
 93
        1
 44
0.0
173
     0
291
     1
 45
0.0
1001
ACAD
1000
AcDbSavedByObjectVersion
1070
     0
  0
VISUALSTYLE
  5
34
102
{ACAD_REACTORS
330
2A
102
}
330
2A
100
AcDbVisualStyle
  2
Conceptual
 70
     9
 71
     3
 72
     2
 73
     0
 90
        0
 40
-0.6
 41
-30.0
 62
     5
 63
     7
 74
     2
 91
        2
 64
     7
 65
   257
 75
     1
175
     1
 42
40.0
 92
        8
 66
     7
 43
1.0
 76
     1
 77
     6
 78
     2
 67
     7
 79
     3
170
     0
171
     0
290
     0
174
     0
 93
        1
 44
0.0
173
     0
291
     0
 45
0.0
1001
ACAD
1000
AcDbSavedByObjectVersion
1070
     0
  0
VISUALSTYLE
  5
35
102
{ACAD_REACTORS
330
2A
102
}
330
2A
100
AcDbVisualStyle
  2
Dim
 70
    11
 71
     2
 72
     2
 73
     0
 90
        0
 40
-0.6
 41
-30.0
 62
     5
 63
     7
 74
     1
 91
        4
 64
     7
 65
   257
 75
     1
175
     1
 42
1.0
 92
        8
 66
     7
 43
1.0
 76
     1
 77
     6
 78
     2
 67
     7
 79
     5
170
     0
171
     0
290
     0
174
     0
 93
        1
 44
-50.0
173
     0
291
     1
 45
0.0
1001
ACAD
1000
AcDbSavedByObjectVersion
1070
     0
  0
VISUALSTYLE
  5
39
102
{ACAD_REACTORS
330
2A
102
}
330
2A
100
AcDbVisualStyle
  2
Facepattern
 70
    15
 71
     2
 72
     2
 73
     0
 90
        0
 40
-0.6
 41
-30.0
 62
     5
 63
     7
 74
     1
 91
        4
 64
     7
 65
   257
 75
     1
175
     1
 42
1.0
 92
        8
 66
     7
 43
1.0
 76
     1
 77
     6
 78
     2
 67
     7
 79
     5
170
     0
171
     0
290
     0
174
     0
 93
        1
 44
0.0
173
     0
291
     1
 45
0.0
1001
ACAD
1000
AcDbSavedByObjectVersion
1070
     0
  0
VISUALSTYLE
  5
2B
102
{ACAD_REACTORS
330
2A
102
}
330
2A
100
AcDbVisualStyle
  2
Flat
 70
     0
 71
     2
 72
     1
 73
     1
 90
        2
 40
-0.6
 41
30.0
 62
     5
 63
     7
 74
     0
 91
        4
 64
     7
 65
   257
 75
     1
175
     1
 42
1.0
 92
        8
 66
     7
 43
1.0
 76
     1
 77
     6
 78
     2
 67
     7
 79
     5
170
     0
171
     0
290
     0
174
     0
 93
       13
 44
0.0
173
     0
291
     1
 45
0.0
1001
ACAD
1000
AcDbSavedByObjectVersion
1070
     0
  0
VISUALSTYLE
  5
2C
102
{ACAD_REACTORS
330
2A
102
}
330
2A
100
AcDbVisualStyle
  2
FlatWithEdges
 70
     1
 71
     2
 72
     1
 73
     1
 90
        2
 40
-0.6
 41
30.0
 62
     5
 63
     7
 74
     1
 91
        4
 64
     7
 65
   257
 75
     1
175
     1
 42
1.0
 92
        0
 66
   257
 43
1.0
 76
     1
 77
     6
 78
     2
 67
     7
 79
     5
170
     0
171
     0
290
     0
174
     0
 93
       13
 44
0.0
173
     0
291
     1
 45
0.0
1001
ACAD
1000
AcDbSavedByObjectVersion
1070
     0
  0
VISUALSTYLE
  5
2D
102
{ACAD_REACTORS
330
2A
102
}
330
2A
100
AcDbVisualStyle
  2
Gouraud
 70
     2
 71
     2
 72
     2
 73
     1
 90
        2
 40
-0.6
 41
30.0
 62
     5
 63
     7
 74
     0
 91
        4
 64
     7
 65
   257
 75
     1
175
     1
 42
1.0
 92
        0
 66
     7
 43
1.0
 76
     1
 77
     6
 78
     2
 67
     7
 79
     5
170
     0
171
     0
290
     0
174
     0
 93
       13
 44
0.0
173
     0
291
     1
 45
0.0
1001
ACAD
1000
AcDbSavedByObjectVersion
1070
     0
  0
VISUALSTYLE
  5
2E
102
{ACAD_REACTORS
330
2A
102
}
330
2A
100
AcDbVisualStyle
  2
GouraudWithEdges
 70
     3
 71
     2
 72
     2
 73
     1
 90
        2
 40
-0.6
 41
30.0
 62
     5
 63
     7
 74
     1
 91
        4
 64
     7
 65
   257
 75
     1
175
     1
 42
1.0
 92
        0
 66
   257
 43
1.0
 76
     1
 77
     6
 78
     2
 67
     7
 79
     5
170
     0
171
     0
290
     0
174
     0
 93
       13
 44
0.0
173
     0
291
     1
 45
0.0
1001
ACAD
1000
AcDbSavedByObjectVersion
1070
     0
  0
VISUALSTYLE
  5
38
102
{ACAD_REACTORS
330
2A
102
}
330
2A
100
AcDbVisualStyle
  2
Linepattern
 70
    14
 71
     2
 72
     2
 73
     0
 90
        0
 40
-0.6
 41
-30.0
 62
     5
 63
     7
 74
     1
 91
        4
 64
     7
 65
   257
 75
     7
175
     7
 42
1.0
 92
        8
 66
     7
 43
1.0
 76
     1
 77
     6
 78
     2
 67
     7
 79
     5
170
     0
171
     0
290
     0
174
     0
 93
        1
 44
0.0
173
     0
291
     1
 45
0.0
1001
ACAD
1000
AcDbSavedByObjectVersion
1070
     0
  0
VISUALSTYLE
  5
33
102
{ACAD_REACTORS
330
2A
102
}
330
2A
100
AcDbVisualStyle
  2
Realistic
 70
     8
 71
     2
 72
     2
 73
     0
 90
        0
 40
-0.6
 41
-30.0
 62
     5
 63
     7
 74
     1
 91
        0
 64
     7
 65
   257
 75
     1
175
     1
 42
1.0
 92
        8
 66
     8
 43
1.0
 76
     1
 77
     6
 78
     2
 67
     7
 79
     5
170
     0
171
     0
290
     0
174
     0
 93
       13
 44
0.0
173
     0
291
     0
 45
0.0
1001
ACAD
1000
AcDbSavedByObjectVersion
1070
     0
  0
VISUALSTYLE
  5
37
102
{ACAD_REACTORS
330
2A
102
}
330
2A
100
AcDbVisualStyle
  2
Thicken
 70
    13
 71
     2
 72
     2
 73
     0
 90
        0
 40
-0.6
 41
-30.0
 62
     5
 63
     7
 74
     1
 91
        4
 64
     7
 65
   257
 75
     1
175
     1
 42
1.0
 92
       12
 66
     7
 43
1.0
 76
     1
 77
     6
 78
     2
 67
     7
 79
     5
170
     0
171
     0
290
     0
174
     0
 93
        1
 44
0.0
173
     0
291
     1
 45
0.0
1001
ACAD
1000
AcDbSavedByObjectVersion
1070
     0
  0
ENDSEC
  0
EOF
